G75*
G70*
%OFA0B0*%
%FSLAX24Y24*%
%IPPOS*%
%LPD*%
%AMOC8*
5,1,8,0,0,1.08239X$1,22.5*
%
%ADD10C,0.1300*%
%ADD11C,0.0740*%
%ADD12C,0.0600*%
%ADD13C,0.0023*%
%ADD14C,0.0020*%
%ADD15C,0.0020*%
%ADD16C,0.0315*%
%ADD17C,0.0024*%
%ADD18C,0.0022*%
%ADD19C,0.1000*%
%ADD20C,0.0119*%
%ADD21C,0.0020*%
%ADD22C,0.0023*%
%ADD23C,0.0024*%
%ADD24C,0.0025*%
%ADD25C,0.0434*%
%ADD26C,0.0021*%
%ADD27C,0.0018*%
%ADD28C,0.0780*%
%ADD29C,0.0023*%
%ADD30C,0.0019*%
%ADD31C,0.0500*%
%ADD32C,0.1140*%
D10*
X004595Y013400D03*
X023850Y002300D03*
D11*
X024450Y004150D03*
X023450Y005150D03*
X022450Y005150D03*
X021450Y005150D03*
X021450Y006150D03*
X022450Y006150D03*
X023450Y006150D03*
X025450Y008150D03*
X026450Y008150D03*
X026450Y009150D03*
X025450Y009150D03*
X025450Y010150D03*
X026450Y010150D03*
X026450Y011150D03*
X025450Y011150D03*
X022450Y011150D03*
X021450Y011150D03*
X020450Y011150D03*
X019450Y011150D03*
X019450Y012150D03*
X020450Y012150D03*
X021450Y012150D03*
X022450Y012150D03*
X011450Y012150D03*
X010450Y012150D03*
X009450Y012150D03*
X008450Y012150D03*
X007450Y012150D03*
X006450Y012150D03*
X006450Y011150D03*
X007450Y011150D03*
X008450Y011150D03*
X009450Y011150D03*
X010450Y011150D03*
X011450Y011150D03*
X022450Y004150D03*
D12*
X021450Y003290D02*
X021450Y003010D01*
X020450Y003010D02*
X020450Y003290D01*
X019450Y003290D02*
X019450Y003010D01*
X019450Y002290D02*
X019450Y002010D01*
X020450Y002010D02*
X020450Y002290D01*
X021450Y002290D02*
X021450Y002010D01*
X018450Y002010D02*
X018450Y002290D01*
X017450Y002290D02*
X017450Y002010D01*
X016450Y002010D02*
X016450Y002290D01*
X015450Y002290D02*
X015450Y002010D01*
X014450Y002010D02*
X014450Y002290D01*
X014450Y003010D02*
X014450Y003290D01*
X015450Y003290D02*
X015450Y003010D01*
X016450Y003010D02*
X016450Y003290D01*
X017450Y003290D02*
X017450Y003010D01*
X018450Y003010D02*
X018450Y003290D01*
X011450Y013010D02*
X011450Y013290D01*
X010450Y013290D02*
X010450Y013010D01*
X009450Y013010D02*
X009450Y013290D01*
X008450Y013290D02*
X008450Y013010D01*
X007450Y013010D02*
X007450Y013290D01*
X006450Y013290D02*
X006450Y013010D01*
D13*
X013341Y011379D02*
X013771Y011379D01*
X013341Y011379D02*
X013341Y011821D01*
X013771Y011821D01*
X013771Y011379D01*
X013771Y011401D02*
X013341Y011401D01*
X013341Y011423D02*
X013771Y011423D01*
X013771Y011445D02*
X013341Y011445D01*
X013341Y011467D02*
X013771Y011467D01*
X013771Y011489D02*
X013341Y011489D01*
X013341Y011511D02*
X013771Y011511D01*
X013771Y011533D02*
X013341Y011533D01*
X013341Y011555D02*
X013771Y011555D01*
X013771Y011577D02*
X013341Y011577D01*
X013341Y011599D02*
X013771Y011599D01*
X013771Y011621D02*
X013341Y011621D01*
X013341Y011643D02*
X013771Y011643D01*
X013771Y011665D02*
X013341Y011665D01*
X013341Y011687D02*
X013771Y011687D01*
X013771Y011709D02*
X013341Y011709D01*
X013341Y011731D02*
X013771Y011731D01*
X013771Y011753D02*
X013341Y011753D01*
X013341Y011775D02*
X013771Y011775D01*
X013771Y011797D02*
X013341Y011797D01*
X013341Y011819D02*
X013771Y011819D01*
X014029Y011379D02*
X014459Y011379D01*
X014029Y011379D02*
X014029Y011821D01*
X014459Y011821D01*
X014459Y011379D01*
X014459Y011401D02*
X014029Y011401D01*
X014029Y011423D02*
X014459Y011423D01*
X014459Y011445D02*
X014029Y011445D01*
X014029Y011467D02*
X014459Y011467D01*
X014459Y011489D02*
X014029Y011489D01*
X014029Y011511D02*
X014459Y011511D01*
X014459Y011533D02*
X014029Y011533D01*
X014029Y011555D02*
X014459Y011555D01*
X014459Y011577D02*
X014029Y011577D01*
X014029Y011599D02*
X014459Y011599D01*
X014459Y011621D02*
X014029Y011621D01*
X014029Y011643D02*
X014459Y011643D01*
X014459Y011665D02*
X014029Y011665D01*
X014029Y011687D02*
X014459Y011687D01*
X014459Y011709D02*
X014029Y011709D01*
X014029Y011731D02*
X014459Y011731D01*
X014459Y011753D02*
X014029Y011753D01*
X014029Y011775D02*
X014459Y011775D01*
X014459Y011797D02*
X014029Y011797D01*
X014029Y011819D02*
X014459Y011819D01*
X012329Y002809D02*
X012329Y002379D01*
X012329Y002809D02*
X012771Y002809D01*
X012771Y002379D01*
X012329Y002379D01*
X012329Y002401D02*
X012771Y002401D01*
X012771Y002423D02*
X012329Y002423D01*
X012329Y002445D02*
X012771Y002445D01*
X012771Y002467D02*
X012329Y002467D01*
X012329Y002489D02*
X012771Y002489D01*
X012771Y002511D02*
X012329Y002511D01*
X012329Y002533D02*
X012771Y002533D01*
X012771Y002555D02*
X012329Y002555D01*
X012329Y002577D02*
X012771Y002577D01*
X012771Y002599D02*
X012329Y002599D01*
X012329Y002621D02*
X012771Y002621D01*
X012771Y002643D02*
X012329Y002643D01*
X012329Y002665D02*
X012771Y002665D01*
X012771Y002687D02*
X012329Y002687D01*
X012329Y002709D02*
X012771Y002709D01*
X012771Y002731D02*
X012329Y002731D01*
X012329Y002753D02*
X012771Y002753D01*
X012771Y002775D02*
X012329Y002775D01*
X012329Y002797D02*
X012771Y002797D01*
X012329Y002121D02*
X012329Y001691D01*
X012329Y002121D02*
X012771Y002121D01*
X012771Y001691D01*
X012329Y001691D01*
X012329Y001713D02*
X012771Y001713D01*
X012771Y001735D02*
X012329Y001735D01*
X012329Y001757D02*
X012771Y001757D01*
X012771Y001779D02*
X012329Y001779D01*
X012329Y001801D02*
X012771Y001801D01*
X012771Y001823D02*
X012329Y001823D01*
X012329Y001845D02*
X012771Y001845D01*
X012771Y001867D02*
X012329Y001867D01*
X012329Y001889D02*
X012771Y001889D01*
X012771Y001911D02*
X012329Y001911D01*
X012329Y001933D02*
X012771Y001933D01*
X012771Y001955D02*
X012329Y001955D01*
X012329Y001977D02*
X012771Y001977D01*
X012771Y001999D02*
X012329Y001999D01*
X012329Y002021D02*
X012771Y002021D01*
X012771Y002043D02*
X012329Y002043D01*
X012329Y002065D02*
X012771Y002065D01*
X012771Y002087D02*
X012329Y002087D01*
X012329Y002109D02*
X012771Y002109D01*
X010421Y002121D02*
X010421Y001691D01*
X009979Y001691D01*
X009979Y002121D01*
X010421Y002121D01*
X010421Y001713D02*
X009979Y001713D01*
X009979Y001735D02*
X010421Y001735D01*
X010421Y001757D02*
X009979Y001757D01*
X009979Y001779D02*
X010421Y001779D01*
X010421Y001801D02*
X009979Y001801D01*
X009979Y001823D02*
X010421Y001823D01*
X010421Y001845D02*
X009979Y001845D01*
X009979Y001867D02*
X010421Y001867D01*
X010421Y001889D02*
X009979Y001889D01*
X009979Y001911D02*
X010421Y001911D01*
X010421Y001933D02*
X009979Y001933D01*
X009979Y001955D02*
X010421Y001955D01*
X010421Y001977D02*
X009979Y001977D01*
X009979Y001999D02*
X010421Y001999D01*
X010421Y002021D02*
X009979Y002021D01*
X009979Y002043D02*
X010421Y002043D01*
X010421Y002065D02*
X009979Y002065D01*
X009979Y002087D02*
X010421Y002087D01*
X010421Y002109D02*
X009979Y002109D01*
X010421Y002379D02*
X010421Y002809D01*
X010421Y002379D02*
X009979Y002379D01*
X009979Y002809D01*
X010421Y002809D01*
X010421Y002401D02*
X009979Y002401D01*
X009979Y002423D02*
X010421Y002423D01*
X010421Y002445D02*
X009979Y002445D01*
X009979Y002467D02*
X010421Y002467D01*
X010421Y002489D02*
X009979Y002489D01*
X009979Y002511D02*
X010421Y002511D01*
X010421Y002533D02*
X009979Y002533D01*
X009979Y002555D02*
X010421Y002555D01*
X010421Y002577D02*
X009979Y002577D01*
X009979Y002599D02*
X010421Y002599D01*
X010421Y002621D02*
X009979Y002621D01*
X009979Y002643D02*
X010421Y002643D01*
X010421Y002665D02*
X009979Y002665D01*
X009979Y002687D02*
X010421Y002687D01*
X010421Y002709D02*
X009979Y002709D01*
X009979Y002731D02*
X010421Y002731D01*
X010421Y002753D02*
X009979Y002753D01*
X009979Y002775D02*
X010421Y002775D01*
X010421Y002797D02*
X009979Y002797D01*
D14*
X011191Y005904D02*
X011191Y006396D01*
X011683Y006396D01*
X011683Y005904D01*
X011191Y005904D01*
X011191Y005923D02*
X011683Y005923D01*
X011683Y005942D02*
X011191Y005942D01*
X011191Y005961D02*
X011683Y005961D01*
X011683Y005980D02*
X011191Y005980D01*
X011191Y005999D02*
X011683Y005999D01*
X011683Y006018D02*
X011191Y006018D01*
X011191Y006037D02*
X011683Y006037D01*
X011683Y006056D02*
X011191Y006056D01*
X011191Y006075D02*
X011683Y006075D01*
X011683Y006094D02*
X011191Y006094D01*
X011191Y006113D02*
X011683Y006113D01*
X011683Y006132D02*
X011191Y006132D01*
X011191Y006151D02*
X011683Y006151D01*
X011683Y006170D02*
X011191Y006170D01*
X011191Y006189D02*
X011683Y006189D01*
X011683Y006208D02*
X011191Y006208D01*
X011191Y006227D02*
X011683Y006227D01*
X011683Y006246D02*
X011191Y006246D01*
X011191Y006265D02*
X011683Y006265D01*
X011683Y006284D02*
X011191Y006284D01*
X011191Y006303D02*
X011683Y006303D01*
X011683Y006322D02*
X011191Y006322D01*
X011191Y006341D02*
X011683Y006341D01*
X011683Y006360D02*
X011191Y006360D01*
X011191Y006379D02*
X011683Y006379D01*
X012017Y006396D02*
X012017Y005904D01*
X012017Y006396D02*
X012509Y006396D01*
X012509Y005904D01*
X012017Y005904D01*
X012017Y005923D02*
X012509Y005923D01*
X012509Y005942D02*
X012017Y005942D01*
X012017Y005961D02*
X012509Y005961D01*
X012509Y005980D02*
X012017Y005980D01*
X012017Y005999D02*
X012509Y005999D01*
X012509Y006018D02*
X012017Y006018D01*
X012017Y006037D02*
X012509Y006037D01*
X012509Y006056D02*
X012017Y006056D01*
X012017Y006075D02*
X012509Y006075D01*
X012509Y006094D02*
X012017Y006094D01*
X012017Y006113D02*
X012509Y006113D01*
X012509Y006132D02*
X012017Y006132D01*
X012017Y006151D02*
X012509Y006151D01*
X012509Y006170D02*
X012017Y006170D01*
X012017Y006189D02*
X012509Y006189D01*
X012509Y006208D02*
X012017Y006208D01*
X012017Y006227D02*
X012509Y006227D01*
X012509Y006246D02*
X012017Y006246D01*
X012017Y006265D02*
X012509Y006265D01*
X012509Y006284D02*
X012017Y006284D01*
X012017Y006303D02*
X012509Y006303D01*
X012509Y006322D02*
X012017Y006322D01*
X012017Y006341D02*
X012509Y006341D01*
X012509Y006360D02*
X012017Y006360D01*
X012017Y006379D02*
X012509Y006379D01*
X015141Y006396D02*
X015141Y005904D01*
X015141Y006396D02*
X015633Y006396D01*
X015633Y005904D01*
X015141Y005904D01*
X015141Y005923D02*
X015633Y005923D01*
X015633Y005942D02*
X015141Y005942D01*
X015141Y005961D02*
X015633Y005961D01*
X015633Y005980D02*
X015141Y005980D01*
X015141Y005999D02*
X015633Y005999D01*
X015633Y006018D02*
X015141Y006018D01*
X015141Y006037D02*
X015633Y006037D01*
X015633Y006056D02*
X015141Y006056D01*
X015141Y006075D02*
X015633Y006075D01*
X015633Y006094D02*
X015141Y006094D01*
X015141Y006113D02*
X015633Y006113D01*
X015633Y006132D02*
X015141Y006132D01*
X015141Y006151D02*
X015633Y006151D01*
X015633Y006170D02*
X015141Y006170D01*
X015141Y006189D02*
X015633Y006189D01*
X015633Y006208D02*
X015141Y006208D01*
X015141Y006227D02*
X015633Y006227D01*
X015633Y006246D02*
X015141Y006246D01*
X015141Y006265D02*
X015633Y006265D01*
X015633Y006284D02*
X015141Y006284D01*
X015141Y006303D02*
X015633Y006303D01*
X015633Y006322D02*
X015141Y006322D01*
X015141Y006341D02*
X015633Y006341D01*
X015633Y006360D02*
X015141Y006360D01*
X015141Y006379D02*
X015633Y006379D01*
X015967Y006396D02*
X015967Y005904D01*
X015967Y006396D02*
X016459Y006396D01*
X016459Y005904D01*
X015967Y005904D01*
X015967Y005923D02*
X016459Y005923D01*
X016459Y005942D02*
X015967Y005942D01*
X015967Y005961D02*
X016459Y005961D01*
X016459Y005980D02*
X015967Y005980D01*
X015967Y005999D02*
X016459Y005999D01*
X016459Y006018D02*
X015967Y006018D01*
X015967Y006037D02*
X016459Y006037D01*
X016459Y006056D02*
X015967Y006056D01*
X015967Y006075D02*
X016459Y006075D01*
X016459Y006094D02*
X015967Y006094D01*
X015967Y006113D02*
X016459Y006113D01*
X016459Y006132D02*
X015967Y006132D01*
X015967Y006151D02*
X016459Y006151D01*
X016459Y006170D02*
X015967Y006170D01*
X015967Y006189D02*
X016459Y006189D01*
X016459Y006208D02*
X015967Y006208D01*
X015967Y006227D02*
X016459Y006227D01*
X016459Y006246D02*
X015967Y006246D01*
X015967Y006265D02*
X016459Y006265D01*
X016459Y006284D02*
X015967Y006284D01*
X015967Y006303D02*
X016459Y006303D01*
X016459Y006322D02*
X015967Y006322D01*
X015967Y006341D02*
X016459Y006341D01*
X016459Y006360D02*
X015967Y006360D01*
X015967Y006379D02*
X016459Y006379D01*
X015967Y005746D02*
X015967Y005254D01*
X015967Y005746D02*
X016459Y005746D01*
X016459Y005254D01*
X015967Y005254D01*
X015967Y005273D02*
X016459Y005273D01*
X016459Y005292D02*
X015967Y005292D01*
X015967Y005311D02*
X016459Y005311D01*
X016459Y005330D02*
X015967Y005330D01*
X015967Y005349D02*
X016459Y005349D01*
X016459Y005368D02*
X015967Y005368D01*
X015967Y005387D02*
X016459Y005387D01*
X016459Y005406D02*
X015967Y005406D01*
X015967Y005425D02*
X016459Y005425D01*
X016459Y005444D02*
X015967Y005444D01*
X015967Y005463D02*
X016459Y005463D01*
X016459Y005482D02*
X015967Y005482D01*
X015967Y005501D02*
X016459Y005501D01*
X016459Y005520D02*
X015967Y005520D01*
X015967Y005539D02*
X016459Y005539D01*
X016459Y005558D02*
X015967Y005558D01*
X015967Y005577D02*
X016459Y005577D01*
X016459Y005596D02*
X015967Y005596D01*
X015967Y005615D02*
X016459Y005615D01*
X016459Y005634D02*
X015967Y005634D01*
X015967Y005653D02*
X016459Y005653D01*
X016459Y005672D02*
X015967Y005672D01*
X015967Y005691D02*
X016459Y005691D01*
X016459Y005710D02*
X015967Y005710D01*
X015967Y005729D02*
X016459Y005729D01*
X015141Y005746D02*
X015141Y005254D01*
X015141Y005746D02*
X015633Y005746D01*
X015633Y005254D01*
X015141Y005254D01*
X015141Y005273D02*
X015633Y005273D01*
X015633Y005292D02*
X015141Y005292D01*
X015141Y005311D02*
X015633Y005311D01*
X015633Y005330D02*
X015141Y005330D01*
X015141Y005349D02*
X015633Y005349D01*
X015633Y005368D02*
X015141Y005368D01*
X015141Y005387D02*
X015633Y005387D01*
X015633Y005406D02*
X015141Y005406D01*
X015141Y005425D02*
X015633Y005425D01*
X015633Y005444D02*
X015141Y005444D01*
X015141Y005463D02*
X015633Y005463D01*
X015633Y005482D02*
X015141Y005482D01*
X015141Y005501D02*
X015633Y005501D01*
X015633Y005520D02*
X015141Y005520D01*
X015141Y005539D02*
X015633Y005539D01*
X015633Y005558D02*
X015141Y005558D01*
X015141Y005577D02*
X015633Y005577D01*
X015633Y005596D02*
X015141Y005596D01*
X015141Y005615D02*
X015633Y005615D01*
X015633Y005634D02*
X015141Y005634D01*
X015141Y005653D02*
X015633Y005653D01*
X015633Y005672D02*
X015141Y005672D01*
X015141Y005691D02*
X015633Y005691D01*
X015633Y005710D02*
X015141Y005710D01*
X015141Y005729D02*
X015633Y005729D01*
X019952Y007739D02*
X019952Y008231D01*
X019952Y007739D02*
X019382Y007739D01*
X019382Y008231D01*
X019952Y008231D01*
X019952Y007758D02*
X019382Y007758D01*
X019382Y007777D02*
X019952Y007777D01*
X019952Y007796D02*
X019382Y007796D01*
X019382Y007815D02*
X019952Y007815D01*
X019952Y007834D02*
X019382Y007834D01*
X019382Y007853D02*
X019952Y007853D01*
X019952Y007872D02*
X019382Y007872D01*
X019382Y007891D02*
X019952Y007891D01*
X019952Y007910D02*
X019382Y007910D01*
X019382Y007929D02*
X019952Y007929D01*
X019952Y007948D02*
X019382Y007948D01*
X019382Y007967D02*
X019952Y007967D01*
X019952Y007986D02*
X019382Y007986D01*
X019382Y008005D02*
X019952Y008005D01*
X019952Y008024D02*
X019382Y008024D01*
X019382Y008043D02*
X019952Y008043D01*
X019952Y008062D02*
X019382Y008062D01*
X019382Y008081D02*
X019952Y008081D01*
X019952Y008100D02*
X019382Y008100D01*
X019382Y008119D02*
X019952Y008119D01*
X019952Y008138D02*
X019382Y008138D01*
X019382Y008157D02*
X019952Y008157D01*
X019952Y008176D02*
X019382Y008176D01*
X019382Y008195D02*
X019952Y008195D01*
X019952Y008214D02*
X019382Y008214D01*
X019952Y008369D02*
X019952Y008861D01*
X019952Y008369D02*
X019382Y008369D01*
X019382Y008861D01*
X019952Y008861D01*
X019952Y008388D02*
X019382Y008388D01*
X019382Y008407D02*
X019952Y008407D01*
X019952Y008426D02*
X019382Y008426D01*
X019382Y008445D02*
X019952Y008445D01*
X019952Y008464D02*
X019382Y008464D01*
X019382Y008483D02*
X019952Y008483D01*
X019952Y008502D02*
X019382Y008502D01*
X019382Y008521D02*
X019952Y008521D01*
X019952Y008540D02*
X019382Y008540D01*
X019382Y008559D02*
X019952Y008559D01*
X019952Y008578D02*
X019382Y008578D01*
X019382Y008597D02*
X019952Y008597D01*
X019952Y008616D02*
X019382Y008616D01*
X019382Y008635D02*
X019952Y008635D01*
X019952Y008654D02*
X019382Y008654D01*
X019382Y008673D02*
X019952Y008673D01*
X019952Y008692D02*
X019382Y008692D01*
X019382Y008711D02*
X019952Y008711D01*
X019952Y008730D02*
X019382Y008730D01*
X019382Y008749D02*
X019952Y008749D01*
X019952Y008768D02*
X019382Y008768D01*
X019382Y008787D02*
X019952Y008787D01*
X019952Y008806D02*
X019382Y008806D01*
X019382Y008825D02*
X019952Y008825D01*
X019952Y008844D02*
X019382Y008844D01*
X020818Y008861D02*
X020818Y008369D01*
X020248Y008369D01*
X020248Y008861D01*
X020818Y008861D01*
X020818Y008388D02*
X020248Y008388D01*
X020248Y008407D02*
X020818Y008407D01*
X020818Y008426D02*
X020248Y008426D01*
X020248Y008445D02*
X020818Y008445D01*
X020818Y008464D02*
X020248Y008464D01*
X020248Y008483D02*
X020818Y008483D01*
X020818Y008502D02*
X020248Y008502D01*
X020248Y008521D02*
X020818Y008521D01*
X020818Y008540D02*
X020248Y008540D01*
X020248Y008559D02*
X020818Y008559D01*
X020818Y008578D02*
X020248Y008578D01*
X020248Y008597D02*
X020818Y008597D01*
X020818Y008616D02*
X020248Y008616D01*
X020248Y008635D02*
X020818Y008635D01*
X020818Y008654D02*
X020248Y008654D01*
X020248Y008673D02*
X020818Y008673D01*
X020818Y008692D02*
X020248Y008692D01*
X020248Y008711D02*
X020818Y008711D01*
X020818Y008730D02*
X020248Y008730D01*
X020248Y008749D02*
X020818Y008749D01*
X020818Y008768D02*
X020248Y008768D01*
X020248Y008787D02*
X020818Y008787D01*
X020818Y008806D02*
X020248Y008806D01*
X020248Y008825D02*
X020818Y008825D01*
X020818Y008844D02*
X020248Y008844D01*
X020818Y008231D02*
X020818Y007739D01*
X020248Y007739D01*
X020248Y008231D01*
X020818Y008231D01*
X020818Y007758D02*
X020248Y007758D01*
X020248Y007777D02*
X020818Y007777D01*
X020818Y007796D02*
X020248Y007796D01*
X020248Y007815D02*
X020818Y007815D01*
X020818Y007834D02*
X020248Y007834D01*
X020248Y007853D02*
X020818Y007853D01*
X020818Y007872D02*
X020248Y007872D01*
X020248Y007891D02*
X020818Y007891D01*
X020818Y007910D02*
X020248Y007910D01*
X020248Y007929D02*
X020818Y007929D01*
X020818Y007948D02*
X020248Y007948D01*
X020248Y007967D02*
X020818Y007967D01*
X020818Y007986D02*
X020248Y007986D01*
X020248Y008005D02*
X020818Y008005D01*
X020818Y008024D02*
X020248Y008024D01*
X020248Y008043D02*
X020818Y008043D01*
X020818Y008062D02*
X020248Y008062D01*
X020248Y008081D02*
X020818Y008081D01*
X020818Y008100D02*
X020248Y008100D01*
X020248Y008119D02*
X020818Y008119D01*
X020818Y008138D02*
X020248Y008138D01*
X020248Y008157D02*
X020818Y008157D01*
X020818Y008176D02*
X020248Y008176D01*
X020248Y008195D02*
X020818Y008195D01*
X020818Y008214D02*
X020248Y008214D01*
D15*
X009598Y002168D02*
X008634Y002168D01*
X008634Y003132D01*
X009598Y003132D01*
X009598Y002168D01*
X009598Y002187D02*
X008634Y002187D01*
X008634Y002206D02*
X009598Y002206D01*
X009598Y002225D02*
X008634Y002225D01*
X008634Y002244D02*
X009598Y002244D01*
X009598Y002263D02*
X008634Y002263D01*
X008634Y002282D02*
X009598Y002282D01*
X009598Y002301D02*
X008634Y002301D01*
X008634Y002320D02*
X009598Y002320D01*
X009598Y002339D02*
X008634Y002339D01*
X008634Y002358D02*
X009598Y002358D01*
X009598Y002377D02*
X008634Y002377D01*
X008634Y002396D02*
X009598Y002396D01*
X009598Y002415D02*
X008634Y002415D01*
X008634Y002434D02*
X009598Y002434D01*
X009598Y002453D02*
X008634Y002453D01*
X008634Y002472D02*
X009598Y002472D01*
X009598Y002491D02*
X008634Y002491D01*
X008634Y002510D02*
X009598Y002510D01*
X009598Y002529D02*
X008634Y002529D01*
X008634Y002548D02*
X009598Y002548D01*
X009598Y002567D02*
X008634Y002567D01*
X008634Y002586D02*
X009598Y002586D01*
X009598Y002605D02*
X008634Y002605D01*
X008634Y002624D02*
X009598Y002624D01*
X009598Y002643D02*
X008634Y002643D01*
X008634Y002662D02*
X009598Y002662D01*
X009598Y002681D02*
X008634Y002681D01*
X008634Y002700D02*
X009598Y002700D01*
X009598Y002719D02*
X008634Y002719D01*
X008634Y002738D02*
X009598Y002738D01*
X009598Y002757D02*
X008634Y002757D01*
X008634Y002776D02*
X009598Y002776D01*
X009598Y002795D02*
X008634Y002795D01*
X008634Y002814D02*
X009598Y002814D01*
X009598Y002833D02*
X008634Y002833D01*
X008634Y002852D02*
X009598Y002852D01*
X009598Y002871D02*
X008634Y002871D01*
X008634Y002890D02*
X009598Y002890D01*
X009598Y002909D02*
X008634Y002909D01*
X008634Y002928D02*
X009598Y002928D01*
X009598Y002947D02*
X008634Y002947D01*
X008634Y002966D02*
X009598Y002966D01*
X009598Y002985D02*
X008634Y002985D01*
X008634Y003004D02*
X009598Y003004D01*
X009598Y003023D02*
X008634Y003023D01*
X008634Y003042D02*
X009598Y003042D01*
X009598Y003061D02*
X008634Y003061D01*
X008634Y003080D02*
X009598Y003080D01*
X009598Y003099D02*
X008634Y003099D01*
X008634Y003118D02*
X009598Y003118D01*
X007866Y002168D02*
X006902Y002168D01*
X006902Y003132D01*
X007866Y003132D01*
X007866Y002168D01*
X007866Y002187D02*
X006902Y002187D01*
X006902Y002206D02*
X007866Y002206D01*
X007866Y002225D02*
X006902Y002225D01*
X006902Y002244D02*
X007866Y002244D01*
X007866Y002263D02*
X006902Y002263D01*
X006902Y002282D02*
X007866Y002282D01*
X007866Y002301D02*
X006902Y002301D01*
X006902Y002320D02*
X007866Y002320D01*
X007866Y002339D02*
X006902Y002339D01*
X006902Y002358D02*
X007866Y002358D01*
X007866Y002377D02*
X006902Y002377D01*
X006902Y002396D02*
X007866Y002396D01*
X007866Y002415D02*
X006902Y002415D01*
X006902Y002434D02*
X007866Y002434D01*
X007866Y002453D02*
X006902Y002453D01*
X006902Y002472D02*
X007866Y002472D01*
X007866Y002491D02*
X006902Y002491D01*
X006902Y002510D02*
X007866Y002510D01*
X007866Y002529D02*
X006902Y002529D01*
X006902Y002548D02*
X007866Y002548D01*
X007866Y002567D02*
X006902Y002567D01*
X006902Y002586D02*
X007866Y002586D01*
X007866Y002605D02*
X006902Y002605D01*
X006902Y002624D02*
X007866Y002624D01*
X007866Y002643D02*
X006902Y002643D01*
X006902Y002662D02*
X007866Y002662D01*
X007866Y002681D02*
X006902Y002681D01*
X006902Y002700D02*
X007866Y002700D01*
X007866Y002719D02*
X006902Y002719D01*
X006902Y002738D02*
X007866Y002738D01*
X007866Y002757D02*
X006902Y002757D01*
X006902Y002776D02*
X007866Y002776D01*
X007866Y002795D02*
X006902Y002795D01*
X006902Y002814D02*
X007866Y002814D01*
X007866Y002833D02*
X006902Y002833D01*
X006902Y002852D02*
X007866Y002852D01*
X007866Y002871D02*
X006902Y002871D01*
X006902Y002890D02*
X007866Y002890D01*
X007866Y002909D02*
X006902Y002909D01*
X006902Y002928D02*
X007866Y002928D01*
X007866Y002947D02*
X006902Y002947D01*
X006902Y002966D02*
X007866Y002966D01*
X007866Y002985D02*
X006902Y002985D01*
X006902Y003004D02*
X007866Y003004D01*
X007866Y003023D02*
X006902Y003023D01*
X006902Y003042D02*
X007866Y003042D01*
X007866Y003061D02*
X006902Y003061D01*
X006902Y003080D02*
X007866Y003080D01*
X007866Y003099D02*
X006902Y003099D01*
X006902Y003118D02*
X007866Y003118D01*
D16*
X013086Y007725D02*
X013244Y007725D01*
X013244Y007645D01*
X013086Y007645D01*
X013086Y007725D01*
X013086Y008425D02*
X013244Y008425D01*
X013244Y008345D01*
X013086Y008345D01*
X013086Y008425D01*
X015110Y006789D02*
X015110Y006631D01*
X015110Y006789D02*
X015190Y006789D01*
X015190Y006631D01*
X015110Y006631D01*
X015810Y006631D02*
X015810Y006789D01*
X015890Y006789D01*
X015890Y006631D01*
X015810Y006631D01*
X018140Y008221D02*
X018140Y008379D01*
X018140Y008221D02*
X018060Y008221D01*
X018060Y008379D01*
X018140Y008379D01*
X018840Y008379D02*
X018840Y008221D01*
X018760Y008221D01*
X018760Y008379D01*
X018840Y008379D01*
X019840Y009121D02*
X019840Y009279D01*
X019840Y009121D02*
X019760Y009121D01*
X019760Y009279D01*
X019840Y009279D01*
X020540Y009279D02*
X020540Y009121D01*
X020460Y009121D01*
X020460Y009279D01*
X020540Y009279D01*
X018220Y010771D02*
X018220Y010929D01*
X018220Y010771D02*
X018140Y010771D01*
X018140Y010929D01*
X018220Y010929D01*
X017520Y010929D02*
X017520Y010771D01*
X017440Y010771D01*
X017440Y010929D01*
X017520Y010929D01*
X019690Y007479D02*
X019690Y007321D01*
X019690Y007479D02*
X019770Y007479D01*
X019770Y007321D01*
X019690Y007321D01*
X020390Y007321D02*
X020390Y007479D01*
X020470Y007479D01*
X020470Y007321D01*
X020390Y007321D01*
X004029Y011060D02*
X003871Y011060D01*
X003871Y011140D01*
X004029Y011140D01*
X004029Y011060D01*
X004029Y011760D02*
X003871Y011760D01*
X003871Y011840D01*
X004029Y011840D01*
X004029Y011760D01*
D17*
X001773Y012114D02*
X001773Y011350D01*
X001773Y012114D02*
X003127Y012114D01*
X003127Y011350D01*
X001773Y011350D01*
X001773Y011373D02*
X003127Y011373D01*
X003127Y011396D02*
X001773Y011396D01*
X001773Y011419D02*
X003127Y011419D01*
X003127Y011442D02*
X001773Y011442D01*
X001773Y011465D02*
X003127Y011465D01*
X003127Y011488D02*
X001773Y011488D01*
X001773Y011511D02*
X003127Y011511D01*
X003127Y011534D02*
X001773Y011534D01*
X001773Y011557D02*
X003127Y011557D01*
X003127Y011580D02*
X001773Y011580D01*
X001773Y011603D02*
X003127Y011603D01*
X003127Y011626D02*
X001773Y011626D01*
X001773Y011649D02*
X003127Y011649D01*
X003127Y011672D02*
X001773Y011672D01*
X001773Y011695D02*
X003127Y011695D01*
X003127Y011718D02*
X001773Y011718D01*
X001773Y011741D02*
X003127Y011741D01*
X003127Y011764D02*
X001773Y011764D01*
X001773Y011787D02*
X003127Y011787D01*
X003127Y011810D02*
X001773Y011810D01*
X001773Y011833D02*
X003127Y011833D01*
X003127Y011856D02*
X001773Y011856D01*
X001773Y011879D02*
X003127Y011879D01*
X003127Y011902D02*
X001773Y011902D01*
X001773Y011925D02*
X003127Y011925D01*
X003127Y011948D02*
X001773Y011948D01*
X001773Y011971D02*
X003127Y011971D01*
X003127Y011994D02*
X001773Y011994D01*
X001773Y012017D02*
X003127Y012017D01*
X003127Y012040D02*
X001773Y012040D01*
X001773Y012063D02*
X003127Y012063D01*
X003127Y012086D02*
X001773Y012086D01*
X001773Y012109D02*
X003127Y012109D01*
X001773Y012886D02*
X001773Y013650D01*
X003127Y013650D01*
X003127Y012886D01*
X001773Y012886D01*
X001773Y012909D02*
X003127Y012909D01*
X003127Y012932D02*
X001773Y012932D01*
X001773Y012955D02*
X003127Y012955D01*
X003127Y012978D02*
X001773Y012978D01*
X001773Y013001D02*
X003127Y013001D01*
X003127Y013024D02*
X001773Y013024D01*
X001773Y013047D02*
X003127Y013047D01*
X003127Y013070D02*
X001773Y013070D01*
X001773Y013093D02*
X003127Y013093D01*
X003127Y013116D02*
X001773Y013116D01*
X001773Y013139D02*
X003127Y013139D01*
X003127Y013162D02*
X001773Y013162D01*
X001773Y013185D02*
X003127Y013185D01*
X003127Y013208D02*
X001773Y013208D01*
X001773Y013231D02*
X003127Y013231D01*
X003127Y013254D02*
X001773Y013254D01*
X001773Y013277D02*
X003127Y013277D01*
X003127Y013300D02*
X001773Y013300D01*
X001773Y013323D02*
X003127Y013323D01*
X003127Y013346D02*
X001773Y013346D01*
X001773Y013369D02*
X003127Y013369D01*
X003127Y013392D02*
X001773Y013392D01*
X001773Y013415D02*
X003127Y013415D01*
X003127Y013438D02*
X001773Y013438D01*
X001773Y013461D02*
X003127Y013461D01*
X003127Y013484D02*
X001773Y013484D01*
X001773Y013507D02*
X003127Y013507D01*
X003127Y013530D02*
X001773Y013530D01*
X001773Y013553D02*
X003127Y013553D01*
X003127Y013576D02*
X001773Y013576D01*
X001773Y013599D02*
X003127Y013599D01*
X003127Y013622D02*
X001773Y013622D01*
X001773Y013645D02*
X003127Y013645D01*
D18*
X006294Y006913D02*
X006706Y006913D01*
X006294Y006913D02*
X006294Y007363D01*
X006706Y007363D01*
X006706Y006913D01*
X006706Y006934D02*
X006294Y006934D01*
X006294Y006955D02*
X006706Y006955D01*
X006706Y006976D02*
X006294Y006976D01*
X006294Y006997D02*
X006706Y006997D01*
X006706Y007018D02*
X006294Y007018D01*
X006294Y007039D02*
X006706Y007039D01*
X006706Y007060D02*
X006294Y007060D01*
X006294Y007081D02*
X006706Y007081D01*
X006706Y007102D02*
X006294Y007102D01*
X006294Y007123D02*
X006706Y007123D01*
X006706Y007144D02*
X006294Y007144D01*
X006294Y007165D02*
X006706Y007165D01*
X006706Y007186D02*
X006294Y007186D01*
X006294Y007207D02*
X006706Y007207D01*
X006706Y007228D02*
X006294Y007228D01*
X006294Y007249D02*
X006706Y007249D01*
X006706Y007270D02*
X006294Y007270D01*
X006294Y007291D02*
X006706Y007291D01*
X006706Y007312D02*
X006294Y007312D01*
X006294Y007333D02*
X006706Y007333D01*
X006706Y007354D02*
X006294Y007354D01*
X006964Y006913D02*
X007376Y006913D01*
X006964Y006913D02*
X006964Y007363D01*
X007376Y007363D01*
X007376Y006913D01*
X007376Y006934D02*
X006964Y006934D01*
X006964Y006955D02*
X007376Y006955D01*
X007376Y006976D02*
X006964Y006976D01*
X006964Y006997D02*
X007376Y006997D01*
X007376Y007018D02*
X006964Y007018D01*
X006964Y007039D02*
X007376Y007039D01*
X007376Y007060D02*
X006964Y007060D01*
X006964Y007081D02*
X007376Y007081D01*
X007376Y007102D02*
X006964Y007102D01*
X006964Y007123D02*
X007376Y007123D01*
X007376Y007144D02*
X006964Y007144D01*
X006964Y007165D02*
X007376Y007165D01*
X007376Y007186D02*
X006964Y007186D01*
X006964Y007207D02*
X007376Y007207D01*
X007376Y007228D02*
X006964Y007228D01*
X006964Y007249D02*
X007376Y007249D01*
X007376Y007270D02*
X006964Y007270D01*
X006964Y007291D02*
X007376Y007291D01*
X007376Y007312D02*
X006964Y007312D01*
X006964Y007333D02*
X007376Y007333D01*
X007376Y007354D02*
X006964Y007354D01*
X006979Y006325D02*
X007391Y006325D01*
X006979Y006325D02*
X006979Y006775D01*
X007391Y006775D01*
X007391Y006325D01*
X007391Y006346D02*
X006979Y006346D01*
X006979Y006367D02*
X007391Y006367D01*
X007391Y006388D02*
X006979Y006388D01*
X006979Y006409D02*
X007391Y006409D01*
X007391Y006430D02*
X006979Y006430D01*
X006979Y006451D02*
X007391Y006451D01*
X007391Y006472D02*
X006979Y006472D01*
X006979Y006493D02*
X007391Y006493D01*
X007391Y006514D02*
X006979Y006514D01*
X006979Y006535D02*
X007391Y006535D01*
X007391Y006556D02*
X006979Y006556D01*
X006979Y006577D02*
X007391Y006577D01*
X007391Y006598D02*
X006979Y006598D01*
X006979Y006619D02*
X007391Y006619D01*
X007391Y006640D02*
X006979Y006640D01*
X006979Y006661D02*
X007391Y006661D01*
X007391Y006682D02*
X006979Y006682D01*
X006979Y006703D02*
X007391Y006703D01*
X007391Y006724D02*
X006979Y006724D01*
X006979Y006745D02*
X007391Y006745D01*
X007391Y006766D02*
X006979Y006766D01*
X006721Y006325D02*
X006309Y006325D01*
X006309Y006775D01*
X006721Y006775D01*
X006721Y006325D01*
X006721Y006346D02*
X006309Y006346D01*
X006309Y006367D02*
X006721Y006367D01*
X006721Y006388D02*
X006309Y006388D01*
X006309Y006409D02*
X006721Y006409D01*
X006721Y006430D02*
X006309Y006430D01*
X006309Y006451D02*
X006721Y006451D01*
X006721Y006472D02*
X006309Y006472D01*
X006309Y006493D02*
X006721Y006493D01*
X006721Y006514D02*
X006309Y006514D01*
X006309Y006535D02*
X006721Y006535D01*
X006721Y006556D02*
X006309Y006556D01*
X006309Y006577D02*
X006721Y006577D01*
X006721Y006598D02*
X006309Y006598D01*
X006309Y006619D02*
X006721Y006619D01*
X006721Y006640D02*
X006309Y006640D01*
X006309Y006661D02*
X006721Y006661D01*
X006721Y006682D02*
X006309Y006682D01*
X006309Y006703D02*
X006721Y006703D01*
X006721Y006724D02*
X006309Y006724D01*
X006309Y006745D02*
X006721Y006745D01*
X006721Y006766D02*
X006309Y006766D01*
X012995Y003781D02*
X012995Y003369D01*
X012995Y003781D02*
X013445Y003781D01*
X013445Y003369D01*
X012995Y003369D01*
X012995Y003390D02*
X013445Y003390D01*
X013445Y003411D02*
X012995Y003411D01*
X012995Y003432D02*
X013445Y003432D01*
X013445Y003453D02*
X012995Y003453D01*
X012995Y003474D02*
X013445Y003474D01*
X013445Y003495D02*
X012995Y003495D01*
X012995Y003516D02*
X013445Y003516D01*
X013445Y003537D02*
X012995Y003537D01*
X012995Y003558D02*
X013445Y003558D01*
X013445Y003579D02*
X012995Y003579D01*
X012995Y003600D02*
X013445Y003600D01*
X013445Y003621D02*
X012995Y003621D01*
X012995Y003642D02*
X013445Y003642D01*
X013445Y003663D02*
X012995Y003663D01*
X012995Y003684D02*
X013445Y003684D01*
X013445Y003705D02*
X012995Y003705D01*
X012995Y003726D02*
X013445Y003726D01*
X013445Y003747D02*
X012995Y003747D01*
X012995Y003768D02*
X013445Y003768D01*
X012995Y003111D02*
X012995Y002699D01*
X012995Y003111D02*
X013445Y003111D01*
X013445Y002699D01*
X012995Y002699D01*
X012995Y002720D02*
X013445Y002720D01*
X013445Y002741D02*
X012995Y002741D01*
X012995Y002762D02*
X013445Y002762D01*
X013445Y002783D02*
X012995Y002783D01*
X012995Y002804D02*
X013445Y002804D01*
X013445Y002825D02*
X012995Y002825D01*
X012995Y002846D02*
X013445Y002846D01*
X013445Y002867D02*
X012995Y002867D01*
X012995Y002888D02*
X013445Y002888D01*
X013445Y002909D02*
X012995Y002909D01*
X012995Y002930D02*
X013445Y002930D01*
X013445Y002951D02*
X012995Y002951D01*
X012995Y002972D02*
X013445Y002972D01*
X013445Y002993D02*
X012995Y002993D01*
X012995Y003014D02*
X013445Y003014D01*
X013445Y003035D02*
X012995Y003035D01*
X012995Y003056D02*
X013445Y003056D01*
X013445Y003077D02*
X012995Y003077D01*
X012995Y003098D02*
X013445Y003098D01*
X025000Y004774D02*
X025000Y005186D01*
X025450Y005186D01*
X025450Y004774D01*
X025000Y004774D01*
X025000Y004795D02*
X025450Y004795D01*
X025450Y004816D02*
X025000Y004816D01*
X025000Y004837D02*
X025450Y004837D01*
X025450Y004858D02*
X025000Y004858D01*
X025000Y004879D02*
X025450Y004879D01*
X025450Y004900D02*
X025000Y004900D01*
X025000Y004921D02*
X025450Y004921D01*
X025450Y004942D02*
X025000Y004942D01*
X025000Y004963D02*
X025450Y004963D01*
X025450Y004984D02*
X025000Y004984D01*
X025000Y005005D02*
X025450Y005005D01*
X025450Y005026D02*
X025000Y005026D01*
X025000Y005047D02*
X025450Y005047D01*
X025450Y005068D02*
X025000Y005068D01*
X025000Y005089D02*
X025450Y005089D01*
X025450Y005110D02*
X025000Y005110D01*
X025000Y005131D02*
X025450Y005131D01*
X025450Y005152D02*
X025000Y005152D01*
X025000Y005173D02*
X025450Y005173D01*
X025000Y005444D02*
X025000Y005856D01*
X025450Y005856D01*
X025450Y005444D01*
X025000Y005444D01*
X025000Y005465D02*
X025450Y005465D01*
X025450Y005486D02*
X025000Y005486D01*
X025000Y005507D02*
X025450Y005507D01*
X025450Y005528D02*
X025000Y005528D01*
X025000Y005549D02*
X025450Y005549D01*
X025450Y005570D02*
X025000Y005570D01*
X025000Y005591D02*
X025450Y005591D01*
X025450Y005612D02*
X025000Y005612D01*
X025000Y005633D02*
X025450Y005633D01*
X025450Y005654D02*
X025000Y005654D01*
X025000Y005675D02*
X025450Y005675D01*
X025450Y005696D02*
X025000Y005696D01*
X025000Y005717D02*
X025450Y005717D01*
X025450Y005738D02*
X025000Y005738D01*
X025000Y005759D02*
X025450Y005759D01*
X025450Y005780D02*
X025000Y005780D01*
X025000Y005801D02*
X025450Y005801D01*
X025450Y005822D02*
X025000Y005822D01*
X025000Y005843D02*
X025450Y005843D01*
X018728Y011626D02*
X018238Y011626D01*
X018728Y011626D02*
X018728Y011214D01*
X018238Y011214D01*
X018238Y011626D01*
X018238Y011235D02*
X018728Y011235D01*
X018728Y011256D02*
X018238Y011256D01*
X018238Y011277D02*
X018728Y011277D01*
X018728Y011298D02*
X018238Y011298D01*
X018238Y011319D02*
X018728Y011319D01*
X018728Y011340D02*
X018238Y011340D01*
X018238Y011361D02*
X018728Y011361D01*
X018728Y011382D02*
X018238Y011382D01*
X018238Y011403D02*
X018728Y011403D01*
X018728Y011424D02*
X018238Y011424D01*
X018238Y011445D02*
X018728Y011445D01*
X018728Y011466D02*
X018238Y011466D01*
X018238Y011487D02*
X018728Y011487D01*
X018728Y011508D02*
X018238Y011508D01*
X018238Y011529D02*
X018728Y011529D01*
X018728Y011550D02*
X018238Y011550D01*
X018238Y011571D02*
X018728Y011571D01*
X018728Y011592D02*
X018238Y011592D01*
X018238Y011613D02*
X018728Y011613D01*
X017862Y011626D02*
X017372Y011626D01*
X017862Y011626D02*
X017862Y011214D01*
X017372Y011214D01*
X017372Y011626D01*
X017372Y011235D02*
X017862Y011235D01*
X017862Y011256D02*
X017372Y011256D01*
X017372Y011277D02*
X017862Y011277D01*
X017862Y011298D02*
X017372Y011298D01*
X017372Y011319D02*
X017862Y011319D01*
X017862Y011340D02*
X017372Y011340D01*
X017372Y011361D02*
X017862Y011361D01*
X017862Y011382D02*
X017372Y011382D01*
X017372Y011403D02*
X017862Y011403D01*
X017862Y011424D02*
X017372Y011424D01*
X017372Y011445D02*
X017862Y011445D01*
X017862Y011466D02*
X017372Y011466D01*
X017372Y011487D02*
X017862Y011487D01*
X017862Y011508D02*
X017372Y011508D01*
X017372Y011529D02*
X017862Y011529D01*
X017862Y011550D02*
X017372Y011550D01*
X017372Y011571D02*
X017862Y011571D01*
X017862Y011592D02*
X017372Y011592D01*
X017372Y011613D02*
X017862Y011613D01*
D19*
X015600Y009100D02*
X015602Y009131D01*
X015608Y009162D01*
X015618Y009192D01*
X015631Y009220D01*
X015648Y009247D01*
X015668Y009271D01*
X015691Y009293D01*
X015716Y009311D01*
X015744Y009326D01*
X015773Y009338D01*
X015803Y009346D01*
X015834Y009350D01*
X015866Y009350D01*
X015897Y009346D01*
X015927Y009338D01*
X015956Y009326D01*
X015984Y009311D01*
X016009Y009293D01*
X016032Y009271D01*
X016052Y009247D01*
X016069Y009220D01*
X016082Y009192D01*
X016092Y009162D01*
X016098Y009131D01*
X016100Y009100D01*
X016098Y009069D01*
X016092Y009038D01*
X016082Y009008D01*
X016069Y008980D01*
X016052Y008953D01*
X016032Y008929D01*
X016009Y008907D01*
X015984Y008889D01*
X015956Y008874D01*
X015927Y008862D01*
X015897Y008854D01*
X015866Y008850D01*
X015834Y008850D01*
X015803Y008854D01*
X015773Y008862D01*
X015744Y008874D01*
X015716Y008889D01*
X015691Y008907D01*
X015668Y008929D01*
X015648Y008953D01*
X015631Y008980D01*
X015618Y009008D01*
X015608Y009038D01*
X015602Y009069D01*
X015600Y009100D01*
D20*
X014699Y009085D02*
X014403Y009085D01*
X014403Y009115D01*
X014699Y009115D01*
X014699Y009085D01*
X014699Y008888D02*
X014403Y008888D01*
X014403Y008918D01*
X014699Y008918D01*
X014699Y008888D01*
X014699Y008691D02*
X014403Y008691D01*
X014403Y008721D01*
X014699Y008721D01*
X014699Y008691D01*
X014699Y008494D02*
X014403Y008494D01*
X014403Y008524D01*
X014699Y008524D01*
X014699Y008494D01*
X014699Y008298D02*
X014403Y008298D01*
X014403Y008328D01*
X014699Y008328D01*
X014699Y008298D01*
X014699Y008101D02*
X014403Y008101D01*
X014403Y008131D01*
X014699Y008131D01*
X014699Y008101D01*
X014881Y007949D02*
X014881Y007653D01*
X014851Y007653D01*
X014851Y007949D01*
X014881Y007949D01*
X014881Y007771D02*
X014851Y007771D01*
X014851Y007889D02*
X014881Y007889D01*
X015078Y007949D02*
X015078Y007653D01*
X015048Y007653D01*
X015048Y007949D01*
X015078Y007949D01*
X015078Y007771D02*
X015048Y007771D01*
X015048Y007889D02*
X015078Y007889D01*
X015274Y007939D02*
X015274Y007643D01*
X015244Y007643D01*
X015244Y007939D01*
X015274Y007939D01*
X015274Y007761D02*
X015244Y007761D01*
X015244Y007879D02*
X015274Y007879D01*
X015471Y007939D02*
X015471Y007643D01*
X015441Y007643D01*
X015441Y007939D01*
X015471Y007939D01*
X015471Y007761D02*
X015441Y007761D01*
X015441Y007879D02*
X015471Y007879D01*
X015668Y007949D02*
X015668Y007653D01*
X015638Y007653D01*
X015638Y007949D01*
X015668Y007949D01*
X015668Y007771D02*
X015638Y007771D01*
X015638Y007889D02*
X015668Y007889D01*
X015865Y007949D02*
X015865Y007653D01*
X015835Y007653D01*
X015835Y007949D01*
X015865Y007949D01*
X015865Y007771D02*
X015835Y007771D01*
X015835Y007889D02*
X015865Y007889D01*
X016062Y007949D02*
X016062Y007653D01*
X016032Y007653D01*
X016032Y007949D01*
X016062Y007949D01*
X016062Y007771D02*
X016032Y007771D01*
X016032Y007889D02*
X016062Y007889D01*
X016259Y007949D02*
X016259Y007653D01*
X016229Y007653D01*
X016229Y007949D01*
X016259Y007949D01*
X016259Y007771D02*
X016229Y007771D01*
X016229Y007889D02*
X016259Y007889D01*
X016456Y007949D02*
X016456Y007653D01*
X016426Y007653D01*
X016426Y007949D01*
X016456Y007949D01*
X016456Y007771D02*
X016426Y007771D01*
X016426Y007889D02*
X016456Y007889D01*
X016652Y007949D02*
X016652Y007653D01*
X016622Y007653D01*
X016622Y007949D01*
X016652Y007949D01*
X016652Y007771D02*
X016622Y007771D01*
X016622Y007889D02*
X016652Y007889D01*
X016849Y007949D02*
X016849Y007653D01*
X016819Y007653D01*
X016819Y007949D01*
X016849Y007949D01*
X016849Y007771D02*
X016819Y007771D01*
X016819Y007889D02*
X016849Y007889D01*
X017001Y008131D02*
X017297Y008131D01*
X017297Y008101D01*
X017001Y008101D01*
X017001Y008131D01*
X017001Y008328D02*
X017297Y008328D01*
X017297Y008298D01*
X017001Y008298D01*
X017001Y008328D01*
X017001Y008524D02*
X017297Y008524D01*
X017297Y008494D01*
X017001Y008494D01*
X017001Y008524D01*
X017001Y008721D02*
X017297Y008721D01*
X017297Y008691D01*
X017001Y008691D01*
X017001Y008721D01*
X017001Y008918D02*
X017297Y008918D01*
X017297Y008888D01*
X017001Y008888D01*
X017001Y008918D01*
X017001Y009115D02*
X017297Y009115D01*
X017297Y009085D01*
X017001Y009085D01*
X017001Y009115D01*
X017001Y009312D02*
X017297Y009312D01*
X017297Y009282D01*
X017001Y009282D01*
X017001Y009312D01*
X017001Y009509D02*
X017297Y009509D01*
X017297Y009479D01*
X017001Y009479D01*
X017001Y009509D01*
X017001Y009706D02*
X017297Y009706D01*
X017297Y009676D01*
X017001Y009676D01*
X017001Y009706D01*
X017001Y009902D02*
X017297Y009902D01*
X017297Y009872D01*
X017001Y009872D01*
X017001Y009902D01*
X017001Y010099D02*
X017297Y010099D01*
X017297Y010069D01*
X017001Y010069D01*
X017001Y010099D01*
X016819Y010251D02*
X016819Y010547D01*
X016849Y010547D01*
X016849Y010251D01*
X016819Y010251D01*
X016819Y010369D02*
X016849Y010369D01*
X016849Y010487D02*
X016819Y010487D01*
X016622Y010547D02*
X016622Y010251D01*
X016622Y010547D02*
X016652Y010547D01*
X016652Y010251D01*
X016622Y010251D01*
X016622Y010369D02*
X016652Y010369D01*
X016652Y010487D02*
X016622Y010487D01*
X016426Y010547D02*
X016426Y010251D01*
X016426Y010547D02*
X016456Y010547D01*
X016456Y010251D01*
X016426Y010251D01*
X016426Y010369D02*
X016456Y010369D01*
X016456Y010487D02*
X016426Y010487D01*
X016229Y010547D02*
X016229Y010251D01*
X016229Y010547D02*
X016259Y010547D01*
X016259Y010251D01*
X016229Y010251D01*
X016229Y010369D02*
X016259Y010369D01*
X016259Y010487D02*
X016229Y010487D01*
X016032Y010547D02*
X016032Y010251D01*
X016032Y010547D02*
X016062Y010547D01*
X016062Y010251D01*
X016032Y010251D01*
X016032Y010369D02*
X016062Y010369D01*
X016062Y010487D02*
X016032Y010487D01*
X015835Y010547D02*
X015835Y010251D01*
X015835Y010547D02*
X015865Y010547D01*
X015865Y010251D01*
X015835Y010251D01*
X015835Y010369D02*
X015865Y010369D01*
X015865Y010487D02*
X015835Y010487D01*
X015638Y010547D02*
X015638Y010251D01*
X015638Y010547D02*
X015668Y010547D01*
X015668Y010251D01*
X015638Y010251D01*
X015638Y010369D02*
X015668Y010369D01*
X015668Y010487D02*
X015638Y010487D01*
X015441Y010547D02*
X015441Y010251D01*
X015441Y010547D02*
X015471Y010547D01*
X015471Y010251D01*
X015441Y010251D01*
X015441Y010369D02*
X015471Y010369D01*
X015471Y010487D02*
X015441Y010487D01*
X015244Y010547D02*
X015244Y010251D01*
X015244Y010547D02*
X015274Y010547D01*
X015274Y010251D01*
X015244Y010251D01*
X015244Y010369D02*
X015274Y010369D01*
X015274Y010487D02*
X015244Y010487D01*
X015048Y010547D02*
X015048Y010251D01*
X015048Y010547D02*
X015078Y010547D01*
X015078Y010251D01*
X015048Y010251D01*
X015048Y010369D02*
X015078Y010369D01*
X015078Y010487D02*
X015048Y010487D01*
X014851Y010547D02*
X014851Y010251D01*
X014851Y010547D02*
X014881Y010547D01*
X014881Y010251D01*
X014851Y010251D01*
X014851Y010369D02*
X014881Y010369D01*
X014881Y010487D02*
X014851Y010487D01*
X014699Y010069D02*
X014403Y010069D01*
X014403Y010099D01*
X014699Y010099D01*
X014699Y010069D01*
X014699Y009872D02*
X014403Y009872D01*
X014403Y009902D01*
X014699Y009902D01*
X014699Y009872D01*
X014699Y009676D02*
X014403Y009676D01*
X014403Y009706D01*
X014699Y009706D01*
X014699Y009676D01*
X014699Y009479D02*
X014403Y009479D01*
X014403Y009509D01*
X014699Y009509D01*
X014699Y009479D01*
X014699Y009282D02*
X014403Y009282D01*
X014403Y009312D01*
X014699Y009312D01*
X014699Y009282D01*
D21*
X012568Y005766D02*
X012568Y005116D01*
X012568Y005766D02*
X013532Y005766D01*
X013532Y005116D01*
X012568Y005116D01*
X012568Y005135D02*
X013532Y005135D01*
X013532Y005154D02*
X012568Y005154D01*
X012568Y005173D02*
X013532Y005173D01*
X013532Y005192D02*
X012568Y005192D01*
X012568Y005211D02*
X013532Y005211D01*
X013532Y005230D02*
X012568Y005230D01*
X012568Y005249D02*
X013532Y005249D01*
X013532Y005268D02*
X012568Y005268D01*
X012568Y005287D02*
X013532Y005287D01*
X013532Y005306D02*
X012568Y005306D01*
X012568Y005325D02*
X013532Y005325D01*
X013532Y005344D02*
X012568Y005344D01*
X012568Y005363D02*
X013532Y005363D01*
X013532Y005382D02*
X012568Y005382D01*
X012568Y005401D02*
X013532Y005401D01*
X013532Y005420D02*
X012568Y005420D01*
X012568Y005439D02*
X013532Y005439D01*
X013532Y005458D02*
X012568Y005458D01*
X012568Y005477D02*
X013532Y005477D01*
X013532Y005496D02*
X012568Y005496D01*
X012568Y005515D02*
X013532Y005515D01*
X013532Y005534D02*
X012568Y005534D01*
X012568Y005553D02*
X013532Y005553D01*
X013532Y005572D02*
X012568Y005572D01*
X012568Y005591D02*
X013532Y005591D01*
X013532Y005610D02*
X012568Y005610D01*
X012568Y005629D02*
X013532Y005629D01*
X013532Y005648D02*
X012568Y005648D01*
X012568Y005667D02*
X013532Y005667D01*
X013532Y005686D02*
X012568Y005686D01*
X012568Y005705D02*
X013532Y005705D01*
X013532Y005724D02*
X012568Y005724D01*
X012568Y005743D02*
X013532Y005743D01*
X013532Y005762D02*
X012568Y005762D01*
X011218Y005766D02*
X011218Y005116D01*
X011218Y005766D02*
X012182Y005766D01*
X012182Y005116D01*
X011218Y005116D01*
X011218Y005135D02*
X012182Y005135D01*
X012182Y005154D02*
X011218Y005154D01*
X011218Y005173D02*
X012182Y005173D01*
X012182Y005192D02*
X011218Y005192D01*
X011218Y005211D02*
X012182Y005211D01*
X012182Y005230D02*
X011218Y005230D01*
X011218Y005249D02*
X012182Y005249D01*
X012182Y005268D02*
X011218Y005268D01*
X011218Y005287D02*
X012182Y005287D01*
X012182Y005306D02*
X011218Y005306D01*
X011218Y005325D02*
X012182Y005325D01*
X012182Y005344D02*
X011218Y005344D01*
X011218Y005363D02*
X012182Y005363D01*
X012182Y005382D02*
X011218Y005382D01*
X011218Y005401D02*
X012182Y005401D01*
X012182Y005420D02*
X011218Y005420D01*
X011218Y005439D02*
X012182Y005439D01*
X012182Y005458D02*
X011218Y005458D01*
X011218Y005477D02*
X012182Y005477D01*
X012182Y005496D02*
X011218Y005496D01*
X011218Y005515D02*
X012182Y005515D01*
X012182Y005534D02*
X011218Y005534D01*
X011218Y005553D02*
X012182Y005553D01*
X012182Y005572D02*
X011218Y005572D01*
X011218Y005591D02*
X012182Y005591D01*
X012182Y005610D02*
X011218Y005610D01*
X011218Y005629D02*
X012182Y005629D01*
X012182Y005648D02*
X011218Y005648D01*
X011218Y005667D02*
X012182Y005667D01*
X012182Y005686D02*
X011218Y005686D01*
X011218Y005705D02*
X012182Y005705D01*
X012182Y005724D02*
X011218Y005724D01*
X011218Y005743D02*
X012182Y005743D01*
X012182Y005762D02*
X011218Y005762D01*
X012182Y004584D02*
X012182Y003934D01*
X011218Y003934D01*
X011218Y004584D01*
X012182Y004584D01*
X012182Y003953D02*
X011218Y003953D01*
X011218Y003972D02*
X012182Y003972D01*
X012182Y003991D02*
X011218Y003991D01*
X011218Y004010D02*
X012182Y004010D01*
X012182Y004029D02*
X011218Y004029D01*
X011218Y004048D02*
X012182Y004048D01*
X012182Y004067D02*
X011218Y004067D01*
X011218Y004086D02*
X012182Y004086D01*
X012182Y004105D02*
X011218Y004105D01*
X011218Y004124D02*
X012182Y004124D01*
X012182Y004143D02*
X011218Y004143D01*
X011218Y004162D02*
X012182Y004162D01*
X012182Y004181D02*
X011218Y004181D01*
X011218Y004200D02*
X012182Y004200D01*
X012182Y004219D02*
X011218Y004219D01*
X011218Y004238D02*
X012182Y004238D01*
X012182Y004257D02*
X011218Y004257D01*
X011218Y004276D02*
X012182Y004276D01*
X012182Y004295D02*
X011218Y004295D01*
X011218Y004314D02*
X012182Y004314D01*
X012182Y004333D02*
X011218Y004333D01*
X011218Y004352D02*
X012182Y004352D01*
X012182Y004371D02*
X011218Y004371D01*
X011218Y004390D02*
X012182Y004390D01*
X012182Y004409D02*
X011218Y004409D01*
X011218Y004428D02*
X012182Y004428D01*
X012182Y004447D02*
X011218Y004447D01*
X011218Y004466D02*
X012182Y004466D01*
X012182Y004485D02*
X011218Y004485D01*
X011218Y004504D02*
X012182Y004504D01*
X012182Y004523D02*
X011218Y004523D01*
X011218Y004542D02*
X012182Y004542D01*
X012182Y004561D02*
X011218Y004561D01*
X011218Y004580D02*
X012182Y004580D01*
X013532Y004584D02*
X013532Y003934D01*
X012568Y003934D01*
X012568Y004584D01*
X013532Y004584D01*
X013532Y003953D02*
X012568Y003953D01*
X012568Y003972D02*
X013532Y003972D01*
X013532Y003991D02*
X012568Y003991D01*
X012568Y004010D02*
X013532Y004010D01*
X013532Y004029D02*
X012568Y004029D01*
X012568Y004048D02*
X013532Y004048D01*
X013532Y004067D02*
X012568Y004067D01*
X012568Y004086D02*
X013532Y004086D01*
X013532Y004105D02*
X012568Y004105D01*
X012568Y004124D02*
X013532Y004124D01*
X013532Y004143D02*
X012568Y004143D01*
X012568Y004162D02*
X013532Y004162D01*
X013532Y004181D02*
X012568Y004181D01*
X012568Y004200D02*
X013532Y004200D01*
X013532Y004219D02*
X012568Y004219D01*
X012568Y004238D02*
X013532Y004238D01*
X013532Y004257D02*
X012568Y004257D01*
X012568Y004276D02*
X013532Y004276D01*
X013532Y004295D02*
X012568Y004295D01*
X012568Y004314D02*
X013532Y004314D01*
X013532Y004333D02*
X012568Y004333D01*
X012568Y004352D02*
X013532Y004352D01*
X013532Y004371D02*
X012568Y004371D01*
X012568Y004390D02*
X013532Y004390D01*
X013532Y004409D02*
X012568Y004409D01*
X012568Y004428D02*
X013532Y004428D01*
X013532Y004447D02*
X012568Y004447D01*
X012568Y004466D02*
X013532Y004466D01*
X013532Y004485D02*
X012568Y004485D01*
X012568Y004504D02*
X013532Y004504D01*
X013532Y004523D02*
X012568Y004523D01*
X012568Y004542D02*
X013532Y004542D01*
X013532Y004561D02*
X012568Y004561D01*
X012568Y004580D02*
X013532Y004580D01*
D22*
X012041Y003157D02*
X011807Y003157D01*
X012041Y003157D02*
X012041Y002667D01*
X011807Y002667D01*
X011807Y003157D01*
X011807Y002689D02*
X012041Y002689D01*
X012041Y002711D02*
X011807Y002711D01*
X011807Y002733D02*
X012041Y002733D01*
X012041Y002755D02*
X011807Y002755D01*
X011807Y002777D02*
X012041Y002777D01*
X012041Y002799D02*
X011807Y002799D01*
X011807Y002821D02*
X012041Y002821D01*
X012041Y002843D02*
X011807Y002843D01*
X011807Y002865D02*
X012041Y002865D01*
X012041Y002887D02*
X011807Y002887D01*
X011807Y002909D02*
X012041Y002909D01*
X012041Y002931D02*
X011807Y002931D01*
X011807Y002953D02*
X012041Y002953D01*
X012041Y002975D02*
X011807Y002975D01*
X011807Y002997D02*
X012041Y002997D01*
X012041Y003019D02*
X011807Y003019D01*
X011807Y003041D02*
X012041Y003041D01*
X012041Y003063D02*
X011807Y003063D01*
X011807Y003085D02*
X012041Y003085D01*
X012041Y003107D02*
X011807Y003107D01*
X011807Y003129D02*
X012041Y003129D01*
X012041Y003151D02*
X011807Y003151D01*
X011667Y003157D02*
X011433Y003157D01*
X011667Y003157D02*
X011667Y002667D01*
X011433Y002667D01*
X011433Y003157D01*
X011433Y002689D02*
X011667Y002689D01*
X011667Y002711D02*
X011433Y002711D01*
X011433Y002733D02*
X011667Y002733D01*
X011667Y002755D02*
X011433Y002755D01*
X011433Y002777D02*
X011667Y002777D01*
X011667Y002799D02*
X011433Y002799D01*
X011433Y002821D02*
X011667Y002821D01*
X011667Y002843D02*
X011433Y002843D01*
X011433Y002865D02*
X011667Y002865D01*
X011667Y002887D02*
X011433Y002887D01*
X011433Y002909D02*
X011667Y002909D01*
X011667Y002931D02*
X011433Y002931D01*
X011433Y002953D02*
X011667Y002953D01*
X011667Y002975D02*
X011433Y002975D01*
X011433Y002997D02*
X011667Y002997D01*
X011667Y003019D02*
X011433Y003019D01*
X011433Y003041D02*
X011667Y003041D01*
X011667Y003063D02*
X011433Y003063D01*
X011433Y003085D02*
X011667Y003085D01*
X011667Y003107D02*
X011433Y003107D01*
X011433Y003129D02*
X011667Y003129D01*
X011667Y003151D02*
X011433Y003151D01*
X011293Y003157D02*
X011059Y003157D01*
X011293Y003157D02*
X011293Y002667D01*
X011059Y002667D01*
X011059Y003157D01*
X011059Y002689D02*
X011293Y002689D01*
X011293Y002711D02*
X011059Y002711D01*
X011059Y002733D02*
X011293Y002733D01*
X011293Y002755D02*
X011059Y002755D01*
X011059Y002777D02*
X011293Y002777D01*
X011293Y002799D02*
X011059Y002799D01*
X011059Y002821D02*
X011293Y002821D01*
X011293Y002843D02*
X011059Y002843D01*
X011059Y002865D02*
X011293Y002865D01*
X011293Y002887D02*
X011059Y002887D01*
X011059Y002909D02*
X011293Y002909D01*
X011293Y002931D02*
X011059Y002931D01*
X011059Y002953D02*
X011293Y002953D01*
X011293Y002975D02*
X011059Y002975D01*
X011059Y002997D02*
X011293Y002997D01*
X011293Y003019D02*
X011059Y003019D01*
X011059Y003041D02*
X011293Y003041D01*
X011293Y003063D02*
X011059Y003063D01*
X011059Y003085D02*
X011293Y003085D01*
X011293Y003107D02*
X011059Y003107D01*
X011059Y003129D02*
X011293Y003129D01*
X011293Y003151D02*
X011059Y003151D01*
X011059Y002133D02*
X011293Y002133D01*
X011293Y001643D01*
X011059Y001643D01*
X011059Y002133D01*
X011059Y001665D02*
X011293Y001665D01*
X011293Y001687D02*
X011059Y001687D01*
X011059Y001709D02*
X011293Y001709D01*
X011293Y001731D02*
X011059Y001731D01*
X011059Y001753D02*
X011293Y001753D01*
X011293Y001775D02*
X011059Y001775D01*
X011059Y001797D02*
X011293Y001797D01*
X011293Y001819D02*
X011059Y001819D01*
X011059Y001841D02*
X011293Y001841D01*
X011293Y001863D02*
X011059Y001863D01*
X011059Y001885D02*
X011293Y001885D01*
X011293Y001907D02*
X011059Y001907D01*
X011059Y001929D02*
X011293Y001929D01*
X011293Y001951D02*
X011059Y001951D01*
X011059Y001973D02*
X011293Y001973D01*
X011293Y001995D02*
X011059Y001995D01*
X011059Y002017D02*
X011293Y002017D01*
X011293Y002039D02*
X011059Y002039D01*
X011059Y002061D02*
X011293Y002061D01*
X011293Y002083D02*
X011059Y002083D01*
X011059Y002105D02*
X011293Y002105D01*
X011293Y002127D02*
X011059Y002127D01*
X011807Y002133D02*
X012041Y002133D01*
X012041Y001643D01*
X011807Y001643D01*
X011807Y002133D01*
X011807Y001665D02*
X012041Y001665D01*
X012041Y001687D02*
X011807Y001687D01*
X011807Y001709D02*
X012041Y001709D01*
X012041Y001731D02*
X011807Y001731D01*
X011807Y001753D02*
X012041Y001753D01*
X012041Y001775D02*
X011807Y001775D01*
X011807Y001797D02*
X012041Y001797D01*
X012041Y001819D02*
X011807Y001819D01*
X011807Y001841D02*
X012041Y001841D01*
X012041Y001863D02*
X011807Y001863D01*
X011807Y001885D02*
X012041Y001885D01*
X012041Y001907D02*
X011807Y001907D01*
X011807Y001929D02*
X012041Y001929D01*
X012041Y001951D02*
X011807Y001951D01*
X011807Y001973D02*
X012041Y001973D01*
X012041Y001995D02*
X011807Y001995D01*
X011807Y002017D02*
X012041Y002017D01*
X012041Y002039D02*
X011807Y002039D01*
X011807Y002061D02*
X012041Y002061D01*
X012041Y002083D02*
X011807Y002083D01*
X011807Y002105D02*
X012041Y002105D01*
X012041Y002127D02*
X011807Y002127D01*
D23*
X014330Y005292D02*
X014330Y005504D01*
X014330Y005292D02*
X014058Y005292D01*
X014058Y005504D01*
X014330Y005504D01*
X014330Y005315D02*
X014058Y005315D01*
X014058Y005338D02*
X014330Y005338D01*
X014330Y005361D02*
X014058Y005361D01*
X014058Y005384D02*
X014330Y005384D01*
X014330Y005407D02*
X014058Y005407D01*
X014058Y005430D02*
X014330Y005430D01*
X014330Y005453D02*
X014058Y005453D01*
X014058Y005476D02*
X014330Y005476D01*
X014330Y005499D02*
X014058Y005499D01*
X014330Y005607D02*
X014330Y005819D01*
X014330Y005607D02*
X014058Y005607D01*
X014058Y005819D01*
X014330Y005819D01*
X014330Y005630D02*
X014058Y005630D01*
X014058Y005653D02*
X014330Y005653D01*
X014330Y005676D02*
X014058Y005676D01*
X014058Y005699D02*
X014330Y005699D01*
X014330Y005722D02*
X014058Y005722D01*
X014058Y005745D02*
X014330Y005745D01*
X014330Y005768D02*
X014058Y005768D01*
X014058Y005791D02*
X014330Y005791D01*
X014330Y005814D02*
X014058Y005814D01*
X014330Y005921D02*
X014330Y006133D01*
X014330Y005921D02*
X014058Y005921D01*
X014058Y006133D01*
X014330Y006133D01*
X014330Y005944D02*
X014058Y005944D01*
X014058Y005967D02*
X014330Y005967D01*
X014330Y005990D02*
X014058Y005990D01*
X014058Y006013D02*
X014330Y006013D01*
X014330Y006036D02*
X014058Y006036D01*
X014058Y006059D02*
X014330Y006059D01*
X014330Y006082D02*
X014058Y006082D01*
X014058Y006105D02*
X014330Y006105D01*
X014330Y006128D02*
X014058Y006128D01*
X014330Y006236D02*
X014330Y006448D01*
X014330Y006236D02*
X014058Y006236D01*
X014058Y006448D01*
X014330Y006448D01*
X014330Y006259D02*
X014058Y006259D01*
X014058Y006282D02*
X014330Y006282D01*
X014330Y006305D02*
X014058Y006305D01*
X014058Y006328D02*
X014330Y006328D01*
X014330Y006351D02*
X014058Y006351D01*
X014058Y006374D02*
X014330Y006374D01*
X014330Y006397D02*
X014058Y006397D01*
X014058Y006420D02*
X014330Y006420D01*
X014330Y006443D02*
X014058Y006443D01*
X014862Y006448D02*
X014862Y006236D01*
X014590Y006236D01*
X014590Y006448D01*
X014862Y006448D01*
X014862Y006259D02*
X014590Y006259D01*
X014590Y006282D02*
X014862Y006282D01*
X014862Y006305D02*
X014590Y006305D01*
X014590Y006328D02*
X014862Y006328D01*
X014862Y006351D02*
X014590Y006351D01*
X014590Y006374D02*
X014862Y006374D01*
X014862Y006397D02*
X014590Y006397D01*
X014590Y006420D02*
X014862Y006420D01*
X014862Y006443D02*
X014590Y006443D01*
X014862Y006133D02*
X014862Y005921D01*
X014590Y005921D01*
X014590Y006133D01*
X014862Y006133D01*
X014862Y005944D02*
X014590Y005944D01*
X014590Y005967D02*
X014862Y005967D01*
X014862Y005990D02*
X014590Y005990D01*
X014590Y006013D02*
X014862Y006013D01*
X014862Y006036D02*
X014590Y006036D01*
X014590Y006059D02*
X014862Y006059D01*
X014862Y006082D02*
X014590Y006082D01*
X014590Y006105D02*
X014862Y006105D01*
X014862Y006128D02*
X014590Y006128D01*
X014862Y005819D02*
X014862Y005607D01*
X014590Y005607D01*
X014590Y005819D01*
X014862Y005819D01*
X014862Y005630D02*
X014590Y005630D01*
X014590Y005653D02*
X014862Y005653D01*
X014862Y005676D02*
X014590Y005676D01*
X014590Y005699D02*
X014862Y005699D01*
X014862Y005722D02*
X014590Y005722D01*
X014590Y005745D02*
X014862Y005745D01*
X014862Y005768D02*
X014590Y005768D01*
X014590Y005791D02*
X014862Y005791D01*
X014862Y005814D02*
X014590Y005814D01*
X014862Y005504D02*
X014862Y005292D01*
X014590Y005292D01*
X014590Y005504D01*
X014862Y005504D01*
X014862Y005315D02*
X014590Y005315D01*
X014590Y005338D02*
X014862Y005338D01*
X014862Y005361D02*
X014590Y005361D01*
X014590Y005384D02*
X014862Y005384D01*
X014862Y005407D02*
X014590Y005407D01*
X014590Y005430D02*
X014862Y005430D01*
X014862Y005453D02*
X014590Y005453D01*
X014590Y005476D02*
X014862Y005476D01*
X014862Y005499D02*
X014590Y005499D01*
X005512Y007914D02*
X005512Y008126D01*
X005512Y007914D02*
X004588Y007914D01*
X004588Y008126D01*
X005512Y008126D01*
X005512Y007937D02*
X004588Y007937D01*
X004588Y007960D02*
X005512Y007960D01*
X005512Y007983D02*
X004588Y007983D01*
X004588Y008006D02*
X005512Y008006D01*
X005512Y008029D02*
X004588Y008029D01*
X004588Y008052D02*
X005512Y008052D01*
X005512Y008075D02*
X004588Y008075D01*
X004588Y008098D02*
X005512Y008098D01*
X005512Y008121D02*
X004588Y008121D01*
X005512Y008229D02*
X005512Y008441D01*
X005512Y008229D02*
X004588Y008229D01*
X004588Y008441D01*
X005512Y008441D01*
X005512Y008252D02*
X004588Y008252D01*
X004588Y008275D02*
X005512Y008275D01*
X005512Y008298D02*
X004588Y008298D01*
X004588Y008321D02*
X005512Y008321D01*
X005512Y008344D02*
X004588Y008344D01*
X004588Y008367D02*
X005512Y008367D01*
X005512Y008390D02*
X004588Y008390D01*
X004588Y008413D02*
X005512Y008413D01*
X005512Y008436D02*
X004588Y008436D01*
X005512Y008544D02*
X005512Y008756D01*
X005512Y008544D02*
X004588Y008544D01*
X004588Y008756D01*
X005512Y008756D01*
X005512Y008567D02*
X004588Y008567D01*
X004588Y008590D02*
X005512Y008590D01*
X005512Y008613D02*
X004588Y008613D01*
X004588Y008636D02*
X005512Y008636D01*
X005512Y008659D02*
X004588Y008659D01*
X004588Y008682D02*
X005512Y008682D01*
X005512Y008705D02*
X004588Y008705D01*
X004588Y008728D02*
X005512Y008728D01*
X005512Y008751D02*
X004588Y008751D01*
X005512Y008859D02*
X005512Y009071D01*
X005512Y008859D02*
X004588Y008859D01*
X004588Y009071D01*
X005512Y009071D01*
X005512Y008882D02*
X004588Y008882D01*
X004588Y008905D02*
X005512Y008905D01*
X005512Y008928D02*
X004588Y008928D01*
X004588Y008951D02*
X005512Y008951D01*
X005512Y008974D02*
X004588Y008974D01*
X004588Y008997D02*
X005512Y008997D01*
X005512Y009020D02*
X004588Y009020D01*
X004588Y009043D02*
X005512Y009043D01*
X005512Y009066D02*
X004588Y009066D01*
X005512Y009174D02*
X005512Y009386D01*
X005512Y009174D02*
X004588Y009174D01*
X004588Y009386D01*
X005512Y009386D01*
X005512Y009197D02*
X004588Y009197D01*
X004588Y009220D02*
X005512Y009220D01*
X005512Y009243D02*
X004588Y009243D01*
X004588Y009266D02*
X005512Y009266D01*
X005512Y009289D02*
X004588Y009289D01*
X004588Y009312D02*
X005512Y009312D01*
X005512Y009335D02*
X004588Y009335D01*
X004588Y009358D02*
X005512Y009358D01*
X005512Y009381D02*
X004588Y009381D01*
D24*
X004348Y009981D02*
X004348Y010783D01*
X005308Y010783D01*
X005308Y009981D01*
X004348Y009981D01*
X004348Y010005D02*
X005308Y010005D01*
X005308Y010029D02*
X004348Y010029D01*
X004348Y010053D02*
X005308Y010053D01*
X005308Y010077D02*
X004348Y010077D01*
X004348Y010101D02*
X005308Y010101D01*
X005308Y010125D02*
X004348Y010125D01*
X004348Y010149D02*
X005308Y010149D01*
X005308Y010173D02*
X004348Y010173D01*
X004348Y010197D02*
X005308Y010197D01*
X005308Y010221D02*
X004348Y010221D01*
X004348Y010245D02*
X005308Y010245D01*
X005308Y010269D02*
X004348Y010269D01*
X004348Y010293D02*
X005308Y010293D01*
X005308Y010317D02*
X004348Y010317D01*
X004348Y010341D02*
X005308Y010341D01*
X005308Y010365D02*
X004348Y010365D01*
X004348Y010389D02*
X005308Y010389D01*
X005308Y010413D02*
X004348Y010413D01*
X004348Y010437D02*
X005308Y010437D01*
X005308Y010461D02*
X004348Y010461D01*
X004348Y010485D02*
X005308Y010485D01*
X005308Y010509D02*
X004348Y010509D01*
X004348Y010533D02*
X005308Y010533D01*
X005308Y010557D02*
X004348Y010557D01*
X004348Y010581D02*
X005308Y010581D01*
X005308Y010605D02*
X004348Y010605D01*
X004348Y010629D02*
X005308Y010629D01*
X005308Y010653D02*
X004348Y010653D01*
X004348Y010677D02*
X005308Y010677D01*
X005308Y010701D02*
X004348Y010701D01*
X004348Y010725D02*
X005308Y010725D01*
X005308Y010749D02*
X004348Y010749D01*
X004348Y010773D02*
X005308Y010773D01*
X002183Y010783D02*
X002183Y009981D01*
X002183Y010783D02*
X003143Y010783D01*
X003143Y009981D01*
X002183Y009981D01*
X002183Y010005D02*
X003143Y010005D01*
X003143Y010029D02*
X002183Y010029D01*
X002183Y010053D02*
X003143Y010053D01*
X003143Y010077D02*
X002183Y010077D01*
X002183Y010101D02*
X003143Y010101D01*
X003143Y010125D02*
X002183Y010125D01*
X002183Y010149D02*
X003143Y010149D01*
X003143Y010173D02*
X002183Y010173D01*
X002183Y010197D02*
X003143Y010197D01*
X003143Y010221D02*
X002183Y010221D01*
X002183Y010245D02*
X003143Y010245D01*
X003143Y010269D02*
X002183Y010269D01*
X002183Y010293D02*
X003143Y010293D01*
X003143Y010317D02*
X002183Y010317D01*
X002183Y010341D02*
X003143Y010341D01*
X003143Y010365D02*
X002183Y010365D01*
X002183Y010389D02*
X003143Y010389D01*
X003143Y010413D02*
X002183Y010413D01*
X002183Y010437D02*
X003143Y010437D01*
X003143Y010461D02*
X002183Y010461D01*
X002183Y010485D02*
X003143Y010485D01*
X003143Y010509D02*
X002183Y010509D01*
X002183Y010533D02*
X003143Y010533D01*
X003143Y010557D02*
X002183Y010557D01*
X002183Y010581D02*
X003143Y010581D01*
X003143Y010605D02*
X002183Y010605D01*
X002183Y010629D02*
X003143Y010629D01*
X003143Y010653D02*
X002183Y010653D01*
X002183Y010677D02*
X003143Y010677D01*
X003143Y010701D02*
X002183Y010701D01*
X002183Y010725D02*
X003143Y010725D01*
X003143Y010749D02*
X002183Y010749D01*
X002183Y010773D02*
X003143Y010773D01*
X002183Y007319D02*
X002183Y006517D01*
X002183Y007319D02*
X003143Y007319D01*
X003143Y006517D01*
X002183Y006517D01*
X002183Y006541D02*
X003143Y006541D01*
X003143Y006565D02*
X002183Y006565D01*
X002183Y006589D02*
X003143Y006589D01*
X003143Y006613D02*
X002183Y006613D01*
X002183Y006637D02*
X003143Y006637D01*
X003143Y006661D02*
X002183Y006661D01*
X002183Y006685D02*
X003143Y006685D01*
X003143Y006709D02*
X002183Y006709D01*
X002183Y006733D02*
X003143Y006733D01*
X003143Y006757D02*
X002183Y006757D01*
X002183Y006781D02*
X003143Y006781D01*
X003143Y006805D02*
X002183Y006805D01*
X002183Y006829D02*
X003143Y006829D01*
X003143Y006853D02*
X002183Y006853D01*
X002183Y006877D02*
X003143Y006877D01*
X003143Y006901D02*
X002183Y006901D01*
X002183Y006925D02*
X003143Y006925D01*
X003143Y006949D02*
X002183Y006949D01*
X002183Y006973D02*
X003143Y006973D01*
X003143Y006997D02*
X002183Y006997D01*
X002183Y007021D02*
X003143Y007021D01*
X003143Y007045D02*
X002183Y007045D01*
X002183Y007069D02*
X003143Y007069D01*
X003143Y007093D02*
X002183Y007093D01*
X002183Y007117D02*
X003143Y007117D01*
X003143Y007141D02*
X002183Y007141D01*
X002183Y007165D02*
X003143Y007165D01*
X003143Y007189D02*
X002183Y007189D01*
X002183Y007213D02*
X003143Y007213D01*
X003143Y007237D02*
X002183Y007237D01*
X002183Y007261D02*
X003143Y007261D01*
X003143Y007285D02*
X002183Y007285D01*
X002183Y007309D02*
X003143Y007309D01*
X004348Y007319D02*
X004348Y006517D01*
X004348Y007319D02*
X005308Y007319D01*
X005308Y006517D01*
X004348Y006517D01*
X004348Y006541D02*
X005308Y006541D01*
X005308Y006565D02*
X004348Y006565D01*
X004348Y006589D02*
X005308Y006589D01*
X005308Y006613D02*
X004348Y006613D01*
X004348Y006637D02*
X005308Y006637D01*
X005308Y006661D02*
X004348Y006661D01*
X004348Y006685D02*
X005308Y006685D01*
X005308Y006709D02*
X004348Y006709D01*
X004348Y006733D02*
X005308Y006733D01*
X005308Y006757D02*
X004348Y006757D01*
X004348Y006781D02*
X005308Y006781D01*
X005308Y006805D02*
X004348Y006805D01*
X004348Y006829D02*
X005308Y006829D01*
X005308Y006853D02*
X004348Y006853D01*
X004348Y006877D02*
X005308Y006877D01*
X005308Y006901D02*
X004348Y006901D01*
X004348Y006925D02*
X005308Y006925D01*
X005308Y006949D02*
X004348Y006949D01*
X004348Y006973D02*
X005308Y006973D01*
X005308Y006997D02*
X004348Y006997D01*
X004348Y007021D02*
X005308Y007021D01*
X005308Y007045D02*
X004348Y007045D01*
X004348Y007069D02*
X005308Y007069D01*
X005308Y007093D02*
X004348Y007093D01*
X004348Y007117D02*
X005308Y007117D01*
X005308Y007141D02*
X004348Y007141D01*
X004348Y007165D02*
X005308Y007165D01*
X005308Y007189D02*
X004348Y007189D01*
X004348Y007213D02*
X005308Y007213D01*
X005308Y007237D02*
X004348Y007237D01*
X004348Y007261D02*
X005308Y007261D01*
X005308Y007285D02*
X004348Y007285D01*
X004348Y007309D02*
X005308Y007309D01*
D25*
X003844Y007784D03*
X003844Y009516D03*
D26*
X010470Y006310D02*
X010470Y005810D01*
X009570Y005810D01*
X009570Y006310D01*
X010470Y006310D01*
X010470Y005830D02*
X009570Y005830D01*
X009570Y005850D02*
X010470Y005850D01*
X010470Y005870D02*
X009570Y005870D01*
X009570Y005890D02*
X010470Y005890D01*
X010470Y005910D02*
X009570Y005910D01*
X009570Y005930D02*
X010470Y005930D01*
X010470Y005950D02*
X009570Y005950D01*
X009570Y005970D02*
X010470Y005970D01*
X010470Y005990D02*
X009570Y005990D01*
X009570Y006010D02*
X010470Y006010D01*
X010470Y006030D02*
X009570Y006030D01*
X009570Y006050D02*
X010470Y006050D01*
X010470Y006070D02*
X009570Y006070D01*
X009570Y006090D02*
X010470Y006090D01*
X010470Y006110D02*
X009570Y006110D01*
X009570Y006130D02*
X010470Y006130D01*
X010470Y006150D02*
X009570Y006150D01*
X009570Y006170D02*
X010470Y006170D01*
X010470Y006190D02*
X009570Y006190D01*
X009570Y006210D02*
X010470Y006210D01*
X010470Y006230D02*
X009570Y006230D01*
X009570Y006250D02*
X010470Y006250D01*
X010470Y006270D02*
X009570Y006270D01*
X009570Y006290D02*
X010470Y006290D01*
X010470Y006310D02*
X009570Y006310D01*
X010470Y005400D02*
X010470Y004900D01*
X009570Y004900D01*
X009570Y005400D01*
X010470Y005400D01*
X010470Y004920D02*
X009570Y004920D01*
X009570Y004940D02*
X010470Y004940D01*
X010470Y004960D02*
X009570Y004960D01*
X009570Y004980D02*
X010470Y004980D01*
X010470Y005000D02*
X009570Y005000D01*
X009570Y005020D02*
X010470Y005020D01*
X010470Y005040D02*
X009570Y005040D01*
X009570Y005060D02*
X010470Y005060D01*
X010470Y005080D02*
X009570Y005080D01*
X009570Y005100D02*
X010470Y005100D01*
X010470Y005120D02*
X009570Y005120D01*
X009570Y005140D02*
X010470Y005140D01*
X010470Y005160D02*
X009570Y005160D01*
X009570Y005180D02*
X010470Y005180D01*
X010470Y005200D02*
X009570Y005200D01*
X009570Y005220D02*
X010470Y005220D01*
X010470Y005240D02*
X009570Y005240D01*
X009570Y005260D02*
X010470Y005260D01*
X010470Y005280D02*
X009570Y005280D01*
X009570Y005300D02*
X010470Y005300D01*
X010470Y005320D02*
X009570Y005320D01*
X009570Y005340D02*
X010470Y005340D01*
X010470Y005360D02*
X009570Y005360D01*
X009570Y005380D02*
X010470Y005380D01*
X010470Y005400D02*
X009570Y005400D01*
X010470Y004490D02*
X010470Y003990D01*
X009570Y003990D01*
X009570Y004490D01*
X010470Y004490D01*
X010470Y004010D02*
X009570Y004010D01*
X009570Y004030D02*
X010470Y004030D01*
X010470Y004050D02*
X009570Y004050D01*
X009570Y004070D02*
X010470Y004070D01*
X010470Y004090D02*
X009570Y004090D01*
X009570Y004110D02*
X010470Y004110D01*
X010470Y004130D02*
X009570Y004130D01*
X009570Y004150D02*
X010470Y004150D01*
X010470Y004170D02*
X009570Y004170D01*
X009570Y004190D02*
X010470Y004190D01*
X010470Y004210D02*
X009570Y004210D01*
X009570Y004230D02*
X010470Y004230D01*
X010470Y004250D02*
X009570Y004250D01*
X009570Y004270D02*
X010470Y004270D01*
X010470Y004290D02*
X009570Y004290D01*
X009570Y004310D02*
X010470Y004310D01*
X010470Y004330D02*
X009570Y004330D01*
X009570Y004350D02*
X010470Y004350D01*
X010470Y004370D02*
X009570Y004370D01*
X009570Y004390D02*
X010470Y004390D01*
X010470Y004410D02*
X009570Y004410D01*
X009570Y004430D02*
X010470Y004430D01*
X010470Y004450D02*
X009570Y004450D01*
X009570Y004470D02*
X010470Y004470D01*
X010470Y004490D02*
X009570Y004490D01*
D27*
X008024Y004431D02*
X008024Y005869D01*
X008024Y004431D02*
X007136Y004431D01*
X007136Y005869D01*
X008024Y005869D01*
X008024Y004448D02*
X007136Y004448D01*
X007136Y004465D02*
X008024Y004465D01*
X008024Y004482D02*
X007136Y004482D01*
X007136Y004499D02*
X008024Y004499D01*
X008024Y004516D02*
X007136Y004516D01*
X007136Y004533D02*
X008024Y004533D01*
X008024Y004550D02*
X007136Y004550D01*
X007136Y004567D02*
X008024Y004567D01*
X008024Y004584D02*
X007136Y004584D01*
X007136Y004601D02*
X008024Y004601D01*
X008024Y004618D02*
X007136Y004618D01*
X007136Y004635D02*
X008024Y004635D01*
X008024Y004652D02*
X007136Y004652D01*
X007136Y004669D02*
X008024Y004669D01*
X008024Y004686D02*
X007136Y004686D01*
X007136Y004703D02*
X008024Y004703D01*
X008024Y004720D02*
X007136Y004720D01*
X007136Y004737D02*
X008024Y004737D01*
X008024Y004754D02*
X007136Y004754D01*
X007136Y004771D02*
X008024Y004771D01*
X008024Y004788D02*
X007136Y004788D01*
X007136Y004805D02*
X008024Y004805D01*
X008024Y004822D02*
X007136Y004822D01*
X007136Y004839D02*
X008024Y004839D01*
X008024Y004856D02*
X007136Y004856D01*
X007136Y004873D02*
X008024Y004873D01*
X008024Y004890D02*
X007136Y004890D01*
X007136Y004907D02*
X008024Y004907D01*
X008024Y004924D02*
X007136Y004924D01*
X007136Y004941D02*
X008024Y004941D01*
X008024Y004958D02*
X007136Y004958D01*
X007136Y004975D02*
X008024Y004975D01*
X008024Y004992D02*
X007136Y004992D01*
X007136Y005009D02*
X008024Y005009D01*
X008024Y005026D02*
X007136Y005026D01*
X007136Y005043D02*
X008024Y005043D01*
X008024Y005060D02*
X007136Y005060D01*
X007136Y005077D02*
X008024Y005077D01*
X008024Y005094D02*
X007136Y005094D01*
X007136Y005111D02*
X008024Y005111D01*
X008024Y005128D02*
X007136Y005128D01*
X007136Y005145D02*
X008024Y005145D01*
X008024Y005162D02*
X007136Y005162D01*
X007136Y005179D02*
X008024Y005179D01*
X008024Y005196D02*
X007136Y005196D01*
X007136Y005213D02*
X008024Y005213D01*
X008024Y005230D02*
X007136Y005230D01*
X007136Y005247D02*
X008024Y005247D01*
X008024Y005264D02*
X007136Y005264D01*
X007136Y005281D02*
X008024Y005281D01*
X008024Y005298D02*
X007136Y005298D01*
X007136Y005315D02*
X008024Y005315D01*
X008024Y005332D02*
X007136Y005332D01*
X007136Y005349D02*
X008024Y005349D01*
X008024Y005366D02*
X007136Y005366D01*
X007136Y005383D02*
X008024Y005383D01*
X008024Y005400D02*
X007136Y005400D01*
X007136Y005417D02*
X008024Y005417D01*
X008024Y005434D02*
X007136Y005434D01*
X007136Y005451D02*
X008024Y005451D01*
X008024Y005468D02*
X007136Y005468D01*
X007136Y005485D02*
X008024Y005485D01*
X008024Y005502D02*
X007136Y005502D01*
X007136Y005519D02*
X008024Y005519D01*
X008024Y005536D02*
X007136Y005536D01*
X007136Y005553D02*
X008024Y005553D01*
X008024Y005570D02*
X007136Y005570D01*
X007136Y005587D02*
X008024Y005587D01*
X008024Y005604D02*
X007136Y005604D01*
X007136Y005621D02*
X008024Y005621D01*
X008024Y005638D02*
X007136Y005638D01*
X007136Y005655D02*
X008024Y005655D01*
X008024Y005672D02*
X007136Y005672D01*
X007136Y005689D02*
X008024Y005689D01*
X008024Y005706D02*
X007136Y005706D01*
X007136Y005723D02*
X008024Y005723D01*
X008024Y005740D02*
X007136Y005740D01*
X007136Y005757D02*
X008024Y005757D01*
X008024Y005774D02*
X007136Y005774D01*
X007136Y005791D02*
X008024Y005791D01*
X008024Y005808D02*
X007136Y005808D01*
X007136Y005825D02*
X008024Y005825D01*
X008024Y005842D02*
X007136Y005842D01*
X007136Y005859D02*
X008024Y005859D01*
D28*
X013450Y013150D03*
X014450Y013150D03*
X015450Y013150D03*
X016450Y013150D03*
X017450Y013150D03*
X018450Y013150D03*
X019450Y013150D03*
X020450Y013150D03*
X021450Y013150D03*
X022450Y013150D03*
X023450Y013150D03*
X024450Y013150D03*
X025450Y013150D03*
X026450Y013150D03*
X027450Y013150D03*
X028450Y013150D03*
X029450Y010400D03*
X028450Y010150D03*
X029450Y009400D03*
X028450Y009150D03*
X027450Y008900D03*
X027450Y007900D03*
X023450Y007150D03*
X022450Y007150D03*
D29*
X029091Y007504D02*
X029091Y007772D01*
X029609Y007772D01*
X029609Y007504D01*
X029091Y007504D01*
X029091Y007526D02*
X029609Y007526D01*
X029609Y007548D02*
X029091Y007548D01*
X029091Y007570D02*
X029609Y007570D01*
X029609Y007592D02*
X029091Y007592D01*
X029091Y007614D02*
X029609Y007614D01*
X029609Y007636D02*
X029091Y007636D01*
X029091Y007658D02*
X029609Y007658D01*
X029609Y007680D02*
X029091Y007680D01*
X029091Y007702D02*
X029609Y007702D01*
X029609Y007724D02*
X029091Y007724D01*
X029091Y007746D02*
X029609Y007746D01*
X029609Y007768D02*
X029091Y007768D01*
X029609Y007824D02*
X029609Y008092D01*
X029609Y007824D02*
X029091Y007824D01*
X029091Y008092D01*
X029609Y008092D01*
X029609Y007846D02*
X029091Y007846D01*
X029091Y007868D02*
X029609Y007868D01*
X029609Y007890D02*
X029091Y007890D01*
X029091Y007912D02*
X029609Y007912D01*
X029609Y007934D02*
X029091Y007934D01*
X029091Y007956D02*
X029609Y007956D01*
X029609Y007978D02*
X029091Y007978D01*
X029091Y008000D02*
X029609Y008000D01*
X029609Y008022D02*
X029091Y008022D01*
X029091Y008044D02*
X029609Y008044D01*
X029609Y008066D02*
X029091Y008066D01*
X029091Y008088D02*
X029609Y008088D01*
D30*
X029461Y003739D02*
X028539Y003739D01*
X028539Y004361D01*
X029461Y004361D01*
X029461Y003739D01*
X029461Y003757D02*
X028539Y003757D01*
X028539Y003775D02*
X029461Y003775D01*
X029461Y003793D02*
X028539Y003793D01*
X028539Y003811D02*
X029461Y003811D01*
X029461Y003829D02*
X028539Y003829D01*
X028539Y003847D02*
X029461Y003847D01*
X029461Y003865D02*
X028539Y003865D01*
X028539Y003883D02*
X029461Y003883D01*
X029461Y003901D02*
X028539Y003901D01*
X028539Y003919D02*
X029461Y003919D01*
X029461Y003937D02*
X028539Y003937D01*
X028539Y003955D02*
X029461Y003955D01*
X029461Y003973D02*
X028539Y003973D01*
X028539Y003991D02*
X029461Y003991D01*
X029461Y004009D02*
X028539Y004009D01*
X028539Y004027D02*
X029461Y004027D01*
X029461Y004045D02*
X028539Y004045D01*
X028539Y004063D02*
X029461Y004063D01*
X029461Y004081D02*
X028539Y004081D01*
X028539Y004099D02*
X029461Y004099D01*
X029461Y004117D02*
X028539Y004117D01*
X028539Y004135D02*
X029461Y004135D01*
X029461Y004153D02*
X028539Y004153D01*
X028539Y004171D02*
X029461Y004171D01*
X029461Y004189D02*
X028539Y004189D01*
X028539Y004207D02*
X029461Y004207D01*
X029461Y004225D02*
X028539Y004225D01*
X028539Y004243D02*
X029461Y004243D01*
X029461Y004261D02*
X028539Y004261D01*
X028539Y004279D02*
X029461Y004279D01*
X029461Y004297D02*
X028539Y004297D01*
X028539Y004315D02*
X029461Y004315D01*
X029461Y004333D02*
X028539Y004333D01*
X028539Y004351D02*
X029461Y004351D01*
X026861Y003739D02*
X025939Y003739D01*
X025939Y004361D01*
X026861Y004361D01*
X026861Y003739D01*
X026861Y003757D02*
X025939Y003757D01*
X025939Y003775D02*
X026861Y003775D01*
X026861Y003793D02*
X025939Y003793D01*
X025939Y003811D02*
X026861Y003811D01*
X026861Y003829D02*
X025939Y003829D01*
X025939Y003847D02*
X026861Y003847D01*
X026861Y003865D02*
X025939Y003865D01*
X025939Y003883D02*
X026861Y003883D01*
X026861Y003901D02*
X025939Y003901D01*
X025939Y003919D02*
X026861Y003919D01*
X026861Y003937D02*
X025939Y003937D01*
X025939Y003955D02*
X026861Y003955D01*
X026861Y003973D02*
X025939Y003973D01*
X025939Y003991D02*
X026861Y003991D01*
X026861Y004009D02*
X025939Y004009D01*
X025939Y004027D02*
X026861Y004027D01*
X026861Y004045D02*
X025939Y004045D01*
X025939Y004063D02*
X026861Y004063D01*
X026861Y004081D02*
X025939Y004081D01*
X025939Y004099D02*
X026861Y004099D01*
X026861Y004117D02*
X025939Y004117D01*
X025939Y004135D02*
X026861Y004135D01*
X026861Y004153D02*
X025939Y004153D01*
X025939Y004171D02*
X026861Y004171D01*
X026861Y004189D02*
X025939Y004189D01*
X025939Y004207D02*
X026861Y004207D01*
X026861Y004225D02*
X025939Y004225D01*
X025939Y004243D02*
X026861Y004243D01*
X026861Y004261D02*
X025939Y004261D01*
X025939Y004279D02*
X026861Y004279D01*
X026861Y004297D02*
X025939Y004297D01*
X025939Y004315D02*
X026861Y004315D01*
X026861Y004333D02*
X025939Y004333D01*
X025939Y004351D02*
X026861Y004351D01*
X026861Y001939D02*
X025939Y001939D01*
X025939Y002561D01*
X026861Y002561D01*
X026861Y001939D01*
X026861Y001957D02*
X025939Y001957D01*
X025939Y001975D02*
X026861Y001975D01*
X026861Y001993D02*
X025939Y001993D01*
X025939Y002011D02*
X026861Y002011D01*
X026861Y002029D02*
X025939Y002029D01*
X025939Y002047D02*
X026861Y002047D01*
X026861Y002065D02*
X025939Y002065D01*
X025939Y002083D02*
X026861Y002083D01*
X026861Y002101D02*
X025939Y002101D01*
X025939Y002119D02*
X026861Y002119D01*
X026861Y002137D02*
X025939Y002137D01*
X025939Y002155D02*
X026861Y002155D01*
X026861Y002173D02*
X025939Y002173D01*
X025939Y002191D02*
X026861Y002191D01*
X026861Y002209D02*
X025939Y002209D01*
X025939Y002227D02*
X026861Y002227D01*
X026861Y002245D02*
X025939Y002245D01*
X025939Y002263D02*
X026861Y002263D01*
X026861Y002281D02*
X025939Y002281D01*
X025939Y002299D02*
X026861Y002299D01*
X026861Y002317D02*
X025939Y002317D01*
X025939Y002335D02*
X026861Y002335D01*
X026861Y002353D02*
X025939Y002353D01*
X025939Y002371D02*
X026861Y002371D01*
X026861Y002389D02*
X025939Y002389D01*
X025939Y002407D02*
X026861Y002407D01*
X026861Y002425D02*
X025939Y002425D01*
X025939Y002443D02*
X026861Y002443D01*
X026861Y002461D02*
X025939Y002461D01*
X025939Y002479D02*
X026861Y002479D01*
X026861Y002497D02*
X025939Y002497D01*
X025939Y002515D02*
X026861Y002515D01*
X026861Y002533D02*
X025939Y002533D01*
X025939Y002551D02*
X026861Y002551D01*
X028539Y001939D02*
X029461Y001939D01*
X028539Y001939D02*
X028539Y002561D01*
X029461Y002561D01*
X029461Y001939D01*
X029461Y001957D02*
X028539Y001957D01*
X028539Y001975D02*
X029461Y001975D01*
X029461Y001993D02*
X028539Y001993D01*
X028539Y002011D02*
X029461Y002011D01*
X029461Y002029D02*
X028539Y002029D01*
X028539Y002047D02*
X029461Y002047D01*
X029461Y002065D02*
X028539Y002065D01*
X028539Y002083D02*
X029461Y002083D01*
X029461Y002101D02*
X028539Y002101D01*
X028539Y002119D02*
X029461Y002119D01*
X029461Y002137D02*
X028539Y002137D01*
X028539Y002155D02*
X029461Y002155D01*
X029461Y002173D02*
X028539Y002173D01*
X028539Y002191D02*
X029461Y002191D01*
X029461Y002209D02*
X028539Y002209D01*
X028539Y002227D02*
X029461Y002227D01*
X029461Y002245D02*
X028539Y002245D01*
X028539Y002263D02*
X029461Y002263D01*
X029461Y002281D02*
X028539Y002281D01*
X028539Y002299D02*
X029461Y002299D01*
X029461Y002317D02*
X028539Y002317D01*
X028539Y002335D02*
X029461Y002335D01*
X029461Y002353D02*
X028539Y002353D01*
X028539Y002371D02*
X029461Y002371D01*
X029461Y002389D02*
X028539Y002389D01*
X028539Y002407D02*
X029461Y002407D01*
X029461Y002425D02*
X028539Y002425D01*
X028539Y002443D02*
X029461Y002443D01*
X029461Y002461D02*
X028539Y002461D01*
X028539Y002479D02*
X029461Y002479D01*
X029461Y002497D02*
X028539Y002497D01*
X028539Y002515D02*
X029461Y002515D01*
X029461Y002533D02*
X028539Y002533D01*
X028539Y002551D02*
X029461Y002551D01*
D31*
X027394Y003150D02*
X027396Y003185D01*
X027402Y003219D01*
X027412Y003253D01*
X027425Y003285D01*
X027443Y003315D01*
X027463Y003344D01*
X027487Y003369D01*
X027513Y003392D01*
X027542Y003412D01*
X027573Y003428D01*
X027605Y003441D01*
X027639Y003450D01*
X027674Y003455D01*
X027709Y003456D01*
X027744Y003453D01*
X027778Y003446D01*
X027811Y003435D01*
X027843Y003421D01*
X027873Y003403D01*
X027900Y003381D01*
X027925Y003357D01*
X027948Y003330D01*
X027966Y003300D01*
X027982Y003269D01*
X027994Y003236D01*
X028002Y003202D01*
X028006Y003167D01*
X028006Y003133D01*
X028002Y003098D01*
X027994Y003064D01*
X027982Y003031D01*
X027966Y003000D01*
X027948Y002970D01*
X027925Y002943D01*
X027900Y002919D01*
X027873Y002897D01*
X027843Y002879D01*
X027811Y002865D01*
X027778Y002854D01*
X027744Y002847D01*
X027709Y002844D01*
X027674Y002845D01*
X027639Y002850D01*
X027605Y002859D01*
X027573Y002872D01*
X027542Y002888D01*
X027513Y002908D01*
X027487Y002931D01*
X027463Y002956D01*
X027443Y002985D01*
X027425Y003015D01*
X027412Y003047D01*
X027402Y003081D01*
X027396Y003115D01*
X027394Y003150D01*
X001944Y008650D02*
X001946Y008685D01*
X001952Y008719D01*
X001962Y008753D01*
X001975Y008785D01*
X001993Y008815D01*
X002013Y008844D01*
X002037Y008869D01*
X002063Y008892D01*
X002092Y008912D01*
X002123Y008928D01*
X002155Y008941D01*
X002189Y008950D01*
X002224Y008955D01*
X002259Y008956D01*
X002294Y008953D01*
X002328Y008946D01*
X002361Y008935D01*
X002393Y008921D01*
X002423Y008903D01*
X002450Y008881D01*
X002475Y008857D01*
X002498Y008830D01*
X002516Y008800D01*
X002532Y008769D01*
X002544Y008736D01*
X002552Y008702D01*
X002556Y008667D01*
X002556Y008633D01*
X002552Y008598D01*
X002544Y008564D01*
X002532Y008531D01*
X002516Y008500D01*
X002498Y008470D01*
X002475Y008443D01*
X002450Y008419D01*
X002423Y008397D01*
X002393Y008379D01*
X002361Y008365D01*
X002328Y008354D01*
X002294Y008347D01*
X002259Y008344D01*
X002224Y008345D01*
X002189Y008350D01*
X002155Y008359D01*
X002123Y008372D01*
X002092Y008388D01*
X002063Y008408D01*
X002037Y008431D01*
X002013Y008456D01*
X001993Y008485D01*
X001975Y008515D01*
X001962Y008547D01*
X001952Y008581D01*
X001946Y008615D01*
X001944Y008650D01*
D32*
X004713Y002600D03*
X005894Y004450D03*
X003531Y004450D03*
M02*
