G75*
G70*
%OFA0B0*%
%FSLAX24Y24*%
%IPPOS*%
%LPD*%
%AMOC8*
5,1,8,0,0,1.08239X$1,22.5*
%
%ADD10C,0.1300*%
%ADD11R,0.0087X0.0007*%
%ADD12R,0.0120X0.0007*%
%ADD13R,0.0147X0.0007*%
%ADD14R,0.0153X0.0007*%
%ADD15R,0.0160X0.0007*%
%ADD16R,0.0160X0.0007*%
%ADD17R,0.0167X0.0007*%
%ADD18R,0.0173X0.0007*%
%ADD19R,0.0033X0.0007*%
%ADD20R,0.0093X0.0007*%
%ADD21R,0.0080X0.0007*%
%ADD22R,0.0073X0.0007*%
%ADD23R,0.0080X0.0007*%
%ADD24R,0.0147X0.0007*%
%ADD25R,0.0100X0.0007*%
%ADD26R,0.0067X0.0007*%
%ADD27R,0.0100X0.0007*%
%ADD28R,0.0207X0.0007*%
%ADD29R,0.0140X0.0007*%
%ADD30R,0.0107X0.0007*%
%ADD31R,0.0180X0.0007*%
%ADD32R,0.0133X0.0007*%
%ADD33R,0.0140X0.0007*%
%ADD34R,0.0220X0.0007*%
%ADD35R,0.0167X0.0007*%
%ADD36R,0.0127X0.0007*%
%ADD37R,0.0207X0.0007*%
%ADD38R,0.0173X0.0007*%
%ADD39R,0.0233X0.0007*%
%ADD40R,0.0187X0.0007*%
%ADD41R,0.0193X0.0007*%
%ADD42R,0.0227X0.0007*%
%ADD43R,0.0193X0.0007*%
%ADD44R,0.0247X0.0007*%
%ADD45R,0.0213X0.0007*%
%ADD46R,0.0240X0.0007*%
%ADD47R,0.0213X0.0007*%
%ADD48R,0.0253X0.0007*%
%ADD49R,0.0267X0.0007*%
%ADD50R,0.0260X0.0007*%
%ADD51R,0.0227X0.0007*%
%ADD52R,0.0260X0.0007*%
%ADD53R,0.0273X0.0007*%
%ADD54R,0.0280X0.0007*%
%ADD55R,0.0127X0.0007*%
%ADD56R,0.0107X0.0007*%
%ADD57R,0.0287X0.0007*%
%ADD58R,0.0113X0.0007*%
%ADD59R,0.0087X0.0007*%
%ADD60R,0.0293X0.0007*%
%ADD61R,0.0060X0.0007*%
%ADD62R,0.0060X0.0007*%
%ADD63R,0.0040X0.0007*%
%ADD64R,0.0047X0.0007*%
%ADD65R,0.0040X0.0007*%
%ADD66R,0.0027X0.0007*%
%ADD67R,0.0013X0.0007*%
%ADD68R,0.0020X0.0007*%
%ADD69R,0.0067X0.0007*%
%ADD70R,0.0073X0.0007*%
%ADD71R,0.0287X0.0007*%
%ADD72R,0.0293X0.0007*%
%ADD73R,0.0007X0.0007*%
%ADD74R,0.0020X0.0007*%
%ADD75R,0.0053X0.0007*%
%ADD76R,0.0280X0.0007*%
%ADD77R,0.0267X0.0007*%
%ADD78R,0.0240X0.0007*%
%ADD79R,0.0273X0.0007*%
%ADD80R,0.0233X0.0007*%
%ADD81R,0.0253X0.0007*%
%ADD82R,0.0247X0.0007*%
%ADD83R,0.0200X0.0007*%
%ADD84R,0.0220X0.0007*%
%ADD85R,0.0187X0.0007*%
%ADD86R,0.0065X0.0005*%
%ADD87R,0.0030X0.0005*%
%ADD88R,0.0025X0.0005*%
%ADD89R,0.0070X0.0005*%
%ADD90R,0.0060X0.0005*%
%ADD91R,0.0175X0.0005*%
%ADD92R,0.0115X0.0005*%
%ADD93R,0.0090X0.0005*%
%ADD94R,0.0080X0.0005*%
%ADD95R,0.0170X0.0005*%
%ADD96R,0.0110X0.0005*%
%ADD97R,0.0085X0.0005*%
%ADD98R,0.0210X0.0005*%
%ADD99R,0.0145X0.0005*%
%ADD100R,0.0095X0.0005*%
%ADD101R,0.0105X0.0005*%
%ADD102R,0.0075X0.0005*%
%ADD103R,0.0135X0.0005*%
%ADD104R,0.0290X0.0005*%
%ADD105R,0.0140X0.0005*%
%ADD106R,0.0220X0.0005*%
%ADD107R,0.0165X0.0005*%
%ADD108R,0.0125X0.0005*%
%ADD109R,0.0225X0.0005*%
%ADD110R,0.0160X0.0005*%
%ADD111R,0.0130X0.0005*%
%ADD112R,0.0155X0.0005*%
%ADD113R,0.0230X0.0005*%
%ADD114R,0.0185X0.0005*%
%ADD115R,0.0150X0.0005*%
%ADD116R,0.0120X0.0005*%
%ADD117R,0.0235X0.0005*%
%ADD118R,0.0180X0.0005*%
%ADD119R,0.0240X0.0005*%
%ADD120R,0.0200X0.0005*%
%ADD121R,0.0195X0.0005*%
%ADD122R,0.0190X0.0005*%
%ADD123R,0.0245X0.0005*%
%ADD124R,0.0250X0.0005*%
%ADD125R,0.0205X0.0005*%
%ADD126R,0.0255X0.0005*%
%ADD127R,0.0215X0.0005*%
%ADD128R,0.0260X0.0005*%
%ADD129R,0.0320X0.0005*%
%ADD130R,0.0270X0.0005*%
%ADD131R,0.0315X0.0005*%
%ADD132R,0.0275X0.0005*%
%ADD133R,0.0100X0.0005*%
%ADD134R,0.0280X0.0005*%
%ADD135R,0.0050X0.0005*%
%ADD136R,0.0045X0.0005*%
%ADD137R,0.0035X0.0005*%
%ADD138R,0.0015X0.0005*%
%ADD139R,0.0005X0.0005*%
%ADD140R,0.0285X0.0005*%
%ADD141R,0.0010X0.0005*%
%ADD142R,0.0020X0.0005*%
%ADD143R,0.0040X0.0005*%
%ADD144R,0.0265X0.0005*%
%ADD145R,0.0055X0.0005*%
%ADD146R,0.0325X0.0005*%
%ADD147R,0.0485X0.0005*%
%ADD148R,0.0355X0.0005*%
%ADD149R,0.0370X0.0005*%
%ADD150R,0.0375X0.0005*%
%ADD151R,0.0385X0.0005*%
%ADD152R,0.0390X0.0005*%
%ADD153R,0.0400X0.0005*%
%ADD154R,0.0410X0.0005*%
%ADD155R,0.0415X0.0005*%
%ADD156R,0.0305X0.0005*%
%ADD157R,0.0300X0.0005*%
%ADD158R,0.0420X0.0005*%
%ADD159R,0.0425X0.0005*%
%ADD160R,0.0310X0.0005*%
%ADD161R,0.0430X0.0005*%
%ADD162R,0.0330X0.0005*%
%ADD163R,0.0440X0.0005*%
%ADD164R,0.0345X0.0005*%
%ADD165R,0.0335X0.0005*%
%ADD166R,0.0445X0.0005*%
%ADD167R,0.0450X0.0005*%
%ADD168R,0.0360X0.0005*%
%ADD169R,0.0455X0.0005*%
%ADD170R,0.0460X0.0005*%
%ADD171R,0.0465X0.0005*%
%ADD172R,0.0380X0.0005*%
%ADD173R,0.0470X0.0005*%
%ADD174R,0.0475X0.0005*%
%ADD175R,0.0480X0.0005*%
%ADD176R,0.0405X0.0005*%
%ADD177R,0.0395X0.0005*%
%ADD178R,0.0490X0.0005*%
%ADD179R,0.0495X0.0005*%
%ADD180R,0.0435X0.0005*%
%ADD181R,0.0500X0.0005*%
%ADD182R,0.0505X0.0005*%
%ADD183R,0.0510X0.0005*%
%ADD184R,0.0365X0.0005*%
%ADD185R,0.0340X0.0005*%
%ADD186R,0.0295X0.0005*%
%ADD187R,0.0350X0.0005*%
%ADD188C,0.0740*%
%ADD189C,0.0600*%
%ADD190C,0.0434*%
%ADD191C,0.0780*%
%ADD192C,0.1140*%
D10*
X004595Y013400D03*
X023850Y002300D03*
D11*
X010583Y008752D03*
X010583Y008758D03*
X010577Y008738D03*
X010403Y008732D03*
X010383Y008858D03*
X010397Y008898D03*
X010403Y008912D03*
X010223Y008718D03*
X010070Y008738D03*
X010063Y008745D03*
X010063Y008752D03*
X010050Y008778D03*
X010043Y008812D03*
X010043Y008818D03*
X010043Y008825D03*
X010043Y008832D03*
X010043Y008838D03*
X010050Y008872D03*
X010050Y008878D03*
X010063Y008905D03*
X009730Y008705D03*
X009737Y008685D03*
X009743Y008672D03*
X009890Y008578D03*
X009890Y008572D03*
X009890Y008565D03*
X009890Y008558D03*
X009503Y008685D03*
X009503Y008692D03*
X009510Y008705D03*
X009497Y008672D03*
X009377Y008745D03*
X009383Y008758D03*
X009383Y008765D03*
X009203Y008732D03*
X009183Y008872D03*
X009190Y008892D03*
X009197Y008898D03*
X009197Y008905D03*
X009037Y008832D03*
X009043Y008812D03*
X009043Y008805D03*
X009043Y008798D03*
X009043Y008792D03*
X009050Y008778D03*
X009050Y008772D03*
X009050Y008765D03*
X009050Y008758D03*
X009050Y008752D03*
X009050Y008745D03*
X009050Y008738D03*
X009050Y008732D03*
X009050Y008725D03*
X009050Y008718D03*
X009043Y008705D03*
X009043Y008698D03*
X009043Y008692D03*
X009037Y008672D03*
X008777Y008672D03*
X008777Y008678D03*
X008777Y008685D03*
X008777Y008692D03*
X008777Y008698D03*
X008777Y008705D03*
X008777Y008712D03*
X008777Y008718D03*
X008777Y008725D03*
X008777Y008732D03*
X008777Y008738D03*
X008777Y008745D03*
X008777Y008752D03*
X008777Y008758D03*
X008777Y008765D03*
X008777Y008772D03*
X008777Y008778D03*
X008777Y008785D03*
X008777Y008792D03*
X008777Y008798D03*
X008777Y008805D03*
X008777Y008812D03*
X008777Y008818D03*
X008777Y008825D03*
X008777Y008832D03*
X008777Y008838D03*
X008777Y008845D03*
X008777Y008852D03*
X008777Y008858D03*
X008777Y008865D03*
X008777Y008872D03*
X008777Y008878D03*
X008777Y008885D03*
X008777Y008892D03*
X008777Y008898D03*
X008777Y008905D03*
X008777Y008912D03*
X008777Y008918D03*
X008330Y008745D03*
X008330Y008738D03*
X008323Y008732D03*
X007877Y008758D03*
X007877Y008765D03*
X007697Y008792D03*
X007683Y008738D03*
X007510Y008732D03*
X007497Y008878D03*
X007497Y008885D03*
X007343Y008912D03*
X007137Y008898D03*
X007130Y008892D03*
X007130Y008885D03*
X007130Y008765D03*
X007137Y008758D03*
X007137Y008752D03*
X007143Y008745D03*
X006983Y008758D03*
X006977Y008745D03*
X006983Y008885D03*
X006983Y008892D03*
X006977Y008898D03*
X006977Y008905D03*
X006783Y008918D03*
X006777Y008912D03*
X006777Y008905D03*
X006770Y008898D03*
X006770Y008892D03*
X006763Y008885D03*
X006763Y008878D03*
X006757Y008852D03*
X006757Y008845D03*
X006757Y008838D03*
X006757Y008832D03*
X006757Y008825D03*
X006757Y008818D03*
X006757Y008812D03*
X006757Y008805D03*
X006757Y008798D03*
X006763Y008772D03*
X006770Y008758D03*
X006770Y008752D03*
X006777Y008745D03*
X006603Y008538D03*
X006603Y008532D03*
X006243Y008532D03*
X006243Y008538D03*
X005850Y008672D03*
X005850Y008678D03*
X005843Y008698D03*
X005630Y008685D03*
X005630Y008678D03*
X005623Y008672D03*
X005517Y008758D03*
X005517Y008765D03*
X005517Y008772D03*
X005510Y008752D03*
X005517Y008878D03*
X005517Y008885D03*
X005510Y008898D03*
X005503Y008912D03*
X005497Y008918D03*
X005637Y009112D03*
X005703Y009052D03*
X005743Y008952D03*
X005303Y008732D03*
X006430Y008965D03*
X008777Y008665D03*
X008777Y008658D03*
X008777Y008652D03*
X008777Y008645D03*
X008777Y008638D03*
X008777Y008632D03*
X008777Y008625D03*
X008777Y008618D03*
X008777Y008612D03*
X008777Y008605D03*
X008777Y008598D03*
X008777Y008592D03*
X008777Y008585D03*
D12*
X008980Y008598D03*
X008987Y008905D03*
X009620Y008918D03*
X009620Y008925D03*
X010173Y008672D03*
X006940Y008938D03*
X006813Y008938D03*
X006427Y008925D03*
X006427Y008918D03*
X006427Y008912D03*
X006587Y008638D03*
X006587Y008632D03*
X006587Y008625D03*
X006260Y008625D03*
X006260Y008632D03*
X006260Y008618D03*
X005747Y008912D03*
X005633Y009105D03*
D13*
X005633Y009098D03*
X006273Y008705D03*
X006273Y008698D03*
X006273Y008692D03*
X006573Y008698D03*
X006573Y008705D03*
X007313Y008932D03*
X010493Y008678D03*
D14*
X008257Y008685D03*
X007217Y008965D03*
X006877Y008678D03*
X005637Y009092D03*
D15*
X005640Y009085D03*
X005427Y008685D03*
X010173Y008678D03*
X010167Y008972D03*
D16*
X005647Y009078D03*
D17*
X005650Y009072D03*
X007217Y008958D03*
D18*
X005653Y009065D03*
X010500Y008972D03*
X010493Y008685D03*
D19*
X009890Y008532D03*
X009390Y008905D03*
X008257Y008665D03*
X005590Y009058D03*
D20*
X005693Y009058D03*
X005747Y008945D03*
X005487Y008932D03*
X005307Y008938D03*
X005500Y008738D03*
X005507Y008745D03*
X006247Y008558D03*
X006247Y008552D03*
X006247Y008545D03*
X006600Y008545D03*
X006600Y008552D03*
X006600Y008558D03*
X006780Y008738D03*
X006787Y008732D03*
X006960Y008725D03*
X006967Y008732D03*
X007147Y008738D03*
X007140Y008905D03*
X007140Y008912D03*
X007147Y008918D03*
X006967Y008918D03*
X006960Y008925D03*
X006953Y008932D03*
X006787Y008925D03*
X006427Y008952D03*
X006427Y008958D03*
X007340Y008918D03*
X007507Y008905D03*
X007513Y008912D03*
X007513Y008918D03*
X007520Y008725D03*
X007680Y008732D03*
X007987Y008692D03*
X008133Y008732D03*
X008260Y008672D03*
X009020Y008638D03*
X009027Y008645D03*
X009027Y008652D03*
X009033Y008658D03*
X009033Y008665D03*
X009040Y008678D03*
X009040Y008685D03*
X009047Y008712D03*
X009047Y008785D03*
X009040Y008818D03*
X009040Y008825D03*
X009033Y008838D03*
X009033Y008845D03*
X009027Y008852D03*
X009027Y008858D03*
X009020Y008865D03*
X009200Y008912D03*
X009207Y008918D03*
X009213Y008925D03*
X009213Y008725D03*
X009367Y008732D03*
X009373Y008738D03*
X009620Y008952D03*
X009620Y008958D03*
X010067Y008912D03*
X010073Y008918D03*
X010073Y008732D03*
X010413Y008725D03*
X010573Y008732D03*
X010400Y008905D03*
X010407Y008918D03*
D21*
X009893Y008585D03*
X009740Y008678D03*
X009707Y008765D03*
X009540Y008785D03*
X009507Y008698D03*
X009380Y008752D03*
X009187Y008758D03*
X009187Y008765D03*
X009187Y008878D03*
X009187Y008885D03*
X008340Y008885D03*
X008340Y008892D03*
X008340Y008898D03*
X008340Y008905D03*
X008340Y008912D03*
X008340Y008918D03*
X008340Y008925D03*
X008340Y008932D03*
X008340Y008938D03*
X008340Y008945D03*
X008340Y008952D03*
X008340Y008958D03*
X008340Y008965D03*
X008340Y008972D03*
X008340Y008978D03*
X008340Y008878D03*
X008340Y008872D03*
X008340Y008865D03*
X008340Y008858D03*
X008340Y008852D03*
X008340Y008845D03*
X008340Y008838D03*
X008340Y008832D03*
X008340Y008825D03*
X008340Y008818D03*
X008340Y008812D03*
X008340Y008805D03*
X008340Y008798D03*
X008340Y008792D03*
X008340Y008785D03*
X008340Y008778D03*
X008333Y008765D03*
X008333Y008758D03*
X008333Y008752D03*
X007873Y008772D03*
X007867Y008712D03*
X007340Y008732D03*
X007340Y008738D03*
X007340Y008745D03*
X007340Y008752D03*
X007340Y008758D03*
X007340Y008765D03*
X007340Y008772D03*
X007340Y008778D03*
X007340Y008785D03*
X007340Y008792D03*
X007340Y008798D03*
X007340Y008805D03*
X007340Y008812D03*
X007340Y008818D03*
X007340Y008825D03*
X007340Y008832D03*
X007340Y008838D03*
X007340Y008845D03*
X007340Y008852D03*
X007340Y008858D03*
X007340Y008865D03*
X007340Y008872D03*
X007340Y008878D03*
X007340Y008885D03*
X007340Y008892D03*
X007340Y008898D03*
X007340Y008905D03*
X007353Y008958D03*
X007353Y008965D03*
X007340Y008672D03*
X007340Y008665D03*
X007340Y008658D03*
X007340Y008652D03*
X007340Y008645D03*
X007340Y008638D03*
X007340Y008632D03*
X007340Y008625D03*
X007340Y008618D03*
X007340Y008612D03*
X007340Y008605D03*
X007340Y008598D03*
X007340Y008592D03*
X007340Y008585D03*
X007340Y008578D03*
X007340Y008572D03*
X007340Y008565D03*
X007340Y008558D03*
X007340Y008552D03*
X007340Y008545D03*
X007340Y008538D03*
X007340Y008532D03*
X006767Y008765D03*
X006760Y008778D03*
X006760Y008785D03*
X006760Y008792D03*
X006760Y008858D03*
X006760Y008865D03*
X006760Y008872D03*
X006607Y008872D03*
X006607Y008878D03*
X006607Y008885D03*
X006607Y008892D03*
X006607Y008898D03*
X006607Y008905D03*
X006607Y008912D03*
X006607Y008918D03*
X006607Y008925D03*
X006607Y008932D03*
X006607Y008938D03*
X006607Y008945D03*
X006607Y008952D03*
X006607Y008958D03*
X006607Y008965D03*
X006607Y008972D03*
X006607Y008978D03*
X006607Y008865D03*
X006607Y008858D03*
X006607Y008852D03*
X006607Y008845D03*
X006607Y008838D03*
X006607Y008832D03*
X006607Y008825D03*
X006607Y008818D03*
X006607Y008812D03*
X006607Y008805D03*
X006607Y008798D03*
X006607Y008792D03*
X006607Y008785D03*
X006607Y008778D03*
X006607Y008772D03*
X006607Y008765D03*
X006607Y008758D03*
X006607Y008752D03*
X006607Y008745D03*
X006607Y008738D03*
X006607Y008732D03*
X006607Y008725D03*
X006607Y008718D03*
X006607Y008712D03*
X006240Y008712D03*
X006240Y008718D03*
X006240Y008725D03*
X006240Y008732D03*
X006240Y008738D03*
X006240Y008745D03*
X006240Y008752D03*
X006240Y008758D03*
X006240Y008765D03*
X006240Y008772D03*
X006240Y008778D03*
X006240Y008785D03*
X006240Y008792D03*
X006240Y008798D03*
X006240Y008805D03*
X006240Y008812D03*
X006240Y008818D03*
X006240Y008825D03*
X006240Y008832D03*
X006240Y008838D03*
X006240Y008845D03*
X006240Y008852D03*
X006240Y008858D03*
X006240Y008865D03*
X006240Y008872D03*
X006240Y008878D03*
X006240Y008885D03*
X006240Y008892D03*
X006240Y008898D03*
X006240Y008905D03*
X006240Y008912D03*
X006240Y008918D03*
X006240Y008925D03*
X006240Y008932D03*
X006240Y008938D03*
X006240Y008945D03*
X006240Y008952D03*
X006240Y008958D03*
X006240Y008965D03*
X006240Y008972D03*
X006240Y008978D03*
X005740Y008978D03*
X005733Y008998D03*
X005720Y009025D03*
X005713Y009038D03*
X005707Y009045D03*
X005507Y008905D03*
X005660Y008765D03*
X005647Y008732D03*
X005647Y008725D03*
X005640Y008718D03*
X005640Y008712D03*
X005640Y008705D03*
D22*
X005650Y008738D03*
X005657Y008752D03*
X005657Y008758D03*
X005663Y008772D03*
X005663Y008778D03*
X005677Y008805D03*
X005677Y008812D03*
X005683Y008825D03*
X005790Y008858D03*
X005797Y008838D03*
X005797Y008832D03*
X005803Y008818D03*
X005803Y008812D03*
X005810Y008805D03*
X005810Y008798D03*
X005810Y008792D03*
X005817Y008778D03*
X005817Y008772D03*
X005823Y008758D03*
X005830Y008738D03*
X005743Y008965D03*
X005743Y008972D03*
X005737Y008985D03*
X005737Y008992D03*
X005730Y009005D03*
X005723Y009018D03*
X005717Y009032D03*
X005297Y008932D03*
X005297Y008925D03*
X005297Y008918D03*
X005297Y008912D03*
X005297Y008905D03*
X005297Y008898D03*
X005297Y008892D03*
X005297Y008885D03*
X005297Y008878D03*
X005297Y008872D03*
X005297Y008865D03*
X005297Y008858D03*
X005297Y008852D03*
X005297Y008845D03*
X005297Y008838D03*
X005297Y008832D03*
X005297Y008825D03*
X005297Y008818D03*
X005297Y008812D03*
X005297Y008805D03*
X005297Y008798D03*
X005297Y008792D03*
X005297Y008785D03*
X005297Y008778D03*
X005297Y008772D03*
X005297Y008765D03*
X005297Y008758D03*
X005297Y008752D03*
X005297Y008745D03*
X005297Y008738D03*
X005297Y008685D03*
X005297Y008678D03*
X005297Y008672D03*
X005297Y008665D03*
X005297Y008658D03*
X005297Y008652D03*
X005297Y008645D03*
X005297Y008638D03*
X005297Y008632D03*
X005297Y008625D03*
X005297Y008618D03*
X005297Y008612D03*
X005297Y008605D03*
X005297Y008598D03*
X005297Y008592D03*
X005297Y008585D03*
X005297Y008578D03*
X005297Y008572D03*
X005297Y008565D03*
X005297Y008558D03*
X005297Y008552D03*
X005297Y008545D03*
X005297Y008538D03*
X005297Y008532D03*
X006430Y008978D03*
X007363Y008978D03*
X007497Y008758D03*
X007863Y008705D03*
X007863Y008698D03*
X007863Y008692D03*
X007863Y008685D03*
X007863Y008678D03*
X007863Y008672D03*
X007870Y008718D03*
X007870Y008778D03*
X007870Y008785D03*
X007870Y008792D03*
X007870Y008798D03*
X007870Y008805D03*
X007870Y008812D03*
X007870Y008818D03*
X007870Y008825D03*
X007870Y008832D03*
X007870Y008838D03*
X007870Y008845D03*
X007870Y008852D03*
X007870Y008858D03*
X007870Y008865D03*
X007870Y008872D03*
X007870Y008878D03*
X007870Y008885D03*
X007870Y008892D03*
X007870Y008898D03*
X007870Y008905D03*
X007870Y008912D03*
X007870Y008918D03*
X007870Y008925D03*
X007870Y008932D03*
X007870Y008938D03*
X007870Y008945D03*
X007870Y008952D03*
X007870Y008958D03*
X007870Y008965D03*
X007870Y008972D03*
X007870Y008978D03*
X008123Y008978D03*
X008123Y008972D03*
X008123Y008965D03*
X008123Y008958D03*
X008123Y008952D03*
X008123Y008945D03*
X008123Y008938D03*
X008123Y008932D03*
X008123Y008925D03*
X008123Y008918D03*
X008123Y008912D03*
X008123Y008905D03*
X008123Y008898D03*
X008123Y008892D03*
X008123Y008885D03*
X008123Y008878D03*
X008123Y008872D03*
X008123Y008865D03*
X008123Y008858D03*
X008123Y008852D03*
X008123Y008845D03*
X008123Y008838D03*
X008123Y008832D03*
X008123Y008825D03*
X008123Y008818D03*
X008123Y008812D03*
X008123Y008805D03*
X008123Y008798D03*
X008123Y008792D03*
X008123Y008785D03*
X008123Y008778D03*
X008123Y008772D03*
X008123Y008765D03*
X008123Y008758D03*
X008123Y008752D03*
X008123Y008745D03*
X008117Y008678D03*
X008117Y008672D03*
X008003Y008672D03*
X009183Y008772D03*
X009190Y008752D03*
X009390Y008925D03*
X009570Y008865D03*
X009563Y008845D03*
X009557Y008832D03*
X009557Y008825D03*
X009550Y008818D03*
X009550Y008812D03*
X009550Y008805D03*
X009543Y008798D03*
X009543Y008792D03*
X009537Y008778D03*
X009537Y008772D03*
X009530Y008758D03*
X009690Y008805D03*
X009690Y008812D03*
X009690Y008818D03*
X009683Y008825D03*
X009683Y008832D03*
X009677Y008845D03*
X009670Y008865D03*
X009697Y008798D03*
X009697Y008792D03*
X009703Y008778D03*
X009703Y008772D03*
X009710Y008758D03*
X009890Y008758D03*
X009890Y008752D03*
X009890Y008745D03*
X009890Y008738D03*
X009890Y008732D03*
X009890Y008725D03*
X009890Y008718D03*
X009890Y008712D03*
X009890Y008705D03*
X009890Y008698D03*
X009890Y008692D03*
X009890Y008685D03*
X009890Y008678D03*
X009890Y008672D03*
X009890Y008592D03*
X009890Y008552D03*
X009890Y008765D03*
X009890Y008772D03*
X009890Y008778D03*
X009890Y008785D03*
X009890Y008792D03*
X009890Y008798D03*
X009890Y008805D03*
X009890Y008812D03*
X009890Y008818D03*
X009890Y008825D03*
X009890Y008832D03*
X009890Y008838D03*
X009890Y008845D03*
X009890Y008852D03*
X009890Y008858D03*
X009890Y008865D03*
X009890Y008872D03*
X009890Y008878D03*
X009890Y008885D03*
X009890Y008892D03*
X009890Y008898D03*
X009890Y008905D03*
X009890Y008912D03*
X009890Y008918D03*
X009890Y008925D03*
X009890Y008932D03*
X009890Y008938D03*
X009890Y008945D03*
X009890Y008952D03*
X009890Y008958D03*
X009890Y008965D03*
X009890Y008972D03*
X009890Y008978D03*
X009623Y008978D03*
X010390Y008758D03*
D23*
X010393Y008752D03*
X010393Y008745D03*
X010400Y008738D03*
X010387Y008765D03*
X010387Y008772D03*
X010387Y008778D03*
X010387Y008785D03*
X010380Y008792D03*
X010380Y008845D03*
X010380Y008852D03*
X010387Y008865D03*
X010387Y008872D03*
X010387Y008878D03*
X010393Y008892D03*
X010247Y008925D03*
X010053Y008885D03*
X010047Y008865D03*
X010047Y008858D03*
X010047Y008852D03*
X010047Y008845D03*
X010047Y008805D03*
X010047Y008798D03*
X010047Y008792D03*
X010047Y008785D03*
X010053Y008772D03*
X010053Y008765D03*
X009733Y008698D03*
X009733Y008692D03*
X009727Y008712D03*
X009727Y008718D03*
X009720Y008725D03*
X009720Y008732D03*
X009720Y008738D03*
X009713Y008745D03*
X009713Y008752D03*
X009700Y008785D03*
X009533Y008765D03*
X009527Y008752D03*
X009527Y008745D03*
X009520Y008738D03*
X009520Y008732D03*
X009520Y008725D03*
X009513Y008718D03*
X009513Y008712D03*
X009500Y008678D03*
X009387Y008772D03*
X009387Y008778D03*
X009387Y008785D03*
X009387Y008792D03*
X009200Y008738D03*
X009193Y008745D03*
X009180Y008778D03*
X009180Y008785D03*
X009180Y008792D03*
X009180Y008845D03*
X009180Y008852D03*
X009180Y008858D03*
X009180Y008865D03*
X009620Y008965D03*
X009620Y008972D03*
X010593Y008925D03*
X010587Y008792D03*
X010587Y008785D03*
X010587Y008778D03*
X010587Y008772D03*
X010587Y008765D03*
X010580Y008745D03*
X008127Y008738D03*
X008120Y008692D03*
X008120Y008685D03*
X008000Y008678D03*
X007693Y008758D03*
X007693Y008765D03*
X007693Y008772D03*
X007693Y008778D03*
X007693Y008785D03*
X007687Y008745D03*
X007507Y008738D03*
X007500Y008745D03*
X007500Y008752D03*
X007493Y008765D03*
X007493Y008772D03*
X007493Y008778D03*
X007493Y008785D03*
X007487Y008792D03*
X007487Y008845D03*
X007493Y008865D03*
X007493Y008872D03*
X007500Y008892D03*
X007360Y008972D03*
X007127Y008878D03*
X007120Y008858D03*
X007120Y008852D03*
X007120Y008845D03*
X007120Y008838D03*
X007120Y008832D03*
X007120Y008825D03*
X007120Y008818D03*
X007120Y008812D03*
X007120Y008805D03*
X007120Y008798D03*
X007120Y008792D03*
X007127Y008778D03*
X007127Y008772D03*
X006993Y008792D03*
X006993Y008798D03*
X006993Y008805D03*
X006993Y008812D03*
X006993Y008818D03*
X006993Y008825D03*
X006993Y008832D03*
X006993Y008838D03*
X006993Y008845D03*
X006987Y008878D03*
X006987Y008778D03*
X006987Y008772D03*
X006987Y008765D03*
X006980Y008752D03*
X006427Y008972D03*
X005827Y008752D03*
X005827Y008745D03*
X005833Y008732D03*
X005833Y008725D03*
X005833Y008718D03*
X005840Y008712D03*
X005840Y008705D03*
X005847Y008692D03*
X005847Y008685D03*
X005820Y008765D03*
X005813Y008785D03*
X005653Y008745D03*
X005633Y008698D03*
X005633Y008692D03*
X005520Y008778D03*
X005520Y008785D03*
X005527Y008812D03*
X005527Y008818D03*
X005527Y008825D03*
X005527Y008832D03*
X005520Y008865D03*
X005520Y008872D03*
X005513Y008892D03*
X005747Y008958D03*
X005727Y009012D03*
X007700Y008925D03*
D24*
X007600Y008678D03*
X005367Y008985D03*
D25*
X005477Y008938D03*
X005497Y008732D03*
X006250Y008578D03*
X006250Y008572D03*
X006250Y008565D03*
X006430Y008945D03*
X006877Y008985D03*
X007157Y008925D03*
X007157Y008732D03*
X007523Y008925D03*
X007610Y008985D03*
X007670Y008725D03*
X007883Y008752D03*
X007983Y008698D03*
X009010Y008625D03*
X009017Y008632D03*
X009017Y008872D03*
X009010Y008878D03*
X009297Y008985D03*
X009363Y008725D03*
X009623Y008945D03*
X010083Y008925D03*
X010083Y008725D03*
D26*
X010247Y008918D03*
X010167Y008985D03*
X010593Y008918D03*
X009893Y008545D03*
X009680Y008838D03*
X009673Y008852D03*
X009673Y008858D03*
X009667Y008872D03*
X009667Y008878D03*
X009660Y008885D03*
X009660Y008892D03*
X009660Y008898D03*
X009573Y008878D03*
X009573Y008872D03*
X009567Y008858D03*
X009567Y008852D03*
X009560Y008838D03*
X007220Y008985D03*
X006520Y008738D03*
X006527Y008718D03*
X006480Y008852D03*
X006387Y008892D03*
X006367Y008838D03*
X006360Y008818D03*
X006353Y008805D03*
X006347Y008785D03*
X006340Y008772D03*
X006340Y008765D03*
X006333Y008752D03*
X006333Y008745D03*
X006327Y008732D03*
X006320Y008718D03*
X006320Y008712D03*
X005800Y008825D03*
X005793Y008845D03*
X005793Y008852D03*
X005787Y008865D03*
X005787Y008872D03*
X005780Y008878D03*
X005780Y008885D03*
X005780Y008892D03*
X005707Y008892D03*
X005707Y008885D03*
X005700Y008872D03*
X005700Y008865D03*
X005693Y008858D03*
X005693Y008852D03*
X005687Y008838D03*
X005687Y008832D03*
X005680Y008818D03*
D27*
X005743Y008932D03*
X005743Y008938D03*
X006597Y008578D03*
X006597Y008572D03*
X006597Y008565D03*
X006790Y008725D03*
X006797Y008932D03*
X007330Y008725D03*
X008317Y008725D03*
X009383Y008932D03*
X010417Y008925D03*
X010503Y008985D03*
X010563Y008725D03*
D28*
X010170Y008692D03*
X010163Y008958D03*
X009290Y008698D03*
X006877Y008958D03*
X005363Y008978D03*
D29*
X006270Y008685D03*
X006270Y008678D03*
X006270Y008672D03*
X006577Y008678D03*
X006577Y008685D03*
X006577Y008692D03*
X006877Y008978D03*
X007610Y008978D03*
X007903Y008732D03*
X008970Y008592D03*
X009290Y008678D03*
X009297Y008978D03*
X008963Y008918D03*
D30*
X009007Y008885D03*
X009220Y008932D03*
X009620Y008932D03*
X009620Y008938D03*
X010240Y008932D03*
X010427Y008932D03*
X010587Y008932D03*
X010493Y008672D03*
X009007Y008618D03*
X007973Y008712D03*
X007887Y008745D03*
X007600Y008672D03*
X007233Y008672D03*
X007167Y008725D03*
X007220Y008978D03*
X007333Y008925D03*
X006800Y008718D03*
X006593Y008598D03*
X006593Y008592D03*
X006593Y008585D03*
X006253Y008585D03*
X006253Y008592D03*
X006427Y008932D03*
X006427Y008938D03*
X005487Y008725D03*
X005427Y008672D03*
D31*
X006877Y008685D03*
X008823Y008978D03*
X008943Y008585D03*
D32*
X009620Y008905D03*
X009620Y008912D03*
X010167Y008978D03*
X006580Y008672D03*
X006580Y008665D03*
X006580Y008658D03*
X006267Y008658D03*
X006267Y008665D03*
X005427Y008678D03*
D33*
X010503Y008978D03*
D34*
X010490Y008705D03*
X010163Y008952D03*
X009290Y008705D03*
X006877Y008698D03*
X006877Y008952D03*
X005370Y008972D03*
D35*
X006877Y008972D03*
X007610Y008972D03*
X008257Y008692D03*
X009290Y008685D03*
D36*
X008977Y008912D03*
X007217Y008972D03*
X006583Y008652D03*
X006583Y008645D03*
X006263Y008645D03*
X006263Y008652D03*
X006263Y008638D03*
X005743Y008898D03*
X005743Y008905D03*
D37*
X008837Y008972D03*
D38*
X009300Y008972D03*
X007600Y008685D03*
D39*
X007610Y008952D03*
X005377Y008965D03*
X010163Y008945D03*
D40*
X010167Y008965D03*
X010173Y008685D03*
X007600Y008692D03*
X006873Y008965D03*
D41*
X007610Y008965D03*
X009290Y008692D03*
D42*
X008847Y008965D03*
X007267Y008685D03*
X010500Y008952D03*
D43*
X010503Y008965D03*
X009297Y008965D03*
X007930Y008725D03*
X006877Y008692D03*
D44*
X006877Y008712D03*
X007610Y008945D03*
X005383Y008958D03*
X010163Y008938D03*
X010503Y008945D03*
D45*
X010500Y008958D03*
X008840Y008538D03*
X007607Y008958D03*
X007273Y008678D03*
D46*
X006873Y008945D03*
X008853Y008958D03*
X009300Y008945D03*
X009287Y008718D03*
X010493Y008718D03*
D47*
X009300Y008958D03*
X007600Y008705D03*
D48*
X009300Y008938D03*
X005387Y008952D03*
X005387Y008692D03*
D49*
X005393Y008705D03*
X007253Y008945D03*
X007260Y008952D03*
X008220Y008705D03*
X008867Y008945D03*
D50*
X008863Y008952D03*
X008863Y008558D03*
X008217Y008698D03*
X007250Y008712D03*
X010503Y008938D03*
D51*
X010493Y008712D03*
X010167Y008705D03*
X010160Y008712D03*
X009287Y008712D03*
X009300Y008952D03*
X007600Y008712D03*
D52*
X007610Y008938D03*
X005390Y008945D03*
X005390Y008698D03*
D53*
X007250Y008938D03*
X008870Y008565D03*
D54*
X008873Y008572D03*
X008873Y008938D03*
D55*
X008257Y008678D03*
X007170Y008932D03*
D56*
X006947Y008718D03*
X007533Y008932D03*
X007693Y008932D03*
X007980Y008705D03*
X009000Y008612D03*
X009000Y008892D03*
X005313Y008725D03*
D57*
X008877Y008578D03*
X009283Y008798D03*
X009283Y008805D03*
X009283Y008812D03*
X009283Y008818D03*
X009283Y008825D03*
X009283Y008832D03*
X009283Y008838D03*
X008877Y008932D03*
X010483Y008838D03*
X010483Y008832D03*
X010483Y008825D03*
X010483Y008818D03*
X010483Y008812D03*
X010483Y008805D03*
X010483Y008798D03*
D58*
X010097Y008718D03*
X010090Y008932D03*
X009290Y008672D03*
X008990Y008605D03*
X008997Y008898D03*
X008143Y008725D03*
X007970Y008718D03*
X007890Y008738D03*
X006877Y008672D03*
X006590Y008618D03*
X006590Y008612D03*
X006590Y008605D03*
X006257Y008605D03*
X006257Y008612D03*
X006257Y008598D03*
X005743Y008918D03*
X005743Y008925D03*
D59*
X005523Y008858D03*
X005523Y008852D03*
X005523Y008845D03*
X005523Y008838D03*
X005523Y008805D03*
X005523Y008798D03*
X005523Y008792D03*
X005490Y008925D03*
X006970Y008912D03*
X006990Y008872D03*
X006990Y008865D03*
X006990Y008858D03*
X006990Y008852D03*
X006990Y008785D03*
X006970Y008738D03*
X007123Y008785D03*
X007123Y008865D03*
X007123Y008872D03*
X007490Y008858D03*
X007490Y008852D03*
X007503Y008898D03*
X007690Y008752D03*
X007990Y008685D03*
X010057Y008758D03*
X010057Y008892D03*
X010057Y008898D03*
X010390Y008885D03*
D60*
X008880Y008925D03*
D61*
X009583Y008898D03*
X009890Y008598D03*
X009890Y008538D03*
X007703Y008918D03*
X006523Y008732D03*
X006523Y008725D03*
X006517Y008745D03*
X006517Y008752D03*
X006510Y008765D03*
X006510Y008772D03*
X006503Y008778D03*
X006503Y008785D03*
X006503Y008792D03*
X006490Y008818D03*
X006490Y008825D03*
X006490Y008832D03*
X006470Y008872D03*
X006470Y008878D03*
X006470Y008885D03*
X006390Y008898D03*
X006390Y008905D03*
X006377Y008872D03*
X006377Y008865D03*
X006377Y008858D03*
X006370Y008852D03*
X006370Y008845D03*
X006357Y008812D03*
X006337Y008758D03*
X006323Y008725D03*
D62*
X006330Y008738D03*
X006343Y008778D03*
X006350Y008792D03*
X006350Y008798D03*
X006363Y008825D03*
X006363Y008832D03*
X006383Y008878D03*
X006383Y008885D03*
X006463Y008892D03*
X006463Y008898D03*
X006463Y008905D03*
X006477Y008865D03*
X006477Y008858D03*
X006483Y008845D03*
X006483Y008838D03*
X006497Y008812D03*
X006497Y008805D03*
X006497Y008798D03*
X006530Y008712D03*
X005703Y008878D03*
X009390Y008918D03*
D63*
X007700Y008912D03*
D64*
X007597Y008665D03*
X007237Y008665D03*
X005430Y008665D03*
X009290Y008665D03*
X009390Y008912D03*
X009890Y008605D03*
X010250Y008912D03*
X010490Y008665D03*
D65*
X010233Y008732D03*
X010593Y008912D03*
D66*
X010593Y008905D03*
X010247Y008905D03*
X008013Y008732D03*
X008007Y008665D03*
X007700Y008905D03*
D67*
X007700Y008898D03*
X010593Y008898D03*
D68*
X010243Y008898D03*
X009390Y008898D03*
D69*
X009580Y008892D03*
X009580Y008885D03*
X006513Y008758D03*
D70*
X005690Y008845D03*
X005670Y008798D03*
X005670Y008792D03*
X005670Y008785D03*
X008337Y008772D03*
D71*
X007590Y008805D03*
X007590Y008812D03*
X007590Y008818D03*
X007590Y008825D03*
X007590Y008832D03*
X007590Y008838D03*
D72*
X007593Y008798D03*
D73*
X009890Y008612D03*
X010237Y008745D03*
D74*
X010237Y008738D03*
D75*
X010233Y008725D03*
X010173Y008665D03*
X006880Y008665D03*
D76*
X005400Y008718D03*
D77*
X007247Y008718D03*
D78*
X007600Y008718D03*
D79*
X008223Y008718D03*
X008223Y008712D03*
X005397Y008712D03*
D80*
X006877Y008705D03*
X007263Y008692D03*
X008850Y008545D03*
D81*
X007253Y008705D03*
D82*
X007257Y008698D03*
X008857Y008552D03*
D83*
X007600Y008698D03*
X010493Y008698D03*
D84*
X010170Y008698D03*
D85*
X010493Y008692D03*
X008827Y008532D03*
D86*
X008640Y009335D03*
X008640Y009390D03*
X008420Y009650D03*
X008415Y009665D03*
X008410Y009675D03*
X008410Y009680D03*
X008405Y009690D03*
X008405Y009695D03*
X008330Y009695D03*
X008330Y009690D03*
X008330Y009685D03*
X008325Y009680D03*
X008325Y009675D03*
X008320Y009665D03*
X008320Y009660D03*
X008315Y009650D03*
X008370Y009775D03*
X008015Y009780D03*
X008995Y009515D03*
X009280Y009780D03*
X009880Y009710D03*
X009860Y009515D03*
X010425Y009460D03*
X011160Y008220D03*
X010430Y007905D03*
X010060Y007960D03*
X007075Y008220D03*
X005560Y008220D03*
X004905Y008220D03*
X006840Y009460D03*
X006585Y009780D03*
X006310Y009775D03*
X005790Y009780D03*
D87*
X006168Y009780D03*
X007598Y009780D03*
X009878Y009695D03*
X010058Y007975D03*
X007398Y008220D03*
X007353Y007975D03*
X005858Y008220D03*
D88*
X006025Y008220D03*
X006275Y008220D03*
X005815Y007975D03*
X005655Y008135D03*
X007560Y008220D03*
X008080Y008220D03*
X009140Y008135D03*
X010100Y008220D03*
X010265Y008220D03*
X010775Y008220D03*
X009865Y009530D03*
X009370Y009695D03*
X009010Y009695D03*
X009000Y009530D03*
X008105Y009695D03*
X006675Y009695D03*
X008635Y007190D03*
D89*
X008638Y007215D03*
X007868Y007905D03*
X007728Y007905D03*
X007728Y007910D03*
X007728Y007915D03*
X007728Y007920D03*
X007568Y008215D03*
X006678Y008220D03*
X006028Y008215D03*
X005653Y008155D03*
X005203Y007925D03*
X005203Y007920D03*
X005203Y007915D03*
X005203Y007910D03*
X005203Y007905D03*
X005118Y009465D03*
X005118Y009470D03*
X005118Y009475D03*
X006838Y009470D03*
X006838Y009465D03*
X006843Y009500D03*
X006843Y009505D03*
X007108Y009460D03*
X007743Y009775D03*
X008108Y009715D03*
X008308Y009635D03*
X008308Y009630D03*
X008308Y009625D03*
X008303Y009620D03*
X008303Y009615D03*
X008298Y009605D03*
X008293Y009590D03*
X008313Y009640D03*
X008313Y009645D03*
X008318Y009655D03*
X008323Y009670D03*
X008408Y009685D03*
X008413Y009670D03*
X008418Y009660D03*
X008418Y009655D03*
X008423Y009645D03*
X008423Y009640D03*
X008428Y009635D03*
X008428Y009630D03*
X008433Y009620D03*
X008433Y009615D03*
X008438Y009605D03*
X008443Y009590D03*
X008368Y009770D03*
X009528Y009760D03*
X009528Y009715D03*
X010148Y009780D03*
X010428Y009480D03*
X010428Y009475D03*
X010428Y009470D03*
X010428Y009465D03*
X010273Y008215D03*
X010433Y007935D03*
X010433Y007930D03*
X010433Y007925D03*
X010433Y007920D03*
X010433Y007915D03*
X010433Y007910D03*
X009808Y007900D03*
X009668Y007905D03*
X009408Y008220D03*
D90*
X009143Y008150D03*
X009048Y008220D03*
X007873Y007900D03*
X007358Y007960D03*
X008638Y007210D03*
X005818Y007960D03*
X005653Y008150D03*
X005118Y009460D03*
X006678Y009710D03*
X006983Y009460D03*
X008108Y009710D03*
X008638Y009330D03*
X009013Y009710D03*
X009373Y009710D03*
X009528Y009710D03*
X009528Y009765D03*
D91*
X009795Y009760D03*
X010145Y009760D03*
X008930Y009760D03*
X007245Y009485D03*
X006160Y009745D03*
X005790Y009475D03*
X005870Y008190D03*
X005955Y008025D03*
X005905Y007915D03*
X004880Y008215D03*
X006645Y006845D03*
X006695Y006610D03*
X007320Y006845D03*
X007380Y006980D03*
X007370Y006610D03*
X007405Y007210D03*
X007495Y008025D03*
X007075Y008200D03*
X008075Y008185D03*
X009040Y007920D03*
X009405Y008200D03*
X009805Y007925D03*
X010145Y007915D03*
X010195Y008025D03*
X010110Y008190D03*
X011155Y008200D03*
X008940Y007260D03*
X008580Y006855D03*
X008345Y007250D03*
X008350Y007255D03*
D92*
X008635Y007235D03*
X008025Y007955D03*
X007835Y007950D03*
X007400Y008210D03*
X007140Y008170D03*
X007010Y008170D03*
X006770Y007955D03*
X006380Y008160D03*
X006220Y007955D03*
X005990Y008160D03*
X005865Y008210D03*
X005560Y008215D03*
X005310Y007950D03*
X005000Y007955D03*
X005140Y009515D03*
X006110Y009515D03*
X006585Y009775D03*
X006945Y009515D03*
X006945Y009510D03*
X006950Y009505D03*
X008015Y009775D03*
X008370Y009720D03*
X008860Y009510D03*
X009280Y009775D03*
X009725Y009510D03*
X010210Y009730D03*
X010450Y009515D03*
X010105Y008210D03*
X010535Y007955D03*
X010540Y007950D03*
X010540Y007945D03*
X010880Y008160D03*
X011220Y008170D03*
X009470Y008170D03*
X009340Y008170D03*
D93*
X009318Y008155D03*
X009313Y008150D03*
X009308Y008140D03*
X009308Y007975D03*
X009313Y007970D03*
X009408Y007900D03*
X009498Y007965D03*
X009503Y007970D03*
X009508Y008135D03*
X009503Y008140D03*
X009503Y008145D03*
X009498Y008150D03*
X009493Y008155D03*
X009138Y008160D03*
X008953Y008145D03*
X008948Y008140D03*
X008943Y008130D03*
X009123Y007970D03*
X009873Y007965D03*
X009878Y007970D03*
X010068Y007950D03*
X010148Y007900D03*
X010228Y007955D03*
X010233Y007960D03*
X010073Y008070D03*
X010053Y008155D03*
X010103Y008215D03*
X010273Y008210D03*
X010443Y007995D03*
X010443Y007990D03*
X010688Y007985D03*
X010693Y007980D03*
X010678Y008110D03*
X010683Y008125D03*
X010688Y008135D03*
X010693Y008140D03*
X010893Y008150D03*
X011053Y008130D03*
X011058Y008140D03*
X011063Y008145D03*
X011053Y007985D03*
X011058Y007975D03*
X011063Y007970D03*
X011158Y007900D03*
X011263Y008125D03*
X011258Y008135D03*
X011253Y008145D03*
X011248Y008150D03*
X010888Y007960D03*
X009073Y007365D03*
X008638Y007225D03*
X008198Y007960D03*
X008003Y007975D03*
X007998Y007980D03*
X007993Y007990D03*
X007988Y008115D03*
X007993Y008130D03*
X007998Y008135D03*
X008003Y008145D03*
X007853Y007920D03*
X007858Y007915D03*
X007738Y007995D03*
X007533Y007965D03*
X007528Y007960D03*
X007448Y007900D03*
X007368Y008070D03*
X007363Y008075D03*
X007348Y008150D03*
X007348Y008155D03*
X007353Y008160D03*
X007183Y008120D03*
X007173Y008140D03*
X007168Y008150D03*
X007163Y008155D03*
X006983Y008150D03*
X006978Y008145D03*
X006973Y008135D03*
X006973Y007980D03*
X006978Y007975D03*
X006978Y007970D03*
X006983Y007965D03*
X007078Y007900D03*
X007163Y007960D03*
X007168Y007965D03*
X007173Y007970D03*
X006803Y007995D03*
X006798Y007985D03*
X006798Y007980D03*
X006793Y007975D03*
X006778Y008160D03*
X006393Y008150D03*
X006388Y007960D03*
X006198Y007975D03*
X006193Y007980D03*
X006188Y007990D03*
X006183Y008120D03*
X006188Y008130D03*
X006193Y008140D03*
X005993Y007965D03*
X005908Y007900D03*
X005828Y008070D03*
X005808Y008150D03*
X005813Y008160D03*
X005863Y008215D03*
X005653Y008160D03*
X005638Y007970D03*
X005633Y007965D03*
X005553Y007900D03*
X005468Y007960D03*
X005328Y007920D03*
X005213Y007995D03*
X005028Y007985D03*
X005023Y007975D03*
X005013Y008150D03*
X005003Y008160D03*
X005458Y008135D03*
X005463Y008140D03*
X005493Y009525D03*
X005498Y009530D03*
X005308Y009525D03*
X005693Y009530D03*
X005698Y009525D03*
X005688Y009700D03*
X005693Y009705D03*
X005883Y009705D03*
X005888Y009700D03*
X005893Y009690D03*
X005898Y009675D03*
X005883Y009525D03*
X005878Y009520D03*
X006078Y009550D03*
X006083Y009540D03*
X006088Y009535D03*
X006073Y009675D03*
X006078Y009685D03*
X006078Y009690D03*
X006083Y009695D03*
X006283Y009710D03*
X006283Y009520D03*
X006493Y009520D03*
X006578Y009460D03*
X006658Y009530D03*
X006663Y009535D03*
X006673Y009720D03*
X006488Y009705D03*
X006483Y009700D03*
X006483Y009695D03*
X006853Y009550D03*
X006968Y009475D03*
X007318Y009525D03*
X007513Y009545D03*
X007518Y009540D03*
X007518Y009535D03*
X007508Y009685D03*
X007513Y009695D03*
X007718Y009710D03*
X007713Y009520D03*
X007923Y009520D03*
X008008Y009460D03*
X008088Y009525D03*
X008093Y009535D03*
X007918Y009700D03*
X007913Y009695D03*
X008368Y009750D03*
X008818Y009680D03*
X008823Y009690D03*
X008828Y009700D03*
X008833Y009705D03*
X008928Y009775D03*
X008823Y009545D03*
X008828Y009535D03*
X008833Y009530D03*
X008838Y009525D03*
X008988Y009510D03*
X009188Y009520D03*
X009273Y009460D03*
X009353Y009525D03*
X009358Y009535D03*
X009368Y009720D03*
X009188Y009710D03*
X009183Y009705D03*
X009183Y009700D03*
X009178Y009695D03*
X009173Y009685D03*
X009688Y009685D03*
X009693Y009695D03*
X009698Y009700D03*
X009798Y009775D03*
X009878Y009720D03*
X010038Y009680D03*
X010048Y009700D03*
X010053Y009705D03*
X010053Y009710D03*
X010048Y009535D03*
X010053Y009530D03*
X010148Y009460D03*
X010238Y009525D03*
X010243Y009530D03*
X010253Y009685D03*
X010248Y009695D03*
X010243Y009700D03*
X010243Y009705D03*
X010238Y009710D03*
X010618Y009525D03*
X010803Y009525D03*
X010808Y009530D03*
X009853Y009510D03*
X009698Y009535D03*
X009693Y009540D03*
X009688Y009550D03*
X007538Y008150D03*
D94*
X007543Y008145D03*
X007543Y008140D03*
X007543Y008135D03*
X007543Y008130D03*
X007543Y008125D03*
X007543Y008120D03*
X007543Y008115D03*
X007543Y008110D03*
X007543Y008105D03*
X007543Y008100D03*
X007543Y008095D03*
X007543Y008090D03*
X007543Y008085D03*
X007543Y008080D03*
X007543Y008075D03*
X007543Y008070D03*
X007543Y008065D03*
X007543Y008060D03*
X007543Y008055D03*
X007543Y008015D03*
X007543Y008010D03*
X007543Y008005D03*
X007543Y008000D03*
X007543Y007995D03*
X007538Y007985D03*
X007538Y007980D03*
X007538Y007975D03*
X007733Y008005D03*
X007733Y008010D03*
X007733Y008015D03*
X007733Y008020D03*
X007733Y008025D03*
X007733Y008030D03*
X007733Y008035D03*
X007733Y008040D03*
X007733Y008045D03*
X007733Y008050D03*
X007733Y008055D03*
X007733Y008060D03*
X007733Y008065D03*
X007733Y008070D03*
X007733Y008075D03*
X007733Y008080D03*
X007733Y008085D03*
X007733Y008090D03*
X007733Y008095D03*
X007733Y008100D03*
X007733Y008105D03*
X007733Y008110D03*
X007733Y008115D03*
X007733Y008120D03*
X007733Y008125D03*
X007733Y008130D03*
X007733Y008135D03*
X007733Y008140D03*
X007733Y008145D03*
X007733Y008150D03*
X007733Y008155D03*
X007733Y008160D03*
X007733Y008165D03*
X007733Y008170D03*
X007733Y008175D03*
X007733Y008180D03*
X007733Y008185D03*
X007733Y008190D03*
X007733Y008195D03*
X007733Y008200D03*
X007733Y008205D03*
X007733Y008210D03*
X007983Y008100D03*
X007978Y008075D03*
X007978Y008070D03*
X007978Y008065D03*
X007978Y008060D03*
X007978Y008055D03*
X007978Y008050D03*
X007978Y008045D03*
X007978Y008040D03*
X007983Y008020D03*
X007983Y008015D03*
X008093Y007900D03*
X008203Y007900D03*
X008203Y007895D03*
X008203Y007890D03*
X008203Y007885D03*
X008203Y007880D03*
X008203Y007875D03*
X008203Y007870D03*
X008203Y007865D03*
X008203Y007860D03*
X008203Y007855D03*
X008203Y007850D03*
X008203Y007845D03*
X008203Y007840D03*
X008203Y007835D03*
X008203Y007830D03*
X008203Y007825D03*
X008203Y007820D03*
X008203Y007815D03*
X008203Y007810D03*
X008203Y007805D03*
X008203Y007800D03*
X008203Y007795D03*
X008203Y007790D03*
X008203Y007785D03*
X008203Y007780D03*
X008203Y007775D03*
X008203Y007770D03*
X008203Y007765D03*
X008203Y007905D03*
X008203Y007910D03*
X008203Y007965D03*
X008203Y007970D03*
X008203Y007975D03*
X008203Y007980D03*
X008203Y007985D03*
X008203Y007990D03*
X008203Y007995D03*
X008203Y008000D03*
X008203Y008005D03*
X008203Y008010D03*
X008203Y008015D03*
X008203Y008020D03*
X008203Y008025D03*
X008203Y008030D03*
X008203Y008035D03*
X008203Y008040D03*
X008203Y008045D03*
X008203Y008050D03*
X008203Y008055D03*
X008203Y008060D03*
X008203Y008065D03*
X008203Y008070D03*
X008203Y008075D03*
X008203Y008080D03*
X008203Y008085D03*
X008203Y008090D03*
X008203Y008095D03*
X008203Y008100D03*
X008203Y008105D03*
X008203Y008110D03*
X008203Y008115D03*
X008203Y008120D03*
X008203Y008125D03*
X008203Y008130D03*
X008203Y008135D03*
X008203Y008140D03*
X008203Y008145D03*
X008213Y008190D03*
X008213Y008195D03*
X008218Y008200D03*
X008223Y008210D03*
X008078Y008215D03*
X007863Y007910D03*
X007353Y008090D03*
X007348Y008100D03*
X007348Y008105D03*
X007193Y008075D03*
X007193Y008070D03*
X007193Y008065D03*
X007193Y008055D03*
X007193Y008050D03*
X007193Y008045D03*
X007193Y008040D03*
X007193Y008035D03*
X007193Y008030D03*
X007193Y008025D03*
X007188Y008010D03*
X007188Y008005D03*
X007188Y008000D03*
X007183Y007990D03*
X006963Y008005D03*
X006958Y008025D03*
X006958Y008030D03*
X006958Y008035D03*
X006958Y008080D03*
X006958Y008085D03*
X006958Y008090D03*
X006813Y008060D03*
X006813Y008055D03*
X006813Y008050D03*
X006808Y008015D03*
X006808Y008090D03*
X006808Y008095D03*
X006808Y008100D03*
X006803Y008115D03*
X006583Y008115D03*
X006583Y008110D03*
X006583Y008105D03*
X006583Y008100D03*
X006583Y008095D03*
X006583Y008090D03*
X006583Y008085D03*
X006583Y008080D03*
X006583Y008075D03*
X006583Y008070D03*
X006583Y008065D03*
X006583Y008060D03*
X006583Y008055D03*
X006583Y008050D03*
X006583Y008045D03*
X006583Y008040D03*
X006583Y008035D03*
X006583Y008030D03*
X006583Y008025D03*
X006583Y008020D03*
X006583Y008015D03*
X006583Y008010D03*
X006583Y008005D03*
X006583Y008000D03*
X006583Y007995D03*
X006583Y007990D03*
X006583Y007985D03*
X006583Y007980D03*
X006583Y007975D03*
X006583Y007970D03*
X006583Y007920D03*
X006583Y007915D03*
X006583Y007910D03*
X006583Y007905D03*
X006583Y007900D03*
X006583Y007895D03*
X006583Y007890D03*
X006583Y007885D03*
X006583Y007880D03*
X006583Y007875D03*
X006583Y007870D03*
X006583Y007865D03*
X006583Y007860D03*
X006583Y007855D03*
X006583Y007850D03*
X006583Y007845D03*
X006583Y007840D03*
X006583Y007835D03*
X006583Y007830D03*
X006583Y007825D03*
X006583Y007820D03*
X006583Y007815D03*
X006583Y007810D03*
X006583Y007805D03*
X006583Y007800D03*
X006583Y007795D03*
X006583Y007790D03*
X006583Y007785D03*
X006583Y007780D03*
X006583Y007775D03*
X006583Y007770D03*
X006583Y007765D03*
X006583Y007760D03*
X006713Y007900D03*
X006583Y008120D03*
X006583Y008125D03*
X006583Y008130D03*
X006583Y008135D03*
X006583Y008140D03*
X006583Y008145D03*
X006583Y008150D03*
X006583Y008155D03*
X006583Y008160D03*
X006583Y008165D03*
X006413Y008205D03*
X006408Y008195D03*
X006398Y008145D03*
X006398Y008140D03*
X006398Y008135D03*
X006398Y008130D03*
X006273Y008215D03*
X006173Y008080D03*
X006173Y008075D03*
X006173Y008070D03*
X006173Y008065D03*
X006173Y008060D03*
X006173Y008055D03*
X006173Y008050D03*
X006173Y008045D03*
X006173Y008040D03*
X006173Y008035D03*
X006173Y008030D03*
X006178Y008015D03*
X006288Y007900D03*
X006393Y007965D03*
X006003Y007985D03*
X006003Y007990D03*
X006003Y007995D03*
X006003Y008000D03*
X006003Y008005D03*
X006003Y008010D03*
X006003Y008015D03*
X006003Y008055D03*
X006003Y008060D03*
X006003Y008065D03*
X006003Y008070D03*
X006003Y008075D03*
X006003Y008080D03*
X006003Y008085D03*
X006003Y008090D03*
X006003Y008095D03*
X006003Y008100D03*
X006003Y008105D03*
X006003Y008110D03*
X006003Y008115D03*
X006003Y008120D03*
X006003Y008125D03*
X006003Y008130D03*
X006003Y008135D03*
X006003Y008140D03*
X006003Y008145D03*
X005998Y007975D03*
X005813Y008090D03*
X005808Y008100D03*
X005808Y008105D03*
X005808Y008110D03*
X005648Y008025D03*
X005648Y008020D03*
X005648Y008015D03*
X005648Y008010D03*
X005648Y008005D03*
X005643Y007985D03*
X005463Y007965D03*
X005458Y007970D03*
X005458Y007975D03*
X005453Y007980D03*
X005448Y007990D03*
X005448Y007995D03*
X005443Y008010D03*
X005443Y008015D03*
X005443Y008020D03*
X005443Y008025D03*
X005443Y008075D03*
X005443Y008080D03*
X005443Y008085D03*
X005443Y008090D03*
X005443Y008095D03*
X005448Y008110D03*
X005208Y008110D03*
X005208Y008105D03*
X005208Y008100D03*
X005208Y008095D03*
X005208Y008090D03*
X005208Y008085D03*
X005208Y008080D03*
X005208Y008075D03*
X005208Y008070D03*
X005208Y008065D03*
X005208Y008060D03*
X005208Y008055D03*
X005208Y008050D03*
X005208Y008045D03*
X005208Y008040D03*
X005208Y008035D03*
X005208Y008030D03*
X005208Y008025D03*
X005208Y008020D03*
X005208Y008015D03*
X005208Y008010D03*
X005208Y008005D03*
X005208Y008115D03*
X005208Y008120D03*
X005208Y008125D03*
X005208Y008130D03*
X005208Y008135D03*
X005208Y008140D03*
X005208Y008145D03*
X005208Y008150D03*
X005208Y008155D03*
X005208Y008160D03*
X005208Y008165D03*
X005208Y008170D03*
X005208Y008175D03*
X005208Y008180D03*
X005208Y008185D03*
X005208Y008190D03*
X005208Y008195D03*
X005208Y008200D03*
X005208Y008205D03*
X005208Y008210D03*
X005028Y008125D03*
X005023Y008135D03*
X005033Y008110D03*
X005038Y008095D03*
X005038Y008090D03*
X005038Y008085D03*
X005038Y008025D03*
X005038Y008020D03*
X005038Y008015D03*
X004943Y007900D03*
X004813Y007900D03*
X004813Y007895D03*
X004813Y007890D03*
X004813Y007885D03*
X004813Y007880D03*
X004813Y007875D03*
X004813Y007870D03*
X004813Y007865D03*
X004813Y007860D03*
X004813Y007855D03*
X004813Y007850D03*
X004813Y007845D03*
X004813Y007840D03*
X004813Y007835D03*
X004813Y007830D03*
X004813Y007825D03*
X004813Y007820D03*
X004813Y007815D03*
X004813Y007810D03*
X004813Y007805D03*
X004813Y007800D03*
X004813Y007795D03*
X004813Y007790D03*
X004813Y007785D03*
X004813Y007780D03*
X004813Y007775D03*
X004813Y007770D03*
X004813Y007765D03*
X004813Y007760D03*
X004813Y007905D03*
X004813Y007910D03*
X004813Y007915D03*
X004813Y007920D03*
X004813Y007970D03*
X004813Y007975D03*
X004813Y007980D03*
X004813Y007985D03*
X004813Y007990D03*
X004813Y007995D03*
X004813Y008000D03*
X004813Y008005D03*
X004813Y008010D03*
X004813Y008015D03*
X004813Y008020D03*
X004813Y008025D03*
X004813Y008030D03*
X004813Y008035D03*
X004813Y008040D03*
X004813Y008045D03*
X004813Y008050D03*
X004813Y008055D03*
X004813Y008060D03*
X004813Y008065D03*
X004813Y008070D03*
X004813Y008075D03*
X004813Y008080D03*
X004813Y008085D03*
X004813Y008090D03*
X004813Y008095D03*
X004813Y008100D03*
X004813Y008105D03*
X004813Y008110D03*
X004813Y008115D03*
X004813Y008120D03*
X004813Y008125D03*
X004813Y008130D03*
X004813Y008135D03*
X004813Y008140D03*
X004813Y008145D03*
X004813Y008150D03*
X004813Y008155D03*
X004813Y008160D03*
X004813Y008165D03*
X006288Y009320D03*
X006288Y009325D03*
X006288Y009330D03*
X006288Y009335D03*
X006288Y009340D03*
X006288Y009345D03*
X006288Y009350D03*
X006288Y009355D03*
X006288Y009360D03*
X006288Y009365D03*
X006288Y009370D03*
X006288Y009375D03*
X006288Y009380D03*
X006288Y009385D03*
X006288Y009390D03*
X006288Y009395D03*
X006288Y009400D03*
X006288Y009405D03*
X006288Y009410D03*
X006288Y009415D03*
X006288Y009420D03*
X006288Y009425D03*
X006288Y009430D03*
X006288Y009435D03*
X006288Y009440D03*
X006288Y009445D03*
X006288Y009450D03*
X006288Y009455D03*
X006288Y009460D03*
X006288Y009465D03*
X006288Y009470D03*
X006288Y009525D03*
X006288Y009530D03*
X006288Y009535D03*
X006288Y009540D03*
X006288Y009545D03*
X006288Y009550D03*
X006288Y009555D03*
X006288Y009560D03*
X006288Y009565D03*
X006288Y009570D03*
X006288Y009575D03*
X006288Y009580D03*
X006288Y009585D03*
X006288Y009590D03*
X006288Y009595D03*
X006288Y009600D03*
X006288Y009605D03*
X006288Y009610D03*
X006288Y009615D03*
X006288Y009620D03*
X006288Y009625D03*
X006288Y009630D03*
X006288Y009635D03*
X006288Y009640D03*
X006288Y009645D03*
X006288Y009650D03*
X006288Y009655D03*
X006288Y009660D03*
X006288Y009665D03*
X006288Y009670D03*
X006288Y009675D03*
X006288Y009680D03*
X006288Y009685D03*
X006288Y009690D03*
X006288Y009695D03*
X006288Y009700D03*
X006288Y009705D03*
X006298Y009750D03*
X006298Y009755D03*
X006303Y009760D03*
X006308Y009770D03*
X006163Y009775D03*
X006063Y009630D03*
X006063Y009625D03*
X006063Y009620D03*
X006063Y009615D03*
X006063Y009610D03*
X006063Y009605D03*
X006068Y009580D03*
X006068Y009575D03*
X006178Y009460D03*
X005898Y009555D03*
X005903Y009570D03*
X005903Y009575D03*
X005908Y009600D03*
X005908Y009605D03*
X005908Y009610D03*
X005908Y009615D03*
X005908Y009620D03*
X005673Y009650D03*
X005673Y009655D03*
X005673Y009580D03*
X005503Y009580D03*
X005503Y009575D03*
X005503Y009570D03*
X005503Y009565D03*
X005503Y009560D03*
X005503Y009555D03*
X005503Y009550D03*
X005503Y009545D03*
X005503Y009585D03*
X005503Y009590D03*
X005503Y009595D03*
X005503Y009600D03*
X005503Y009605D03*
X005503Y009610D03*
X005503Y009615D03*
X005503Y009620D03*
X005503Y009625D03*
X005503Y009630D03*
X005503Y009635D03*
X005503Y009640D03*
X005503Y009645D03*
X005503Y009650D03*
X005503Y009655D03*
X005503Y009660D03*
X005503Y009665D03*
X005503Y009670D03*
X005503Y009675D03*
X005503Y009680D03*
X005503Y009685D03*
X005503Y009690D03*
X005503Y009695D03*
X005503Y009700D03*
X005503Y009705D03*
X005503Y009710D03*
X005503Y009715D03*
X005503Y009720D03*
X005503Y009725D03*
X005503Y009730D03*
X005503Y009735D03*
X005503Y009740D03*
X005503Y009745D03*
X005503Y009750D03*
X005503Y009755D03*
X005503Y009760D03*
X005503Y009765D03*
X005503Y009770D03*
X005318Y009770D03*
X005318Y009765D03*
X005318Y009760D03*
X005318Y009755D03*
X005318Y009750D03*
X005318Y009745D03*
X005318Y009740D03*
X005318Y009735D03*
X005318Y009730D03*
X005318Y009725D03*
X005318Y009720D03*
X005318Y009715D03*
X005318Y009710D03*
X005318Y009705D03*
X005318Y009700D03*
X005318Y009695D03*
X005318Y009690D03*
X005318Y009685D03*
X005318Y009680D03*
X005318Y009675D03*
X005318Y009670D03*
X005318Y009665D03*
X005318Y009660D03*
X005318Y009655D03*
X005318Y009650D03*
X005318Y009645D03*
X005318Y009640D03*
X005318Y009635D03*
X005318Y009630D03*
X005318Y009625D03*
X005318Y009620D03*
X005318Y009615D03*
X005318Y009610D03*
X005318Y009605D03*
X005318Y009600D03*
X005318Y009595D03*
X005318Y009590D03*
X005318Y009585D03*
X005318Y009580D03*
X005318Y009575D03*
X005318Y009570D03*
X005318Y009565D03*
X005318Y009560D03*
X005318Y009555D03*
X005318Y009550D03*
X005313Y009540D03*
X005313Y009535D03*
X005123Y009535D03*
X005123Y009530D03*
X005123Y009540D03*
X005123Y009545D03*
X005123Y009550D03*
X005123Y009555D03*
X005123Y009560D03*
X005123Y009565D03*
X005123Y009570D03*
X005123Y009575D03*
X005123Y009580D03*
X005123Y009585D03*
X005123Y009590D03*
X005123Y009595D03*
X005123Y009600D03*
X005123Y009605D03*
X005123Y009610D03*
X005123Y009615D03*
X005123Y009620D03*
X005123Y009625D03*
X005123Y009630D03*
X005123Y009635D03*
X005123Y009640D03*
X005123Y009645D03*
X005123Y009650D03*
X005123Y009655D03*
X005123Y009660D03*
X005123Y009665D03*
X005123Y009670D03*
X005123Y009675D03*
X005123Y009680D03*
X005123Y009685D03*
X005123Y009690D03*
X005123Y009695D03*
X005123Y009700D03*
X005123Y009705D03*
X005123Y009710D03*
X005123Y009715D03*
X005123Y009720D03*
X005123Y009725D03*
X005123Y009730D03*
X005123Y009735D03*
X005123Y009740D03*
X005123Y009745D03*
X005123Y009750D03*
X005123Y009755D03*
X005123Y009760D03*
X005123Y009765D03*
X005123Y009770D03*
X006468Y009660D03*
X006468Y009655D03*
X006468Y009650D03*
X006473Y009675D03*
X006468Y009580D03*
X006468Y009575D03*
X006468Y009570D03*
X006468Y009565D03*
X006468Y009560D03*
X006473Y009550D03*
X006473Y009545D03*
X006478Y009540D03*
X006478Y009535D03*
X006483Y009530D03*
X006668Y009550D03*
X006848Y009560D03*
X006848Y009565D03*
X006973Y009470D03*
X007113Y009480D03*
X007113Y009485D03*
X007113Y009535D03*
X007113Y009540D03*
X007113Y009545D03*
X007113Y009550D03*
X007113Y009555D03*
X007113Y009560D03*
X007113Y009565D03*
X007113Y009570D03*
X007113Y009575D03*
X007113Y009580D03*
X007113Y009585D03*
X007113Y009590D03*
X007113Y009595D03*
X007113Y009600D03*
X007113Y009605D03*
X007113Y009610D03*
X007113Y009615D03*
X007113Y009620D03*
X007113Y009625D03*
X007113Y009630D03*
X007113Y009635D03*
X007113Y009640D03*
X007113Y009645D03*
X007113Y009650D03*
X007113Y009655D03*
X007113Y009660D03*
X007113Y009665D03*
X007113Y009670D03*
X007113Y009675D03*
X007113Y009680D03*
X007113Y009685D03*
X007113Y009690D03*
X007113Y009695D03*
X007113Y009700D03*
X007113Y009705D03*
X007113Y009710D03*
X007113Y009715D03*
X007113Y009720D03*
X007113Y009725D03*
X007113Y009730D03*
X007113Y009735D03*
X007113Y009740D03*
X007113Y009745D03*
X007113Y009750D03*
X007113Y009755D03*
X007113Y009760D03*
X007113Y009765D03*
X007113Y009770D03*
X007328Y009770D03*
X007328Y009765D03*
X007328Y009760D03*
X007328Y009755D03*
X007328Y009750D03*
X007328Y009745D03*
X007328Y009740D03*
X007328Y009735D03*
X007328Y009730D03*
X007328Y009725D03*
X007328Y009720D03*
X007328Y009715D03*
X007328Y009710D03*
X007328Y009705D03*
X007328Y009700D03*
X007328Y009695D03*
X007328Y009690D03*
X007328Y009685D03*
X007328Y009680D03*
X007328Y009675D03*
X007328Y009670D03*
X007328Y009665D03*
X007328Y009660D03*
X007328Y009655D03*
X007328Y009650D03*
X007328Y009645D03*
X007328Y009640D03*
X007328Y009635D03*
X007328Y009630D03*
X007328Y009625D03*
X007328Y009620D03*
X007328Y009615D03*
X007328Y009610D03*
X007328Y009605D03*
X007328Y009600D03*
X007328Y009595D03*
X007328Y009590D03*
X007328Y009585D03*
X007328Y009580D03*
X007328Y009575D03*
X007328Y009570D03*
X007328Y009565D03*
X007328Y009560D03*
X007328Y009555D03*
X007328Y009550D03*
X007498Y009580D03*
X007498Y009585D03*
X007503Y009565D03*
X007498Y009655D03*
X007598Y009775D03*
X007728Y009750D03*
X007733Y009760D03*
X007718Y009705D03*
X007718Y009700D03*
X007718Y009695D03*
X007718Y009690D03*
X007718Y009685D03*
X007718Y009680D03*
X007718Y009675D03*
X007718Y009670D03*
X007718Y009665D03*
X007718Y009660D03*
X007718Y009655D03*
X007718Y009650D03*
X007718Y009645D03*
X007718Y009640D03*
X007718Y009635D03*
X007718Y009630D03*
X007718Y009625D03*
X007718Y009620D03*
X007718Y009615D03*
X007718Y009610D03*
X007718Y009605D03*
X007718Y009600D03*
X007718Y009595D03*
X007718Y009590D03*
X007718Y009585D03*
X007718Y009580D03*
X007718Y009575D03*
X007718Y009570D03*
X007718Y009565D03*
X007718Y009560D03*
X007718Y009555D03*
X007718Y009550D03*
X007718Y009545D03*
X007718Y009540D03*
X007718Y009535D03*
X007718Y009530D03*
X007718Y009525D03*
X007718Y009470D03*
X007718Y009465D03*
X007718Y009460D03*
X007718Y009455D03*
X007718Y009450D03*
X007718Y009445D03*
X007718Y009440D03*
X007718Y009435D03*
X007718Y009430D03*
X007718Y009425D03*
X007718Y009420D03*
X007718Y009415D03*
X007718Y009410D03*
X007718Y009405D03*
X007718Y009400D03*
X007718Y009395D03*
X007718Y009390D03*
X007718Y009385D03*
X007718Y009380D03*
X007718Y009375D03*
X007718Y009370D03*
X007718Y009365D03*
X007718Y009360D03*
X007718Y009355D03*
X007718Y009350D03*
X007718Y009345D03*
X007718Y009340D03*
X007718Y009335D03*
X007718Y009330D03*
X007718Y009325D03*
X007718Y009320D03*
X007918Y009525D03*
X007913Y009530D03*
X007913Y009535D03*
X007908Y009540D03*
X007903Y009550D03*
X007903Y009555D03*
X007898Y009565D03*
X007898Y009570D03*
X007898Y009575D03*
X007898Y009580D03*
X007898Y009585D03*
X007898Y009640D03*
X007898Y009645D03*
X007898Y009650D03*
X007898Y009655D03*
X007903Y009670D03*
X008103Y009585D03*
X008103Y009580D03*
X008103Y009575D03*
X008103Y009570D03*
X008263Y009515D03*
X008263Y009510D03*
X008268Y009520D03*
X008268Y009525D03*
X008268Y009530D03*
X008273Y009535D03*
X008273Y009540D03*
X008278Y009550D03*
X008283Y009565D03*
X008258Y009500D03*
X008253Y009485D03*
X008243Y009460D03*
X008463Y009535D03*
X008463Y009540D03*
X008458Y009550D03*
X008453Y009565D03*
X008468Y009525D03*
X008468Y009520D03*
X008473Y009515D03*
X008473Y009510D03*
X008478Y009495D03*
X008493Y009460D03*
X008638Y009465D03*
X008638Y009470D03*
X008638Y009475D03*
X008638Y009480D03*
X008638Y009485D03*
X008638Y009490D03*
X008638Y009495D03*
X008638Y009500D03*
X008638Y009505D03*
X008638Y009510D03*
X008638Y009515D03*
X008638Y009520D03*
X008638Y009525D03*
X008638Y009530D03*
X008638Y009535D03*
X008638Y009540D03*
X008638Y009545D03*
X008638Y009550D03*
X008638Y009555D03*
X008638Y009560D03*
X008638Y009565D03*
X008638Y009570D03*
X008638Y009575D03*
X008638Y009580D03*
X008638Y009585D03*
X008638Y009590D03*
X008638Y009595D03*
X008638Y009600D03*
X008638Y009605D03*
X008638Y009610D03*
X008638Y009615D03*
X008638Y009620D03*
X008638Y009625D03*
X008638Y009630D03*
X008638Y009635D03*
X008638Y009640D03*
X008638Y009645D03*
X008638Y009650D03*
X008638Y009655D03*
X008638Y009660D03*
X008638Y009665D03*
X008638Y009670D03*
X008638Y009675D03*
X008638Y009680D03*
X008638Y009685D03*
X008638Y009690D03*
X008638Y009695D03*
X008638Y009700D03*
X008638Y009705D03*
X008638Y009710D03*
X008638Y009715D03*
X008638Y009720D03*
X008638Y009725D03*
X008638Y009730D03*
X008638Y009735D03*
X008638Y009740D03*
X008638Y009745D03*
X008638Y009750D03*
X008638Y009755D03*
X008638Y009760D03*
X008638Y009765D03*
X008638Y009770D03*
X008808Y009640D03*
X008808Y009635D03*
X008808Y009630D03*
X008808Y009625D03*
X008808Y009620D03*
X008808Y009615D03*
X008808Y009610D03*
X008808Y009605D03*
X008808Y009600D03*
X008808Y009595D03*
X008808Y009590D03*
X008813Y009570D03*
X009013Y009715D03*
X009168Y009670D03*
X009163Y009655D03*
X009163Y009650D03*
X009163Y009645D03*
X009163Y009585D03*
X009163Y009580D03*
X009163Y009575D03*
X009163Y009570D03*
X009163Y009565D03*
X009168Y009555D03*
X009168Y009550D03*
X009173Y009540D03*
X009173Y009535D03*
X009178Y009530D03*
X009368Y009580D03*
X009368Y009585D03*
X009528Y009725D03*
X009528Y009730D03*
X009528Y009745D03*
X009528Y009750D03*
X009678Y009655D03*
X009678Y009585D03*
X009678Y009580D03*
X010028Y009595D03*
X010028Y009600D03*
X010028Y009605D03*
X010028Y009610D03*
X010028Y009615D03*
X010028Y009620D03*
X010028Y009625D03*
X010028Y009630D03*
X010028Y009635D03*
X010028Y009640D03*
X010033Y009665D03*
X010033Y009570D03*
X010258Y009565D03*
X010258Y009560D03*
X010263Y009575D03*
X010263Y009580D03*
X010263Y009585D03*
X010263Y009590D03*
X010263Y009645D03*
X010433Y009645D03*
X010433Y009640D03*
X010433Y009635D03*
X010433Y009630D03*
X010433Y009625D03*
X010433Y009620D03*
X010433Y009615D03*
X010433Y009610D03*
X010433Y009605D03*
X010433Y009600D03*
X010433Y009595D03*
X010433Y009590D03*
X010433Y009585D03*
X010433Y009580D03*
X010433Y009575D03*
X010433Y009570D03*
X010433Y009565D03*
X010433Y009560D03*
X010433Y009555D03*
X010433Y009550D03*
X010433Y009545D03*
X010433Y009540D03*
X010433Y009535D03*
X010433Y009530D03*
X010433Y009650D03*
X010433Y009655D03*
X010433Y009660D03*
X010433Y009665D03*
X010433Y009670D03*
X010433Y009675D03*
X010433Y009680D03*
X010433Y009685D03*
X010433Y009690D03*
X010433Y009695D03*
X010433Y009700D03*
X010433Y009705D03*
X010433Y009710D03*
X010433Y009715D03*
X010433Y009720D03*
X010433Y009725D03*
X010433Y009730D03*
X010433Y009735D03*
X010433Y009740D03*
X010433Y009745D03*
X010433Y009750D03*
X010433Y009755D03*
X010433Y009760D03*
X010433Y009765D03*
X010433Y009770D03*
X010628Y009770D03*
X010628Y009765D03*
X010628Y009760D03*
X010628Y009755D03*
X010628Y009750D03*
X010628Y009745D03*
X010628Y009740D03*
X010628Y009735D03*
X010628Y009730D03*
X010628Y009725D03*
X010628Y009720D03*
X010628Y009715D03*
X010628Y009710D03*
X010628Y009705D03*
X010628Y009700D03*
X010628Y009695D03*
X010628Y009690D03*
X010628Y009685D03*
X010628Y009680D03*
X010628Y009675D03*
X010628Y009670D03*
X010628Y009665D03*
X010628Y009660D03*
X010628Y009655D03*
X010628Y009650D03*
X010628Y009645D03*
X010628Y009640D03*
X010628Y009635D03*
X010628Y009630D03*
X010628Y009625D03*
X010628Y009620D03*
X010628Y009615D03*
X010628Y009610D03*
X010628Y009605D03*
X010628Y009600D03*
X010628Y009595D03*
X010628Y009590D03*
X010628Y009585D03*
X010628Y009580D03*
X010628Y009575D03*
X010628Y009570D03*
X010628Y009565D03*
X010628Y009560D03*
X010628Y009555D03*
X010623Y009550D03*
X010623Y009545D03*
X010623Y009540D03*
X010623Y009535D03*
X010748Y009460D03*
X010813Y009545D03*
X010813Y009550D03*
X010813Y009555D03*
X010813Y009560D03*
X010813Y009565D03*
X010813Y009570D03*
X010813Y009575D03*
X010813Y009580D03*
X010813Y009585D03*
X010813Y009590D03*
X010813Y009595D03*
X010813Y009600D03*
X010813Y009605D03*
X010813Y009610D03*
X010813Y009615D03*
X010813Y009620D03*
X010813Y009625D03*
X010813Y009630D03*
X010813Y009635D03*
X010813Y009640D03*
X010813Y009645D03*
X010813Y009650D03*
X010813Y009655D03*
X010813Y009660D03*
X010813Y009665D03*
X010813Y009670D03*
X010813Y009675D03*
X010813Y009680D03*
X010813Y009685D03*
X010813Y009690D03*
X010813Y009695D03*
X010813Y009700D03*
X010813Y009705D03*
X010813Y009710D03*
X010813Y009715D03*
X010813Y009720D03*
X010813Y009725D03*
X010813Y009730D03*
X010813Y009735D03*
X010813Y009740D03*
X010813Y009745D03*
X010813Y009750D03*
X010813Y009755D03*
X010813Y009760D03*
X010813Y009765D03*
X010813Y009770D03*
X008638Y009375D03*
X008638Y009350D03*
X008638Y009345D03*
X008368Y009760D03*
X008368Y009765D03*
X008933Y008105D03*
X008933Y008100D03*
X008933Y008095D03*
X008928Y008080D03*
X008928Y008075D03*
X008928Y008025D03*
X008928Y008020D03*
X008933Y008015D03*
X008933Y008010D03*
X008933Y008005D03*
X008933Y008000D03*
X008938Y007990D03*
X008938Y007985D03*
X008943Y007980D03*
X008943Y007975D03*
X008948Y007970D03*
X009133Y007995D03*
X009288Y008035D03*
X009288Y008040D03*
X009288Y008045D03*
X009288Y008050D03*
X009288Y008055D03*
X009288Y008060D03*
X009288Y008065D03*
X009288Y008070D03*
X009288Y008075D03*
X009288Y008080D03*
X009293Y008105D03*
X009293Y008010D03*
X009513Y007990D03*
X009518Y008000D03*
X009518Y008005D03*
X009523Y008015D03*
X009523Y008020D03*
X009523Y008025D03*
X009523Y008030D03*
X009523Y008035D03*
X009523Y008085D03*
X009673Y008085D03*
X009673Y008080D03*
X009673Y008075D03*
X009673Y008070D03*
X009673Y008065D03*
X009673Y008060D03*
X009673Y008055D03*
X009673Y008050D03*
X009673Y008045D03*
X009673Y008040D03*
X009673Y008035D03*
X009673Y008030D03*
X009673Y008025D03*
X009673Y008020D03*
X009673Y008015D03*
X009673Y008010D03*
X009673Y008005D03*
X009673Y008000D03*
X009673Y007995D03*
X009673Y007990D03*
X009673Y007985D03*
X009673Y007980D03*
X009673Y007975D03*
X009673Y007970D03*
X009673Y008090D03*
X009673Y008095D03*
X009673Y008100D03*
X009673Y008105D03*
X009673Y008110D03*
X009673Y008115D03*
X009673Y008120D03*
X009673Y008125D03*
X009673Y008130D03*
X009673Y008135D03*
X009673Y008140D03*
X009673Y008145D03*
X009673Y008150D03*
X009673Y008155D03*
X009673Y008160D03*
X009673Y008165D03*
X009673Y008170D03*
X009673Y008175D03*
X009673Y008180D03*
X009673Y008185D03*
X009673Y008190D03*
X009673Y008195D03*
X009673Y008200D03*
X009673Y008205D03*
X009673Y008210D03*
X009888Y008210D03*
X009888Y008205D03*
X009888Y008200D03*
X009888Y008195D03*
X009888Y008190D03*
X009888Y008185D03*
X009888Y008180D03*
X009888Y008175D03*
X009888Y008170D03*
X009888Y008165D03*
X009888Y008160D03*
X009888Y008155D03*
X009888Y008150D03*
X009888Y008145D03*
X009888Y008140D03*
X009888Y008135D03*
X009888Y008130D03*
X009888Y008125D03*
X009888Y008120D03*
X009888Y008115D03*
X009888Y008110D03*
X009888Y008105D03*
X009888Y008100D03*
X009888Y008095D03*
X009888Y008090D03*
X009888Y008085D03*
X009888Y008080D03*
X009888Y008075D03*
X009888Y008070D03*
X009888Y008065D03*
X009888Y008060D03*
X009888Y008055D03*
X009888Y008050D03*
X009888Y008045D03*
X009888Y008040D03*
X009888Y008035D03*
X009888Y008030D03*
X009888Y008025D03*
X009888Y008020D03*
X009888Y008015D03*
X009888Y008010D03*
X009888Y008005D03*
X009888Y008000D03*
X009888Y007995D03*
X009883Y007985D03*
X009883Y007980D03*
X010063Y007955D03*
X010058Y008085D03*
X010053Y008095D03*
X010053Y008100D03*
X010048Y008110D03*
X010048Y008115D03*
X010048Y008120D03*
X010048Y008125D03*
X010048Y008130D03*
X010048Y008135D03*
X010243Y008135D03*
X010243Y008130D03*
X010243Y008125D03*
X010243Y008120D03*
X010243Y008115D03*
X010243Y008110D03*
X010243Y008105D03*
X010243Y008100D03*
X010243Y008095D03*
X010243Y008090D03*
X010243Y008085D03*
X010243Y008080D03*
X010243Y008075D03*
X010243Y008070D03*
X010243Y008065D03*
X010243Y008060D03*
X010243Y008055D03*
X010243Y008015D03*
X010243Y008010D03*
X010243Y008005D03*
X010243Y008000D03*
X010243Y007995D03*
X010243Y007990D03*
X010243Y007985D03*
X010243Y007980D03*
X010243Y008140D03*
X010243Y008145D03*
X010438Y008145D03*
X010438Y008140D03*
X010438Y008135D03*
X010438Y008130D03*
X010438Y008125D03*
X010438Y008120D03*
X010438Y008115D03*
X010438Y008110D03*
X010438Y008105D03*
X010438Y008100D03*
X010438Y008095D03*
X010438Y008090D03*
X010438Y008085D03*
X010438Y008080D03*
X010438Y008075D03*
X010438Y008070D03*
X010438Y008065D03*
X010438Y008060D03*
X010438Y008055D03*
X010438Y008050D03*
X010438Y008045D03*
X010438Y008040D03*
X010438Y008035D03*
X010438Y008030D03*
X010438Y008025D03*
X010438Y008020D03*
X010438Y008015D03*
X010438Y008010D03*
X010438Y008005D03*
X010438Y008150D03*
X010438Y008155D03*
X010438Y008160D03*
X010438Y008165D03*
X010438Y008170D03*
X010438Y008175D03*
X010438Y008180D03*
X010438Y008185D03*
X010438Y008190D03*
X010438Y008195D03*
X010438Y008200D03*
X010438Y008205D03*
X010438Y008210D03*
X010673Y008090D03*
X010673Y008085D03*
X010673Y008030D03*
X010673Y008025D03*
X010788Y007900D03*
X010893Y007900D03*
X010893Y007895D03*
X010893Y007890D03*
X010893Y007885D03*
X010893Y007880D03*
X010893Y007875D03*
X010893Y007870D03*
X010893Y007865D03*
X010893Y007860D03*
X010893Y007855D03*
X010893Y007850D03*
X010893Y007845D03*
X010893Y007840D03*
X010893Y007835D03*
X010893Y007830D03*
X010893Y007825D03*
X010893Y007820D03*
X010893Y007815D03*
X010893Y007810D03*
X010893Y007805D03*
X010893Y007800D03*
X010893Y007795D03*
X010893Y007790D03*
X010893Y007785D03*
X010893Y007780D03*
X010893Y007775D03*
X010893Y007770D03*
X010893Y007765D03*
X010893Y007760D03*
X010893Y007905D03*
X010893Y007910D03*
X010893Y007965D03*
X010893Y007970D03*
X010893Y007975D03*
X010893Y007980D03*
X010893Y007985D03*
X010893Y007990D03*
X010893Y007995D03*
X010893Y008000D03*
X010893Y008005D03*
X010893Y008010D03*
X010893Y008015D03*
X010893Y008020D03*
X010893Y008025D03*
X010893Y008030D03*
X010893Y008035D03*
X010893Y008040D03*
X010893Y008045D03*
X010893Y008050D03*
X010893Y008055D03*
X010893Y008060D03*
X010893Y008065D03*
X010893Y008070D03*
X010893Y008075D03*
X010893Y008080D03*
X010893Y008085D03*
X010893Y008090D03*
X010893Y008095D03*
X010893Y008100D03*
X010893Y008105D03*
X010893Y008110D03*
X010893Y008115D03*
X010893Y008120D03*
X010893Y008125D03*
X010893Y008130D03*
X010893Y008135D03*
X010893Y008140D03*
X010903Y008185D03*
X010903Y008190D03*
X010908Y008195D03*
X010908Y008200D03*
X010913Y008205D03*
X010773Y008215D03*
X011043Y008100D03*
X011038Y008075D03*
X011038Y008070D03*
X011038Y008065D03*
X011038Y008060D03*
X011038Y008055D03*
X011038Y008050D03*
X011038Y008045D03*
X011038Y008040D03*
X011043Y008015D03*
X011263Y007985D03*
X011268Y007995D03*
X011268Y008000D03*
X011273Y008010D03*
X011273Y008015D03*
X011273Y008020D03*
X011273Y008025D03*
X008638Y007220D03*
X008478Y007365D03*
D95*
X008628Y007255D03*
X008588Y006860D03*
X008938Y006850D03*
X009203Y006850D03*
X009193Y007260D03*
X009408Y007915D03*
X010768Y008190D03*
X011158Y007915D03*
X010743Y009480D03*
X010558Y009485D03*
X010148Y009475D03*
X007593Y009750D03*
X006163Y009750D03*
X005433Y009480D03*
X005248Y009485D03*
X006653Y008215D03*
X006713Y007920D03*
X007078Y007915D03*
X007408Y007205D03*
X007413Y007200D03*
X007378Y006615D03*
X006703Y006615D03*
X006708Y006985D03*
X006733Y007205D03*
X004943Y007920D03*
D96*
X004943Y007905D03*
X005223Y007975D03*
X005313Y007945D03*
X005313Y007940D03*
X005488Y008165D03*
X006033Y008205D03*
X006213Y008160D03*
X006288Y007905D03*
X006713Y007905D03*
X007003Y007950D03*
X007078Y008215D03*
X007528Y008160D03*
X007573Y008205D03*
X007748Y007975D03*
X007838Y007945D03*
X007843Y007935D03*
X008093Y007905D03*
X008188Y007955D03*
X008018Y008160D03*
X008078Y008210D03*
X008973Y008165D03*
X009048Y008215D03*
X009333Y007950D03*
X009408Y008215D03*
X009688Y007960D03*
X010233Y008160D03*
X010453Y007975D03*
X010543Y007940D03*
X010718Y007955D03*
X010878Y007955D03*
X010713Y008160D03*
X011158Y008215D03*
X010748Y009465D03*
X010148Y009775D03*
X010073Y009510D03*
X009363Y009725D03*
X008368Y009725D03*
X008368Y009730D03*
X008098Y009725D03*
X007943Y009725D03*
X007703Y009515D03*
X007608Y009465D03*
X007543Y009515D03*
X007538Y009720D03*
X007128Y009520D03*
X006953Y009500D03*
X006863Y009535D03*
X006508Y009725D03*
X006273Y009515D03*
X006178Y009465D03*
X006103Y009720D03*
X006163Y009770D03*
X005788Y009775D03*
X005863Y009510D03*
X005438Y009465D03*
X009073Y006745D03*
D97*
X008615Y007760D03*
X008615Y007765D03*
X008615Y007770D03*
X008615Y007775D03*
X008615Y007780D03*
X008615Y007785D03*
X008615Y007790D03*
X008615Y007795D03*
X008615Y007800D03*
X008615Y007805D03*
X008615Y007810D03*
X008615Y007815D03*
X008615Y007820D03*
X008615Y007825D03*
X008615Y007830D03*
X008615Y007835D03*
X008615Y007840D03*
X008615Y007845D03*
X008615Y007850D03*
X008615Y007855D03*
X008615Y007860D03*
X008615Y007865D03*
X008615Y007870D03*
X008615Y007875D03*
X008615Y007880D03*
X008615Y007885D03*
X008615Y007890D03*
X008615Y007895D03*
X008615Y007900D03*
X008615Y007905D03*
X008615Y007910D03*
X008615Y007915D03*
X008615Y007920D03*
X008615Y007925D03*
X008615Y007930D03*
X008615Y007935D03*
X008615Y007940D03*
X008615Y007945D03*
X008615Y007950D03*
X008615Y007955D03*
X008615Y007960D03*
X008615Y007965D03*
X008615Y007970D03*
X008615Y007975D03*
X008615Y007980D03*
X008615Y007985D03*
X008615Y007990D03*
X008615Y007995D03*
X008615Y008000D03*
X008615Y008005D03*
X008615Y008010D03*
X008615Y008015D03*
X008615Y008020D03*
X008615Y008025D03*
X008615Y008030D03*
X008615Y008035D03*
X008615Y008040D03*
X008615Y008045D03*
X008615Y008050D03*
X008615Y008055D03*
X008615Y008060D03*
X008615Y008065D03*
X008615Y008070D03*
X008615Y008075D03*
X008615Y008080D03*
X008615Y008085D03*
X008615Y008090D03*
X008615Y008095D03*
X008615Y008100D03*
X008615Y008105D03*
X008615Y008110D03*
X008615Y008115D03*
X008615Y008120D03*
X008615Y008125D03*
X008615Y008130D03*
X008615Y008135D03*
X008615Y008140D03*
X008615Y008145D03*
X008615Y008150D03*
X008615Y008155D03*
X008930Y008090D03*
X008930Y008085D03*
X008935Y008110D03*
X008935Y008115D03*
X008940Y008120D03*
X008940Y008125D03*
X008945Y008135D03*
X008950Y007965D03*
X008955Y007960D03*
X009040Y007900D03*
X009125Y007975D03*
X009130Y007980D03*
X009130Y007985D03*
X009130Y007990D03*
X009135Y008000D03*
X009135Y008005D03*
X009135Y008010D03*
X009135Y008015D03*
X009135Y008020D03*
X009135Y008025D03*
X009290Y008025D03*
X009290Y008020D03*
X009290Y008015D03*
X009295Y008005D03*
X009295Y008000D03*
X009295Y007995D03*
X009300Y007990D03*
X009300Y007985D03*
X009305Y007980D03*
X009290Y008030D03*
X009290Y008085D03*
X009290Y008090D03*
X009290Y008095D03*
X009290Y008100D03*
X009295Y008110D03*
X009295Y008115D03*
X009295Y008120D03*
X009300Y008125D03*
X009300Y008130D03*
X009305Y008135D03*
X009310Y008145D03*
X009510Y008130D03*
X009510Y008125D03*
X009515Y008120D03*
X009515Y008115D03*
X009515Y008110D03*
X009520Y008105D03*
X009520Y008100D03*
X009520Y008095D03*
X009520Y008090D03*
X009525Y008080D03*
X009525Y008075D03*
X009525Y008070D03*
X009525Y008065D03*
X009525Y008060D03*
X009525Y008055D03*
X009525Y008050D03*
X009525Y008045D03*
X009525Y008040D03*
X009520Y008010D03*
X009515Y007995D03*
X009510Y007985D03*
X009510Y007980D03*
X009505Y007975D03*
X009880Y007975D03*
X009885Y007990D03*
X010060Y008080D03*
X010065Y008075D03*
X010055Y008090D03*
X010050Y008105D03*
X010050Y008140D03*
X010050Y008145D03*
X010050Y008150D03*
X010240Y008150D03*
X010240Y007975D03*
X010240Y007970D03*
X010235Y007965D03*
X010440Y008000D03*
X010560Y007915D03*
X010565Y007910D03*
X010680Y007995D03*
X010680Y008000D03*
X010680Y008005D03*
X010675Y008010D03*
X010675Y008015D03*
X010675Y008020D03*
X010670Y008035D03*
X010670Y008040D03*
X010670Y008045D03*
X010670Y008050D03*
X010670Y008055D03*
X010670Y008060D03*
X010670Y008065D03*
X010670Y008070D03*
X010670Y008075D03*
X010670Y008080D03*
X010675Y008095D03*
X010675Y008100D03*
X010675Y008105D03*
X010680Y008115D03*
X010680Y008120D03*
X010685Y008130D03*
X010685Y007990D03*
X010895Y008145D03*
X011045Y008115D03*
X011045Y008110D03*
X011045Y008105D03*
X011040Y008095D03*
X011040Y008090D03*
X011040Y008085D03*
X011040Y008080D03*
X011050Y008120D03*
X011050Y008125D03*
X011055Y008135D03*
X011040Y008035D03*
X011040Y008030D03*
X011040Y008025D03*
X011040Y008020D03*
X011045Y008010D03*
X011045Y008005D03*
X011045Y008000D03*
X011050Y007995D03*
X011050Y007990D03*
X011055Y007980D03*
X011250Y007965D03*
X011255Y007970D03*
X011255Y007975D03*
X011260Y007980D03*
X011265Y007990D03*
X011270Y008005D03*
X011275Y008030D03*
X011275Y008035D03*
X011275Y008040D03*
X011275Y008045D03*
X011275Y008050D03*
X011275Y008055D03*
X011275Y008060D03*
X011275Y008065D03*
X011275Y008070D03*
X011275Y008075D03*
X011275Y008080D03*
X011275Y008085D03*
X011275Y008090D03*
X011270Y008095D03*
X011270Y008100D03*
X011270Y008105D03*
X011270Y008110D03*
X011265Y008115D03*
X011265Y008120D03*
X011260Y008130D03*
X011255Y008140D03*
X010435Y009525D03*
X010260Y009570D03*
X010255Y009555D03*
X010255Y009550D03*
X010250Y009545D03*
X010250Y009540D03*
X010245Y009535D03*
X010265Y009595D03*
X010265Y009600D03*
X010265Y009605D03*
X010265Y009610D03*
X010265Y009615D03*
X010265Y009620D03*
X010265Y009625D03*
X010265Y009630D03*
X010265Y009635D03*
X010265Y009640D03*
X010260Y009650D03*
X010260Y009655D03*
X010260Y009660D03*
X010260Y009665D03*
X010255Y009670D03*
X010255Y009675D03*
X010255Y009680D03*
X010250Y009690D03*
X010045Y009695D03*
X010040Y009690D03*
X010040Y009685D03*
X010035Y009675D03*
X010035Y009670D03*
X010030Y009660D03*
X010030Y009655D03*
X010030Y009650D03*
X010030Y009645D03*
X010030Y009590D03*
X010030Y009585D03*
X010030Y009580D03*
X010030Y009575D03*
X010035Y009565D03*
X010035Y009560D03*
X010035Y009555D03*
X010040Y009550D03*
X010040Y009545D03*
X010045Y009540D03*
X010620Y009530D03*
X010810Y009535D03*
X010810Y009540D03*
X009690Y009545D03*
X009685Y009555D03*
X009685Y009560D03*
X009680Y009565D03*
X009680Y009570D03*
X009680Y009575D03*
X009675Y009590D03*
X009675Y009595D03*
X009675Y009600D03*
X009675Y009605D03*
X009675Y009610D03*
X009675Y009615D03*
X009675Y009620D03*
X009675Y009625D03*
X009675Y009630D03*
X009675Y009635D03*
X009675Y009640D03*
X009675Y009645D03*
X009675Y009650D03*
X009680Y009660D03*
X009680Y009665D03*
X009680Y009670D03*
X009685Y009675D03*
X009685Y009680D03*
X009690Y009690D03*
X009525Y009735D03*
X009525Y009740D03*
X009365Y009575D03*
X009365Y009570D03*
X009365Y009565D03*
X009365Y009560D03*
X009365Y009555D03*
X009365Y009550D03*
X009360Y009545D03*
X009360Y009540D03*
X009355Y009530D03*
X009180Y009525D03*
X009160Y009635D03*
X009160Y009640D03*
X009165Y009660D03*
X009165Y009665D03*
X009170Y009675D03*
X009170Y009680D03*
X009175Y009690D03*
X008825Y009695D03*
X008820Y009685D03*
X008815Y009675D03*
X008815Y009670D03*
X008815Y009665D03*
X008810Y009660D03*
X008810Y009655D03*
X008810Y009650D03*
X008810Y009645D03*
X008810Y009585D03*
X008810Y009580D03*
X008810Y009575D03*
X008815Y009565D03*
X008815Y009560D03*
X008820Y009555D03*
X008820Y009550D03*
X008825Y009540D03*
X008640Y009370D03*
X008640Y009365D03*
X008640Y009360D03*
X008640Y009355D03*
X008490Y009465D03*
X008485Y009470D03*
X008485Y009475D03*
X008485Y009480D03*
X008480Y009485D03*
X008480Y009490D03*
X008475Y009500D03*
X008475Y009505D03*
X008260Y009505D03*
X008255Y009495D03*
X008255Y009490D03*
X008250Y009480D03*
X008250Y009475D03*
X008245Y009470D03*
X008245Y009465D03*
X008095Y009540D03*
X008095Y009545D03*
X008100Y009550D03*
X008100Y009555D03*
X008100Y009560D03*
X008100Y009565D03*
X008090Y009530D03*
X008105Y009720D03*
X007910Y009690D03*
X007910Y009685D03*
X007905Y009680D03*
X007905Y009675D03*
X007900Y009665D03*
X007900Y009660D03*
X007895Y009635D03*
X007730Y009755D03*
X007510Y009690D03*
X007505Y009680D03*
X007505Y009675D03*
X007500Y009670D03*
X007500Y009665D03*
X007500Y009660D03*
X007495Y009650D03*
X007495Y009645D03*
X007495Y009640D03*
X007495Y009635D03*
X007495Y009630D03*
X007495Y009625D03*
X007495Y009620D03*
X007495Y009615D03*
X007495Y009610D03*
X007495Y009605D03*
X007495Y009600D03*
X007495Y009595D03*
X007495Y009590D03*
X007500Y009575D03*
X007500Y009570D03*
X007505Y009560D03*
X007505Y009555D03*
X007510Y009550D03*
X007610Y009460D03*
X007325Y009540D03*
X007325Y009545D03*
X007320Y009535D03*
X007320Y009530D03*
X007115Y009530D03*
X006850Y009555D03*
X006670Y009555D03*
X006670Y009560D03*
X006670Y009565D03*
X006670Y009570D03*
X006670Y009575D03*
X006670Y009580D03*
X006670Y009585D03*
X006665Y009545D03*
X006665Y009540D03*
X006485Y009525D03*
X006465Y009585D03*
X006465Y009635D03*
X006465Y009640D03*
X006465Y009645D03*
X006470Y009665D03*
X006470Y009670D03*
X006475Y009680D03*
X006475Y009685D03*
X006480Y009690D03*
X006295Y009745D03*
X006075Y009680D03*
X006070Y009670D03*
X006070Y009665D03*
X006070Y009660D03*
X006065Y009655D03*
X006065Y009650D03*
X006065Y009645D03*
X006065Y009640D03*
X006065Y009635D03*
X006065Y009600D03*
X006065Y009595D03*
X006065Y009590D03*
X006065Y009585D03*
X006070Y009570D03*
X006070Y009565D03*
X006075Y009560D03*
X006075Y009555D03*
X006080Y009545D03*
X005905Y009580D03*
X005905Y009585D03*
X005905Y009590D03*
X005905Y009595D03*
X005905Y009625D03*
X005905Y009630D03*
X005905Y009635D03*
X005905Y009640D03*
X005905Y009645D03*
X005905Y009650D03*
X005905Y009655D03*
X005900Y009660D03*
X005900Y009665D03*
X005900Y009670D03*
X005895Y009680D03*
X005895Y009685D03*
X005890Y009695D03*
X005900Y009565D03*
X005900Y009560D03*
X005895Y009550D03*
X005895Y009545D03*
X005890Y009540D03*
X005890Y009535D03*
X005885Y009530D03*
X005690Y009535D03*
X005685Y009540D03*
X005685Y009545D03*
X005680Y009550D03*
X005680Y009555D03*
X005680Y009560D03*
X005675Y009565D03*
X005675Y009570D03*
X005675Y009575D03*
X005670Y009585D03*
X005670Y009590D03*
X005670Y009595D03*
X005670Y009600D03*
X005670Y009605D03*
X005670Y009610D03*
X005670Y009615D03*
X005670Y009620D03*
X005670Y009625D03*
X005670Y009630D03*
X005670Y009635D03*
X005670Y009640D03*
X005670Y009645D03*
X005675Y009660D03*
X005675Y009665D03*
X005675Y009670D03*
X005680Y009675D03*
X005680Y009680D03*
X005680Y009685D03*
X005685Y009690D03*
X005685Y009695D03*
X005500Y009540D03*
X005500Y009535D03*
X005440Y009460D03*
X005310Y009530D03*
X005315Y009545D03*
X005125Y009525D03*
X005010Y008155D03*
X005015Y008145D03*
X005020Y008140D03*
X005025Y008130D03*
X005030Y008120D03*
X005030Y008115D03*
X005035Y008105D03*
X005035Y008100D03*
X005040Y008080D03*
X005040Y008075D03*
X005040Y008070D03*
X005040Y008065D03*
X005040Y008060D03*
X005040Y008055D03*
X005040Y008050D03*
X005040Y008045D03*
X005040Y008040D03*
X005040Y008035D03*
X005040Y008030D03*
X005035Y008010D03*
X005035Y008005D03*
X005035Y008000D03*
X005030Y007995D03*
X005030Y007990D03*
X005025Y007980D03*
X005210Y008000D03*
X005330Y007915D03*
X005335Y007910D03*
X005445Y008100D03*
X005445Y008105D03*
X005450Y008115D03*
X005450Y008120D03*
X005455Y008125D03*
X005455Y008130D03*
X005645Y008000D03*
X005645Y007995D03*
X005645Y007990D03*
X005640Y007980D03*
X005640Y007975D03*
X005815Y008085D03*
X005820Y008080D03*
X005825Y008075D03*
X005810Y008095D03*
X005805Y008115D03*
X005805Y008120D03*
X005805Y008125D03*
X005805Y008130D03*
X005805Y008135D03*
X005805Y008140D03*
X005805Y008145D03*
X005810Y008155D03*
X006000Y008150D03*
X006000Y007980D03*
X005995Y007970D03*
X005990Y007960D03*
X006180Y008000D03*
X006180Y008005D03*
X006180Y008010D03*
X006175Y008020D03*
X006175Y008025D03*
X006185Y007995D03*
X006190Y007985D03*
X006175Y008085D03*
X006175Y008090D03*
X006175Y008095D03*
X006175Y008100D03*
X006180Y008105D03*
X006180Y008110D03*
X006180Y008115D03*
X006185Y008125D03*
X006405Y008185D03*
X006405Y008190D03*
X006585Y007965D03*
X006800Y007990D03*
X006805Y008000D03*
X006805Y008005D03*
X006805Y008010D03*
X006810Y008020D03*
X006810Y008025D03*
X006810Y008030D03*
X006810Y008035D03*
X006810Y008040D03*
X006810Y008045D03*
X006810Y008065D03*
X006810Y008070D03*
X006810Y008075D03*
X006810Y008080D03*
X006810Y008085D03*
X006805Y008105D03*
X006805Y008110D03*
X006800Y008120D03*
X006800Y008125D03*
X006795Y008130D03*
X006795Y008135D03*
X006790Y008140D03*
X006790Y008145D03*
X006785Y008150D03*
X006780Y008155D03*
X006960Y008105D03*
X006960Y008100D03*
X006960Y008095D03*
X006965Y008110D03*
X006965Y008115D03*
X006965Y008120D03*
X006970Y008125D03*
X006970Y008130D03*
X006975Y008140D03*
X006955Y008075D03*
X006955Y008070D03*
X006955Y008065D03*
X006955Y008060D03*
X006955Y008055D03*
X006955Y008050D03*
X006955Y008045D03*
X006955Y008040D03*
X006960Y008020D03*
X006960Y008015D03*
X006960Y008010D03*
X006965Y008000D03*
X006965Y007995D03*
X006970Y007990D03*
X006970Y007985D03*
X007175Y007975D03*
X007180Y007980D03*
X007180Y007985D03*
X007185Y007995D03*
X007190Y008015D03*
X007190Y008020D03*
X007195Y008060D03*
X007190Y008080D03*
X007190Y008085D03*
X007190Y008090D03*
X007190Y008095D03*
X007190Y008100D03*
X007185Y008105D03*
X007185Y008110D03*
X007185Y008115D03*
X007180Y008125D03*
X007180Y008130D03*
X007175Y008135D03*
X007170Y008145D03*
X007345Y008145D03*
X007345Y008140D03*
X007345Y008135D03*
X007345Y008130D03*
X007345Y008125D03*
X007345Y008120D03*
X007345Y008115D03*
X007345Y008110D03*
X007350Y008095D03*
X007355Y008085D03*
X007360Y008080D03*
X007400Y008215D03*
X007535Y007970D03*
X007735Y008000D03*
X007980Y008025D03*
X007980Y008030D03*
X007980Y008035D03*
X007985Y008010D03*
X007985Y008005D03*
X007990Y008000D03*
X007990Y007995D03*
X007995Y007985D03*
X007980Y008080D03*
X007980Y008085D03*
X007980Y008090D03*
X007980Y008095D03*
X007985Y008105D03*
X007985Y008110D03*
X007990Y008120D03*
X007990Y008125D03*
X008200Y008150D03*
X008210Y008185D03*
X008370Y009755D03*
X004815Y007965D03*
D98*
X004878Y008210D03*
X005563Y008190D03*
X005938Y008035D03*
X005903Y007925D03*
X006648Y008210D03*
X007443Y007925D03*
X007478Y008035D03*
X006623Y006850D03*
X008468Y006760D03*
X009048Y008190D03*
X008933Y009485D03*
X009803Y009485D03*
X005788Y009750D03*
D99*
X005250Y009475D03*
X006575Y009470D03*
X006585Y009770D03*
X008015Y009770D03*
X009280Y009770D03*
X009270Y009470D03*
X010560Y009475D03*
X010210Y008020D03*
X009805Y007915D03*
X009040Y007910D03*
X009070Y007360D03*
X009230Y007215D03*
X009235Y007205D03*
X009240Y007195D03*
X009240Y007190D03*
X009245Y007185D03*
X009245Y007180D03*
X009250Y007170D03*
X009250Y007165D03*
X009255Y007155D03*
X009255Y007150D03*
X009255Y007145D03*
X009260Y007130D03*
X009260Y007125D03*
X009265Y007090D03*
X009240Y006900D03*
X009235Y006890D03*
X009230Y006885D03*
X009225Y006875D03*
X008905Y006890D03*
X008900Y006895D03*
X008900Y006900D03*
X008895Y006905D03*
X008895Y006910D03*
X008890Y006920D03*
X008885Y006930D03*
X008885Y006935D03*
X008880Y006950D03*
X008885Y007170D03*
X008890Y007180D03*
X008890Y007185D03*
X008895Y007195D03*
X008895Y007200D03*
X008900Y007205D03*
X008480Y007360D03*
X008310Y007200D03*
X008305Y007195D03*
X008305Y007190D03*
X008300Y007180D03*
X008295Y007165D03*
X008320Y006870D03*
X008325Y006865D03*
X008610Y006890D03*
X008610Y006895D03*
X008615Y006900D03*
X008615Y006905D03*
X007760Y007240D03*
X007440Y007140D03*
X007440Y007135D03*
X007440Y007130D03*
X007440Y007125D03*
X007440Y007120D03*
X007440Y007115D03*
X007440Y007110D03*
X007440Y007105D03*
X007440Y007100D03*
X007435Y007065D03*
X007430Y007050D03*
X007425Y007035D03*
X007420Y007030D03*
X007420Y007025D03*
X007415Y007020D03*
X007435Y007145D03*
X007435Y007150D03*
X007435Y007155D03*
X007350Y006830D03*
X007400Y006655D03*
X007400Y006650D03*
X006725Y006650D03*
X006725Y006655D03*
X006725Y006660D03*
X006720Y006645D03*
X006680Y006825D03*
X006675Y006830D03*
X006740Y007020D03*
X006745Y007025D03*
X006745Y007030D03*
X006750Y007040D03*
X006755Y007050D03*
X006760Y007070D03*
X006760Y007140D03*
X006760Y007145D03*
X006760Y007150D03*
X007510Y008020D03*
X006270Y008200D03*
X005970Y008020D03*
X005555Y007910D03*
X005560Y008210D03*
D100*
X005470Y008150D03*
X005465Y008145D03*
X005475Y007955D03*
X005215Y007990D03*
X005020Y007970D03*
X005000Y008165D03*
X004820Y008170D03*
X005835Y008065D03*
X005825Y007950D03*
X005985Y007955D03*
X005995Y008155D03*
X006030Y008210D03*
X006190Y008135D03*
X006195Y008145D03*
X006200Y008150D03*
X006200Y007970D03*
X006205Y007965D03*
X006590Y008170D03*
X006770Y008165D03*
X006790Y007970D03*
X006785Y007965D03*
X006990Y007960D03*
X006985Y008155D03*
X006990Y008160D03*
X007375Y008065D03*
X007365Y007950D03*
X007525Y007955D03*
X007535Y008155D03*
X007570Y008210D03*
X007740Y007990D03*
X007850Y007925D03*
X008005Y007970D03*
X008000Y008140D03*
X008955Y008150D03*
X008960Y008155D03*
X009120Y007965D03*
X009115Y007960D03*
X009315Y007965D03*
X009320Y007960D03*
X009325Y007955D03*
X009490Y007955D03*
X009495Y007960D03*
X009680Y007965D03*
X009870Y007960D03*
X010080Y008065D03*
X010055Y008160D03*
X010445Y007985D03*
X010555Y007920D03*
X010695Y007975D03*
X010700Y007970D03*
X010695Y008145D03*
X010700Y008150D03*
X011065Y008150D03*
X011070Y008155D03*
X011075Y008160D03*
X011240Y008160D03*
X011245Y008155D03*
X011245Y007960D03*
X011240Y007955D03*
X011075Y007955D03*
X011070Y007960D03*
X011065Y007965D03*
X009490Y008160D03*
X009710Y009520D03*
X009705Y009525D03*
X009700Y009530D03*
X009700Y009705D03*
X009705Y009710D03*
X009195Y009515D03*
X009010Y009720D03*
X008835Y009710D03*
X008370Y009745D03*
X007925Y009710D03*
X007920Y009705D03*
X007930Y009515D03*
X007525Y009530D03*
X007515Y009700D03*
X007520Y009705D03*
X007310Y009520D03*
X007120Y009525D03*
X006965Y009480D03*
X006855Y009545D03*
X006655Y009525D03*
X006650Y009520D03*
X006500Y009515D03*
X006490Y009710D03*
X006090Y009705D03*
X006085Y009700D03*
X006090Y009530D03*
X005880Y009710D03*
X005875Y009715D03*
X005870Y009720D03*
X005705Y009720D03*
X005700Y009715D03*
X005695Y009710D03*
X005700Y009520D03*
X005790Y009460D03*
X005490Y009520D03*
X010055Y009525D03*
X010060Y009520D03*
X010065Y009515D03*
X010230Y009515D03*
X010235Y009520D03*
X010235Y009715D03*
X010230Y009720D03*
X010060Y009715D03*
X010800Y009520D03*
D101*
X010795Y009515D03*
X010620Y009520D03*
X010220Y009510D03*
X009715Y009515D03*
X009715Y009720D03*
X009340Y009515D03*
X009205Y009725D03*
X008850Y009720D03*
X008075Y009515D03*
X007535Y009520D03*
X007305Y009515D03*
X007250Y009465D03*
X006955Y009495D03*
X006645Y009515D03*
X006665Y009725D03*
X005865Y009725D03*
X005710Y009725D03*
X005715Y009510D03*
X005485Y009515D03*
X005310Y009520D03*
X005645Y008165D03*
X005620Y007955D03*
X005845Y008060D03*
X005980Y007950D03*
X006205Y008155D03*
X006270Y008210D03*
X006380Y007955D03*
X006780Y007960D03*
X007150Y007950D03*
X007385Y008060D03*
X007745Y007980D03*
X007840Y007940D03*
X007845Y007930D03*
X008635Y007230D03*
X008465Y006745D03*
X009110Y007955D03*
X009130Y008165D03*
X009480Y007950D03*
X009805Y007905D03*
X010090Y008060D03*
X010060Y008165D03*
X010275Y008205D03*
X010220Y007950D03*
X010450Y007980D03*
X010545Y007935D03*
X010550Y007930D03*
X010710Y007960D03*
X010785Y007905D03*
X011085Y007950D03*
X011230Y007950D03*
X011080Y008165D03*
X010770Y008210D03*
X007595Y009770D03*
X005320Y007930D03*
X005315Y007935D03*
X005220Y007980D03*
X005010Y007960D03*
D102*
X005205Y007955D03*
X005205Y007950D03*
X005205Y007945D03*
X005205Y007940D03*
X005205Y007935D03*
X005205Y007930D03*
X005340Y007905D03*
X005450Y007985D03*
X005445Y008000D03*
X005445Y008005D03*
X005820Y007955D03*
X006395Y007970D03*
X006395Y007975D03*
X006395Y007980D03*
X006395Y007985D03*
X006395Y007990D03*
X006395Y007995D03*
X006395Y008000D03*
X006395Y008005D03*
X006395Y008010D03*
X006395Y008015D03*
X006395Y008020D03*
X006395Y008025D03*
X006395Y008030D03*
X006395Y008035D03*
X006395Y008040D03*
X006395Y008045D03*
X006395Y008050D03*
X006395Y008055D03*
X006395Y008060D03*
X006395Y008065D03*
X006395Y008070D03*
X006395Y008075D03*
X006395Y008080D03*
X006395Y008085D03*
X006395Y008090D03*
X006395Y008095D03*
X006395Y008100D03*
X006395Y008105D03*
X006395Y008110D03*
X006395Y008115D03*
X006395Y008120D03*
X006395Y008125D03*
X006410Y008200D03*
X006415Y008210D03*
X006395Y007910D03*
X006395Y007905D03*
X006395Y007900D03*
X006395Y007895D03*
X006395Y007890D03*
X006395Y007885D03*
X006395Y007880D03*
X006395Y007875D03*
X006395Y007870D03*
X006395Y007865D03*
X006395Y007860D03*
X006395Y007855D03*
X006395Y007850D03*
X006395Y007845D03*
X006395Y007840D03*
X006395Y007835D03*
X006395Y007830D03*
X006395Y007825D03*
X006395Y007820D03*
X006395Y007815D03*
X006395Y007810D03*
X006395Y007805D03*
X006395Y007800D03*
X006395Y007795D03*
X006395Y007790D03*
X006395Y007785D03*
X006395Y007780D03*
X006395Y007775D03*
X006395Y007770D03*
X006395Y007765D03*
X006395Y007760D03*
X007360Y007955D03*
X007540Y007990D03*
X007730Y007955D03*
X007730Y007950D03*
X007730Y007945D03*
X007730Y007940D03*
X007730Y007935D03*
X007730Y007930D03*
X007730Y007925D03*
X008200Y007760D03*
X008220Y008205D03*
X008935Y007995D03*
X009140Y008155D03*
X009670Y007925D03*
X009670Y007920D03*
X009670Y007915D03*
X009670Y007910D03*
X010435Y007940D03*
X010435Y007945D03*
X010435Y007950D03*
X010435Y007955D03*
X010570Y007905D03*
X010915Y008210D03*
X010565Y009460D03*
X010430Y009485D03*
X010435Y009775D03*
X010625Y009775D03*
X010815Y009775D03*
X009880Y009715D03*
X009525Y009720D03*
X009525Y009755D03*
X009370Y009715D03*
X009165Y009560D03*
X009170Y009545D03*
X008640Y009460D03*
X008640Y009385D03*
X008640Y009380D03*
X008640Y009340D03*
X008465Y009530D03*
X008460Y009545D03*
X008455Y009555D03*
X008455Y009560D03*
X008450Y009570D03*
X008450Y009575D03*
X008445Y009580D03*
X008445Y009585D03*
X008440Y009595D03*
X008440Y009600D03*
X008435Y009610D03*
X008430Y009625D03*
X008300Y009610D03*
X008295Y009600D03*
X008295Y009595D03*
X008290Y009585D03*
X008290Y009580D03*
X008285Y009575D03*
X008285Y009570D03*
X008280Y009560D03*
X008280Y009555D03*
X008275Y009545D03*
X007905Y009545D03*
X007900Y009560D03*
X007735Y009765D03*
X007740Y009770D03*
X007330Y009775D03*
X007115Y009775D03*
X006845Y009775D03*
X006845Y009770D03*
X006845Y009765D03*
X006845Y009760D03*
X006845Y009755D03*
X006845Y009750D03*
X006845Y009745D03*
X006845Y009740D03*
X006845Y009735D03*
X006845Y009730D03*
X006845Y009725D03*
X006845Y009720D03*
X006845Y009715D03*
X006845Y009710D03*
X006845Y009705D03*
X006845Y009700D03*
X006845Y009695D03*
X006845Y009690D03*
X006845Y009685D03*
X006845Y009680D03*
X006845Y009675D03*
X006845Y009670D03*
X006845Y009665D03*
X006845Y009660D03*
X006845Y009655D03*
X006845Y009650D03*
X006845Y009645D03*
X006845Y009640D03*
X006845Y009635D03*
X006845Y009630D03*
X006845Y009625D03*
X006845Y009620D03*
X006845Y009615D03*
X006845Y009610D03*
X006845Y009605D03*
X006845Y009600D03*
X006845Y009595D03*
X006845Y009590D03*
X006845Y009585D03*
X006845Y009580D03*
X006845Y009575D03*
X006845Y009570D03*
X006845Y009515D03*
X006845Y009510D03*
X006840Y009495D03*
X006840Y009490D03*
X006840Y009485D03*
X006840Y009480D03*
X006840Y009475D03*
X006980Y009465D03*
X007110Y009465D03*
X007110Y009470D03*
X007110Y009475D03*
X007250Y009460D03*
X006675Y009715D03*
X006470Y009555D03*
X006305Y009765D03*
X005505Y009775D03*
X005315Y009775D03*
X005125Y009775D03*
X005120Y009485D03*
X005120Y009480D03*
X005255Y009460D03*
X008640Y009775D03*
D103*
X008935Y009465D03*
X009805Y009465D03*
X010625Y009515D03*
X010745Y009470D03*
X010225Y008165D03*
X010105Y008205D03*
X010465Y007965D03*
X009405Y008210D03*
X009265Y007015D03*
X009265Y007010D03*
X009265Y007005D03*
X009265Y007000D03*
X009265Y006995D03*
X009265Y006990D03*
X009260Y006975D03*
X009260Y006970D03*
X009260Y006965D03*
X009260Y006960D03*
X009255Y006945D03*
X009255Y006940D03*
X009250Y006925D03*
X008870Y007005D03*
X008870Y007010D03*
X008870Y007085D03*
X008870Y007090D03*
X008870Y007095D03*
X008625Y006955D03*
X008625Y006950D03*
X008625Y006945D03*
X008310Y006885D03*
X008305Y006890D03*
X008305Y006895D03*
X008300Y006905D03*
X008290Y006935D03*
X008285Y006955D03*
X008285Y006960D03*
X008285Y006965D03*
X008280Y006980D03*
X008280Y006985D03*
X008280Y006990D03*
X008280Y007085D03*
X008280Y007090D03*
X008280Y007095D03*
X008280Y007100D03*
X008280Y007105D03*
X008285Y007120D03*
X008285Y007125D03*
X008285Y007130D03*
X008290Y007145D03*
X008290Y007150D03*
X007405Y006740D03*
X007405Y006735D03*
X007405Y006730D03*
X007405Y006725D03*
X007405Y006710D03*
X007405Y006685D03*
X007405Y006680D03*
X007405Y006675D03*
X007375Y006805D03*
X007365Y006815D03*
X006730Y006735D03*
X006730Y006730D03*
X006730Y006725D03*
X006730Y006720D03*
X006730Y006715D03*
X006730Y006710D03*
X006730Y006705D03*
X006730Y006700D03*
X006730Y006695D03*
X006730Y006690D03*
X006730Y006685D03*
X006730Y006680D03*
X006700Y006805D03*
X006695Y006810D03*
X006690Y006815D03*
X006685Y006820D03*
X006355Y006820D03*
X006355Y006815D03*
X006355Y006810D03*
X006355Y006805D03*
X006355Y006800D03*
X006355Y006795D03*
X006355Y006790D03*
X006355Y006785D03*
X006355Y006780D03*
X006355Y006775D03*
X006355Y006770D03*
X006355Y006765D03*
X006355Y006760D03*
X006355Y006755D03*
X006355Y006750D03*
X006355Y006745D03*
X006355Y006740D03*
X006355Y006735D03*
X006355Y006730D03*
X006355Y006725D03*
X006355Y006720D03*
X006355Y006715D03*
X006355Y006825D03*
X006355Y006830D03*
X006355Y006835D03*
X006355Y006840D03*
X006355Y006845D03*
X006355Y006970D03*
X006355Y006975D03*
X006355Y006980D03*
X006355Y006985D03*
X006355Y006990D03*
X006355Y006995D03*
X006355Y007000D03*
X006355Y007005D03*
X006355Y007010D03*
X006355Y007015D03*
X006355Y007020D03*
X006355Y007025D03*
X006355Y007030D03*
X006355Y007035D03*
X006355Y007040D03*
X006355Y007045D03*
X006355Y007050D03*
X006355Y007055D03*
X006355Y007060D03*
X006355Y007065D03*
X006355Y007070D03*
X006355Y007075D03*
X006355Y007080D03*
X006355Y007085D03*
X006355Y007090D03*
X006355Y007095D03*
X006355Y007100D03*
X006355Y007105D03*
X006355Y007110D03*
X006355Y007115D03*
X006355Y007120D03*
X006355Y007125D03*
X006355Y007130D03*
X006355Y007135D03*
X006355Y007140D03*
X006355Y007145D03*
X006355Y007150D03*
X006355Y007155D03*
X006355Y007160D03*
X006355Y007165D03*
X006355Y007170D03*
X006355Y007175D03*
X006355Y007180D03*
X006355Y007185D03*
X006355Y007190D03*
X006355Y007195D03*
X006355Y007200D03*
X006355Y007205D03*
X006355Y007210D03*
X006355Y007215D03*
X006355Y007220D03*
X006355Y007225D03*
X006355Y007230D03*
X006355Y007235D03*
X006285Y007910D03*
X006715Y007910D03*
X007075Y008210D03*
X007405Y008205D03*
X007760Y007965D03*
X005865Y008205D03*
X005235Y007965D03*
X005435Y009470D03*
X005315Y009515D03*
X006875Y009525D03*
D104*
X006568Y009590D03*
X006568Y009595D03*
X006568Y009600D03*
X006568Y009605D03*
X006568Y009610D03*
X006568Y009615D03*
X006568Y009620D03*
X007998Y009620D03*
X007998Y009615D03*
X007998Y009610D03*
X007998Y009605D03*
X007998Y009600D03*
X007998Y009595D03*
X007998Y009590D03*
X007998Y009625D03*
X007998Y009630D03*
X009263Y009630D03*
X009263Y009625D03*
X009263Y009620D03*
X009263Y009615D03*
X009263Y009610D03*
X009263Y009605D03*
X009263Y009600D03*
X009263Y009595D03*
X009263Y009590D03*
X008718Y008210D03*
X008718Y008205D03*
X008718Y008200D03*
X008718Y008195D03*
X008718Y008190D03*
X008718Y008185D03*
X008718Y008180D03*
X008718Y008175D03*
X008718Y008170D03*
X008718Y008165D03*
X008718Y008160D03*
X009033Y008055D03*
X009033Y008050D03*
X009033Y008045D03*
X009033Y008040D03*
X009033Y008035D03*
X009033Y008030D03*
X008483Y007330D03*
X008468Y006785D03*
X005543Y008040D03*
X005543Y008045D03*
X005543Y008050D03*
X005543Y008055D03*
X005543Y008060D03*
X005543Y008065D03*
X005543Y008070D03*
D105*
X004843Y008175D03*
X006358Y007240D03*
X006763Y007135D03*
X006763Y007130D03*
X006763Y007125D03*
X006763Y007120D03*
X006763Y007115D03*
X006763Y007110D03*
X006763Y007105D03*
X006763Y007100D03*
X006763Y007095D03*
X006763Y007090D03*
X006763Y007085D03*
X006763Y007080D03*
X006763Y007075D03*
X006758Y007065D03*
X006758Y007060D03*
X006758Y007055D03*
X006753Y007045D03*
X006748Y007035D03*
X007033Y007035D03*
X007033Y007030D03*
X007033Y007025D03*
X007033Y007020D03*
X007033Y007015D03*
X007033Y007010D03*
X007033Y007005D03*
X007033Y007000D03*
X007033Y006995D03*
X007033Y006990D03*
X007033Y006985D03*
X007033Y006980D03*
X007033Y006975D03*
X007033Y006970D03*
X007033Y006965D03*
X007033Y007040D03*
X007033Y007045D03*
X007033Y007050D03*
X007033Y007055D03*
X007033Y007060D03*
X007033Y007065D03*
X007033Y007070D03*
X007033Y007075D03*
X007033Y007080D03*
X007033Y007085D03*
X007033Y007090D03*
X007033Y007095D03*
X007033Y007100D03*
X007033Y007105D03*
X007033Y007110D03*
X007033Y007115D03*
X007033Y007120D03*
X007033Y007125D03*
X007033Y007130D03*
X007033Y007135D03*
X007033Y007140D03*
X007033Y007145D03*
X007033Y007150D03*
X007033Y007155D03*
X007033Y007160D03*
X007033Y007165D03*
X007033Y007170D03*
X007033Y007175D03*
X007033Y007180D03*
X007033Y007185D03*
X007033Y007190D03*
X007033Y007195D03*
X007033Y007200D03*
X007033Y007205D03*
X007033Y007210D03*
X007033Y007215D03*
X007033Y007220D03*
X007033Y007225D03*
X007033Y007230D03*
X007033Y007235D03*
X007033Y007240D03*
X007438Y007095D03*
X007438Y007090D03*
X007438Y007085D03*
X007438Y007080D03*
X007438Y007075D03*
X007438Y007070D03*
X007433Y007060D03*
X007433Y007055D03*
X007428Y007045D03*
X007428Y007040D03*
X007358Y006825D03*
X007363Y006820D03*
X007408Y006705D03*
X007408Y006700D03*
X007408Y006695D03*
X007408Y006690D03*
X007403Y006670D03*
X007403Y006665D03*
X007403Y006660D03*
X007758Y006660D03*
X007758Y006655D03*
X007758Y006650D03*
X007758Y006645D03*
X007758Y006640D03*
X007758Y006635D03*
X007758Y006630D03*
X007758Y006625D03*
X007758Y006620D03*
X007758Y006615D03*
X007758Y006610D03*
X007758Y006605D03*
X007758Y006600D03*
X007758Y006595D03*
X007758Y006590D03*
X007758Y006585D03*
X007758Y006580D03*
X007758Y006575D03*
X007758Y006570D03*
X007758Y006565D03*
X007758Y006560D03*
X007758Y006555D03*
X007758Y006550D03*
X007758Y006545D03*
X007758Y006540D03*
X007758Y006535D03*
X007758Y006530D03*
X007758Y006525D03*
X007758Y006520D03*
X007758Y006515D03*
X007758Y006510D03*
X007758Y006505D03*
X007758Y006500D03*
X007758Y006495D03*
X007758Y006490D03*
X007758Y006485D03*
X007758Y006480D03*
X007758Y006665D03*
X007758Y006670D03*
X007758Y006675D03*
X007758Y006680D03*
X007758Y006685D03*
X007758Y006690D03*
X007758Y006695D03*
X007758Y006700D03*
X007758Y006705D03*
X007758Y006710D03*
X007758Y006715D03*
X007758Y006720D03*
X007758Y006725D03*
X007758Y006730D03*
X007758Y006735D03*
X007758Y006740D03*
X007758Y006745D03*
X007758Y006750D03*
X007758Y006755D03*
X007758Y006760D03*
X007758Y006765D03*
X007758Y006770D03*
X007758Y006775D03*
X007758Y006780D03*
X007758Y006785D03*
X007758Y006790D03*
X007758Y006795D03*
X007758Y006800D03*
X007758Y006805D03*
X007758Y006810D03*
X007758Y006815D03*
X007758Y006820D03*
X007758Y006825D03*
X007758Y006830D03*
X007758Y006835D03*
X007758Y006840D03*
X007758Y006845D03*
X007758Y006850D03*
X007758Y006855D03*
X007758Y006860D03*
X007758Y006865D03*
X007758Y006870D03*
X007758Y006875D03*
X007758Y006880D03*
X007758Y006885D03*
X007758Y006890D03*
X007758Y006895D03*
X007758Y006900D03*
X007758Y006905D03*
X007758Y006910D03*
X007758Y006915D03*
X007758Y006920D03*
X007758Y006925D03*
X007758Y006930D03*
X007758Y006935D03*
X007758Y006940D03*
X007758Y006945D03*
X007758Y006950D03*
X007758Y006955D03*
X007758Y006960D03*
X007758Y006965D03*
X007758Y006970D03*
X007758Y006975D03*
X007758Y006980D03*
X007758Y006985D03*
X007758Y006990D03*
X007758Y006995D03*
X007758Y007000D03*
X007758Y007005D03*
X007758Y007010D03*
X007758Y007015D03*
X007758Y007020D03*
X007758Y007025D03*
X007758Y007030D03*
X007758Y007035D03*
X007758Y007040D03*
X007758Y007045D03*
X007758Y007050D03*
X007758Y007055D03*
X007758Y007060D03*
X007758Y007065D03*
X007758Y007070D03*
X007758Y007075D03*
X007758Y007080D03*
X007758Y007085D03*
X007758Y007090D03*
X007758Y007095D03*
X007758Y007100D03*
X007758Y007105D03*
X007758Y007110D03*
X007758Y007115D03*
X007758Y007120D03*
X007758Y007125D03*
X007758Y007130D03*
X007758Y007135D03*
X007758Y007140D03*
X007758Y007145D03*
X007758Y007150D03*
X007758Y007155D03*
X007758Y007160D03*
X007758Y007165D03*
X007758Y007170D03*
X007758Y007175D03*
X007758Y007180D03*
X007758Y007185D03*
X007758Y007190D03*
X007758Y007195D03*
X007758Y007200D03*
X007758Y007205D03*
X007758Y007210D03*
X007758Y007215D03*
X007758Y007220D03*
X007758Y007225D03*
X007758Y007230D03*
X007758Y007235D03*
X008288Y007140D03*
X008288Y007135D03*
X008293Y007155D03*
X008293Y007160D03*
X008298Y007170D03*
X008298Y007175D03*
X008303Y007185D03*
X008283Y007115D03*
X008283Y007110D03*
X008313Y006880D03*
X008318Y006875D03*
X008618Y006910D03*
X008618Y006915D03*
X008623Y006920D03*
X008623Y006925D03*
X008623Y006930D03*
X008623Y006935D03*
X008623Y006940D03*
X008628Y006960D03*
X008628Y006965D03*
X008628Y006970D03*
X008628Y006975D03*
X008628Y006980D03*
X008628Y006985D03*
X008628Y006990D03*
X008868Y007015D03*
X008868Y007020D03*
X008868Y007025D03*
X008868Y007030D03*
X008868Y007035D03*
X008868Y007040D03*
X008868Y007045D03*
X008868Y007050D03*
X008868Y007055D03*
X008868Y007060D03*
X008868Y007065D03*
X008868Y007070D03*
X008868Y007075D03*
X008868Y007080D03*
X008873Y007100D03*
X008873Y007105D03*
X008873Y007110D03*
X008873Y007115D03*
X008873Y007120D03*
X008873Y007125D03*
X008878Y007130D03*
X008878Y007135D03*
X008878Y007140D03*
X008878Y007145D03*
X008878Y007150D03*
X008883Y007155D03*
X008883Y007160D03*
X008883Y007165D03*
X008888Y007175D03*
X008893Y007190D03*
X008873Y007000D03*
X008873Y006995D03*
X008873Y006990D03*
X008873Y006985D03*
X008873Y006980D03*
X008873Y006975D03*
X008878Y006970D03*
X008878Y006965D03*
X008878Y006960D03*
X008878Y006955D03*
X008883Y006945D03*
X008883Y006940D03*
X008888Y006925D03*
X008893Y006915D03*
X009238Y006895D03*
X009243Y006905D03*
X009243Y006910D03*
X009248Y006915D03*
X009248Y006920D03*
X009253Y006930D03*
X009253Y006935D03*
X009258Y006950D03*
X009258Y006955D03*
X009263Y006980D03*
X009263Y006985D03*
X009268Y007020D03*
X009268Y007025D03*
X009268Y007030D03*
X009268Y007035D03*
X009268Y007040D03*
X009268Y007045D03*
X009268Y007050D03*
X009268Y007055D03*
X009268Y007060D03*
X009268Y007065D03*
X009268Y007070D03*
X009268Y007075D03*
X009268Y007080D03*
X009268Y007085D03*
X009263Y007095D03*
X009263Y007100D03*
X009263Y007105D03*
X009263Y007110D03*
X009263Y007115D03*
X009263Y007120D03*
X009258Y007135D03*
X009258Y007140D03*
X009253Y007160D03*
X009248Y007175D03*
X008633Y007245D03*
X009048Y008210D03*
X008078Y008200D03*
X006613Y008175D03*
X006358Y006965D03*
X006358Y006850D03*
X006358Y006710D03*
X006358Y006705D03*
X006358Y006700D03*
X006358Y006695D03*
X006358Y006690D03*
X006358Y006685D03*
X006358Y006680D03*
X006358Y006675D03*
X006358Y006670D03*
X006358Y006665D03*
X006358Y006660D03*
X006358Y006655D03*
X006358Y006650D03*
X006358Y006645D03*
X006358Y006640D03*
X006358Y006635D03*
X006358Y006630D03*
X006358Y006625D03*
X006358Y006620D03*
X006358Y006615D03*
X006358Y006610D03*
X006358Y006605D03*
X006358Y006600D03*
X006358Y006595D03*
X006728Y006665D03*
X006728Y006670D03*
X006728Y006675D03*
X007033Y006675D03*
X007033Y006670D03*
X007033Y006665D03*
X007033Y006660D03*
X007033Y006655D03*
X007033Y006650D03*
X007033Y006645D03*
X007033Y006640D03*
X007033Y006635D03*
X007033Y006630D03*
X007033Y006625D03*
X007033Y006620D03*
X007033Y006615D03*
X007033Y006610D03*
X007033Y006605D03*
X007033Y006600D03*
X007033Y006595D03*
X007033Y006680D03*
X007033Y006685D03*
X007033Y006690D03*
X007033Y006695D03*
X007033Y006700D03*
X007033Y006705D03*
X007033Y006710D03*
X007033Y006715D03*
X007033Y006720D03*
X007033Y006725D03*
X007033Y006730D03*
X007033Y006735D03*
X007033Y006740D03*
X007033Y006745D03*
X007033Y006750D03*
X007033Y006755D03*
X007033Y006760D03*
X007033Y006765D03*
X007033Y006770D03*
X007033Y006775D03*
X007033Y006780D03*
X007033Y006785D03*
X007033Y006790D03*
X007033Y006795D03*
X007033Y006800D03*
X007033Y006805D03*
X007033Y006810D03*
X007033Y006815D03*
X007033Y006820D03*
X007033Y006825D03*
X007033Y006830D03*
X007033Y006835D03*
X007033Y006840D03*
X007033Y006845D03*
X007033Y006850D03*
X010768Y008200D03*
X011158Y008210D03*
X010148Y009770D03*
X007593Y009760D03*
X006163Y009760D03*
X005788Y009770D03*
D106*
X005788Y009745D03*
X004883Y008205D03*
X005933Y008040D03*
X006323Y007915D03*
X007073Y008185D03*
X007473Y008040D03*
X006693Y007235D03*
X006668Y006965D03*
X006668Y006595D03*
X007343Y006595D03*
X007343Y006965D03*
X009408Y007930D03*
X010173Y008040D03*
X011158Y008185D03*
X010148Y009490D03*
X008928Y009745D03*
D107*
X009280Y009765D03*
X009270Y009475D03*
X008935Y009470D03*
X008005Y009475D03*
X008015Y009765D03*
X006585Y009765D03*
X006575Y009475D03*
X006270Y008190D03*
X005560Y008205D03*
X006735Y007200D03*
X006740Y007195D03*
X006715Y006990D03*
X006705Y006620D03*
X007380Y006620D03*
X007385Y006985D03*
X007390Y006990D03*
X007415Y007195D03*
X008335Y007240D03*
X008340Y007245D03*
X008930Y007250D03*
X008935Y007255D03*
X009200Y007255D03*
X009205Y007250D03*
X009205Y006855D03*
X008930Y006855D03*
X009040Y007915D03*
X009050Y008205D03*
X008075Y008190D03*
X007405Y008195D03*
X010110Y008195D03*
D108*
X010270Y008185D03*
X010275Y008195D03*
X009805Y007910D03*
X009040Y007905D03*
X008635Y007240D03*
X007395Y006770D03*
X006720Y006770D03*
X006715Y006780D03*
X006710Y006790D03*
X007075Y007905D03*
X007445Y007905D03*
X007570Y008185D03*
X007570Y008190D03*
X006270Y008205D03*
X006030Y008190D03*
X006030Y008185D03*
X005905Y007905D03*
X005790Y009465D03*
X005250Y009470D03*
X006575Y009465D03*
X007595Y009765D03*
X009730Y009725D03*
X010560Y009470D03*
X010770Y008205D03*
X011160Y007905D03*
D109*
X010820Y007915D03*
X010170Y008045D03*
X010145Y007930D03*
X009405Y008180D03*
X009050Y008185D03*
X009040Y007940D03*
X008130Y007915D03*
X007440Y007930D03*
X007075Y007935D03*
X006655Y008205D03*
X005900Y007930D03*
X005550Y007940D03*
X005560Y008185D03*
X005790Y009495D03*
X006215Y009475D03*
X006575Y009500D03*
X006585Y009745D03*
X007645Y009475D03*
X008005Y009500D03*
X008015Y009745D03*
X008935Y009490D03*
X009270Y009500D03*
X009280Y009745D03*
X009795Y009740D03*
X009800Y009490D03*
X010145Y009740D03*
D110*
X010148Y009765D03*
X009803Y009470D03*
X010558Y009480D03*
X010768Y008195D03*
X011158Y008205D03*
X010148Y007910D03*
X009808Y007920D03*
X008923Y007245D03*
X008923Y006865D03*
X008928Y006860D03*
X009073Y006750D03*
X009213Y006860D03*
X008598Y006870D03*
X008593Y006865D03*
X008338Y006855D03*
X008328Y007230D03*
X008333Y007235D03*
X007423Y007185D03*
X007418Y007190D03*
X007398Y006995D03*
X007333Y006840D03*
X007388Y006625D03*
X006708Y006625D03*
X006658Y006840D03*
X006723Y006995D03*
X006743Y007190D03*
X005553Y007915D03*
X005868Y008195D03*
X007073Y008205D03*
X007248Y009480D03*
X007593Y009755D03*
X005788Y009765D03*
X005248Y009480D03*
D111*
X006178Y009470D03*
X006163Y009765D03*
X007138Y009515D03*
X007248Y009470D03*
X007608Y009470D03*
X008368Y009700D03*
X008368Y009705D03*
X008863Y009725D03*
X008928Y009770D03*
X009798Y009770D03*
X010148Y009465D03*
X010148Y007905D03*
X009698Y007955D03*
X009408Y007905D03*
X010783Y007910D03*
X008283Y006975D03*
X008283Y006970D03*
X008288Y006950D03*
X008288Y006945D03*
X008288Y006940D03*
X008293Y006930D03*
X008293Y006925D03*
X008293Y006920D03*
X008298Y006915D03*
X008298Y006910D03*
X008303Y006900D03*
X007403Y006755D03*
X007403Y006750D03*
X007403Y006745D03*
X007398Y006760D03*
X007398Y006765D03*
X007393Y006775D03*
X007393Y006780D03*
X007388Y006785D03*
X007388Y006790D03*
X007383Y006795D03*
X007378Y006800D03*
X007373Y006810D03*
X007408Y006720D03*
X007408Y006715D03*
X006728Y006740D03*
X006728Y006745D03*
X006728Y006750D03*
X006723Y006755D03*
X006723Y006760D03*
X006723Y006765D03*
X006718Y006775D03*
X006713Y006785D03*
X006708Y006795D03*
X006703Y006800D03*
X008093Y007910D03*
X008078Y008205D03*
X007523Y008165D03*
X005983Y008165D03*
X004943Y007910D03*
D112*
X005905Y007910D03*
X006270Y008195D03*
X007405Y008200D03*
X007445Y007910D03*
X008075Y008195D03*
X008325Y007225D03*
X008320Y007220D03*
X008630Y007250D03*
X008910Y007225D03*
X008915Y007235D03*
X008920Y007240D03*
X009210Y007245D03*
X009215Y007240D03*
X009220Y007230D03*
X009215Y006865D03*
X008920Y006870D03*
X008915Y006875D03*
X008910Y006880D03*
X008600Y006875D03*
X008330Y006860D03*
X007405Y007005D03*
X007400Y007000D03*
X007425Y007175D03*
X007425Y007180D03*
X007390Y006630D03*
X006715Y006630D03*
X006715Y006635D03*
X006725Y007000D03*
X006730Y007005D03*
X006750Y007175D03*
X006750Y007180D03*
X006745Y007185D03*
X009405Y008205D03*
X010745Y009475D03*
X009795Y009765D03*
X008930Y009765D03*
X006160Y009755D03*
X005790Y009470D03*
X005435Y009475D03*
D113*
X005788Y009740D03*
X004888Y008200D03*
X005928Y008045D03*
X006318Y007920D03*
X007073Y008180D03*
X007468Y008045D03*
X009038Y007945D03*
X009408Y007935D03*
X009068Y007345D03*
X008468Y006765D03*
X010818Y007920D03*
X011158Y007935D03*
X011158Y008180D03*
X010148Y009495D03*
X009798Y009495D03*
X009793Y009500D03*
X009788Y009505D03*
X008933Y009495D03*
X008923Y009505D03*
X008928Y009740D03*
D114*
X008935Y009475D03*
X009280Y009760D03*
X008015Y009760D03*
X006585Y009760D03*
X005790Y009480D03*
X005870Y008185D03*
X005560Y008200D03*
X006695Y006975D03*
X007370Y006975D03*
X007365Y006605D03*
X008360Y007260D03*
X008480Y007355D03*
X008615Y007260D03*
X008950Y007265D03*
X009185Y007265D03*
X010110Y008185D03*
X007410Y008185D03*
D115*
X007078Y007910D03*
X006713Y007915D03*
X005868Y008200D03*
X004943Y007915D03*
X006753Y007170D03*
X006753Y007165D03*
X006758Y007160D03*
X006758Y007155D03*
X006738Y007015D03*
X006733Y007010D03*
X006668Y006835D03*
X006718Y006640D03*
X007343Y006835D03*
X007408Y007010D03*
X007413Y007015D03*
X007433Y007160D03*
X007433Y007165D03*
X007428Y007170D03*
X007398Y006645D03*
X007393Y006640D03*
X007393Y006635D03*
X008313Y007205D03*
X008313Y007210D03*
X008318Y007215D03*
X008608Y006885D03*
X008603Y006880D03*
X008468Y006750D03*
X008908Y006885D03*
X009223Y006870D03*
X009228Y006880D03*
X009238Y007200D03*
X009233Y007210D03*
X009228Y007220D03*
X009223Y007225D03*
X009218Y007235D03*
X008913Y007230D03*
X008908Y007220D03*
X008903Y007215D03*
X008903Y007210D03*
X009408Y007910D03*
X010108Y008200D03*
X011158Y007910D03*
X010148Y009470D03*
X008008Y009470D03*
X007248Y009475D03*
D116*
X007703Y009720D03*
X008008Y009465D03*
X008368Y009710D03*
X008368Y009715D03*
X008998Y009725D03*
X009273Y009465D03*
X009863Y009725D03*
X010083Y009730D03*
X010278Y008200D03*
X010273Y008190D03*
X010103Y008055D03*
X010458Y007970D03*
X011093Y008170D03*
X008188Y008160D03*
X007833Y007955D03*
X007753Y007970D03*
X007573Y008195D03*
X007573Y008200D03*
X007398Y008055D03*
X006748Y008175D03*
X006603Y007955D03*
X006033Y008195D03*
X006033Y008200D03*
X005858Y008055D03*
X005553Y007905D03*
X005308Y007955D03*
X005228Y007970D03*
X004978Y008175D03*
X004833Y007955D03*
X005723Y009730D03*
X005853Y009730D03*
X006273Y009720D03*
X006868Y009530D03*
D117*
X006575Y009505D03*
X006585Y009740D03*
X006210Y009480D03*
X005790Y009500D03*
X005925Y008050D03*
X005900Y007935D03*
X005550Y007945D03*
X006660Y008200D03*
X007075Y007940D03*
X007440Y007935D03*
X008125Y007920D03*
X008480Y007345D03*
X009050Y008180D03*
X009405Y008175D03*
X010165Y008050D03*
X009270Y009505D03*
X009280Y009740D03*
X008925Y009500D03*
X009795Y009735D03*
X010145Y009735D03*
X008015Y009740D03*
X008005Y009510D03*
X008005Y009505D03*
X007640Y009480D03*
D118*
X008008Y009480D03*
X009273Y009480D03*
X009803Y009475D03*
X010743Y009485D03*
X010768Y008185D03*
X009048Y008200D03*
X009068Y007355D03*
X008948Y006845D03*
X009193Y006845D03*
X008468Y006755D03*
X008353Y006850D03*
X007398Y007215D03*
X006728Y007210D03*
X006723Y007215D03*
X006703Y006980D03*
X007443Y007915D03*
X007408Y008190D03*
X006268Y008185D03*
X005553Y007920D03*
X005433Y009485D03*
X005788Y009760D03*
X006578Y009480D03*
D119*
X006573Y009510D03*
X006208Y009485D03*
X005788Y009735D03*
X007638Y009485D03*
X008928Y009735D03*
X009268Y009510D03*
X010148Y009500D03*
X011158Y008175D03*
X011158Y007940D03*
X010813Y007925D03*
X010143Y007935D03*
X009408Y007940D03*
X009038Y007950D03*
X008123Y007925D03*
X007463Y008050D03*
X007073Y008175D03*
X006663Y008195D03*
X006313Y007925D03*
X005553Y007950D03*
X005563Y008180D03*
X004893Y008195D03*
X009073Y006765D03*
D120*
X009068Y007350D03*
X009408Y007925D03*
X009048Y008195D03*
X007443Y007920D03*
X006678Y006600D03*
X005563Y008195D03*
X009803Y009480D03*
X010148Y009485D03*
X011158Y007925D03*
D121*
X010495Y007960D03*
X010145Y007920D03*
X009405Y008195D03*
X009040Y007925D03*
X007790Y007960D03*
X007485Y008030D03*
X007075Y008195D03*
X007385Y007225D03*
X007360Y006970D03*
X006685Y006970D03*
X006710Y007225D03*
X005905Y007920D03*
X005945Y008030D03*
X005265Y007960D03*
X006575Y009485D03*
X006585Y009755D03*
X006905Y009520D03*
X008015Y009755D03*
X008935Y009480D03*
X009270Y009485D03*
X009280Y009755D03*
X010145Y009755D03*
X008570Y006850D03*
D122*
X009073Y006755D03*
X007393Y007220D03*
X006718Y007220D03*
X006688Y006605D03*
X007078Y007920D03*
X005553Y007925D03*
X008008Y009485D03*
X008928Y009755D03*
X009798Y009755D03*
X010148Y009480D03*
X011158Y008195D03*
X011158Y007920D03*
X010188Y008030D03*
X009408Y007920D03*
X005788Y009755D03*
D123*
X005790Y009505D03*
X006585Y009735D03*
X007635Y009490D03*
X009280Y009735D03*
X009795Y009730D03*
X009050Y008175D03*
X009405Y007945D03*
X010810Y007930D03*
X007355Y007240D03*
X006675Y007240D03*
X006310Y007930D03*
X005900Y007940D03*
X004895Y008190D03*
X007075Y007945D03*
D124*
X007438Y007940D03*
X008118Y007930D03*
X009068Y007340D03*
X008468Y006770D03*
X010143Y007940D03*
X010143Y007945D03*
X010808Y007935D03*
X011158Y007945D03*
X010148Y009505D03*
X008928Y009730D03*
X008018Y009735D03*
X006203Y009490D03*
X006668Y008190D03*
X006308Y007935D03*
X005563Y008175D03*
D125*
X005550Y007930D03*
X006705Y007230D03*
X007380Y007230D03*
X007300Y006850D03*
X007355Y006600D03*
X007075Y007925D03*
X007075Y008190D03*
X006575Y009490D03*
X005790Y009485D03*
X008005Y009490D03*
X008930Y009750D03*
X009270Y009490D03*
X009795Y009750D03*
X010145Y009750D03*
X009405Y008190D03*
X009040Y007930D03*
X010180Y008035D03*
X011155Y008190D03*
D126*
X010805Y007940D03*
X009050Y008170D03*
X008115Y007935D03*
X007440Y007945D03*
X006670Y008185D03*
X006305Y007940D03*
X005900Y007945D03*
X005565Y008170D03*
X004900Y008185D03*
X006200Y009495D03*
X006585Y009730D03*
X007630Y009495D03*
X008480Y007340D03*
X009070Y006770D03*
D127*
X009070Y006760D03*
X008480Y007350D03*
X009040Y007935D03*
X009405Y008185D03*
X010145Y007925D03*
X011160Y007930D03*
X009270Y009495D03*
X009280Y009750D03*
X009795Y009745D03*
X010145Y009745D03*
X008015Y009750D03*
X008005Y009495D03*
X006585Y009750D03*
X006575Y009495D03*
X005790Y009490D03*
X005550Y007935D03*
X007075Y007930D03*
X007370Y007235D03*
D128*
X006673Y007925D03*
X006673Y008180D03*
X006303Y007945D03*
X004903Y007925D03*
X004903Y008180D03*
X006198Y009500D03*
X007628Y009500D03*
X008018Y009730D03*
X009283Y009730D03*
X008113Y007940D03*
X008468Y006775D03*
X010803Y007945D03*
D129*
X010173Y008175D03*
X008483Y007320D03*
X008468Y006795D03*
X007468Y008170D03*
X005933Y008180D03*
X005928Y008170D03*
D130*
X006308Y008180D03*
X006678Y007935D03*
X008108Y007950D03*
X008113Y008175D03*
X008118Y008180D03*
X007208Y009495D03*
X007633Y009740D03*
X006203Y009740D03*
X006198Y009735D03*
X006193Y009510D03*
X004908Y007935D03*
X009768Y007935D03*
X010808Y008180D03*
D131*
X010175Y008180D03*
X010170Y008170D03*
X007470Y008175D03*
X007470Y008180D03*
X005930Y008175D03*
D132*
X006305Y008175D03*
X006305Y008170D03*
X006680Y007940D03*
X008110Y008170D03*
X008480Y007335D03*
X009070Y006775D03*
X009770Y007940D03*
X009770Y007945D03*
X010800Y008170D03*
X010805Y008175D03*
X007630Y009735D03*
X007625Y009730D03*
X007210Y009500D03*
X006195Y009730D03*
X004910Y007940D03*
D133*
X004823Y007960D03*
X005013Y007965D03*
X005218Y007985D03*
X005323Y007925D03*
X005473Y008155D03*
X005478Y008160D03*
X005628Y007960D03*
X005818Y008165D03*
X006213Y007960D03*
X006388Y008155D03*
X006593Y007960D03*
X006763Y008170D03*
X006998Y008165D03*
X007153Y008165D03*
X007158Y008160D03*
X007358Y008165D03*
X007518Y007950D03*
X007743Y007985D03*
X008013Y007965D03*
X008018Y007960D03*
X008008Y008150D03*
X008013Y008155D03*
X008193Y008155D03*
X008968Y008160D03*
X008963Y007955D03*
X009323Y008160D03*
X009328Y008165D03*
X009483Y008165D03*
X009863Y007955D03*
X010238Y008155D03*
X010553Y007925D03*
X010703Y007965D03*
X010703Y008155D03*
X010888Y008155D03*
X011233Y008165D03*
X010563Y009465D03*
X010443Y009520D03*
X010223Y009725D03*
X010068Y009725D03*
X010063Y009720D03*
X009803Y009460D03*
X009708Y009715D03*
X009348Y009520D03*
X009193Y009715D03*
X009198Y009720D03*
X008843Y009715D03*
X008843Y009520D03*
X008848Y009515D03*
X008938Y009460D03*
X008368Y009735D03*
X008368Y009740D03*
X008083Y009520D03*
X007928Y009715D03*
X007933Y009720D03*
X007713Y009715D03*
X007528Y009715D03*
X007523Y009710D03*
X007528Y009525D03*
X006963Y009485D03*
X006958Y009490D03*
X006858Y009540D03*
X006503Y009720D03*
X006498Y009715D03*
X006278Y009715D03*
X006098Y009715D03*
X006093Y009710D03*
X006098Y009525D03*
X006103Y009520D03*
X005873Y009515D03*
X005708Y009515D03*
X005253Y009465D03*
X005133Y009520D03*
X004993Y008170D03*
X006993Y007955D03*
X007158Y007955D03*
D134*
X006683Y007945D03*
X006303Y008165D03*
X004913Y007950D03*
X004913Y007945D03*
X006193Y009725D03*
X007213Y009510D03*
X007213Y009505D03*
X007623Y009725D03*
X008108Y008165D03*
X009068Y007330D03*
X008468Y006780D03*
X009773Y007950D03*
X010798Y008165D03*
D135*
X010058Y007965D03*
X008998Y009520D03*
X009013Y009705D03*
X009373Y009705D03*
X009528Y009705D03*
X009528Y009770D03*
X009878Y009705D03*
X008108Y009705D03*
X006678Y009705D03*
X005653Y008145D03*
X005818Y007965D03*
X007358Y007965D03*
D136*
X008635Y007200D03*
X009140Y008145D03*
X009865Y009520D03*
D137*
X009865Y009525D03*
X009525Y009700D03*
X009525Y009775D03*
X009000Y009525D03*
X008640Y009400D03*
X009140Y008140D03*
X008635Y007195D03*
X007355Y007970D03*
X005815Y007970D03*
X005655Y008140D03*
X006675Y009700D03*
D138*
X006675Y009690D03*
X008105Y009690D03*
X009000Y009535D03*
X009370Y009690D03*
X009875Y009690D03*
X009865Y009535D03*
X009140Y008130D03*
X010055Y007980D03*
X010585Y007965D03*
X008635Y007185D03*
X007880Y007965D03*
X005815Y007980D03*
X005650Y008130D03*
X005355Y007965D03*
D139*
X005650Y008125D03*
X006675Y009685D03*
X008105Y009685D03*
X008640Y009320D03*
X009000Y009540D03*
X009370Y009685D03*
X009875Y009685D03*
X009140Y008125D03*
X010055Y007985D03*
X008630Y007180D03*
D140*
X009030Y008060D03*
X009030Y008065D03*
X009030Y008070D03*
X006685Y007950D03*
X005545Y008030D03*
X005545Y008035D03*
X006565Y009625D03*
X006565Y009630D03*
D141*
X005813Y007985D03*
X007353Y007985D03*
X009008Y009685D03*
D142*
X009008Y009690D03*
X006993Y009525D03*
X007353Y007980D03*
D143*
X008638Y009325D03*
X009013Y009700D03*
X009373Y009700D03*
X009878Y009700D03*
X008108Y009700D03*
X010058Y007970D03*
D144*
X009765Y007930D03*
X009065Y007335D03*
X008110Y007945D03*
X006675Y007930D03*
X006300Y007950D03*
X004905Y007930D03*
X006195Y009505D03*
X007205Y009490D03*
X007625Y009505D03*
X007625Y009510D03*
X007635Y009745D03*
X010800Y007950D03*
D145*
X010575Y007900D03*
X008635Y007205D03*
X008640Y009395D03*
X005345Y007900D03*
D146*
X006450Y007350D03*
X007125Y007350D03*
X009065Y007315D03*
X009070Y006790D03*
D147*
X008455Y006995D03*
X008455Y007000D03*
X008455Y007005D03*
X008455Y007010D03*
X008455Y007015D03*
X008455Y007020D03*
X008455Y007025D03*
X008455Y007030D03*
X008450Y007045D03*
X007930Y007245D03*
X007930Y007250D03*
X007930Y007255D03*
X007930Y007260D03*
X007930Y007265D03*
X007930Y007270D03*
X007930Y007275D03*
X007930Y007280D03*
X007930Y007285D03*
X007930Y007290D03*
X007930Y007295D03*
X007930Y007300D03*
X007930Y007305D03*
X007930Y007310D03*
X007930Y007315D03*
X007930Y007320D03*
X007930Y007325D03*
X007930Y007330D03*
X007930Y007335D03*
X007930Y007340D03*
X007930Y007345D03*
X007930Y007350D03*
X007205Y007275D03*
X007205Y006960D03*
X007205Y006585D03*
X006530Y006585D03*
X006530Y006590D03*
X006530Y006960D03*
X006530Y007275D03*
D148*
X006465Y007345D03*
X007140Y007345D03*
X008465Y006815D03*
X009070Y006805D03*
D149*
X009068Y007295D03*
X008483Y007300D03*
X007148Y006890D03*
X006473Y006890D03*
X006473Y006895D03*
X006473Y007340D03*
D150*
X007150Y007340D03*
X007150Y006895D03*
X008465Y006825D03*
X009070Y006815D03*
D151*
X009070Y006820D03*
X008465Y006830D03*
X008465Y006835D03*
X009065Y007285D03*
X007155Y006885D03*
X006480Y007335D03*
D152*
X006483Y006900D03*
X006483Y006505D03*
X007158Y006900D03*
X007158Y007335D03*
X008483Y007290D03*
D153*
X008483Y007285D03*
X008463Y006845D03*
X007163Y007330D03*
X006488Y007330D03*
D154*
X006493Y007325D03*
X006493Y006870D03*
X006493Y006515D03*
X009068Y007270D03*
D155*
X008485Y007275D03*
X009070Y006835D03*
X007170Y006870D03*
X007170Y006910D03*
X007170Y006515D03*
X006495Y006910D03*
X007170Y007325D03*
D156*
X008480Y007325D03*
X008465Y006790D03*
X009070Y006785D03*
D157*
X009068Y007325D03*
D158*
X009068Y006840D03*
X007173Y006865D03*
X007173Y006520D03*
X006498Y006520D03*
X006498Y006865D03*
X006498Y007320D03*
D159*
X006500Y006915D03*
X006500Y006860D03*
X007175Y006860D03*
X007175Y006915D03*
X007175Y007320D03*
X008485Y007270D03*
D160*
X009068Y007320D03*
D161*
X007178Y007315D03*
X006503Y007315D03*
X006503Y006855D03*
X006503Y006525D03*
X007178Y006525D03*
D162*
X007128Y006485D03*
X006453Y006485D03*
X008468Y006800D03*
X008483Y007315D03*
D163*
X007183Y007310D03*
X006508Y007310D03*
X006508Y006535D03*
X007183Y006535D03*
X005303Y009490D03*
X010613Y009490D03*
D164*
X009065Y007305D03*
X008480Y007310D03*
X008465Y006810D03*
X009070Y006800D03*
D165*
X009070Y006795D03*
X009065Y007310D03*
D166*
X007185Y006925D03*
X006510Y006925D03*
X006510Y007305D03*
X006510Y006540D03*
X005305Y009495D03*
X010615Y009495D03*
D167*
X010618Y009500D03*
X010618Y009505D03*
X007188Y007305D03*
X007188Y006930D03*
X007188Y006540D03*
X006513Y006545D03*
X006513Y006930D03*
X005308Y009500D03*
X005308Y009505D03*
D168*
X008483Y007305D03*
X009068Y007300D03*
D169*
X007190Y007300D03*
X006515Y007300D03*
X006515Y006550D03*
X007190Y006545D03*
X005310Y009510D03*
X010620Y009510D03*
D170*
X007193Y006935D03*
X007193Y006550D03*
X006518Y006555D03*
X006518Y006935D03*
X006518Y007295D03*
D171*
X006520Y007290D03*
X006520Y006940D03*
X006520Y006560D03*
X007195Y006560D03*
X007195Y006555D03*
X007195Y006940D03*
X007195Y007295D03*
D172*
X006478Y006885D03*
X006478Y006500D03*
X007153Y006500D03*
X008483Y007295D03*
X009068Y007290D03*
D173*
X007198Y007290D03*
X007198Y006945D03*
X007198Y006565D03*
X006523Y006565D03*
X006523Y006945D03*
D174*
X006525Y006950D03*
X006525Y006575D03*
X006525Y006570D03*
X007200Y006570D03*
X007200Y006950D03*
X007200Y007285D03*
X006525Y007285D03*
D175*
X006528Y007280D03*
X006528Y006955D03*
X006528Y006580D03*
X007203Y006580D03*
X007203Y006575D03*
X007203Y006955D03*
X007203Y007280D03*
X008453Y007080D03*
X008453Y007075D03*
X008453Y007070D03*
X008453Y007065D03*
X008453Y007060D03*
X008453Y007055D03*
X008453Y007050D03*
X008453Y007040D03*
X008453Y007035D03*
D176*
X008485Y007280D03*
X009065Y007275D03*
X009070Y006830D03*
X007165Y006875D03*
X007165Y006905D03*
X007165Y006510D03*
X006490Y006510D03*
X006490Y006875D03*
X006490Y006905D03*
D177*
X006485Y006880D03*
X007160Y006880D03*
X007160Y006505D03*
X008465Y006840D03*
X009070Y006825D03*
X009065Y007280D03*
D178*
X007208Y007270D03*
X006533Y007270D03*
X007208Y006590D03*
D179*
X007210Y007265D03*
X006535Y007265D03*
X006535Y007260D03*
D180*
X006505Y006920D03*
X006505Y006530D03*
X007180Y006530D03*
X007180Y006855D03*
X007180Y006920D03*
X008485Y007265D03*
D181*
X007213Y007260D03*
X007213Y007255D03*
X006538Y007255D03*
D182*
X006540Y007250D03*
X007215Y007250D03*
D183*
X007218Y007245D03*
X006543Y007245D03*
D184*
X006470Y006495D03*
X007145Y006495D03*
X008465Y006820D03*
X009070Y006810D03*
D185*
X008468Y006805D03*
D186*
X009070Y006780D03*
X007110Y006480D03*
X006435Y006480D03*
D187*
X006463Y006490D03*
X007138Y006490D03*
D188*
X007450Y011150D03*
X006450Y011150D03*
X006450Y012150D03*
X007450Y012150D03*
X008450Y012150D03*
X009450Y012150D03*
X010450Y012150D03*
X011450Y012150D03*
X011450Y011150D03*
X010450Y011150D03*
X009450Y011150D03*
X008450Y011150D03*
X019450Y011150D03*
X020450Y011150D03*
X021450Y011150D03*
X022450Y011150D03*
X022450Y012150D03*
X021450Y012150D03*
X020450Y012150D03*
X019450Y012150D03*
X025450Y011150D03*
X026450Y011150D03*
X026450Y010150D03*
X025450Y010150D03*
X025450Y009150D03*
X026450Y009150D03*
X026450Y008150D03*
X025450Y008150D03*
X023450Y006150D03*
X022450Y006150D03*
X021450Y006150D03*
X021450Y005150D03*
X022450Y005150D03*
X023450Y005150D03*
X022450Y004150D03*
X024450Y004150D03*
D189*
X021450Y003290D02*
X021450Y003010D01*
X020450Y003010D02*
X020450Y003290D01*
X019450Y003290D02*
X019450Y003010D01*
X019450Y002290D02*
X019450Y002010D01*
X020450Y002010D02*
X020450Y002290D01*
X021450Y002290D02*
X021450Y002010D01*
X018450Y002010D02*
X018450Y002290D01*
X017450Y002290D02*
X017450Y002010D01*
X016450Y002010D02*
X016450Y002290D01*
X015450Y002290D02*
X015450Y002010D01*
X014450Y002010D02*
X014450Y002290D01*
X014450Y003010D02*
X014450Y003290D01*
X015450Y003290D02*
X015450Y003010D01*
X016450Y003010D02*
X016450Y003290D01*
X017450Y003290D02*
X017450Y003010D01*
X018450Y003010D02*
X018450Y003290D01*
X011450Y013010D02*
X011450Y013290D01*
X010450Y013290D02*
X010450Y013010D01*
X009450Y013010D02*
X009450Y013290D01*
X008450Y013290D02*
X008450Y013010D01*
X007450Y013010D02*
X007450Y013290D01*
X006450Y013290D02*
X006450Y013010D01*
D190*
X003844Y009516D03*
X003844Y007784D03*
D191*
X013450Y013150D03*
X014450Y013150D03*
X015450Y013150D03*
X016450Y013150D03*
X017450Y013150D03*
X018450Y013150D03*
X019450Y013150D03*
X020450Y013150D03*
X021450Y013150D03*
X022450Y013150D03*
X023450Y013150D03*
X024450Y013150D03*
X025450Y013150D03*
X026450Y013150D03*
X027450Y013150D03*
X028450Y013150D03*
X029450Y010400D03*
X028450Y010150D03*
X029450Y009400D03*
X028450Y009150D03*
X027450Y008900D03*
X027450Y007900D03*
X023450Y007150D03*
X022450Y007150D03*
D192*
X004713Y002600D03*
X005894Y004450D03*
X003531Y004450D03*
M02*
