G75*
G70*
%OFA0B0*%
%FSLAX24Y24*%
%IPPOS*%
%LPD*%
%AMOC8*
5,1,8,0,0,1.08239X$1,22.5*
%
%ADD10C,0.0700*%
%ADD11C,0.0560*%
%ADD12C,0.0021*%
%ADD13C,0.0019*%
%ADD14C,0.0283*%
%ADD15C,0.0022*%
%ADD16C,0.0020*%
%ADD17C,0.0087*%
%ADD18C,0.0190*%
%ADD19C,0.0019*%
%ADD20C,0.0024*%
%ADD21C,0.0019*%
%ADD22C,0.0017*%
%ADD23C,0.0740*%
%ADD24C,0.0020*%
%ADD25C,0.0018*%
%ADD26C,0.0050*%
%ADD27C,0.0200*%
%ADD28C,0.1100*%
%ADD29C,0.0080*%
%ADD30C,0.0160*%
%ADD31C,0.0100*%
%ADD32C,0.0310*%
%ADD33C,0.0400*%
%ADD34C,0.0400*%
%ADD35C,0.0300*%
%ADD36C,0.0340*%
%ADD37C,0.0600*%
%ADD38C,0.0060*%
%ADD39C,0.0360*%
%ADD40C,0.0110*%
%ADD41C,0.0150*%
%ADD42C,0.0350*%
%ADD43C,0.0340*%
%ADD44C,0.0120*%
%ADD45C,0.0500*%
D10*
X006450Y011150D03*
X007450Y011150D03*
X008450Y011150D03*
X009450Y011150D03*
X010450Y011150D03*
X011450Y011150D03*
X011450Y012150D03*
X010450Y012150D03*
X009450Y012150D03*
X008450Y012150D03*
X007450Y012150D03*
X006450Y012150D03*
X019450Y012150D03*
X020450Y012150D03*
X021450Y012150D03*
X022450Y012150D03*
X022450Y011150D03*
X021450Y011150D03*
X020450Y011150D03*
X019450Y011150D03*
X025450Y011150D03*
X026450Y011150D03*
X026450Y010150D03*
X025450Y010150D03*
X025450Y009150D03*
X026450Y009150D03*
X026450Y008150D03*
X025450Y008150D03*
X023450Y006150D03*
X022450Y006150D03*
X021450Y006150D03*
X021450Y005150D03*
X022450Y005150D03*
X023450Y005150D03*
X022450Y004150D03*
X024450Y004150D03*
D11*
X021450Y003290D02*
X021450Y003010D01*
X020450Y003010D02*
X020450Y003290D01*
X019450Y003290D02*
X019450Y003010D01*
X019450Y002290D02*
X019450Y002010D01*
X020450Y002010D02*
X020450Y002290D01*
X021450Y002290D02*
X021450Y002010D01*
X018450Y002010D02*
X018450Y002290D01*
X017450Y002290D02*
X017450Y002010D01*
X016450Y002010D02*
X016450Y002290D01*
X015450Y002290D02*
X015450Y002010D01*
X014450Y002010D02*
X014450Y002290D01*
X014450Y003010D02*
X014450Y003290D01*
X015450Y003290D02*
X015450Y003010D01*
X016450Y003010D02*
X016450Y003290D01*
X017450Y003290D02*
X017450Y003010D01*
X018450Y003010D02*
X018450Y003290D01*
X011450Y013010D02*
X011450Y013290D01*
X010450Y013290D02*
X010450Y013010D01*
X009450Y013010D02*
X009450Y013290D01*
X008450Y013290D02*
X008450Y013010D01*
X007450Y013010D02*
X007450Y013290D01*
X006450Y013290D02*
X006450Y013010D01*
D12*
X013360Y011398D02*
X013752Y011398D01*
X013360Y011398D02*
X013360Y011802D01*
X013752Y011802D01*
X013752Y011398D01*
X013752Y011418D02*
X013360Y011418D01*
X013360Y011438D02*
X013752Y011438D01*
X013752Y011458D02*
X013360Y011458D01*
X013360Y011478D02*
X013752Y011478D01*
X013752Y011498D02*
X013360Y011498D01*
X013360Y011518D02*
X013752Y011518D01*
X013752Y011538D02*
X013360Y011538D01*
X013360Y011558D02*
X013752Y011558D01*
X013752Y011578D02*
X013360Y011578D01*
X013360Y011598D02*
X013752Y011598D01*
X013752Y011618D02*
X013360Y011618D01*
X013360Y011638D02*
X013752Y011638D01*
X013752Y011658D02*
X013360Y011658D01*
X013360Y011678D02*
X013752Y011678D01*
X013752Y011698D02*
X013360Y011698D01*
X013360Y011718D02*
X013752Y011718D01*
X013752Y011738D02*
X013360Y011738D01*
X013360Y011758D02*
X013752Y011758D01*
X013752Y011778D02*
X013360Y011778D01*
X013360Y011798D02*
X013752Y011798D01*
X014048Y011398D02*
X014440Y011398D01*
X014048Y011398D02*
X014048Y011802D01*
X014440Y011802D01*
X014440Y011398D01*
X014440Y011418D02*
X014048Y011418D01*
X014048Y011438D02*
X014440Y011438D01*
X014440Y011458D02*
X014048Y011458D01*
X014048Y011478D02*
X014440Y011478D01*
X014440Y011498D02*
X014048Y011498D01*
X014048Y011518D02*
X014440Y011518D01*
X014440Y011538D02*
X014048Y011538D01*
X014048Y011558D02*
X014440Y011558D01*
X014440Y011578D02*
X014048Y011578D01*
X014048Y011598D02*
X014440Y011598D01*
X014440Y011618D02*
X014048Y011618D01*
X014048Y011638D02*
X014440Y011638D01*
X014440Y011658D02*
X014048Y011658D01*
X014048Y011678D02*
X014440Y011678D01*
X014440Y011698D02*
X014048Y011698D01*
X014048Y011718D02*
X014440Y011718D01*
X014440Y011738D02*
X014048Y011738D01*
X014048Y011758D02*
X014440Y011758D01*
X014440Y011778D02*
X014048Y011778D01*
X014048Y011798D02*
X014440Y011798D01*
X012348Y002790D02*
X012348Y002398D01*
X012348Y002790D02*
X012752Y002790D01*
X012752Y002398D01*
X012348Y002398D01*
X012348Y002418D02*
X012752Y002418D01*
X012752Y002438D02*
X012348Y002438D01*
X012348Y002458D02*
X012752Y002458D01*
X012752Y002478D02*
X012348Y002478D01*
X012348Y002498D02*
X012752Y002498D01*
X012752Y002518D02*
X012348Y002518D01*
X012348Y002538D02*
X012752Y002538D01*
X012752Y002558D02*
X012348Y002558D01*
X012348Y002578D02*
X012752Y002578D01*
X012752Y002598D02*
X012348Y002598D01*
X012348Y002618D02*
X012752Y002618D01*
X012752Y002638D02*
X012348Y002638D01*
X012348Y002658D02*
X012752Y002658D01*
X012752Y002678D02*
X012348Y002678D01*
X012348Y002698D02*
X012752Y002698D01*
X012752Y002718D02*
X012348Y002718D01*
X012348Y002738D02*
X012752Y002738D01*
X012752Y002758D02*
X012348Y002758D01*
X012348Y002778D02*
X012752Y002778D01*
X012348Y002102D02*
X012348Y001710D01*
X012348Y002102D02*
X012752Y002102D01*
X012752Y001710D01*
X012348Y001710D01*
X012348Y001730D02*
X012752Y001730D01*
X012752Y001750D02*
X012348Y001750D01*
X012348Y001770D02*
X012752Y001770D01*
X012752Y001790D02*
X012348Y001790D01*
X012348Y001810D02*
X012752Y001810D01*
X012752Y001830D02*
X012348Y001830D01*
X012348Y001850D02*
X012752Y001850D01*
X012752Y001870D02*
X012348Y001870D01*
X012348Y001890D02*
X012752Y001890D01*
X012752Y001910D02*
X012348Y001910D01*
X012348Y001930D02*
X012752Y001930D01*
X012752Y001950D02*
X012348Y001950D01*
X012348Y001970D02*
X012752Y001970D01*
X012752Y001990D02*
X012348Y001990D01*
X012348Y002010D02*
X012752Y002010D01*
X012752Y002030D02*
X012348Y002030D01*
X012348Y002050D02*
X012752Y002050D01*
X012752Y002070D02*
X012348Y002070D01*
X012348Y002090D02*
X012752Y002090D01*
X010402Y002102D02*
X010402Y001710D01*
X009998Y001710D01*
X009998Y002102D01*
X010402Y002102D01*
X010402Y001730D02*
X009998Y001730D01*
X009998Y001750D02*
X010402Y001750D01*
X010402Y001770D02*
X009998Y001770D01*
X009998Y001790D02*
X010402Y001790D01*
X010402Y001810D02*
X009998Y001810D01*
X009998Y001830D02*
X010402Y001830D01*
X010402Y001850D02*
X009998Y001850D01*
X009998Y001870D02*
X010402Y001870D01*
X010402Y001890D02*
X009998Y001890D01*
X009998Y001910D02*
X010402Y001910D01*
X010402Y001930D02*
X009998Y001930D01*
X009998Y001950D02*
X010402Y001950D01*
X010402Y001970D02*
X009998Y001970D01*
X009998Y001990D02*
X010402Y001990D01*
X010402Y002010D02*
X009998Y002010D01*
X009998Y002030D02*
X010402Y002030D01*
X010402Y002050D02*
X009998Y002050D01*
X009998Y002070D02*
X010402Y002070D01*
X010402Y002090D02*
X009998Y002090D01*
X010402Y002398D02*
X010402Y002790D01*
X010402Y002398D02*
X009998Y002398D01*
X009998Y002790D01*
X010402Y002790D01*
X010402Y002418D02*
X009998Y002418D01*
X009998Y002438D02*
X010402Y002438D01*
X010402Y002458D02*
X009998Y002458D01*
X009998Y002478D02*
X010402Y002478D01*
X010402Y002498D02*
X009998Y002498D01*
X009998Y002518D02*
X010402Y002518D01*
X010402Y002538D02*
X009998Y002538D01*
X009998Y002558D02*
X010402Y002558D01*
X010402Y002578D02*
X009998Y002578D01*
X009998Y002598D02*
X010402Y002598D01*
X010402Y002618D02*
X009998Y002618D01*
X009998Y002638D02*
X010402Y002638D01*
X010402Y002658D02*
X009998Y002658D01*
X009998Y002678D02*
X010402Y002678D01*
X010402Y002698D02*
X009998Y002698D01*
X009998Y002718D02*
X010402Y002718D01*
X010402Y002738D02*
X009998Y002738D01*
X009998Y002758D02*
X010402Y002758D01*
X010402Y002778D02*
X009998Y002778D01*
D13*
X009579Y002187D02*
X008653Y002187D01*
X008653Y003113D01*
X009579Y003113D01*
X009579Y002187D01*
X009579Y002205D02*
X008653Y002205D01*
X008653Y002223D02*
X009579Y002223D01*
X009579Y002241D02*
X008653Y002241D01*
X008653Y002259D02*
X009579Y002259D01*
X009579Y002277D02*
X008653Y002277D01*
X008653Y002295D02*
X009579Y002295D01*
X009579Y002313D02*
X008653Y002313D01*
X008653Y002331D02*
X009579Y002331D01*
X009579Y002349D02*
X008653Y002349D01*
X008653Y002367D02*
X009579Y002367D01*
X009579Y002385D02*
X008653Y002385D01*
X008653Y002403D02*
X009579Y002403D01*
X009579Y002421D02*
X008653Y002421D01*
X008653Y002439D02*
X009579Y002439D01*
X009579Y002457D02*
X008653Y002457D01*
X008653Y002475D02*
X009579Y002475D01*
X009579Y002493D02*
X008653Y002493D01*
X008653Y002511D02*
X009579Y002511D01*
X009579Y002529D02*
X008653Y002529D01*
X008653Y002547D02*
X009579Y002547D01*
X009579Y002565D02*
X008653Y002565D01*
X008653Y002583D02*
X009579Y002583D01*
X009579Y002601D02*
X008653Y002601D01*
X008653Y002619D02*
X009579Y002619D01*
X009579Y002637D02*
X008653Y002637D01*
X008653Y002655D02*
X009579Y002655D01*
X009579Y002673D02*
X008653Y002673D01*
X008653Y002691D02*
X009579Y002691D01*
X009579Y002709D02*
X008653Y002709D01*
X008653Y002727D02*
X009579Y002727D01*
X009579Y002745D02*
X008653Y002745D01*
X008653Y002763D02*
X009579Y002763D01*
X009579Y002781D02*
X008653Y002781D01*
X008653Y002799D02*
X009579Y002799D01*
X009579Y002817D02*
X008653Y002817D01*
X008653Y002835D02*
X009579Y002835D01*
X009579Y002853D02*
X008653Y002853D01*
X008653Y002871D02*
X009579Y002871D01*
X009579Y002889D02*
X008653Y002889D01*
X008653Y002907D02*
X009579Y002907D01*
X009579Y002925D02*
X008653Y002925D01*
X008653Y002943D02*
X009579Y002943D01*
X009579Y002961D02*
X008653Y002961D01*
X008653Y002979D02*
X009579Y002979D01*
X009579Y002997D02*
X008653Y002997D01*
X008653Y003015D02*
X009579Y003015D01*
X009579Y003033D02*
X008653Y003033D01*
X008653Y003051D02*
X009579Y003051D01*
X009579Y003069D02*
X008653Y003069D01*
X008653Y003087D02*
X009579Y003087D01*
X009579Y003105D02*
X008653Y003105D01*
X007847Y002187D02*
X006921Y002187D01*
X006921Y003113D01*
X007847Y003113D01*
X007847Y002187D01*
X007847Y002205D02*
X006921Y002205D01*
X006921Y002223D02*
X007847Y002223D01*
X007847Y002241D02*
X006921Y002241D01*
X006921Y002259D02*
X007847Y002259D01*
X007847Y002277D02*
X006921Y002277D01*
X006921Y002295D02*
X007847Y002295D01*
X007847Y002313D02*
X006921Y002313D01*
X006921Y002331D02*
X007847Y002331D01*
X007847Y002349D02*
X006921Y002349D01*
X006921Y002367D02*
X007847Y002367D01*
X007847Y002385D02*
X006921Y002385D01*
X006921Y002403D02*
X007847Y002403D01*
X007847Y002421D02*
X006921Y002421D01*
X006921Y002439D02*
X007847Y002439D01*
X007847Y002457D02*
X006921Y002457D01*
X006921Y002475D02*
X007847Y002475D01*
X007847Y002493D02*
X006921Y002493D01*
X006921Y002511D02*
X007847Y002511D01*
X007847Y002529D02*
X006921Y002529D01*
X006921Y002547D02*
X007847Y002547D01*
X007847Y002565D02*
X006921Y002565D01*
X006921Y002583D02*
X007847Y002583D01*
X007847Y002601D02*
X006921Y002601D01*
X006921Y002619D02*
X007847Y002619D01*
X007847Y002637D02*
X006921Y002637D01*
X006921Y002655D02*
X007847Y002655D01*
X007847Y002673D02*
X006921Y002673D01*
X006921Y002691D02*
X007847Y002691D01*
X007847Y002709D02*
X006921Y002709D01*
X006921Y002727D02*
X007847Y002727D01*
X007847Y002745D02*
X006921Y002745D01*
X006921Y002763D02*
X007847Y002763D01*
X007847Y002781D02*
X006921Y002781D01*
X006921Y002799D02*
X007847Y002799D01*
X007847Y002817D02*
X006921Y002817D01*
X006921Y002835D02*
X007847Y002835D01*
X007847Y002853D02*
X006921Y002853D01*
X006921Y002871D02*
X007847Y002871D01*
X007847Y002889D02*
X006921Y002889D01*
X006921Y002907D02*
X007847Y002907D01*
X007847Y002925D02*
X006921Y002925D01*
X006921Y002943D02*
X007847Y002943D01*
X007847Y002961D02*
X006921Y002961D01*
X006921Y002979D02*
X007847Y002979D01*
X007847Y002997D02*
X006921Y002997D01*
X006921Y003015D02*
X007847Y003015D01*
X007847Y003033D02*
X006921Y003033D01*
X006921Y003051D02*
X007847Y003051D01*
X007847Y003069D02*
X006921Y003069D01*
X006921Y003087D02*
X007847Y003087D01*
X007847Y003105D02*
X006921Y003105D01*
X012163Y003953D02*
X012163Y004565D01*
X012163Y003953D02*
X011237Y003953D01*
X011237Y004565D01*
X012163Y004565D01*
X012163Y003971D02*
X011237Y003971D01*
X011237Y003989D02*
X012163Y003989D01*
X012163Y004007D02*
X011237Y004007D01*
X011237Y004025D02*
X012163Y004025D01*
X012163Y004043D02*
X011237Y004043D01*
X011237Y004061D02*
X012163Y004061D01*
X012163Y004079D02*
X011237Y004079D01*
X011237Y004097D02*
X012163Y004097D01*
X012163Y004115D02*
X011237Y004115D01*
X011237Y004133D02*
X012163Y004133D01*
X012163Y004151D02*
X011237Y004151D01*
X011237Y004169D02*
X012163Y004169D01*
X012163Y004187D02*
X011237Y004187D01*
X011237Y004205D02*
X012163Y004205D01*
X012163Y004223D02*
X011237Y004223D01*
X011237Y004241D02*
X012163Y004241D01*
X012163Y004259D02*
X011237Y004259D01*
X011237Y004277D02*
X012163Y004277D01*
X012163Y004295D02*
X011237Y004295D01*
X011237Y004313D02*
X012163Y004313D01*
X012163Y004331D02*
X011237Y004331D01*
X011237Y004349D02*
X012163Y004349D01*
X012163Y004367D02*
X011237Y004367D01*
X011237Y004385D02*
X012163Y004385D01*
X012163Y004403D02*
X011237Y004403D01*
X011237Y004421D02*
X012163Y004421D01*
X012163Y004439D02*
X011237Y004439D01*
X011237Y004457D02*
X012163Y004457D01*
X012163Y004475D02*
X011237Y004475D01*
X011237Y004493D02*
X012163Y004493D01*
X012163Y004511D02*
X011237Y004511D01*
X011237Y004529D02*
X012163Y004529D01*
X012163Y004547D02*
X011237Y004547D01*
X011237Y004565D02*
X012163Y004565D01*
X013513Y004565D02*
X013513Y003953D01*
X012587Y003953D01*
X012587Y004565D01*
X013513Y004565D01*
X013513Y003971D02*
X012587Y003971D01*
X012587Y003989D02*
X013513Y003989D01*
X013513Y004007D02*
X012587Y004007D01*
X012587Y004025D02*
X013513Y004025D01*
X013513Y004043D02*
X012587Y004043D01*
X012587Y004061D02*
X013513Y004061D01*
X013513Y004079D02*
X012587Y004079D01*
X012587Y004097D02*
X013513Y004097D01*
X013513Y004115D02*
X012587Y004115D01*
X012587Y004133D02*
X013513Y004133D01*
X013513Y004151D02*
X012587Y004151D01*
X012587Y004169D02*
X013513Y004169D01*
X013513Y004187D02*
X012587Y004187D01*
X012587Y004205D02*
X013513Y004205D01*
X013513Y004223D02*
X012587Y004223D01*
X012587Y004241D02*
X013513Y004241D01*
X013513Y004259D02*
X012587Y004259D01*
X012587Y004277D02*
X013513Y004277D01*
X013513Y004295D02*
X012587Y004295D01*
X012587Y004313D02*
X013513Y004313D01*
X013513Y004331D02*
X012587Y004331D01*
X012587Y004349D02*
X013513Y004349D01*
X013513Y004367D02*
X012587Y004367D01*
X012587Y004385D02*
X013513Y004385D01*
X013513Y004403D02*
X012587Y004403D01*
X012587Y004421D02*
X013513Y004421D01*
X013513Y004439D02*
X012587Y004439D01*
X012587Y004457D02*
X013513Y004457D01*
X013513Y004475D02*
X012587Y004475D01*
X012587Y004493D02*
X013513Y004493D01*
X013513Y004511D02*
X012587Y004511D01*
X012587Y004529D02*
X013513Y004529D01*
X013513Y004547D02*
X012587Y004547D01*
X012587Y004565D02*
X013513Y004565D01*
X012587Y005135D02*
X012587Y005747D01*
X013513Y005747D01*
X013513Y005135D01*
X012587Y005135D01*
X012587Y005153D02*
X013513Y005153D01*
X013513Y005171D02*
X012587Y005171D01*
X012587Y005189D02*
X013513Y005189D01*
X013513Y005207D02*
X012587Y005207D01*
X012587Y005225D02*
X013513Y005225D01*
X013513Y005243D02*
X012587Y005243D01*
X012587Y005261D02*
X013513Y005261D01*
X013513Y005279D02*
X012587Y005279D01*
X012587Y005297D02*
X013513Y005297D01*
X013513Y005315D02*
X012587Y005315D01*
X012587Y005333D02*
X013513Y005333D01*
X013513Y005351D02*
X012587Y005351D01*
X012587Y005369D02*
X013513Y005369D01*
X013513Y005387D02*
X012587Y005387D01*
X012587Y005405D02*
X013513Y005405D01*
X013513Y005423D02*
X012587Y005423D01*
X012587Y005441D02*
X013513Y005441D01*
X013513Y005459D02*
X012587Y005459D01*
X012587Y005477D02*
X013513Y005477D01*
X013513Y005495D02*
X012587Y005495D01*
X012587Y005513D02*
X013513Y005513D01*
X013513Y005531D02*
X012587Y005531D01*
X012587Y005549D02*
X013513Y005549D01*
X013513Y005567D02*
X012587Y005567D01*
X012587Y005585D02*
X013513Y005585D01*
X013513Y005603D02*
X012587Y005603D01*
X012587Y005621D02*
X013513Y005621D01*
X013513Y005639D02*
X012587Y005639D01*
X012587Y005657D02*
X013513Y005657D01*
X013513Y005675D02*
X012587Y005675D01*
X012587Y005693D02*
X013513Y005693D01*
X013513Y005711D02*
X012587Y005711D01*
X012587Y005729D02*
X013513Y005729D01*
X013513Y005747D02*
X012587Y005747D01*
X012036Y005923D02*
X012036Y006377D01*
X012490Y006377D01*
X012490Y005923D01*
X012036Y005923D01*
X012036Y005941D02*
X012490Y005941D01*
X012490Y005959D02*
X012036Y005959D01*
X012036Y005977D02*
X012490Y005977D01*
X012490Y005995D02*
X012036Y005995D01*
X012036Y006013D02*
X012490Y006013D01*
X012490Y006031D02*
X012036Y006031D01*
X012036Y006049D02*
X012490Y006049D01*
X012490Y006067D02*
X012036Y006067D01*
X012036Y006085D02*
X012490Y006085D01*
X012490Y006103D02*
X012036Y006103D01*
X012036Y006121D02*
X012490Y006121D01*
X012490Y006139D02*
X012036Y006139D01*
X012036Y006157D02*
X012490Y006157D01*
X012490Y006175D02*
X012036Y006175D01*
X012036Y006193D02*
X012490Y006193D01*
X012490Y006211D02*
X012036Y006211D01*
X012036Y006229D02*
X012490Y006229D01*
X012490Y006247D02*
X012036Y006247D01*
X012036Y006265D02*
X012490Y006265D01*
X012490Y006283D02*
X012036Y006283D01*
X012036Y006301D02*
X012490Y006301D01*
X012490Y006319D02*
X012036Y006319D01*
X012036Y006337D02*
X012490Y006337D01*
X012490Y006355D02*
X012036Y006355D01*
X012036Y006373D02*
X012490Y006373D01*
X011210Y006377D02*
X011210Y005923D01*
X011210Y006377D02*
X011664Y006377D01*
X011664Y005923D01*
X011210Y005923D01*
X011210Y005941D02*
X011664Y005941D01*
X011664Y005959D02*
X011210Y005959D01*
X011210Y005977D02*
X011664Y005977D01*
X011664Y005995D02*
X011210Y005995D01*
X011210Y006013D02*
X011664Y006013D01*
X011664Y006031D02*
X011210Y006031D01*
X011210Y006049D02*
X011664Y006049D01*
X011664Y006067D02*
X011210Y006067D01*
X011210Y006085D02*
X011664Y006085D01*
X011664Y006103D02*
X011210Y006103D01*
X011210Y006121D02*
X011664Y006121D01*
X011664Y006139D02*
X011210Y006139D01*
X011210Y006157D02*
X011664Y006157D01*
X011664Y006175D02*
X011210Y006175D01*
X011210Y006193D02*
X011664Y006193D01*
X011664Y006211D02*
X011210Y006211D01*
X011210Y006229D02*
X011664Y006229D01*
X011664Y006247D02*
X011210Y006247D01*
X011210Y006265D02*
X011664Y006265D01*
X011664Y006283D02*
X011210Y006283D01*
X011210Y006301D02*
X011664Y006301D01*
X011664Y006319D02*
X011210Y006319D01*
X011210Y006337D02*
X011664Y006337D01*
X011664Y006355D02*
X011210Y006355D01*
X011210Y006373D02*
X011664Y006373D01*
X011237Y005747D02*
X011237Y005135D01*
X011237Y005747D02*
X012163Y005747D01*
X012163Y005135D01*
X011237Y005135D01*
X011237Y005153D02*
X012163Y005153D01*
X012163Y005171D02*
X011237Y005171D01*
X011237Y005189D02*
X012163Y005189D01*
X012163Y005207D02*
X011237Y005207D01*
X011237Y005225D02*
X012163Y005225D01*
X012163Y005243D02*
X011237Y005243D01*
X011237Y005261D02*
X012163Y005261D01*
X012163Y005279D02*
X011237Y005279D01*
X011237Y005297D02*
X012163Y005297D01*
X012163Y005315D02*
X011237Y005315D01*
X011237Y005333D02*
X012163Y005333D01*
X012163Y005351D02*
X011237Y005351D01*
X011237Y005369D02*
X012163Y005369D01*
X012163Y005387D02*
X011237Y005387D01*
X011237Y005405D02*
X012163Y005405D01*
X012163Y005423D02*
X011237Y005423D01*
X011237Y005441D02*
X012163Y005441D01*
X012163Y005459D02*
X011237Y005459D01*
X011237Y005477D02*
X012163Y005477D01*
X012163Y005495D02*
X011237Y005495D01*
X011237Y005513D02*
X012163Y005513D01*
X012163Y005531D02*
X011237Y005531D01*
X011237Y005549D02*
X012163Y005549D01*
X012163Y005567D02*
X011237Y005567D01*
X011237Y005585D02*
X012163Y005585D01*
X012163Y005603D02*
X011237Y005603D01*
X011237Y005621D02*
X012163Y005621D01*
X012163Y005639D02*
X011237Y005639D01*
X011237Y005657D02*
X012163Y005657D01*
X012163Y005675D02*
X011237Y005675D01*
X011237Y005693D02*
X012163Y005693D01*
X012163Y005711D02*
X011237Y005711D01*
X011237Y005729D02*
X012163Y005729D01*
X012163Y005747D02*
X011237Y005747D01*
X015160Y005727D02*
X015160Y005273D01*
X015160Y005727D02*
X015614Y005727D01*
X015614Y005273D01*
X015160Y005273D01*
X015160Y005291D02*
X015614Y005291D01*
X015614Y005309D02*
X015160Y005309D01*
X015160Y005327D02*
X015614Y005327D01*
X015614Y005345D02*
X015160Y005345D01*
X015160Y005363D02*
X015614Y005363D01*
X015614Y005381D02*
X015160Y005381D01*
X015160Y005399D02*
X015614Y005399D01*
X015614Y005417D02*
X015160Y005417D01*
X015160Y005435D02*
X015614Y005435D01*
X015614Y005453D02*
X015160Y005453D01*
X015160Y005471D02*
X015614Y005471D01*
X015614Y005489D02*
X015160Y005489D01*
X015160Y005507D02*
X015614Y005507D01*
X015614Y005525D02*
X015160Y005525D01*
X015160Y005543D02*
X015614Y005543D01*
X015614Y005561D02*
X015160Y005561D01*
X015160Y005579D02*
X015614Y005579D01*
X015614Y005597D02*
X015160Y005597D01*
X015160Y005615D02*
X015614Y005615D01*
X015614Y005633D02*
X015160Y005633D01*
X015160Y005651D02*
X015614Y005651D01*
X015614Y005669D02*
X015160Y005669D01*
X015160Y005687D02*
X015614Y005687D01*
X015614Y005705D02*
X015160Y005705D01*
X015160Y005723D02*
X015614Y005723D01*
X015160Y005923D02*
X015160Y006377D01*
X015614Y006377D01*
X015614Y005923D01*
X015160Y005923D01*
X015160Y005941D02*
X015614Y005941D01*
X015614Y005959D02*
X015160Y005959D01*
X015160Y005977D02*
X015614Y005977D01*
X015614Y005995D02*
X015160Y005995D01*
X015160Y006013D02*
X015614Y006013D01*
X015614Y006031D02*
X015160Y006031D01*
X015160Y006049D02*
X015614Y006049D01*
X015614Y006067D02*
X015160Y006067D01*
X015160Y006085D02*
X015614Y006085D01*
X015614Y006103D02*
X015160Y006103D01*
X015160Y006121D02*
X015614Y006121D01*
X015614Y006139D02*
X015160Y006139D01*
X015160Y006157D02*
X015614Y006157D01*
X015614Y006175D02*
X015160Y006175D01*
X015160Y006193D02*
X015614Y006193D01*
X015614Y006211D02*
X015160Y006211D01*
X015160Y006229D02*
X015614Y006229D01*
X015614Y006247D02*
X015160Y006247D01*
X015160Y006265D02*
X015614Y006265D01*
X015614Y006283D02*
X015160Y006283D01*
X015160Y006301D02*
X015614Y006301D01*
X015614Y006319D02*
X015160Y006319D01*
X015160Y006337D02*
X015614Y006337D01*
X015614Y006355D02*
X015160Y006355D01*
X015160Y006373D02*
X015614Y006373D01*
X015986Y006377D02*
X015986Y005923D01*
X015986Y006377D02*
X016440Y006377D01*
X016440Y005923D01*
X015986Y005923D01*
X015986Y005941D02*
X016440Y005941D01*
X016440Y005959D02*
X015986Y005959D01*
X015986Y005977D02*
X016440Y005977D01*
X016440Y005995D02*
X015986Y005995D01*
X015986Y006013D02*
X016440Y006013D01*
X016440Y006031D02*
X015986Y006031D01*
X015986Y006049D02*
X016440Y006049D01*
X016440Y006067D02*
X015986Y006067D01*
X015986Y006085D02*
X016440Y006085D01*
X016440Y006103D02*
X015986Y006103D01*
X015986Y006121D02*
X016440Y006121D01*
X016440Y006139D02*
X015986Y006139D01*
X015986Y006157D02*
X016440Y006157D01*
X016440Y006175D02*
X015986Y006175D01*
X015986Y006193D02*
X016440Y006193D01*
X016440Y006211D02*
X015986Y006211D01*
X015986Y006229D02*
X016440Y006229D01*
X016440Y006247D02*
X015986Y006247D01*
X015986Y006265D02*
X016440Y006265D01*
X016440Y006283D02*
X015986Y006283D01*
X015986Y006301D02*
X016440Y006301D01*
X016440Y006319D02*
X015986Y006319D01*
X015986Y006337D02*
X016440Y006337D01*
X016440Y006355D02*
X015986Y006355D01*
X015986Y006373D02*
X016440Y006373D01*
X015986Y005727D02*
X015986Y005273D01*
X015986Y005727D02*
X016440Y005727D01*
X016440Y005273D01*
X015986Y005273D01*
X015986Y005291D02*
X016440Y005291D01*
X016440Y005309D02*
X015986Y005309D01*
X015986Y005327D02*
X016440Y005327D01*
X016440Y005345D02*
X015986Y005345D01*
X015986Y005363D02*
X016440Y005363D01*
X016440Y005381D02*
X015986Y005381D01*
X015986Y005399D02*
X016440Y005399D01*
X016440Y005417D02*
X015986Y005417D01*
X015986Y005435D02*
X016440Y005435D01*
X016440Y005453D02*
X015986Y005453D01*
X015986Y005471D02*
X016440Y005471D01*
X016440Y005489D02*
X015986Y005489D01*
X015986Y005507D02*
X016440Y005507D01*
X016440Y005525D02*
X015986Y005525D01*
X015986Y005543D02*
X016440Y005543D01*
X016440Y005561D02*
X015986Y005561D01*
X015986Y005579D02*
X016440Y005579D01*
X016440Y005597D02*
X015986Y005597D01*
X015986Y005615D02*
X016440Y005615D01*
X016440Y005633D02*
X015986Y005633D01*
X015986Y005651D02*
X016440Y005651D01*
X016440Y005669D02*
X015986Y005669D01*
X015986Y005687D02*
X016440Y005687D01*
X016440Y005705D02*
X015986Y005705D01*
X015986Y005723D02*
X016440Y005723D01*
X019933Y007758D02*
X019933Y008212D01*
X019933Y007758D02*
X019401Y007758D01*
X019401Y008212D01*
X019933Y008212D01*
X019933Y007776D02*
X019401Y007776D01*
X019401Y007794D02*
X019933Y007794D01*
X019933Y007812D02*
X019401Y007812D01*
X019401Y007830D02*
X019933Y007830D01*
X019933Y007848D02*
X019401Y007848D01*
X019401Y007866D02*
X019933Y007866D01*
X019933Y007884D02*
X019401Y007884D01*
X019401Y007902D02*
X019933Y007902D01*
X019933Y007920D02*
X019401Y007920D01*
X019401Y007938D02*
X019933Y007938D01*
X019933Y007956D02*
X019401Y007956D01*
X019401Y007974D02*
X019933Y007974D01*
X019933Y007992D02*
X019401Y007992D01*
X019401Y008010D02*
X019933Y008010D01*
X019933Y008028D02*
X019401Y008028D01*
X019401Y008046D02*
X019933Y008046D01*
X019933Y008064D02*
X019401Y008064D01*
X019401Y008082D02*
X019933Y008082D01*
X019933Y008100D02*
X019401Y008100D01*
X019401Y008118D02*
X019933Y008118D01*
X019933Y008136D02*
X019401Y008136D01*
X019401Y008154D02*
X019933Y008154D01*
X019933Y008172D02*
X019401Y008172D01*
X019401Y008190D02*
X019933Y008190D01*
X019933Y008208D02*
X019401Y008208D01*
X019933Y008388D02*
X019933Y008842D01*
X019933Y008388D02*
X019401Y008388D01*
X019401Y008842D01*
X019933Y008842D01*
X019933Y008406D02*
X019401Y008406D01*
X019401Y008424D02*
X019933Y008424D01*
X019933Y008442D02*
X019401Y008442D01*
X019401Y008460D02*
X019933Y008460D01*
X019933Y008478D02*
X019401Y008478D01*
X019401Y008496D02*
X019933Y008496D01*
X019933Y008514D02*
X019401Y008514D01*
X019401Y008532D02*
X019933Y008532D01*
X019933Y008550D02*
X019401Y008550D01*
X019401Y008568D02*
X019933Y008568D01*
X019933Y008586D02*
X019401Y008586D01*
X019401Y008604D02*
X019933Y008604D01*
X019933Y008622D02*
X019401Y008622D01*
X019401Y008640D02*
X019933Y008640D01*
X019933Y008658D02*
X019401Y008658D01*
X019401Y008676D02*
X019933Y008676D01*
X019933Y008694D02*
X019401Y008694D01*
X019401Y008712D02*
X019933Y008712D01*
X019933Y008730D02*
X019401Y008730D01*
X019401Y008748D02*
X019933Y008748D01*
X019933Y008766D02*
X019401Y008766D01*
X019401Y008784D02*
X019933Y008784D01*
X019933Y008802D02*
X019401Y008802D01*
X019401Y008820D02*
X019933Y008820D01*
X019933Y008838D02*
X019401Y008838D01*
X020799Y008842D02*
X020799Y008388D01*
X020267Y008388D01*
X020267Y008842D01*
X020799Y008842D01*
X020799Y008406D02*
X020267Y008406D01*
X020267Y008424D02*
X020799Y008424D01*
X020799Y008442D02*
X020267Y008442D01*
X020267Y008460D02*
X020799Y008460D01*
X020799Y008478D02*
X020267Y008478D01*
X020267Y008496D02*
X020799Y008496D01*
X020799Y008514D02*
X020267Y008514D01*
X020267Y008532D02*
X020799Y008532D01*
X020799Y008550D02*
X020267Y008550D01*
X020267Y008568D02*
X020799Y008568D01*
X020799Y008586D02*
X020267Y008586D01*
X020267Y008604D02*
X020799Y008604D01*
X020799Y008622D02*
X020267Y008622D01*
X020267Y008640D02*
X020799Y008640D01*
X020799Y008658D02*
X020267Y008658D01*
X020267Y008676D02*
X020799Y008676D01*
X020799Y008694D02*
X020267Y008694D01*
X020267Y008712D02*
X020799Y008712D01*
X020799Y008730D02*
X020267Y008730D01*
X020267Y008748D02*
X020799Y008748D01*
X020799Y008766D02*
X020267Y008766D01*
X020267Y008784D02*
X020799Y008784D01*
X020799Y008802D02*
X020267Y008802D01*
X020267Y008820D02*
X020799Y008820D01*
X020799Y008838D02*
X020267Y008838D01*
X020799Y008212D02*
X020799Y007758D01*
X020267Y007758D01*
X020267Y008212D01*
X020799Y008212D01*
X020799Y007776D02*
X020267Y007776D01*
X020267Y007794D02*
X020799Y007794D01*
X020799Y007812D02*
X020267Y007812D01*
X020267Y007830D02*
X020799Y007830D01*
X020799Y007848D02*
X020267Y007848D01*
X020267Y007866D02*
X020799Y007866D01*
X020799Y007884D02*
X020267Y007884D01*
X020267Y007902D02*
X020799Y007902D01*
X020799Y007920D02*
X020267Y007920D01*
X020267Y007938D02*
X020799Y007938D01*
X020799Y007956D02*
X020267Y007956D01*
X020267Y007974D02*
X020799Y007974D01*
X020799Y007992D02*
X020267Y007992D01*
X020267Y008010D02*
X020799Y008010D01*
X020799Y008028D02*
X020267Y008028D01*
X020267Y008046D02*
X020799Y008046D01*
X020799Y008064D02*
X020267Y008064D01*
X020267Y008082D02*
X020799Y008082D01*
X020799Y008100D02*
X020267Y008100D01*
X020267Y008118D02*
X020799Y008118D01*
X020799Y008136D02*
X020267Y008136D01*
X020267Y008154D02*
X020799Y008154D01*
X020799Y008172D02*
X020267Y008172D01*
X020267Y008190D02*
X020799Y008190D01*
X020799Y008208D02*
X020267Y008208D01*
D14*
X020394Y007475D02*
X020394Y007325D01*
X020394Y007475D02*
X020466Y007475D01*
X020466Y007325D01*
X020394Y007325D01*
X019694Y007325D02*
X019694Y007475D01*
X019766Y007475D01*
X019766Y007325D01*
X019694Y007325D01*
X018836Y008225D02*
X018836Y008375D01*
X018836Y008225D02*
X018764Y008225D01*
X018764Y008375D01*
X018836Y008375D01*
X018136Y008375D02*
X018136Y008225D01*
X018064Y008225D01*
X018064Y008375D01*
X018136Y008375D01*
X019836Y009125D02*
X019836Y009275D01*
X019836Y009125D02*
X019764Y009125D01*
X019764Y009275D01*
X019836Y009275D01*
X020536Y009275D02*
X020536Y009125D01*
X020464Y009125D01*
X020464Y009275D01*
X020536Y009275D01*
X018216Y010775D02*
X018216Y010925D01*
X018216Y010775D02*
X018144Y010775D01*
X018144Y010925D01*
X018216Y010925D01*
X017516Y010925D02*
X017516Y010775D01*
X017444Y010775D01*
X017444Y010925D01*
X017516Y010925D01*
X013240Y008421D02*
X013090Y008421D01*
X013240Y008421D02*
X013240Y008349D01*
X013090Y008349D01*
X013090Y008421D01*
X013090Y007721D02*
X013240Y007721D01*
X013240Y007649D01*
X013090Y007649D01*
X013090Y007721D01*
X015114Y006785D02*
X015114Y006635D01*
X015114Y006785D02*
X015186Y006785D01*
X015186Y006635D01*
X015114Y006635D01*
X015814Y006635D02*
X015814Y006785D01*
X015886Y006785D01*
X015886Y006635D01*
X015814Y006635D01*
X004025Y011064D02*
X003875Y011064D01*
X003875Y011136D01*
X004025Y011136D01*
X004025Y011064D01*
X004025Y011764D02*
X003875Y011764D01*
X003875Y011836D01*
X004025Y011836D01*
X004025Y011764D01*
D15*
X001792Y012095D02*
X001792Y011369D01*
X001792Y012095D02*
X003108Y012095D01*
X003108Y011369D01*
X001792Y011369D01*
X001792Y011390D02*
X003108Y011390D01*
X003108Y011411D02*
X001792Y011411D01*
X001792Y011432D02*
X003108Y011432D01*
X003108Y011453D02*
X001792Y011453D01*
X001792Y011474D02*
X003108Y011474D01*
X003108Y011495D02*
X001792Y011495D01*
X001792Y011516D02*
X003108Y011516D01*
X003108Y011537D02*
X001792Y011537D01*
X001792Y011558D02*
X003108Y011558D01*
X003108Y011579D02*
X001792Y011579D01*
X001792Y011600D02*
X003108Y011600D01*
X003108Y011621D02*
X001792Y011621D01*
X001792Y011642D02*
X003108Y011642D01*
X003108Y011663D02*
X001792Y011663D01*
X001792Y011684D02*
X003108Y011684D01*
X003108Y011705D02*
X001792Y011705D01*
X001792Y011726D02*
X003108Y011726D01*
X003108Y011747D02*
X001792Y011747D01*
X001792Y011768D02*
X003108Y011768D01*
X003108Y011789D02*
X001792Y011789D01*
X001792Y011810D02*
X003108Y011810D01*
X003108Y011831D02*
X001792Y011831D01*
X001792Y011852D02*
X003108Y011852D01*
X003108Y011873D02*
X001792Y011873D01*
X001792Y011894D02*
X003108Y011894D01*
X003108Y011915D02*
X001792Y011915D01*
X001792Y011936D02*
X003108Y011936D01*
X003108Y011957D02*
X001792Y011957D01*
X001792Y011978D02*
X003108Y011978D01*
X003108Y011999D02*
X001792Y011999D01*
X001792Y012020D02*
X003108Y012020D01*
X003108Y012041D02*
X001792Y012041D01*
X001792Y012062D02*
X003108Y012062D01*
X003108Y012083D02*
X001792Y012083D01*
X001792Y012905D02*
X001792Y013631D01*
X003108Y013631D01*
X003108Y012905D01*
X001792Y012905D01*
X001792Y012926D02*
X003108Y012926D01*
X003108Y012947D02*
X001792Y012947D01*
X001792Y012968D02*
X003108Y012968D01*
X003108Y012989D02*
X001792Y012989D01*
X001792Y013010D02*
X003108Y013010D01*
X003108Y013031D02*
X001792Y013031D01*
X001792Y013052D02*
X003108Y013052D01*
X003108Y013073D02*
X001792Y013073D01*
X001792Y013094D02*
X003108Y013094D01*
X003108Y013115D02*
X001792Y013115D01*
X001792Y013136D02*
X003108Y013136D01*
X003108Y013157D02*
X001792Y013157D01*
X001792Y013178D02*
X003108Y013178D01*
X003108Y013199D02*
X001792Y013199D01*
X001792Y013220D02*
X003108Y013220D01*
X003108Y013241D02*
X001792Y013241D01*
X001792Y013262D02*
X003108Y013262D01*
X003108Y013283D02*
X001792Y013283D01*
X001792Y013304D02*
X003108Y013304D01*
X003108Y013325D02*
X001792Y013325D01*
X001792Y013346D02*
X003108Y013346D01*
X003108Y013367D02*
X001792Y013367D01*
X001792Y013388D02*
X003108Y013388D01*
X003108Y013409D02*
X001792Y013409D01*
X001792Y013430D02*
X003108Y013430D01*
X003108Y013451D02*
X001792Y013451D01*
X001792Y013472D02*
X003108Y013472D01*
X003108Y013493D02*
X001792Y013493D01*
X001792Y013514D02*
X003108Y013514D01*
X003108Y013535D02*
X001792Y013535D01*
X001792Y013556D02*
X003108Y013556D01*
X003108Y013577D02*
X001792Y013577D01*
X001792Y013598D02*
X003108Y013598D01*
X003108Y013619D02*
X001792Y013619D01*
D16*
X005494Y009368D02*
X005494Y009192D01*
X004606Y009192D01*
X004606Y009368D01*
X005494Y009368D01*
X005494Y009211D02*
X004606Y009211D01*
X004606Y009230D02*
X005494Y009230D01*
X005494Y009249D02*
X004606Y009249D01*
X004606Y009268D02*
X005494Y009268D01*
X005494Y009287D02*
X004606Y009287D01*
X004606Y009306D02*
X005494Y009306D01*
X005494Y009325D02*
X004606Y009325D01*
X004606Y009344D02*
X005494Y009344D01*
X005494Y009363D02*
X004606Y009363D01*
X005494Y009053D02*
X005494Y008877D01*
X004606Y008877D01*
X004606Y009053D01*
X005494Y009053D01*
X005494Y008896D02*
X004606Y008896D01*
X004606Y008915D02*
X005494Y008915D01*
X005494Y008934D02*
X004606Y008934D01*
X004606Y008953D02*
X005494Y008953D01*
X005494Y008972D02*
X004606Y008972D01*
X004606Y008991D02*
X005494Y008991D01*
X005494Y009010D02*
X004606Y009010D01*
X004606Y009029D02*
X005494Y009029D01*
X005494Y009048D02*
X004606Y009048D01*
X005494Y008738D02*
X005494Y008562D01*
X004606Y008562D01*
X004606Y008738D01*
X005494Y008738D01*
X005494Y008581D02*
X004606Y008581D01*
X004606Y008600D02*
X005494Y008600D01*
X005494Y008619D02*
X004606Y008619D01*
X004606Y008638D02*
X005494Y008638D01*
X005494Y008657D02*
X004606Y008657D01*
X004606Y008676D02*
X005494Y008676D01*
X005494Y008695D02*
X004606Y008695D01*
X004606Y008714D02*
X005494Y008714D01*
X005494Y008733D02*
X004606Y008733D01*
X005494Y008423D02*
X005494Y008247D01*
X004606Y008247D01*
X004606Y008423D01*
X005494Y008423D01*
X005494Y008266D02*
X004606Y008266D01*
X004606Y008285D02*
X005494Y008285D01*
X005494Y008304D02*
X004606Y008304D01*
X004606Y008323D02*
X005494Y008323D01*
X005494Y008342D02*
X004606Y008342D01*
X004606Y008361D02*
X005494Y008361D01*
X005494Y008380D02*
X004606Y008380D01*
X004606Y008399D02*
X005494Y008399D01*
X005494Y008418D02*
X004606Y008418D01*
X005494Y008108D02*
X005494Y007932D01*
X004606Y007932D01*
X004606Y008108D01*
X005494Y008108D01*
X005494Y007951D02*
X004606Y007951D01*
X004606Y007970D02*
X005494Y007970D01*
X005494Y007989D02*
X004606Y007989D01*
X004606Y008008D02*
X005494Y008008D01*
X005494Y008027D02*
X004606Y008027D01*
X004606Y008046D02*
X005494Y008046D01*
X005494Y008065D02*
X004606Y008065D01*
X004606Y008084D02*
X005494Y008084D01*
X005494Y008103D02*
X004606Y008103D01*
X006313Y006932D02*
X006687Y006932D01*
X006313Y006932D02*
X006313Y007344D01*
X006687Y007344D01*
X006687Y006932D01*
X006687Y006951D02*
X006313Y006951D01*
X006313Y006970D02*
X006687Y006970D01*
X006687Y006989D02*
X006313Y006989D01*
X006313Y007008D02*
X006687Y007008D01*
X006687Y007027D02*
X006313Y007027D01*
X006313Y007046D02*
X006687Y007046D01*
X006687Y007065D02*
X006313Y007065D01*
X006313Y007084D02*
X006687Y007084D01*
X006687Y007103D02*
X006313Y007103D01*
X006313Y007122D02*
X006687Y007122D01*
X006687Y007141D02*
X006313Y007141D01*
X006313Y007160D02*
X006687Y007160D01*
X006687Y007179D02*
X006313Y007179D01*
X006313Y007198D02*
X006687Y007198D01*
X006687Y007217D02*
X006313Y007217D01*
X006313Y007236D02*
X006687Y007236D01*
X006687Y007255D02*
X006313Y007255D01*
X006313Y007274D02*
X006687Y007274D01*
X006687Y007293D02*
X006313Y007293D01*
X006313Y007312D02*
X006687Y007312D01*
X006687Y007331D02*
X006313Y007331D01*
X006983Y006932D02*
X007357Y006932D01*
X006983Y006932D02*
X006983Y007344D01*
X007357Y007344D01*
X007357Y006932D01*
X007357Y006951D02*
X006983Y006951D01*
X006983Y006970D02*
X007357Y006970D01*
X007357Y006989D02*
X006983Y006989D01*
X006983Y007008D02*
X007357Y007008D01*
X007357Y007027D02*
X006983Y007027D01*
X006983Y007046D02*
X007357Y007046D01*
X007357Y007065D02*
X006983Y007065D01*
X006983Y007084D02*
X007357Y007084D01*
X007357Y007103D02*
X006983Y007103D01*
X006983Y007122D02*
X007357Y007122D01*
X007357Y007141D02*
X006983Y007141D01*
X006983Y007160D02*
X007357Y007160D01*
X007357Y007179D02*
X006983Y007179D01*
X006983Y007198D02*
X007357Y007198D01*
X007357Y007217D02*
X006983Y007217D01*
X006983Y007236D02*
X007357Y007236D01*
X007357Y007255D02*
X006983Y007255D01*
X006983Y007274D02*
X007357Y007274D01*
X007357Y007293D02*
X006983Y007293D01*
X006983Y007312D02*
X007357Y007312D01*
X007357Y007331D02*
X006983Y007331D01*
X006998Y006344D02*
X007372Y006344D01*
X006998Y006344D02*
X006998Y006756D01*
X007372Y006756D01*
X007372Y006344D01*
X007372Y006363D02*
X006998Y006363D01*
X006998Y006382D02*
X007372Y006382D01*
X007372Y006401D02*
X006998Y006401D01*
X006998Y006420D02*
X007372Y006420D01*
X007372Y006439D02*
X006998Y006439D01*
X006998Y006458D02*
X007372Y006458D01*
X007372Y006477D02*
X006998Y006477D01*
X006998Y006496D02*
X007372Y006496D01*
X007372Y006515D02*
X006998Y006515D01*
X006998Y006534D02*
X007372Y006534D01*
X007372Y006553D02*
X006998Y006553D01*
X006998Y006572D02*
X007372Y006572D01*
X007372Y006591D02*
X006998Y006591D01*
X006998Y006610D02*
X007372Y006610D01*
X007372Y006629D02*
X006998Y006629D01*
X006998Y006648D02*
X007372Y006648D01*
X007372Y006667D02*
X006998Y006667D01*
X006998Y006686D02*
X007372Y006686D01*
X007372Y006705D02*
X006998Y006705D01*
X006998Y006724D02*
X007372Y006724D01*
X007372Y006743D02*
X006998Y006743D01*
X006702Y006344D02*
X006328Y006344D01*
X006328Y006756D01*
X006702Y006756D01*
X006702Y006344D01*
X006702Y006363D02*
X006328Y006363D01*
X006328Y006382D02*
X006702Y006382D01*
X006702Y006401D02*
X006328Y006401D01*
X006328Y006420D02*
X006702Y006420D01*
X006702Y006439D02*
X006328Y006439D01*
X006328Y006458D02*
X006702Y006458D01*
X006702Y006477D02*
X006328Y006477D01*
X006328Y006496D02*
X006702Y006496D01*
X006702Y006515D02*
X006328Y006515D01*
X006328Y006534D02*
X006702Y006534D01*
X006702Y006553D02*
X006328Y006553D01*
X006328Y006572D02*
X006702Y006572D01*
X006702Y006591D02*
X006328Y006591D01*
X006328Y006610D02*
X006702Y006610D01*
X006702Y006629D02*
X006328Y006629D01*
X006328Y006648D02*
X006702Y006648D01*
X006702Y006667D02*
X006328Y006667D01*
X006328Y006686D02*
X006702Y006686D01*
X006702Y006705D02*
X006328Y006705D01*
X006328Y006724D02*
X006702Y006724D01*
X006702Y006743D02*
X006328Y006743D01*
X013014Y003762D02*
X013014Y003388D01*
X013014Y003762D02*
X013426Y003762D01*
X013426Y003388D01*
X013014Y003388D01*
X013014Y003407D02*
X013426Y003407D01*
X013426Y003426D02*
X013014Y003426D01*
X013014Y003445D02*
X013426Y003445D01*
X013426Y003464D02*
X013014Y003464D01*
X013014Y003483D02*
X013426Y003483D01*
X013426Y003502D02*
X013014Y003502D01*
X013014Y003521D02*
X013426Y003521D01*
X013426Y003540D02*
X013014Y003540D01*
X013014Y003559D02*
X013426Y003559D01*
X013426Y003578D02*
X013014Y003578D01*
X013014Y003597D02*
X013426Y003597D01*
X013426Y003616D02*
X013014Y003616D01*
X013014Y003635D02*
X013426Y003635D01*
X013426Y003654D02*
X013014Y003654D01*
X013014Y003673D02*
X013426Y003673D01*
X013426Y003692D02*
X013014Y003692D01*
X013014Y003711D02*
X013426Y003711D01*
X013426Y003730D02*
X013014Y003730D01*
X013014Y003749D02*
X013426Y003749D01*
X013014Y003092D02*
X013014Y002718D01*
X013014Y003092D02*
X013426Y003092D01*
X013426Y002718D01*
X013014Y002718D01*
X013014Y002737D02*
X013426Y002737D01*
X013426Y002756D02*
X013014Y002756D01*
X013014Y002775D02*
X013426Y002775D01*
X013426Y002794D02*
X013014Y002794D01*
X013014Y002813D02*
X013426Y002813D01*
X013426Y002832D02*
X013014Y002832D01*
X013014Y002851D02*
X013426Y002851D01*
X013426Y002870D02*
X013014Y002870D01*
X013014Y002889D02*
X013426Y002889D01*
X013426Y002908D02*
X013014Y002908D01*
X013014Y002927D02*
X013426Y002927D01*
X013426Y002946D02*
X013014Y002946D01*
X013014Y002965D02*
X013426Y002965D01*
X013426Y002984D02*
X013014Y002984D01*
X013014Y003003D02*
X013426Y003003D01*
X013426Y003022D02*
X013014Y003022D01*
X013014Y003041D02*
X013426Y003041D01*
X013426Y003060D02*
X013014Y003060D01*
X013014Y003079D02*
X013426Y003079D01*
X014312Y005310D02*
X014312Y005486D01*
X014312Y005310D02*
X014076Y005310D01*
X014076Y005486D01*
X014312Y005486D01*
X014312Y005329D02*
X014076Y005329D01*
X014076Y005348D02*
X014312Y005348D01*
X014312Y005367D02*
X014076Y005367D01*
X014076Y005386D02*
X014312Y005386D01*
X014312Y005405D02*
X014076Y005405D01*
X014076Y005424D02*
X014312Y005424D01*
X014312Y005443D02*
X014076Y005443D01*
X014076Y005462D02*
X014312Y005462D01*
X014312Y005481D02*
X014076Y005481D01*
X014312Y005625D02*
X014312Y005801D01*
X014312Y005625D02*
X014076Y005625D01*
X014076Y005801D01*
X014312Y005801D01*
X014312Y005644D02*
X014076Y005644D01*
X014076Y005663D02*
X014312Y005663D01*
X014312Y005682D02*
X014076Y005682D01*
X014076Y005701D02*
X014312Y005701D01*
X014312Y005720D02*
X014076Y005720D01*
X014076Y005739D02*
X014312Y005739D01*
X014312Y005758D02*
X014076Y005758D01*
X014076Y005777D02*
X014312Y005777D01*
X014312Y005796D02*
X014076Y005796D01*
X014312Y005939D02*
X014312Y006115D01*
X014312Y005939D02*
X014076Y005939D01*
X014076Y006115D01*
X014312Y006115D01*
X014312Y005958D02*
X014076Y005958D01*
X014076Y005977D02*
X014312Y005977D01*
X014312Y005996D02*
X014076Y005996D01*
X014076Y006015D02*
X014312Y006015D01*
X014312Y006034D02*
X014076Y006034D01*
X014076Y006053D02*
X014312Y006053D01*
X014312Y006072D02*
X014076Y006072D01*
X014076Y006091D02*
X014312Y006091D01*
X014312Y006110D02*
X014076Y006110D01*
X014312Y006254D02*
X014312Y006430D01*
X014312Y006254D02*
X014076Y006254D01*
X014076Y006430D01*
X014312Y006430D01*
X014312Y006273D02*
X014076Y006273D01*
X014076Y006292D02*
X014312Y006292D01*
X014312Y006311D02*
X014076Y006311D01*
X014076Y006330D02*
X014312Y006330D01*
X014312Y006349D02*
X014076Y006349D01*
X014076Y006368D02*
X014312Y006368D01*
X014312Y006387D02*
X014076Y006387D01*
X014076Y006406D02*
X014312Y006406D01*
X014312Y006425D02*
X014076Y006425D01*
X014844Y006430D02*
X014844Y006254D01*
X014608Y006254D01*
X014608Y006430D01*
X014844Y006430D01*
X014844Y006273D02*
X014608Y006273D01*
X014608Y006292D02*
X014844Y006292D01*
X014844Y006311D02*
X014608Y006311D01*
X014608Y006330D02*
X014844Y006330D01*
X014844Y006349D02*
X014608Y006349D01*
X014608Y006368D02*
X014844Y006368D01*
X014844Y006387D02*
X014608Y006387D01*
X014608Y006406D02*
X014844Y006406D01*
X014844Y006425D02*
X014608Y006425D01*
X014844Y006115D02*
X014844Y005939D01*
X014608Y005939D01*
X014608Y006115D01*
X014844Y006115D01*
X014844Y005958D02*
X014608Y005958D01*
X014608Y005977D02*
X014844Y005977D01*
X014844Y005996D02*
X014608Y005996D01*
X014608Y006015D02*
X014844Y006015D01*
X014844Y006034D02*
X014608Y006034D01*
X014608Y006053D02*
X014844Y006053D01*
X014844Y006072D02*
X014608Y006072D01*
X014608Y006091D02*
X014844Y006091D01*
X014844Y006110D02*
X014608Y006110D01*
X014844Y005801D02*
X014844Y005625D01*
X014608Y005625D01*
X014608Y005801D01*
X014844Y005801D01*
X014844Y005644D02*
X014608Y005644D01*
X014608Y005663D02*
X014844Y005663D01*
X014844Y005682D02*
X014608Y005682D01*
X014608Y005701D02*
X014844Y005701D01*
X014844Y005720D02*
X014608Y005720D01*
X014608Y005739D02*
X014844Y005739D01*
X014844Y005758D02*
X014608Y005758D01*
X014608Y005777D02*
X014844Y005777D01*
X014844Y005796D02*
X014608Y005796D01*
X014844Y005486D02*
X014844Y005310D01*
X014608Y005310D01*
X014608Y005486D01*
X014844Y005486D01*
X014844Y005329D02*
X014608Y005329D01*
X014608Y005348D02*
X014844Y005348D01*
X014844Y005367D02*
X014608Y005367D01*
X014608Y005386D02*
X014844Y005386D01*
X014844Y005405D02*
X014608Y005405D01*
X014608Y005424D02*
X014844Y005424D01*
X014844Y005443D02*
X014608Y005443D01*
X014608Y005462D02*
X014844Y005462D01*
X014844Y005481D02*
X014608Y005481D01*
X017391Y011607D02*
X017843Y011607D01*
X017843Y011233D01*
X017391Y011233D01*
X017391Y011607D01*
X017391Y011252D02*
X017843Y011252D01*
X017843Y011271D02*
X017391Y011271D01*
X017391Y011290D02*
X017843Y011290D01*
X017843Y011309D02*
X017391Y011309D01*
X017391Y011328D02*
X017843Y011328D01*
X017843Y011347D02*
X017391Y011347D01*
X017391Y011366D02*
X017843Y011366D01*
X017843Y011385D02*
X017391Y011385D01*
X017391Y011404D02*
X017843Y011404D01*
X017843Y011423D02*
X017391Y011423D01*
X017391Y011442D02*
X017843Y011442D01*
X017843Y011461D02*
X017391Y011461D01*
X017391Y011480D02*
X017843Y011480D01*
X017843Y011499D02*
X017391Y011499D01*
X017391Y011518D02*
X017843Y011518D01*
X017843Y011537D02*
X017391Y011537D01*
X017391Y011556D02*
X017843Y011556D01*
X017843Y011575D02*
X017391Y011575D01*
X017391Y011594D02*
X017843Y011594D01*
X018257Y011607D02*
X018709Y011607D01*
X018709Y011233D01*
X018257Y011233D01*
X018257Y011607D01*
X018257Y011252D02*
X018709Y011252D01*
X018709Y011271D02*
X018257Y011271D01*
X018257Y011290D02*
X018709Y011290D01*
X018709Y011309D02*
X018257Y011309D01*
X018257Y011328D02*
X018709Y011328D01*
X018709Y011347D02*
X018257Y011347D01*
X018257Y011366D02*
X018709Y011366D01*
X018709Y011385D02*
X018257Y011385D01*
X018257Y011404D02*
X018709Y011404D01*
X018709Y011423D02*
X018257Y011423D01*
X018257Y011442D02*
X018709Y011442D01*
X018709Y011461D02*
X018257Y011461D01*
X018257Y011480D02*
X018709Y011480D01*
X018709Y011499D02*
X018257Y011499D01*
X018257Y011518D02*
X018709Y011518D01*
X018709Y011537D02*
X018257Y011537D01*
X018257Y011556D02*
X018709Y011556D01*
X018709Y011575D02*
X018257Y011575D01*
X018257Y011594D02*
X018709Y011594D01*
X025019Y005837D02*
X025019Y005463D01*
X025019Y005837D02*
X025431Y005837D01*
X025431Y005463D01*
X025019Y005463D01*
X025019Y005482D02*
X025431Y005482D01*
X025431Y005501D02*
X025019Y005501D01*
X025019Y005520D02*
X025431Y005520D01*
X025431Y005539D02*
X025019Y005539D01*
X025019Y005558D02*
X025431Y005558D01*
X025431Y005577D02*
X025019Y005577D01*
X025019Y005596D02*
X025431Y005596D01*
X025431Y005615D02*
X025019Y005615D01*
X025019Y005634D02*
X025431Y005634D01*
X025431Y005653D02*
X025019Y005653D01*
X025019Y005672D02*
X025431Y005672D01*
X025431Y005691D02*
X025019Y005691D01*
X025019Y005710D02*
X025431Y005710D01*
X025431Y005729D02*
X025019Y005729D01*
X025019Y005748D02*
X025431Y005748D01*
X025431Y005767D02*
X025019Y005767D01*
X025019Y005786D02*
X025431Y005786D01*
X025431Y005805D02*
X025019Y005805D01*
X025019Y005824D02*
X025431Y005824D01*
X025019Y005167D02*
X025019Y004793D01*
X025019Y005167D02*
X025431Y005167D01*
X025431Y004793D01*
X025019Y004793D01*
X025019Y004812D02*
X025431Y004812D01*
X025431Y004831D02*
X025019Y004831D01*
X025019Y004850D02*
X025431Y004850D01*
X025431Y004869D02*
X025019Y004869D01*
X025019Y004888D02*
X025431Y004888D01*
X025431Y004907D02*
X025019Y004907D01*
X025019Y004926D02*
X025431Y004926D01*
X025431Y004945D02*
X025019Y004945D01*
X025019Y004964D02*
X025431Y004964D01*
X025431Y004983D02*
X025019Y004983D01*
X025019Y005002D02*
X025431Y005002D01*
X025431Y005021D02*
X025019Y005021D01*
X025019Y005040D02*
X025431Y005040D01*
X025431Y005059D02*
X025019Y005059D01*
X025019Y005078D02*
X025431Y005078D01*
X025431Y005097D02*
X025019Y005097D01*
X025019Y005116D02*
X025431Y005116D01*
X025431Y005135D02*
X025019Y005135D01*
X025019Y005154D02*
X025431Y005154D01*
D17*
X017293Y008127D02*
X017005Y008127D01*
X017293Y008127D02*
X017293Y008105D01*
X017005Y008105D01*
X017005Y008127D01*
X017005Y008324D02*
X017293Y008324D01*
X017293Y008302D01*
X017005Y008302D01*
X017005Y008324D01*
X017005Y008520D02*
X017293Y008520D01*
X017293Y008498D01*
X017005Y008498D01*
X017005Y008520D01*
X017005Y008717D02*
X017293Y008717D01*
X017293Y008695D01*
X017005Y008695D01*
X017005Y008717D01*
X017005Y008914D02*
X017293Y008914D01*
X017293Y008892D01*
X017005Y008892D01*
X017005Y008914D01*
X017005Y009111D02*
X017293Y009111D01*
X017293Y009089D01*
X017005Y009089D01*
X017005Y009111D01*
X017005Y009308D02*
X017293Y009308D01*
X017293Y009286D01*
X017005Y009286D01*
X017005Y009308D01*
X017005Y009505D02*
X017293Y009505D01*
X017293Y009483D01*
X017005Y009483D01*
X017005Y009505D01*
X017005Y009702D02*
X017293Y009702D01*
X017293Y009680D01*
X017005Y009680D01*
X017005Y009702D01*
X017005Y009898D02*
X017293Y009898D01*
X017293Y009876D01*
X017005Y009876D01*
X017005Y009898D01*
X017005Y010095D02*
X017293Y010095D01*
X017293Y010073D01*
X017005Y010073D01*
X017005Y010095D01*
X016823Y010255D02*
X016823Y010543D01*
X016845Y010543D01*
X016845Y010255D01*
X016823Y010255D01*
X016823Y010341D02*
X016845Y010341D01*
X016845Y010427D02*
X016823Y010427D01*
X016823Y010513D02*
X016845Y010513D01*
X016626Y010543D02*
X016626Y010255D01*
X016626Y010543D02*
X016648Y010543D01*
X016648Y010255D01*
X016626Y010255D01*
X016626Y010341D02*
X016648Y010341D01*
X016648Y010427D02*
X016626Y010427D01*
X016626Y010513D02*
X016648Y010513D01*
X016430Y010543D02*
X016430Y010255D01*
X016430Y010543D02*
X016452Y010543D01*
X016452Y010255D01*
X016430Y010255D01*
X016430Y010341D02*
X016452Y010341D01*
X016452Y010427D02*
X016430Y010427D01*
X016430Y010513D02*
X016452Y010513D01*
X016233Y010543D02*
X016233Y010255D01*
X016233Y010543D02*
X016255Y010543D01*
X016255Y010255D01*
X016233Y010255D01*
X016233Y010341D02*
X016255Y010341D01*
X016255Y010427D02*
X016233Y010427D01*
X016233Y010513D02*
X016255Y010513D01*
X016036Y010543D02*
X016036Y010255D01*
X016036Y010543D02*
X016058Y010543D01*
X016058Y010255D01*
X016036Y010255D01*
X016036Y010341D02*
X016058Y010341D01*
X016058Y010427D02*
X016036Y010427D01*
X016036Y010513D02*
X016058Y010513D01*
X015839Y010543D02*
X015839Y010255D01*
X015839Y010543D02*
X015861Y010543D01*
X015861Y010255D01*
X015839Y010255D01*
X015839Y010341D02*
X015861Y010341D01*
X015861Y010427D02*
X015839Y010427D01*
X015839Y010513D02*
X015861Y010513D01*
X015642Y010543D02*
X015642Y010255D01*
X015642Y010543D02*
X015664Y010543D01*
X015664Y010255D01*
X015642Y010255D01*
X015642Y010341D02*
X015664Y010341D01*
X015664Y010427D02*
X015642Y010427D01*
X015642Y010513D02*
X015664Y010513D01*
X015445Y010543D02*
X015445Y010255D01*
X015445Y010543D02*
X015467Y010543D01*
X015467Y010255D01*
X015445Y010255D01*
X015445Y010341D02*
X015467Y010341D01*
X015467Y010427D02*
X015445Y010427D01*
X015445Y010513D02*
X015467Y010513D01*
X015248Y010543D02*
X015248Y010255D01*
X015248Y010543D02*
X015270Y010543D01*
X015270Y010255D01*
X015248Y010255D01*
X015248Y010341D02*
X015270Y010341D01*
X015270Y010427D02*
X015248Y010427D01*
X015248Y010513D02*
X015270Y010513D01*
X015052Y010543D02*
X015052Y010255D01*
X015052Y010543D02*
X015074Y010543D01*
X015074Y010255D01*
X015052Y010255D01*
X015052Y010341D02*
X015074Y010341D01*
X015074Y010427D02*
X015052Y010427D01*
X015052Y010513D02*
X015074Y010513D01*
X014855Y010543D02*
X014855Y010255D01*
X014855Y010543D02*
X014877Y010543D01*
X014877Y010255D01*
X014855Y010255D01*
X014855Y010341D02*
X014877Y010341D01*
X014877Y010427D02*
X014855Y010427D01*
X014855Y010513D02*
X014877Y010513D01*
X014695Y010073D02*
X014407Y010073D01*
X014407Y010095D01*
X014695Y010095D01*
X014695Y010073D01*
X014695Y009876D02*
X014407Y009876D01*
X014407Y009898D01*
X014695Y009898D01*
X014695Y009876D01*
X014695Y009680D02*
X014407Y009680D01*
X014407Y009702D01*
X014695Y009702D01*
X014695Y009680D01*
X014695Y009483D02*
X014407Y009483D01*
X014407Y009505D01*
X014695Y009505D01*
X014695Y009483D01*
X014695Y009286D02*
X014407Y009286D01*
X014407Y009308D01*
X014695Y009308D01*
X014695Y009286D01*
X014695Y009089D02*
X014407Y009089D01*
X014407Y009111D01*
X014695Y009111D01*
X014695Y009089D01*
X014695Y008892D02*
X014407Y008892D01*
X014407Y008914D01*
X014695Y008914D01*
X014695Y008892D01*
X014695Y008695D02*
X014407Y008695D01*
X014407Y008717D01*
X014695Y008717D01*
X014695Y008695D01*
X014695Y008498D02*
X014407Y008498D01*
X014407Y008520D01*
X014695Y008520D01*
X014695Y008498D01*
X014695Y008302D02*
X014407Y008302D01*
X014407Y008324D01*
X014695Y008324D01*
X014695Y008302D01*
X014695Y008105D02*
X014407Y008105D01*
X014407Y008127D01*
X014695Y008127D01*
X014695Y008105D01*
X014877Y007945D02*
X014877Y007657D01*
X014855Y007657D01*
X014855Y007945D01*
X014877Y007945D01*
X014877Y007743D02*
X014855Y007743D01*
X014855Y007829D02*
X014877Y007829D01*
X014877Y007915D02*
X014855Y007915D01*
X015074Y007945D02*
X015074Y007657D01*
X015052Y007657D01*
X015052Y007945D01*
X015074Y007945D01*
X015074Y007743D02*
X015052Y007743D01*
X015052Y007829D02*
X015074Y007829D01*
X015074Y007915D02*
X015052Y007915D01*
X015270Y007935D02*
X015270Y007647D01*
X015248Y007647D01*
X015248Y007935D01*
X015270Y007935D01*
X015270Y007733D02*
X015248Y007733D01*
X015248Y007819D02*
X015270Y007819D01*
X015270Y007905D02*
X015248Y007905D01*
X015467Y007935D02*
X015467Y007647D01*
X015445Y007647D01*
X015445Y007935D01*
X015467Y007935D01*
X015467Y007733D02*
X015445Y007733D01*
X015445Y007819D02*
X015467Y007819D01*
X015467Y007905D02*
X015445Y007905D01*
X015664Y007945D02*
X015664Y007657D01*
X015642Y007657D01*
X015642Y007945D01*
X015664Y007945D01*
X015664Y007743D02*
X015642Y007743D01*
X015642Y007829D02*
X015664Y007829D01*
X015664Y007915D02*
X015642Y007915D01*
X015861Y007945D02*
X015861Y007657D01*
X015839Y007657D01*
X015839Y007945D01*
X015861Y007945D01*
X015861Y007743D02*
X015839Y007743D01*
X015839Y007829D02*
X015861Y007829D01*
X015861Y007915D02*
X015839Y007915D01*
X016058Y007945D02*
X016058Y007657D01*
X016036Y007657D01*
X016036Y007945D01*
X016058Y007945D01*
X016058Y007743D02*
X016036Y007743D01*
X016036Y007829D02*
X016058Y007829D01*
X016058Y007915D02*
X016036Y007915D01*
X016255Y007945D02*
X016255Y007657D01*
X016233Y007657D01*
X016233Y007945D01*
X016255Y007945D01*
X016255Y007743D02*
X016233Y007743D01*
X016233Y007829D02*
X016255Y007829D01*
X016255Y007915D02*
X016233Y007915D01*
X016452Y007945D02*
X016452Y007657D01*
X016430Y007657D01*
X016430Y007945D01*
X016452Y007945D01*
X016452Y007743D02*
X016430Y007743D01*
X016430Y007829D02*
X016452Y007829D01*
X016452Y007915D02*
X016430Y007915D01*
X016648Y007945D02*
X016648Y007657D01*
X016626Y007657D01*
X016626Y007945D01*
X016648Y007945D01*
X016648Y007743D02*
X016626Y007743D01*
X016626Y007829D02*
X016648Y007829D01*
X016648Y007915D02*
X016626Y007915D01*
X016845Y007945D02*
X016845Y007657D01*
X016823Y007657D01*
X016823Y007945D01*
X016845Y007945D01*
X016845Y007743D02*
X016823Y007743D01*
X016823Y007829D02*
X016845Y007829D01*
X016845Y007915D02*
X016823Y007915D01*
D18*
X016705Y008245D02*
X016705Y009955D01*
X016705Y008245D02*
X014995Y008245D01*
X014995Y009955D01*
X016705Y009955D01*
X016705Y008434D02*
X014995Y008434D01*
X014995Y008623D02*
X016705Y008623D01*
X016705Y008812D02*
X014995Y008812D01*
X014995Y009001D02*
X016705Y009001D01*
X016705Y009190D02*
X014995Y009190D01*
X014995Y009379D02*
X016705Y009379D01*
X016705Y009568D02*
X014995Y009568D01*
X014995Y009757D02*
X016705Y009757D01*
X016705Y009946D02*
X014995Y009946D01*
D19*
X012023Y003139D02*
X011825Y003139D01*
X012023Y003139D02*
X012023Y002685D01*
X011825Y002685D01*
X011825Y003139D01*
X011825Y002703D02*
X012023Y002703D01*
X012023Y002721D02*
X011825Y002721D01*
X011825Y002739D02*
X012023Y002739D01*
X012023Y002757D02*
X011825Y002757D01*
X011825Y002775D02*
X012023Y002775D01*
X012023Y002793D02*
X011825Y002793D01*
X011825Y002811D02*
X012023Y002811D01*
X012023Y002829D02*
X011825Y002829D01*
X011825Y002847D02*
X012023Y002847D01*
X012023Y002865D02*
X011825Y002865D01*
X011825Y002883D02*
X012023Y002883D01*
X012023Y002901D02*
X011825Y002901D01*
X011825Y002919D02*
X012023Y002919D01*
X012023Y002937D02*
X011825Y002937D01*
X011825Y002955D02*
X012023Y002955D01*
X012023Y002973D02*
X011825Y002973D01*
X011825Y002991D02*
X012023Y002991D01*
X012023Y003009D02*
X011825Y003009D01*
X011825Y003027D02*
X012023Y003027D01*
X012023Y003045D02*
X011825Y003045D01*
X011825Y003063D02*
X012023Y003063D01*
X012023Y003081D02*
X011825Y003081D01*
X011825Y003099D02*
X012023Y003099D01*
X012023Y003117D02*
X011825Y003117D01*
X011825Y003135D02*
X012023Y003135D01*
X011649Y003139D02*
X011451Y003139D01*
X011649Y003139D02*
X011649Y002685D01*
X011451Y002685D01*
X011451Y003139D01*
X011451Y002703D02*
X011649Y002703D01*
X011649Y002721D02*
X011451Y002721D01*
X011451Y002739D02*
X011649Y002739D01*
X011649Y002757D02*
X011451Y002757D01*
X011451Y002775D02*
X011649Y002775D01*
X011649Y002793D02*
X011451Y002793D01*
X011451Y002811D02*
X011649Y002811D01*
X011649Y002829D02*
X011451Y002829D01*
X011451Y002847D02*
X011649Y002847D01*
X011649Y002865D02*
X011451Y002865D01*
X011451Y002883D02*
X011649Y002883D01*
X011649Y002901D02*
X011451Y002901D01*
X011451Y002919D02*
X011649Y002919D01*
X011649Y002937D02*
X011451Y002937D01*
X011451Y002955D02*
X011649Y002955D01*
X011649Y002973D02*
X011451Y002973D01*
X011451Y002991D02*
X011649Y002991D01*
X011649Y003009D02*
X011451Y003009D01*
X011451Y003027D02*
X011649Y003027D01*
X011649Y003045D02*
X011451Y003045D01*
X011451Y003063D02*
X011649Y003063D01*
X011649Y003081D02*
X011451Y003081D01*
X011451Y003099D02*
X011649Y003099D01*
X011649Y003117D02*
X011451Y003117D01*
X011451Y003135D02*
X011649Y003135D01*
X011275Y003139D02*
X011077Y003139D01*
X011275Y003139D02*
X011275Y002685D01*
X011077Y002685D01*
X011077Y003139D01*
X011077Y002703D02*
X011275Y002703D01*
X011275Y002721D02*
X011077Y002721D01*
X011077Y002739D02*
X011275Y002739D01*
X011275Y002757D02*
X011077Y002757D01*
X011077Y002775D02*
X011275Y002775D01*
X011275Y002793D02*
X011077Y002793D01*
X011077Y002811D02*
X011275Y002811D01*
X011275Y002829D02*
X011077Y002829D01*
X011077Y002847D02*
X011275Y002847D01*
X011275Y002865D02*
X011077Y002865D01*
X011077Y002883D02*
X011275Y002883D01*
X011275Y002901D02*
X011077Y002901D01*
X011077Y002919D02*
X011275Y002919D01*
X011275Y002937D02*
X011077Y002937D01*
X011077Y002955D02*
X011275Y002955D01*
X011275Y002973D02*
X011077Y002973D01*
X011077Y002991D02*
X011275Y002991D01*
X011275Y003009D02*
X011077Y003009D01*
X011077Y003027D02*
X011275Y003027D01*
X011275Y003045D02*
X011077Y003045D01*
X011077Y003063D02*
X011275Y003063D01*
X011275Y003081D02*
X011077Y003081D01*
X011077Y003099D02*
X011275Y003099D01*
X011275Y003117D02*
X011077Y003117D01*
X011077Y003135D02*
X011275Y003135D01*
X011275Y002115D02*
X011077Y002115D01*
X011275Y002115D02*
X011275Y001661D01*
X011077Y001661D01*
X011077Y002115D01*
X011077Y001679D02*
X011275Y001679D01*
X011275Y001697D02*
X011077Y001697D01*
X011077Y001715D02*
X011275Y001715D01*
X011275Y001733D02*
X011077Y001733D01*
X011077Y001751D02*
X011275Y001751D01*
X011275Y001769D02*
X011077Y001769D01*
X011077Y001787D02*
X011275Y001787D01*
X011275Y001805D02*
X011077Y001805D01*
X011077Y001823D02*
X011275Y001823D01*
X011275Y001841D02*
X011077Y001841D01*
X011077Y001859D02*
X011275Y001859D01*
X011275Y001877D02*
X011077Y001877D01*
X011077Y001895D02*
X011275Y001895D01*
X011275Y001913D02*
X011077Y001913D01*
X011077Y001931D02*
X011275Y001931D01*
X011275Y001949D02*
X011077Y001949D01*
X011077Y001967D02*
X011275Y001967D01*
X011275Y001985D02*
X011077Y001985D01*
X011077Y002003D02*
X011275Y002003D01*
X011275Y002021D02*
X011077Y002021D01*
X011077Y002039D02*
X011275Y002039D01*
X011275Y002057D02*
X011077Y002057D01*
X011077Y002075D02*
X011275Y002075D01*
X011275Y002093D02*
X011077Y002093D01*
X011077Y002111D02*
X011275Y002111D01*
X011825Y002115D02*
X012023Y002115D01*
X012023Y001661D01*
X011825Y001661D01*
X011825Y002115D01*
X011825Y001679D02*
X012023Y001679D01*
X012023Y001697D02*
X011825Y001697D01*
X011825Y001715D02*
X012023Y001715D01*
X012023Y001733D02*
X011825Y001733D01*
X011825Y001751D02*
X012023Y001751D01*
X012023Y001769D02*
X011825Y001769D01*
X011825Y001787D02*
X012023Y001787D01*
X012023Y001805D02*
X011825Y001805D01*
X011825Y001823D02*
X012023Y001823D01*
X012023Y001841D02*
X011825Y001841D01*
X011825Y001859D02*
X012023Y001859D01*
X012023Y001877D02*
X011825Y001877D01*
X011825Y001895D02*
X012023Y001895D01*
X012023Y001913D02*
X011825Y001913D01*
X011825Y001931D02*
X012023Y001931D01*
X012023Y001949D02*
X011825Y001949D01*
X011825Y001967D02*
X012023Y001967D01*
X012023Y001985D02*
X011825Y001985D01*
X011825Y002003D02*
X012023Y002003D01*
X012023Y002021D02*
X011825Y002021D01*
X011825Y002039D02*
X012023Y002039D01*
X012023Y002057D02*
X011825Y002057D01*
X011825Y002075D02*
X012023Y002075D01*
X012023Y002093D02*
X011825Y002093D01*
X011825Y002111D02*
X012023Y002111D01*
D20*
X004368Y006537D02*
X004368Y007299D01*
X005288Y007299D01*
X005288Y006537D01*
X004368Y006537D01*
X004368Y006560D02*
X005288Y006560D01*
X005288Y006583D02*
X004368Y006583D01*
X004368Y006606D02*
X005288Y006606D01*
X005288Y006629D02*
X004368Y006629D01*
X004368Y006652D02*
X005288Y006652D01*
X005288Y006675D02*
X004368Y006675D01*
X004368Y006698D02*
X005288Y006698D01*
X005288Y006721D02*
X004368Y006721D01*
X004368Y006744D02*
X005288Y006744D01*
X005288Y006767D02*
X004368Y006767D01*
X004368Y006790D02*
X005288Y006790D01*
X005288Y006813D02*
X004368Y006813D01*
X004368Y006836D02*
X005288Y006836D01*
X005288Y006859D02*
X004368Y006859D01*
X004368Y006882D02*
X005288Y006882D01*
X005288Y006905D02*
X004368Y006905D01*
X004368Y006928D02*
X005288Y006928D01*
X005288Y006951D02*
X004368Y006951D01*
X004368Y006974D02*
X005288Y006974D01*
X005288Y006997D02*
X004368Y006997D01*
X004368Y007020D02*
X005288Y007020D01*
X005288Y007043D02*
X004368Y007043D01*
X004368Y007066D02*
X005288Y007066D01*
X005288Y007089D02*
X004368Y007089D01*
X004368Y007112D02*
X005288Y007112D01*
X005288Y007135D02*
X004368Y007135D01*
X004368Y007158D02*
X005288Y007158D01*
X005288Y007181D02*
X004368Y007181D01*
X004368Y007204D02*
X005288Y007204D01*
X005288Y007227D02*
X004368Y007227D01*
X004368Y007250D02*
X005288Y007250D01*
X005288Y007273D02*
X004368Y007273D01*
X004368Y007296D02*
X005288Y007296D01*
X002203Y007299D02*
X002203Y006537D01*
X002203Y007299D02*
X003123Y007299D01*
X003123Y006537D01*
X002203Y006537D01*
X002203Y006560D02*
X003123Y006560D01*
X003123Y006583D02*
X002203Y006583D01*
X002203Y006606D02*
X003123Y006606D01*
X003123Y006629D02*
X002203Y006629D01*
X002203Y006652D02*
X003123Y006652D01*
X003123Y006675D02*
X002203Y006675D01*
X002203Y006698D02*
X003123Y006698D01*
X003123Y006721D02*
X002203Y006721D01*
X002203Y006744D02*
X003123Y006744D01*
X003123Y006767D02*
X002203Y006767D01*
X002203Y006790D02*
X003123Y006790D01*
X003123Y006813D02*
X002203Y006813D01*
X002203Y006836D02*
X003123Y006836D01*
X003123Y006859D02*
X002203Y006859D01*
X002203Y006882D02*
X003123Y006882D01*
X003123Y006905D02*
X002203Y006905D01*
X002203Y006928D02*
X003123Y006928D01*
X003123Y006951D02*
X002203Y006951D01*
X002203Y006974D02*
X003123Y006974D01*
X003123Y006997D02*
X002203Y006997D01*
X002203Y007020D02*
X003123Y007020D01*
X003123Y007043D02*
X002203Y007043D01*
X002203Y007066D02*
X003123Y007066D01*
X003123Y007089D02*
X002203Y007089D01*
X002203Y007112D02*
X003123Y007112D01*
X003123Y007135D02*
X002203Y007135D01*
X002203Y007158D02*
X003123Y007158D01*
X003123Y007181D02*
X002203Y007181D01*
X002203Y007204D02*
X003123Y007204D01*
X003123Y007227D02*
X002203Y007227D01*
X002203Y007250D02*
X003123Y007250D01*
X003123Y007273D02*
X002203Y007273D01*
X002203Y007296D02*
X003123Y007296D01*
X002203Y010001D02*
X002203Y010763D01*
X003123Y010763D01*
X003123Y010001D01*
X002203Y010001D01*
X002203Y010024D02*
X003123Y010024D01*
X003123Y010047D02*
X002203Y010047D01*
X002203Y010070D02*
X003123Y010070D01*
X003123Y010093D02*
X002203Y010093D01*
X002203Y010116D02*
X003123Y010116D01*
X003123Y010139D02*
X002203Y010139D01*
X002203Y010162D02*
X003123Y010162D01*
X003123Y010185D02*
X002203Y010185D01*
X002203Y010208D02*
X003123Y010208D01*
X003123Y010231D02*
X002203Y010231D01*
X002203Y010254D02*
X003123Y010254D01*
X003123Y010277D02*
X002203Y010277D01*
X002203Y010300D02*
X003123Y010300D01*
X003123Y010323D02*
X002203Y010323D01*
X002203Y010346D02*
X003123Y010346D01*
X003123Y010369D02*
X002203Y010369D01*
X002203Y010392D02*
X003123Y010392D01*
X003123Y010415D02*
X002203Y010415D01*
X002203Y010438D02*
X003123Y010438D01*
X003123Y010461D02*
X002203Y010461D01*
X002203Y010484D02*
X003123Y010484D01*
X003123Y010507D02*
X002203Y010507D01*
X002203Y010530D02*
X003123Y010530D01*
X003123Y010553D02*
X002203Y010553D01*
X002203Y010576D02*
X003123Y010576D01*
X003123Y010599D02*
X002203Y010599D01*
X002203Y010622D02*
X003123Y010622D01*
X003123Y010645D02*
X002203Y010645D01*
X002203Y010668D02*
X003123Y010668D01*
X003123Y010691D02*
X002203Y010691D01*
X002203Y010714D02*
X003123Y010714D01*
X003123Y010737D02*
X002203Y010737D01*
X002203Y010760D02*
X003123Y010760D01*
X004368Y010763D02*
X004368Y010001D01*
X004368Y010763D02*
X005288Y010763D01*
X005288Y010001D01*
X004368Y010001D01*
X004368Y010024D02*
X005288Y010024D01*
X005288Y010047D02*
X004368Y010047D01*
X004368Y010070D02*
X005288Y010070D01*
X005288Y010093D02*
X004368Y010093D01*
X004368Y010116D02*
X005288Y010116D01*
X005288Y010139D02*
X004368Y010139D01*
X004368Y010162D02*
X005288Y010162D01*
X005288Y010185D02*
X004368Y010185D01*
X004368Y010208D02*
X005288Y010208D01*
X005288Y010231D02*
X004368Y010231D01*
X004368Y010254D02*
X005288Y010254D01*
X005288Y010277D02*
X004368Y010277D01*
X004368Y010300D02*
X005288Y010300D01*
X005288Y010323D02*
X004368Y010323D01*
X004368Y010346D02*
X005288Y010346D01*
X005288Y010369D02*
X004368Y010369D01*
X004368Y010392D02*
X005288Y010392D01*
X005288Y010415D02*
X004368Y010415D01*
X004368Y010438D02*
X005288Y010438D01*
X005288Y010461D02*
X004368Y010461D01*
X004368Y010484D02*
X005288Y010484D01*
X005288Y010507D02*
X004368Y010507D01*
X004368Y010530D02*
X005288Y010530D01*
X005288Y010553D02*
X004368Y010553D01*
X004368Y010576D02*
X005288Y010576D01*
X005288Y010599D02*
X004368Y010599D01*
X004368Y010622D02*
X005288Y010622D01*
X005288Y010645D02*
X004368Y010645D01*
X004368Y010668D02*
X005288Y010668D01*
X005288Y010691D02*
X004368Y010691D01*
X004368Y010714D02*
X005288Y010714D01*
X005288Y010737D02*
X004368Y010737D01*
X004368Y010760D02*
X005288Y010760D01*
D21*
X010451Y006291D02*
X010451Y005829D01*
X009589Y005829D01*
X009589Y006291D01*
X010451Y006291D01*
X010451Y005847D02*
X009589Y005847D01*
X009589Y005865D02*
X010451Y005865D01*
X010451Y005883D02*
X009589Y005883D01*
X009589Y005901D02*
X010451Y005901D01*
X010451Y005919D02*
X009589Y005919D01*
X009589Y005937D02*
X010451Y005937D01*
X010451Y005955D02*
X009589Y005955D01*
X009589Y005973D02*
X010451Y005973D01*
X010451Y005991D02*
X009589Y005991D01*
X009589Y006009D02*
X010451Y006009D01*
X010451Y006027D02*
X009589Y006027D01*
X009589Y006045D02*
X010451Y006045D01*
X010451Y006063D02*
X009589Y006063D01*
X009589Y006081D02*
X010451Y006081D01*
X010451Y006099D02*
X009589Y006099D01*
X009589Y006117D02*
X010451Y006117D01*
X010451Y006135D02*
X009589Y006135D01*
X009589Y006153D02*
X010451Y006153D01*
X010451Y006171D02*
X009589Y006171D01*
X009589Y006189D02*
X010451Y006189D01*
X010451Y006207D02*
X009589Y006207D01*
X009589Y006225D02*
X010451Y006225D01*
X010451Y006243D02*
X009589Y006243D01*
X009589Y006261D02*
X010451Y006261D01*
X010451Y006279D02*
X009589Y006279D01*
X010451Y005381D02*
X010451Y004919D01*
X009589Y004919D01*
X009589Y005381D01*
X010451Y005381D01*
X010451Y004937D02*
X009589Y004937D01*
X009589Y004955D02*
X010451Y004955D01*
X010451Y004973D02*
X009589Y004973D01*
X009589Y004991D02*
X010451Y004991D01*
X010451Y005009D02*
X009589Y005009D01*
X009589Y005027D02*
X010451Y005027D01*
X010451Y005045D02*
X009589Y005045D01*
X009589Y005063D02*
X010451Y005063D01*
X010451Y005081D02*
X009589Y005081D01*
X009589Y005099D02*
X010451Y005099D01*
X010451Y005117D02*
X009589Y005117D01*
X009589Y005135D02*
X010451Y005135D01*
X010451Y005153D02*
X009589Y005153D01*
X009589Y005171D02*
X010451Y005171D01*
X010451Y005189D02*
X009589Y005189D01*
X009589Y005207D02*
X010451Y005207D01*
X010451Y005225D02*
X009589Y005225D01*
X009589Y005243D02*
X010451Y005243D01*
X010451Y005261D02*
X009589Y005261D01*
X009589Y005279D02*
X010451Y005279D01*
X010451Y005297D02*
X009589Y005297D01*
X009589Y005315D02*
X010451Y005315D01*
X010451Y005333D02*
X009589Y005333D01*
X009589Y005351D02*
X010451Y005351D01*
X010451Y005369D02*
X009589Y005369D01*
X010451Y004471D02*
X010451Y004009D01*
X009589Y004009D01*
X009589Y004471D01*
X010451Y004471D01*
X010451Y004027D02*
X009589Y004027D01*
X009589Y004045D02*
X010451Y004045D01*
X010451Y004063D02*
X009589Y004063D01*
X009589Y004081D02*
X010451Y004081D01*
X010451Y004099D02*
X009589Y004099D01*
X009589Y004117D02*
X010451Y004117D01*
X010451Y004135D02*
X009589Y004135D01*
X009589Y004153D02*
X010451Y004153D01*
X010451Y004171D02*
X009589Y004171D01*
X009589Y004189D02*
X010451Y004189D01*
X010451Y004207D02*
X009589Y004207D01*
X009589Y004225D02*
X010451Y004225D01*
X010451Y004243D02*
X009589Y004243D01*
X009589Y004261D02*
X010451Y004261D01*
X010451Y004279D02*
X009589Y004279D01*
X009589Y004297D02*
X010451Y004297D01*
X010451Y004315D02*
X009589Y004315D01*
X009589Y004333D02*
X010451Y004333D01*
X010451Y004351D02*
X009589Y004351D01*
X009589Y004369D02*
X010451Y004369D01*
X010451Y004387D02*
X009589Y004387D01*
X009589Y004405D02*
X010451Y004405D01*
X010451Y004423D02*
X009589Y004423D01*
X009589Y004441D02*
X010451Y004441D01*
X010451Y004459D02*
X009589Y004459D01*
D22*
X008005Y004450D02*
X008005Y005850D01*
X008005Y004450D02*
X007155Y004450D01*
X007155Y005850D01*
X008005Y005850D01*
X008005Y004466D02*
X007155Y004466D01*
X007155Y004482D02*
X008005Y004482D01*
X008005Y004498D02*
X007155Y004498D01*
X007155Y004514D02*
X008005Y004514D01*
X008005Y004530D02*
X007155Y004530D01*
X007155Y004546D02*
X008005Y004546D01*
X008005Y004562D02*
X007155Y004562D01*
X007155Y004578D02*
X008005Y004578D01*
X008005Y004594D02*
X007155Y004594D01*
X007155Y004610D02*
X008005Y004610D01*
X008005Y004626D02*
X007155Y004626D01*
X007155Y004642D02*
X008005Y004642D01*
X008005Y004658D02*
X007155Y004658D01*
X007155Y004674D02*
X008005Y004674D01*
X008005Y004690D02*
X007155Y004690D01*
X007155Y004706D02*
X008005Y004706D01*
X008005Y004722D02*
X007155Y004722D01*
X007155Y004738D02*
X008005Y004738D01*
X008005Y004754D02*
X007155Y004754D01*
X007155Y004770D02*
X008005Y004770D01*
X008005Y004786D02*
X007155Y004786D01*
X007155Y004802D02*
X008005Y004802D01*
X008005Y004818D02*
X007155Y004818D01*
X007155Y004834D02*
X008005Y004834D01*
X008005Y004850D02*
X007155Y004850D01*
X007155Y004866D02*
X008005Y004866D01*
X008005Y004882D02*
X007155Y004882D01*
X007155Y004898D02*
X008005Y004898D01*
X008005Y004914D02*
X007155Y004914D01*
X007155Y004930D02*
X008005Y004930D01*
X008005Y004946D02*
X007155Y004946D01*
X007155Y004962D02*
X008005Y004962D01*
X008005Y004978D02*
X007155Y004978D01*
X007155Y004994D02*
X008005Y004994D01*
X008005Y005010D02*
X007155Y005010D01*
X007155Y005026D02*
X008005Y005026D01*
X008005Y005042D02*
X007155Y005042D01*
X007155Y005058D02*
X008005Y005058D01*
X008005Y005074D02*
X007155Y005074D01*
X007155Y005090D02*
X008005Y005090D01*
X008005Y005106D02*
X007155Y005106D01*
X007155Y005122D02*
X008005Y005122D01*
X008005Y005138D02*
X007155Y005138D01*
X007155Y005154D02*
X008005Y005154D01*
X008005Y005170D02*
X007155Y005170D01*
X007155Y005186D02*
X008005Y005186D01*
X008005Y005202D02*
X007155Y005202D01*
X007155Y005218D02*
X008005Y005218D01*
X008005Y005234D02*
X007155Y005234D01*
X007155Y005250D02*
X008005Y005250D01*
X008005Y005266D02*
X007155Y005266D01*
X007155Y005282D02*
X008005Y005282D01*
X008005Y005298D02*
X007155Y005298D01*
X007155Y005314D02*
X008005Y005314D01*
X008005Y005330D02*
X007155Y005330D01*
X007155Y005346D02*
X008005Y005346D01*
X008005Y005362D02*
X007155Y005362D01*
X007155Y005378D02*
X008005Y005378D01*
X008005Y005394D02*
X007155Y005394D01*
X007155Y005410D02*
X008005Y005410D01*
X008005Y005426D02*
X007155Y005426D01*
X007155Y005442D02*
X008005Y005442D01*
X008005Y005458D02*
X007155Y005458D01*
X007155Y005474D02*
X008005Y005474D01*
X008005Y005490D02*
X007155Y005490D01*
X007155Y005506D02*
X008005Y005506D01*
X008005Y005522D02*
X007155Y005522D01*
X007155Y005538D02*
X008005Y005538D01*
X008005Y005554D02*
X007155Y005554D01*
X007155Y005570D02*
X008005Y005570D01*
X008005Y005586D02*
X007155Y005586D01*
X007155Y005602D02*
X008005Y005602D01*
X008005Y005618D02*
X007155Y005618D01*
X007155Y005634D02*
X008005Y005634D01*
X008005Y005650D02*
X007155Y005650D01*
X007155Y005666D02*
X008005Y005666D01*
X008005Y005682D02*
X007155Y005682D01*
X007155Y005698D02*
X008005Y005698D01*
X008005Y005714D02*
X007155Y005714D01*
X007155Y005730D02*
X008005Y005730D01*
X008005Y005746D02*
X007155Y005746D01*
X007155Y005762D02*
X008005Y005762D01*
X008005Y005778D02*
X007155Y005778D01*
X007155Y005794D02*
X008005Y005794D01*
X008005Y005810D02*
X007155Y005810D01*
X007155Y005826D02*
X008005Y005826D01*
X008005Y005842D02*
X007155Y005842D01*
D23*
X013450Y013150D03*
X014450Y013150D03*
X015450Y013150D03*
X016450Y013150D03*
X017450Y013150D03*
X018450Y013150D03*
X019450Y013150D03*
X020450Y013150D03*
X021450Y013150D03*
X022450Y013150D03*
X023450Y013150D03*
X024450Y013150D03*
X025450Y013150D03*
X026450Y013150D03*
X027450Y013150D03*
X028450Y013150D03*
X029450Y010400D03*
X028450Y010150D03*
X029450Y009400D03*
X028450Y009150D03*
X027450Y008900D03*
X027450Y007900D03*
X023450Y007150D03*
X022450Y007150D03*
D24*
X029110Y007523D02*
X029110Y007753D01*
X029590Y007753D01*
X029590Y007523D01*
X029110Y007523D01*
X029110Y007542D02*
X029590Y007542D01*
X029590Y007561D02*
X029110Y007561D01*
X029110Y007580D02*
X029590Y007580D01*
X029590Y007599D02*
X029110Y007599D01*
X029110Y007618D02*
X029590Y007618D01*
X029590Y007637D02*
X029110Y007637D01*
X029110Y007656D02*
X029590Y007656D01*
X029590Y007675D02*
X029110Y007675D01*
X029110Y007694D02*
X029590Y007694D01*
X029590Y007713D02*
X029110Y007713D01*
X029110Y007732D02*
X029590Y007732D01*
X029590Y007751D02*
X029110Y007751D01*
X029590Y007843D02*
X029590Y008073D01*
X029590Y007843D02*
X029110Y007843D01*
X029110Y008073D01*
X029590Y008073D01*
X029590Y007862D02*
X029110Y007862D01*
X029110Y007881D02*
X029590Y007881D01*
X029590Y007900D02*
X029110Y007900D01*
X029110Y007919D02*
X029590Y007919D01*
X029590Y007938D02*
X029110Y007938D01*
X029110Y007957D02*
X029590Y007957D01*
X029590Y007976D02*
X029110Y007976D01*
X029110Y007995D02*
X029590Y007995D01*
X029590Y008014D02*
X029110Y008014D01*
X029110Y008033D02*
X029590Y008033D01*
X029590Y008052D02*
X029110Y008052D01*
X029110Y008071D02*
X029590Y008071D01*
D25*
X029441Y003759D02*
X028559Y003759D01*
X028559Y004341D01*
X029441Y004341D01*
X029441Y003759D01*
X029441Y003776D02*
X028559Y003776D01*
X028559Y003793D02*
X029441Y003793D01*
X029441Y003810D02*
X028559Y003810D01*
X028559Y003827D02*
X029441Y003827D01*
X029441Y003844D02*
X028559Y003844D01*
X028559Y003861D02*
X029441Y003861D01*
X029441Y003878D02*
X028559Y003878D01*
X028559Y003895D02*
X029441Y003895D01*
X029441Y003912D02*
X028559Y003912D01*
X028559Y003929D02*
X029441Y003929D01*
X029441Y003946D02*
X028559Y003946D01*
X028559Y003963D02*
X029441Y003963D01*
X029441Y003980D02*
X028559Y003980D01*
X028559Y003997D02*
X029441Y003997D01*
X029441Y004014D02*
X028559Y004014D01*
X028559Y004031D02*
X029441Y004031D01*
X029441Y004048D02*
X028559Y004048D01*
X028559Y004065D02*
X029441Y004065D01*
X029441Y004082D02*
X028559Y004082D01*
X028559Y004099D02*
X029441Y004099D01*
X029441Y004116D02*
X028559Y004116D01*
X028559Y004133D02*
X029441Y004133D01*
X029441Y004150D02*
X028559Y004150D01*
X028559Y004167D02*
X029441Y004167D01*
X029441Y004184D02*
X028559Y004184D01*
X028559Y004201D02*
X029441Y004201D01*
X029441Y004218D02*
X028559Y004218D01*
X028559Y004235D02*
X029441Y004235D01*
X029441Y004252D02*
X028559Y004252D01*
X028559Y004269D02*
X029441Y004269D01*
X029441Y004286D02*
X028559Y004286D01*
X028559Y004303D02*
X029441Y004303D01*
X029441Y004320D02*
X028559Y004320D01*
X028559Y004337D02*
X029441Y004337D01*
X026841Y003759D02*
X025959Y003759D01*
X025959Y004341D01*
X026841Y004341D01*
X026841Y003759D01*
X026841Y003776D02*
X025959Y003776D01*
X025959Y003793D02*
X026841Y003793D01*
X026841Y003810D02*
X025959Y003810D01*
X025959Y003827D02*
X026841Y003827D01*
X026841Y003844D02*
X025959Y003844D01*
X025959Y003861D02*
X026841Y003861D01*
X026841Y003878D02*
X025959Y003878D01*
X025959Y003895D02*
X026841Y003895D01*
X026841Y003912D02*
X025959Y003912D01*
X025959Y003929D02*
X026841Y003929D01*
X026841Y003946D02*
X025959Y003946D01*
X025959Y003963D02*
X026841Y003963D01*
X026841Y003980D02*
X025959Y003980D01*
X025959Y003997D02*
X026841Y003997D01*
X026841Y004014D02*
X025959Y004014D01*
X025959Y004031D02*
X026841Y004031D01*
X026841Y004048D02*
X025959Y004048D01*
X025959Y004065D02*
X026841Y004065D01*
X026841Y004082D02*
X025959Y004082D01*
X025959Y004099D02*
X026841Y004099D01*
X026841Y004116D02*
X025959Y004116D01*
X025959Y004133D02*
X026841Y004133D01*
X026841Y004150D02*
X025959Y004150D01*
X025959Y004167D02*
X026841Y004167D01*
X026841Y004184D02*
X025959Y004184D01*
X025959Y004201D02*
X026841Y004201D01*
X026841Y004218D02*
X025959Y004218D01*
X025959Y004235D02*
X026841Y004235D01*
X026841Y004252D02*
X025959Y004252D01*
X025959Y004269D02*
X026841Y004269D01*
X026841Y004286D02*
X025959Y004286D01*
X025959Y004303D02*
X026841Y004303D01*
X026841Y004320D02*
X025959Y004320D01*
X025959Y004337D02*
X026841Y004337D01*
X026841Y001959D02*
X025959Y001959D01*
X025959Y002541D01*
X026841Y002541D01*
X026841Y001959D01*
X026841Y001976D02*
X025959Y001976D01*
X025959Y001993D02*
X026841Y001993D01*
X026841Y002010D02*
X025959Y002010D01*
X025959Y002027D02*
X026841Y002027D01*
X026841Y002044D02*
X025959Y002044D01*
X025959Y002061D02*
X026841Y002061D01*
X026841Y002078D02*
X025959Y002078D01*
X025959Y002095D02*
X026841Y002095D01*
X026841Y002112D02*
X025959Y002112D01*
X025959Y002129D02*
X026841Y002129D01*
X026841Y002146D02*
X025959Y002146D01*
X025959Y002163D02*
X026841Y002163D01*
X026841Y002180D02*
X025959Y002180D01*
X025959Y002197D02*
X026841Y002197D01*
X026841Y002214D02*
X025959Y002214D01*
X025959Y002231D02*
X026841Y002231D01*
X026841Y002248D02*
X025959Y002248D01*
X025959Y002265D02*
X026841Y002265D01*
X026841Y002282D02*
X025959Y002282D01*
X025959Y002299D02*
X026841Y002299D01*
X026841Y002316D02*
X025959Y002316D01*
X025959Y002333D02*
X026841Y002333D01*
X026841Y002350D02*
X025959Y002350D01*
X025959Y002367D02*
X026841Y002367D01*
X026841Y002384D02*
X025959Y002384D01*
X025959Y002401D02*
X026841Y002401D01*
X026841Y002418D02*
X025959Y002418D01*
X025959Y002435D02*
X026841Y002435D01*
X026841Y002452D02*
X025959Y002452D01*
X025959Y002469D02*
X026841Y002469D01*
X026841Y002486D02*
X025959Y002486D01*
X025959Y002503D02*
X026841Y002503D01*
X026841Y002520D02*
X025959Y002520D01*
X025959Y002537D02*
X026841Y002537D01*
X028559Y001959D02*
X029441Y001959D01*
X028559Y001959D02*
X028559Y002541D01*
X029441Y002541D01*
X029441Y001959D01*
X029441Y001976D02*
X028559Y001976D01*
X028559Y001993D02*
X029441Y001993D01*
X029441Y002010D02*
X028559Y002010D01*
X028559Y002027D02*
X029441Y002027D01*
X029441Y002044D02*
X028559Y002044D01*
X028559Y002061D02*
X029441Y002061D01*
X029441Y002078D02*
X028559Y002078D01*
X028559Y002095D02*
X029441Y002095D01*
X029441Y002112D02*
X028559Y002112D01*
X028559Y002129D02*
X029441Y002129D01*
X029441Y002146D02*
X028559Y002146D01*
X028559Y002163D02*
X029441Y002163D01*
X029441Y002180D02*
X028559Y002180D01*
X028559Y002197D02*
X029441Y002197D01*
X029441Y002214D02*
X028559Y002214D01*
X028559Y002231D02*
X029441Y002231D01*
X029441Y002248D02*
X028559Y002248D01*
X028559Y002265D02*
X029441Y002265D01*
X029441Y002282D02*
X028559Y002282D01*
X028559Y002299D02*
X029441Y002299D01*
X029441Y002316D02*
X028559Y002316D01*
X028559Y002333D02*
X029441Y002333D01*
X029441Y002350D02*
X028559Y002350D01*
X028559Y002367D02*
X029441Y002367D01*
X029441Y002384D02*
X028559Y002384D01*
X028559Y002401D02*
X029441Y002401D01*
X029441Y002418D02*
X028559Y002418D01*
X028559Y002435D02*
X029441Y002435D01*
X029441Y002452D02*
X028559Y002452D01*
X028559Y002469D02*
X029441Y002469D01*
X029441Y002486D02*
X028559Y002486D01*
X028559Y002503D02*
X029441Y002503D01*
X029441Y002520D02*
X028559Y002520D01*
X028559Y002537D02*
X029441Y002537D01*
D26*
X027200Y003150D02*
X027202Y003194D01*
X027208Y003238D01*
X027218Y003281D01*
X027231Y003323D01*
X027248Y003364D01*
X027269Y003403D01*
X027293Y003440D01*
X027320Y003475D01*
X027350Y003507D01*
X027383Y003537D01*
X027419Y003563D01*
X027456Y003587D01*
X027496Y003606D01*
X027537Y003623D01*
X027580Y003635D01*
X027623Y003644D01*
X027667Y003649D01*
X027711Y003650D01*
X027755Y003647D01*
X027799Y003640D01*
X027842Y003629D01*
X027884Y003615D01*
X027924Y003597D01*
X027963Y003575D01*
X027999Y003551D01*
X028033Y003523D01*
X028065Y003492D01*
X028094Y003458D01*
X028120Y003422D01*
X028142Y003384D01*
X028161Y003344D01*
X028176Y003302D01*
X028188Y003260D01*
X028196Y003216D01*
X028200Y003172D01*
X028200Y003128D01*
X028196Y003084D01*
X028188Y003040D01*
X028176Y002998D01*
X028161Y002956D01*
X028142Y002916D01*
X028120Y002878D01*
X028094Y002842D01*
X028065Y002808D01*
X028033Y002777D01*
X027999Y002749D01*
X027963Y002725D01*
X027924Y002703D01*
X027884Y002685D01*
X027842Y002671D01*
X027799Y002660D01*
X027755Y002653D01*
X027711Y002650D01*
X027667Y002651D01*
X027623Y002656D01*
X027580Y002665D01*
X027537Y002677D01*
X027496Y002694D01*
X027456Y002713D01*
X027419Y002737D01*
X027383Y002763D01*
X027350Y002793D01*
X027320Y002825D01*
X027293Y002860D01*
X027269Y002897D01*
X027248Y002936D01*
X027231Y002977D01*
X027218Y003019D01*
X027208Y003062D01*
X027202Y003106D01*
X027200Y003150D01*
X011730Y006785D02*
X011711Y006765D01*
X011706Y006765D01*
X011691Y006745D01*
X011500Y006550D01*
X011050Y006550D01*
X011050Y006050D01*
X010045Y006050D01*
X010045Y006085D01*
X009995Y006085D01*
X009995Y006445D01*
X009650Y006445D01*
X009650Y006500D01*
X007705Y006500D01*
X007705Y006516D01*
X007790Y006785D01*
X011730Y006785D01*
X011722Y006776D02*
X007787Y006776D01*
X007772Y006728D02*
X011674Y006728D01*
X011626Y006679D02*
X007757Y006679D01*
X007741Y006631D02*
X011579Y006631D01*
X011531Y006582D02*
X007726Y006582D01*
X007711Y006534D02*
X011050Y006534D01*
X011050Y006485D02*
X009650Y006485D01*
X009995Y006437D02*
X010045Y006437D01*
X010045Y006445D02*
X010045Y006085D01*
X010605Y006085D01*
X010605Y006311D01*
X010594Y006350D01*
X010574Y006385D01*
X010545Y006414D01*
X010510Y006434D01*
X010471Y006445D01*
X010045Y006445D01*
X010045Y006388D02*
X009995Y006388D01*
X009995Y006340D02*
X010045Y006340D01*
X010045Y006291D02*
X009995Y006291D01*
X009995Y006243D02*
X010045Y006243D01*
X010045Y006194D02*
X009995Y006194D01*
X009995Y006146D02*
X010045Y006146D01*
X010045Y006097D02*
X009995Y006097D01*
X010605Y006097D02*
X011050Y006097D01*
X011050Y006146D02*
X010605Y006146D01*
X010605Y006194D02*
X011050Y006194D01*
X011050Y006243D02*
X010605Y006243D01*
X010605Y006291D02*
X011050Y006291D01*
X011050Y006340D02*
X010597Y006340D01*
X010571Y006388D02*
X011050Y006388D01*
X011050Y006437D02*
X010502Y006437D01*
X001750Y008650D02*
X001752Y008694D01*
X001758Y008738D01*
X001768Y008781D01*
X001781Y008823D01*
X001798Y008864D01*
X001819Y008903D01*
X001843Y008940D01*
X001870Y008975D01*
X001900Y009007D01*
X001933Y009037D01*
X001969Y009063D01*
X002006Y009087D01*
X002046Y009106D01*
X002087Y009123D01*
X002130Y009135D01*
X002173Y009144D01*
X002217Y009149D01*
X002261Y009150D01*
X002305Y009147D01*
X002349Y009140D01*
X002392Y009129D01*
X002434Y009115D01*
X002474Y009097D01*
X002513Y009075D01*
X002549Y009051D01*
X002583Y009023D01*
X002615Y008992D01*
X002644Y008958D01*
X002670Y008922D01*
X002692Y008884D01*
X002711Y008844D01*
X002726Y008802D01*
X002738Y008760D01*
X002746Y008716D01*
X002750Y008672D01*
X002750Y008628D01*
X002746Y008584D01*
X002738Y008540D01*
X002726Y008498D01*
X002711Y008456D01*
X002692Y008416D01*
X002670Y008378D01*
X002644Y008342D01*
X002615Y008308D01*
X002583Y008277D01*
X002549Y008249D01*
X002513Y008225D01*
X002474Y008203D01*
X002434Y008185D01*
X002392Y008171D01*
X002349Y008160D01*
X002305Y008153D01*
X002261Y008150D01*
X002217Y008151D01*
X002173Y008156D01*
X002130Y008165D01*
X002087Y008177D01*
X002046Y008194D01*
X002006Y008213D01*
X001969Y008237D01*
X001933Y008263D01*
X001900Y008293D01*
X001870Y008325D01*
X001843Y008360D01*
X001819Y008397D01*
X001798Y008436D01*
X001781Y008477D01*
X001768Y008519D01*
X001758Y008562D01*
X001752Y008606D01*
X001750Y008650D01*
D27*
X002150Y008650D02*
X002152Y008670D01*
X002158Y008688D01*
X002167Y008706D01*
X002179Y008721D01*
X002194Y008733D01*
X002212Y008742D01*
X002230Y008748D01*
X002250Y008750D01*
X002270Y008748D01*
X002288Y008742D01*
X002306Y008733D01*
X002321Y008721D01*
X002333Y008706D01*
X002342Y008688D01*
X002348Y008670D01*
X002350Y008650D01*
X002348Y008630D01*
X002342Y008612D01*
X002333Y008594D01*
X002321Y008579D01*
X002306Y008567D01*
X002288Y008558D01*
X002270Y008552D01*
X002250Y008550D01*
X002230Y008552D01*
X002212Y008558D01*
X002194Y008567D01*
X002179Y008579D01*
X002167Y008594D01*
X002158Y008612D01*
X002152Y008630D01*
X002150Y008650D01*
X003915Y010045D02*
X003395Y011065D01*
X003080Y011110D01*
X003050Y011150D02*
X003950Y011100D01*
X003050Y011150D02*
X002450Y011732D01*
X003915Y010045D02*
X004425Y009535D01*
X004425Y009290D01*
X005050Y009280D01*
X012450Y012750D02*
X013150Y012200D01*
X013150Y012194D01*
X013650Y011550D01*
X013556Y011600D02*
X013744Y011236D01*
X014560Y010570D01*
X014560Y010200D01*
X017865Y008415D02*
X018050Y008250D01*
X018650Y007650D01*
X019600Y006650D01*
X021450Y005200D02*
X021905Y004535D01*
X027600Y003150D02*
X027602Y003170D01*
X027608Y003188D01*
X027617Y003206D01*
X027629Y003221D01*
X027644Y003233D01*
X027662Y003242D01*
X027680Y003248D01*
X027700Y003250D01*
X027720Y003248D01*
X027738Y003242D01*
X027756Y003233D01*
X027771Y003221D01*
X027783Y003206D01*
X027792Y003188D01*
X027798Y003170D01*
X027800Y003150D01*
X027798Y003130D01*
X027792Y003112D01*
X027783Y003094D01*
X027771Y003079D01*
X027756Y003067D01*
X027738Y003058D01*
X027720Y003052D01*
X027700Y003050D01*
X027680Y003052D01*
X027662Y003058D01*
X027644Y003067D01*
X027629Y003079D01*
X027617Y003094D01*
X027608Y003112D01*
X027602Y003130D01*
X027600Y003150D01*
X013220Y002905D02*
X012915Y003100D01*
X012550Y002594D02*
X012626Y002494D01*
X013060Y002310D01*
X011915Y002525D02*
X011924Y002912D01*
X011924Y002974D01*
X011995Y003100D01*
X011915Y002525D02*
X011874Y002484D01*
X011874Y002474D01*
X011176Y002424D02*
X011176Y002912D01*
X011150Y002886D01*
X011150Y002800D01*
X011170Y002730D01*
X010980Y002730D01*
X010880Y002930D01*
X010314Y002700D02*
X010200Y002594D01*
D28*
X005894Y004450D03*
X003531Y004450D03*
X004713Y002600D03*
D29*
X006000Y006550D02*
X006000Y008250D01*
X005600Y008650D01*
X005050Y008650D01*
X005050Y008965D02*
X004910Y008965D01*
X005695Y008965D01*
X006515Y008035D01*
X006500Y007138D01*
X007170Y007138D02*
X007650Y007150D01*
X013500Y007150D01*
X013650Y007000D01*
X014740Y007000D01*
X014940Y007300D01*
X015100Y007300D01*
X015260Y007450D01*
X015260Y007801D01*
X015259Y007791D01*
X015063Y007801D02*
X015060Y007773D01*
X015065Y007515D01*
X014785Y007475D01*
X014580Y007350D01*
X014600Y007350D01*
X014450Y007200D01*
X014770Y006750D02*
X015000Y007100D01*
X015200Y007100D01*
X015460Y007400D01*
X015460Y007804D01*
X015456Y007791D01*
X015653Y007801D02*
X015650Y007300D01*
X015850Y007200D02*
X015850Y007801D01*
X016050Y007811D02*
X016050Y007300D01*
X016190Y007110D01*
X016300Y006800D02*
X016300Y006237D01*
X016213Y006150D01*
X016300Y006800D02*
X016500Y006950D01*
X016500Y007250D01*
X016244Y007506D01*
X016244Y007801D01*
X016440Y007810D02*
X016440Y007550D01*
X016900Y007110D01*
X017590Y007110D01*
X018750Y005950D01*
X019280Y005410D01*
X019300Y005250D01*
X019100Y005900D02*
X020550Y005900D01*
X020650Y005750D01*
X020650Y004900D01*
X021170Y004600D01*
X021100Y005650D02*
X023100Y005650D01*
X023450Y005150D02*
X024400Y005150D01*
X024600Y004950D01*
X025195Y004950D01*
X025225Y004980D01*
X025700Y005450D02*
X025700Y004150D01*
X024450Y004150D01*
X025700Y004150D02*
X025700Y002800D01*
X025800Y002700D01*
X025950Y002700D01*
X026400Y002250D01*
X025700Y005450D02*
X025500Y005650D01*
X025225Y005650D01*
X024940Y005935D01*
X024315Y005935D01*
X023875Y007740D01*
X022060Y007740D01*
X019900Y006300D02*
X019450Y006300D01*
X018900Y006850D01*
X018095Y007665D01*
X017925Y007710D01*
X017362Y008303D01*
X017322Y008313D01*
X017149Y008313D01*
X017149Y008509D02*
X017476Y008509D01*
X017347Y008903D02*
X017149Y008903D01*
X017149Y009100D02*
X017350Y009100D01*
X017149Y009297D02*
X018747Y009297D01*
X019600Y010100D01*
X022715Y010100D01*
X022955Y010340D01*
X025355Y012720D01*
X025450Y012815D01*
X025450Y013150D01*
X024950Y012710D02*
X024000Y011700D01*
X022600Y010300D01*
X019500Y010300D01*
X018644Y009494D01*
X017149Y009494D01*
X017149Y009691D02*
X018241Y009691D01*
X018510Y009790D01*
X018305Y010100D02*
X018755Y010100D01*
X018875Y010105D01*
X018530Y010320D02*
X018720Y010485D01*
X018530Y010320D02*
X018140Y010320D01*
X017880Y010080D01*
X017149Y010084D01*
X017149Y009887D02*
X018087Y009887D01*
X018305Y010100D01*
X017810Y010340D02*
X018180Y010850D01*
X018125Y010950D01*
X018420Y011385D02*
X018740Y011265D01*
X018620Y011305D01*
X018483Y011420D02*
X018420Y011385D01*
X018810Y011770D02*
X018950Y011630D01*
X018950Y010650D01*
X022650Y010650D01*
X023100Y011100D01*
X023100Y011800D01*
X024450Y013150D01*
X023450Y013150D02*
X023450Y013170D01*
X022820Y013800D01*
X022450Y013150D02*
X021950Y012650D01*
X021950Y011900D01*
X021685Y011650D01*
X019160Y011650D01*
X019160Y011655D01*
X018975Y011960D01*
X016550Y011960D01*
X016400Y011810D01*
X016400Y011100D01*
X016047Y010747D01*
X016047Y010399D01*
X016244Y010399D02*
X016244Y010674D01*
X016620Y011070D01*
X016700Y011400D01*
X016690Y011420D01*
X016700Y011410D01*
X016970Y011120D02*
X016970Y011770D01*
X018810Y011770D01*
X018885Y012150D02*
X019160Y012650D01*
X020005Y012650D01*
X020450Y013095D01*
X020450Y013150D01*
X019450Y013150D02*
X019300Y013150D01*
X019150Y013000D01*
X018550Y012350D01*
X016150Y012350D01*
X016050Y012250D01*
X016050Y011250D01*
X015653Y010853D01*
X015653Y010399D01*
X015456Y010399D02*
X015456Y010900D01*
X015850Y011300D01*
X015850Y012400D01*
X016000Y012550D01*
X017800Y012550D01*
X018400Y013150D01*
X018450Y013150D01*
X018885Y012150D02*
X016340Y012150D01*
X016240Y012060D01*
X016240Y011210D01*
X015850Y010820D01*
X015850Y010399D01*
X015259Y010399D02*
X015259Y010979D01*
X015640Y011350D01*
X015640Y012550D01*
X015950Y012850D01*
X015950Y013600D01*
X016000Y013650D01*
X016270Y013800D01*
X015450Y013150D02*
X015450Y011400D01*
X015300Y011250D01*
X015063Y011013D01*
X015063Y010399D01*
X014866Y010399D02*
X014866Y010179D01*
X015013Y009887D01*
X014551Y009887D01*
X014450Y009887D01*
X014380Y009890D01*
X014320Y009900D01*
X014170Y010170D01*
X014269Y009691D02*
X012100Y011800D01*
X012100Y012500D01*
X011450Y013150D01*
X010950Y012650D02*
X010450Y013150D01*
X009950Y012650D02*
X009450Y013150D01*
X008950Y012650D02*
X008450Y013150D01*
X007950Y012650D02*
X007450Y013150D01*
X006950Y012650D02*
X006450Y013150D01*
X006950Y012650D02*
X006950Y010750D01*
X007900Y009750D01*
X012100Y009750D01*
X013144Y008706D01*
X014551Y008706D01*
X014551Y008509D02*
X013584Y008509D01*
X013584Y008359D01*
X013590Y008370D01*
X013584Y008509D02*
X013165Y008385D01*
X013347Y008903D02*
X012200Y010000D01*
X008650Y010000D01*
X007950Y010700D01*
X007950Y012650D01*
X008950Y012650D02*
X008950Y010550D01*
X009250Y010250D01*
X012400Y010250D01*
X013600Y009100D01*
X014551Y009100D01*
X014551Y008903D02*
X013347Y008903D01*
X013803Y009297D02*
X012500Y010500D01*
X010200Y010500D01*
X009950Y010700D01*
X009950Y012650D01*
X010950Y012650D02*
X010950Y011850D01*
X011150Y011650D01*
X011900Y011650D01*
X014206Y009494D01*
X014551Y009494D01*
X014551Y009691D02*
X014269Y009691D01*
X014551Y009297D02*
X013803Y009297D01*
X014500Y008313D02*
X014551Y008313D01*
X015113Y008313D01*
X015150Y008350D01*
X015150Y008450D01*
X015145Y008385D01*
X014551Y008116D02*
X014231Y008116D01*
X014200Y007995D01*
X014561Y007811D02*
X014000Y007520D01*
X014561Y007811D02*
X014866Y007801D01*
X014770Y006750D02*
X013550Y006750D01*
X013305Y006950D01*
X007645Y006950D01*
X007540Y006550D01*
X007185Y006550D01*
X006515Y006550D02*
X006000Y006550D01*
X008050Y007350D02*
X008150Y007350D01*
X006105Y009275D02*
X005050Y009280D01*
X014194Y006342D02*
X014194Y006027D01*
X014194Y005398D01*
X016213Y005500D02*
X017750Y005500D01*
X019100Y005900D02*
X017700Y007300D01*
X016950Y007300D01*
X016637Y007583D01*
X016637Y007801D01*
X016441Y007801D02*
X016440Y007810D01*
X016834Y007716D02*
X017050Y007500D01*
X017900Y007500D01*
X019350Y006100D01*
X020800Y006100D01*
X021100Y005650D01*
X019000Y007950D02*
X018800Y008300D01*
X018100Y008300D02*
X018100Y007980D01*
X016555Y008405D02*
X016244Y008706D01*
X016450Y008706D01*
X016670Y009920D02*
X016670Y009940D01*
X016831Y010310D02*
X016840Y010310D01*
X016831Y010310D02*
X017190Y010300D01*
X017810Y010340D01*
X017540Y010750D02*
X017130Y010750D01*
X017150Y010600D01*
X017130Y010750D02*
X016815Y010750D01*
X016642Y010572D01*
X016637Y010399D01*
X016820Y010375D02*
X016820Y010340D01*
X016831Y010310D02*
X016834Y010399D01*
X016441Y010399D02*
X016441Y010591D01*
X016750Y010945D01*
X016970Y011120D01*
X017480Y010850D02*
X017540Y010750D01*
X017480Y010850D02*
X017620Y011302D01*
X017617Y011420D01*
X019615Y009890D02*
X022795Y009890D01*
X025295Y012365D01*
X026655Y012370D01*
X027435Y013150D01*
X027450Y013150D01*
X028450Y013150D02*
X028450Y012800D01*
X027750Y012100D01*
X025315Y012100D01*
X022850Y009635D01*
X020350Y009635D01*
X020335Y009600D01*
X020200Y009600D01*
X019730Y009820D02*
X019650Y009800D01*
X019615Y009890D01*
X015075Y011640D02*
X014868Y011370D01*
X029312Y007600D02*
X029350Y007638D01*
D30*
X029350Y007450D01*
X029500Y007100D02*
X029300Y006900D01*
X027350Y006900D01*
X026900Y007350D01*
X025100Y007350D01*
X024750Y007700D01*
X024750Y008700D01*
X025200Y009150D01*
X026450Y009150D01*
X025450Y009150D01*
X029350Y008100D02*
X029350Y007958D01*
X029600Y005750D02*
X029550Y005700D01*
X027800Y005700D01*
X029000Y002250D02*
X026400Y002250D01*
X017865Y008415D02*
X017476Y008509D01*
X016450Y008706D02*
X016056Y009100D01*
X011015Y006055D02*
X010675Y006345D01*
X010550Y006350D02*
X010470Y005955D01*
X010850Y005750D02*
X011015Y006055D01*
X010020Y006060D02*
X009875Y006340D01*
X011320Y003500D02*
X011320Y003440D01*
X011555Y003060D01*
X011555Y003300D01*
X011455Y003250D01*
X011455Y003300D01*
X011350Y003400D01*
X011345Y003410D02*
X011355Y003425D01*
X011320Y003500D02*
X011775Y003495D01*
X011585Y003140D01*
X011550Y002912D01*
X011555Y003050D02*
X011505Y003130D01*
X011176Y002424D02*
X011180Y002400D01*
X011924Y001888D02*
X012038Y001888D01*
X014450Y002100D02*
X014450Y002150D01*
D31*
X001645Y001595D02*
X001645Y001545D01*
X009921Y001545D01*
X009887Y001565D01*
X009853Y001598D01*
X009830Y001640D01*
X009817Y001685D01*
X009817Y001856D01*
X010150Y001856D01*
X010150Y001956D01*
X009817Y001956D01*
X009817Y002126D01*
X009830Y002171D01*
X009853Y002213D01*
X009887Y002246D01*
X009892Y002249D01*
X009817Y002323D01*
X009817Y002866D01*
X009916Y002964D01*
X009918Y002969D01*
X010051Y003100D01*
X010790Y003401D01*
X010977Y003399D01*
X011149Y003327D01*
X011157Y003318D01*
X011334Y003318D01*
X011415Y003368D01*
X011513Y003385D01*
X011610Y003362D01*
X011672Y003318D01*
X011672Y003318D01*
X011708Y003308D01*
X011797Y003397D01*
X011925Y003450D01*
X012833Y003450D01*
X012833Y003691D01*
X012823Y003774D01*
X012513Y003774D01*
X012408Y003880D01*
X012408Y004639D01*
X012513Y004744D01*
X013587Y004744D01*
X013692Y004639D01*
X013692Y004052D01*
X013730Y004093D01*
X013730Y004824D01*
X013775Y004933D01*
X013680Y005029D01*
X013680Y005065D01*
X013657Y005025D01*
X013623Y004991D01*
X013582Y004968D01*
X013537Y004956D01*
X013100Y004956D01*
X013100Y005391D01*
X013000Y005391D01*
X012408Y005391D01*
X012408Y005111D01*
X012420Y005066D01*
X012443Y005025D01*
X012477Y004991D01*
X012518Y004968D01*
X012563Y004956D01*
X013000Y004956D01*
X013000Y005391D01*
X013000Y005491D01*
X013000Y005926D01*
X012670Y005926D01*
X012670Y006100D01*
X012313Y006100D01*
X012313Y006200D01*
X012670Y006200D01*
X012670Y006380D01*
X013085Y006380D01*
X013404Y005926D01*
X013100Y005926D01*
X013100Y005491D01*
X013000Y005491D01*
X012408Y005491D01*
X012408Y005744D01*
X012342Y005744D01*
X012342Y005491D01*
X011750Y005491D01*
X011750Y005391D01*
X012342Y005391D01*
X012342Y005111D01*
X012330Y005066D01*
X012307Y005025D01*
X012273Y004991D01*
X012232Y004968D01*
X012187Y004956D01*
X011750Y004956D01*
X011750Y005391D01*
X011650Y005391D01*
X011058Y005391D01*
X011058Y005111D01*
X011070Y005066D01*
X011093Y005025D01*
X011127Y004991D01*
X011168Y004968D01*
X011213Y004956D01*
X011650Y004956D01*
X011650Y005391D01*
X011650Y005491D01*
X011114Y005491D01*
X011060Y005436D01*
X010924Y005380D01*
X010776Y005380D01*
X010640Y005436D01*
X010605Y005472D01*
X010618Y005450D01*
X010630Y005404D01*
X010630Y005200D01*
X010070Y005200D01*
X010070Y005100D01*
X010630Y005100D01*
X010630Y004896D01*
X010618Y004850D01*
X010594Y004809D01*
X010561Y004776D01*
X010520Y004752D01*
X010474Y004740D01*
X010070Y004740D01*
X010070Y005100D01*
X009970Y005100D01*
X009970Y004740D01*
X009566Y004740D01*
X009520Y004752D01*
X009479Y004776D01*
X009446Y004809D01*
X009422Y004850D01*
X009410Y004896D01*
X009410Y005100D01*
X009970Y005100D01*
X009970Y005200D01*
X009970Y005560D01*
X009566Y005560D01*
X009520Y005548D01*
X009479Y005524D01*
X009446Y005491D01*
X009422Y005450D01*
X009410Y005404D01*
X009410Y005200D01*
X009970Y005200D01*
X010070Y005200D01*
X010070Y005560D01*
X010474Y005560D01*
X010520Y005548D01*
X010542Y005535D01*
X010536Y005540D01*
X010516Y005588D01*
X010370Y005650D01*
X009515Y005650D01*
X009410Y005755D01*
X009410Y006231D01*
X009406Y006240D01*
X009405Y006305D01*
X007748Y006305D01*
X007718Y006290D01*
X007670Y006305D01*
X007619Y006305D01*
X007596Y006328D01*
X007584Y006332D01*
X007571Y006325D01*
X007551Y006330D01*
X007551Y006269D01*
X007446Y006163D01*
X006923Y006163D01*
X006850Y006237D01*
X006777Y006163D01*
X006254Y006163D01*
X006149Y006269D01*
X006149Y006340D01*
X005913Y006340D01*
X005790Y006463D01*
X005790Y008163D01*
X005674Y008279D01*
X005674Y008172D01*
X005666Y008164D01*
X005674Y008132D01*
X005674Y008020D01*
X005050Y008020D01*
X005050Y007752D01*
X005518Y007752D01*
X005564Y007764D01*
X005605Y007788D01*
X005638Y007821D01*
X005662Y007862D01*
X005674Y007908D01*
X005674Y008020D01*
X005050Y008020D01*
X005050Y008020D01*
X005050Y007752D01*
X004582Y007752D01*
X004536Y007764D01*
X004495Y007788D01*
X004462Y007821D01*
X004438Y007862D01*
X004426Y007908D01*
X004426Y008020D01*
X005050Y008020D01*
X005050Y008020D01*
X005050Y008020D01*
X004426Y008020D01*
X004426Y008132D01*
X004434Y008164D01*
X004426Y008172D01*
X004426Y009020D01*
X004423Y009020D01*
X004371Y009020D01*
X004369Y009021D01*
X004367Y009021D01*
X004320Y009041D01*
X004272Y009061D01*
X004270Y009063D01*
X004268Y009064D01*
X004233Y009101D01*
X004196Y009137D01*
X004195Y009139D01*
X004194Y009141D01*
X004175Y009189D01*
X004155Y009236D01*
X004155Y009239D01*
X004154Y009241D01*
X004155Y009292D01*
X004155Y009309D01*
X004155Y009308D01*
X004052Y009205D01*
X003917Y009149D01*
X003771Y009149D01*
X003636Y009205D01*
X003533Y009308D01*
X003477Y009443D01*
X003477Y009589D01*
X003533Y009724D01*
X003636Y009827D01*
X003716Y009860D01*
X003699Y009875D01*
X003694Y009884D01*
X003686Y009892D01*
X003670Y009932D01*
X003305Y010647D01*
X003305Y009925D01*
X003199Y009819D01*
X002127Y009819D01*
X002020Y009925D01*
X002020Y010839D01*
X002127Y010946D01*
X002866Y010946D01*
X002847Y010971D01*
X002623Y011188D01*
X001717Y011188D01*
X001645Y011260D01*
X001645Y008978D01*
X001817Y009193D01*
X001817Y009193D01*
X001817Y009193D01*
X002095Y009328D01*
X002405Y009328D01*
X002683Y009193D01*
X002683Y009193D01*
X002876Y008952D01*
X002876Y008952D01*
X002945Y008650D01*
X002945Y008650D01*
X002876Y008348D01*
X002876Y008348D01*
X002683Y008107D01*
X002683Y008107D01*
X002683Y008107D01*
X002405Y007972D01*
X002095Y007972D01*
X001817Y008107D01*
X001817Y008107D01*
X001645Y008322D01*
X001645Y001595D01*
X001645Y001595D01*
X001645Y001643D02*
X009829Y001643D01*
X009817Y001741D02*
X001645Y001741D01*
X001645Y001840D02*
X009817Y001840D01*
X009817Y002037D02*
X009677Y002037D01*
X009689Y002043D02*
X009723Y002077D01*
X009746Y002118D01*
X009759Y002163D01*
X009759Y002600D01*
X009166Y002600D01*
X009166Y002008D01*
X009603Y002008D01*
X009648Y002020D01*
X009689Y002043D01*
X009751Y002135D02*
X009820Y002135D01*
X009874Y002234D02*
X009759Y002234D01*
X009759Y002332D02*
X009817Y002332D01*
X009817Y002431D02*
X009759Y002431D01*
X009759Y002529D02*
X009817Y002529D01*
X009817Y002628D02*
X009166Y002628D01*
X009166Y002600D02*
X009166Y002700D01*
X009066Y002700D01*
X009066Y002600D01*
X008474Y002600D01*
X008474Y002163D01*
X008486Y002118D01*
X008510Y002077D01*
X008543Y002043D01*
X008584Y002020D01*
X008630Y002008D01*
X009066Y002008D01*
X009066Y002600D01*
X009166Y002600D01*
X009166Y002529D02*
X009066Y002529D01*
X009066Y002431D02*
X009166Y002431D01*
X009166Y002332D02*
X009066Y002332D01*
X009066Y002234D02*
X009166Y002234D01*
X009166Y002135D02*
X009066Y002135D01*
X009066Y002037D02*
X009166Y002037D01*
X008555Y002037D02*
X007950Y002037D01*
X007921Y002008D02*
X008026Y002113D01*
X008026Y002587D01*
X008474Y003045D01*
X008474Y002700D01*
X009066Y002700D01*
X009066Y003292D01*
X008716Y003292D01*
X009228Y003816D01*
X010026Y003820D01*
X010109Y003820D01*
X010110Y003820D01*
X010111Y003820D01*
X010133Y003830D01*
X010525Y003830D01*
X010565Y003870D01*
X010780Y003870D01*
X010783Y003869D01*
X010823Y003845D01*
X010850Y003841D01*
X010876Y003830D01*
X010923Y003830D01*
X010968Y003823D01*
X010996Y003830D01*
X011024Y003830D01*
X011066Y003848D01*
X011085Y003852D01*
X011163Y003774D01*
X012237Y003774D01*
X012342Y003880D01*
X012342Y004639D01*
X012237Y004744D01*
X011163Y004744D01*
X011058Y004639D01*
X011058Y004610D01*
X010967Y004610D01*
X010922Y004617D01*
X010894Y004610D01*
X010565Y004610D01*
X010525Y004650D01*
X010133Y004650D01*
X010109Y004660D01*
X010107Y004660D01*
X010106Y004660D01*
X010024Y004660D01*
X009936Y004660D01*
X009935Y004660D01*
X009130Y004655D01*
X009129Y004656D01*
X009046Y004655D01*
X008964Y004655D01*
X008963Y004654D01*
X008962Y004654D01*
X008886Y004622D01*
X008810Y004590D01*
X008809Y004589D01*
X008808Y004588D01*
X008751Y004530D01*
X008693Y004471D01*
X008692Y004470D01*
X007541Y003292D01*
X007335Y003292D01*
X006528Y004100D01*
X006614Y004307D01*
X006614Y004593D01*
X006504Y004858D01*
X006302Y005060D01*
X006037Y005170D01*
X005750Y005170D01*
X005486Y005060D01*
X005283Y004858D01*
X005174Y004593D01*
X005174Y004307D01*
X005283Y004042D01*
X005486Y003840D01*
X005681Y003759D01*
X006741Y002698D01*
X006741Y002113D01*
X006847Y002008D01*
X007921Y002008D01*
X008026Y002135D02*
X008481Y002135D01*
X008474Y002234D02*
X008026Y002234D01*
X008026Y002332D02*
X008474Y002332D01*
X008474Y002431D02*
X008026Y002431D01*
X008026Y002529D02*
X008474Y002529D01*
X008474Y002726D02*
X008162Y002726D01*
X008258Y002825D02*
X008474Y002825D01*
X008474Y002923D02*
X008354Y002923D01*
X008451Y003022D02*
X008474Y003022D01*
X008740Y003317D02*
X010584Y003317D01*
X010342Y003219D02*
X009725Y003219D01*
X009723Y003223D02*
X009689Y003257D01*
X009648Y003280D01*
X009603Y003292D01*
X009166Y003292D01*
X009166Y002700D01*
X009759Y002700D01*
X009759Y003137D01*
X009746Y003182D01*
X009723Y003223D01*
X009759Y003120D02*
X010100Y003120D01*
X009971Y003022D02*
X009759Y003022D01*
X009759Y002923D02*
X009875Y002923D01*
X009817Y002825D02*
X009759Y002825D01*
X009759Y002726D02*
X009817Y002726D01*
X009166Y002726D02*
X009066Y002726D01*
X009066Y002628D02*
X008065Y002628D01*
X007565Y003317D02*
X007311Y003317D01*
X007212Y003416D02*
X007661Y003416D01*
X007757Y003514D02*
X007114Y003514D01*
X007015Y003613D02*
X007854Y003613D01*
X007950Y003711D02*
X006917Y003711D01*
X006818Y003810D02*
X008046Y003810D01*
X008143Y003908D02*
X006720Y003908D01*
X006621Y004007D02*
X008239Y004007D01*
X008335Y004105D02*
X006530Y004105D01*
X006571Y004204D02*
X008432Y004204D01*
X008528Y004302D02*
X008105Y004302D01*
X008114Y004307D02*
X008147Y004340D01*
X008171Y004381D01*
X008183Y004426D01*
X008183Y005100D01*
X007630Y005100D01*
X007630Y005200D01*
X008183Y005200D01*
X008183Y005874D01*
X008171Y005919D01*
X008147Y005960D01*
X008114Y005993D01*
X008073Y006016D01*
X008028Y006029D01*
X007630Y006029D01*
X007630Y005200D01*
X007530Y005200D01*
X007530Y006029D01*
X007132Y006029D01*
X007087Y006016D01*
X007046Y005993D01*
X007013Y005960D01*
X006989Y005919D01*
X006977Y005874D01*
X006977Y005200D01*
X007530Y005200D01*
X007530Y005100D01*
X007630Y005100D01*
X007630Y004271D01*
X008028Y004271D01*
X008073Y004284D01*
X008114Y004307D01*
X008176Y004401D02*
X008624Y004401D01*
X008720Y004499D02*
X008183Y004499D01*
X008183Y004598D02*
X008829Y004598D01*
X009411Y004893D02*
X008183Y004893D01*
X008183Y004795D02*
X009461Y004795D01*
X009410Y004992D02*
X008183Y004992D01*
X008183Y005090D02*
X009410Y005090D01*
X009410Y005287D02*
X008183Y005287D01*
X008183Y005386D02*
X009410Y005386D01*
X009442Y005484D02*
X008183Y005484D01*
X008183Y005583D02*
X010519Y005583D01*
X010630Y005386D02*
X010763Y005386D01*
X010630Y005287D02*
X011058Y005287D01*
X011058Y005189D02*
X010070Y005189D01*
X010070Y005287D02*
X009970Y005287D01*
X009970Y005189D02*
X007630Y005189D01*
X007630Y005287D02*
X007530Y005287D01*
X007530Y005189D02*
X001645Y005189D01*
X001645Y005287D02*
X006977Y005287D01*
X006977Y005386D02*
X001645Y005386D01*
X001645Y005484D02*
X006977Y005484D01*
X006977Y005583D02*
X001645Y005583D01*
X001645Y005681D02*
X006977Y005681D01*
X006977Y005780D02*
X001645Y005780D01*
X001645Y005878D02*
X006978Y005878D01*
X007029Y005977D02*
X001645Y005977D01*
X001645Y006075D02*
X009410Y006075D01*
X009410Y005977D02*
X008130Y005977D01*
X008182Y005878D02*
X009410Y005878D01*
X009410Y005780D02*
X008183Y005780D01*
X008183Y005681D02*
X009484Y005681D01*
X009970Y005484D02*
X010070Y005484D01*
X010070Y005386D02*
X009970Y005386D01*
X009970Y005090D02*
X010070Y005090D01*
X010070Y004992D02*
X009970Y004992D01*
X009970Y004893D02*
X010070Y004893D01*
X010070Y004795D02*
X009970Y004795D01*
X010579Y004795D02*
X013730Y004795D01*
X013730Y004696D02*
X013636Y004696D01*
X013692Y004598D02*
X013730Y004598D01*
X013730Y004499D02*
X013692Y004499D01*
X013692Y004401D02*
X013730Y004401D01*
X013730Y004302D02*
X013692Y004302D01*
X013692Y004204D02*
X013730Y004204D01*
X013730Y004105D02*
X013692Y004105D01*
X014417Y003749D02*
X014423Y003756D01*
X014445Y003817D01*
X014470Y003876D01*
X014470Y003886D01*
X014473Y003894D01*
X014470Y003959D01*
X014470Y004824D01*
X014439Y004897D01*
X014484Y004900D01*
X014569Y004900D01*
X014574Y004905D01*
X014582Y004906D01*
X014638Y004969D01*
X014698Y005029D01*
X014698Y005036D01*
X014781Y005129D01*
X014918Y005129D01*
X014984Y005195D01*
X015086Y005094D01*
X015688Y005094D01*
X015793Y005199D01*
X015793Y005801D01*
X015769Y005825D01*
X015793Y005849D01*
X015793Y006323D01*
X015807Y006323D01*
X015807Y005849D01*
X015831Y005825D01*
X015807Y005801D01*
X015807Y005199D01*
X015912Y005094D01*
X016514Y005094D01*
X016620Y005199D01*
X016620Y005290D01*
X017500Y005290D01*
X017566Y005224D01*
X017685Y005175D01*
X017815Y005175D01*
X017934Y005224D01*
X018026Y005316D01*
X018075Y005435D01*
X018075Y005565D01*
X018026Y005684D01*
X017934Y005776D01*
X017815Y005825D01*
X017685Y005825D01*
X017566Y005776D01*
X017500Y005710D01*
X016620Y005710D01*
X016620Y005801D01*
X016596Y005825D01*
X016620Y005849D01*
X016620Y006451D01*
X016514Y006556D01*
X016510Y006556D01*
X016510Y006695D01*
X016570Y006740D01*
X016587Y006740D01*
X016638Y006791D01*
X016696Y006834D01*
X016698Y006851D01*
X016710Y006863D01*
X017540Y006863D01*
X017503Y006900D02*
X018601Y005802D01*
X019006Y005389D01*
X018975Y005315D01*
X018975Y005185D01*
X019024Y005066D01*
X019116Y004974D01*
X019235Y004925D01*
X019365Y004925D01*
X019484Y004974D01*
X019576Y005066D01*
X019625Y005185D01*
X019625Y005315D01*
X019576Y005434D01*
X019484Y005526D01*
X019461Y005535D01*
X019420Y005567D01*
X019299Y005690D01*
X019917Y005690D01*
X019686Y005460D01*
X019630Y005324D01*
X019630Y004570D01*
X016276Y004570D01*
X016140Y004514D01*
X016036Y004410D01*
X015980Y004274D01*
X015980Y004126D01*
X016036Y003990D01*
X016140Y003886D01*
X016276Y003830D01*
X019859Y003830D01*
X020080Y003634D01*
X020080Y003556D01*
X020069Y003545D01*
X020000Y003380D01*
X020000Y002920D01*
X020069Y002755D01*
X020080Y002744D01*
X020080Y002556D01*
X020069Y002545D01*
X020000Y002380D01*
X020000Y001920D01*
X020069Y001755D01*
X020195Y001629D01*
X020360Y001560D01*
X020540Y001560D01*
X020705Y001629D01*
X020831Y001755D01*
X020900Y001920D01*
X020900Y002380D01*
X020831Y002545D01*
X020820Y002556D01*
X020820Y002744D01*
X020831Y002755D01*
X020842Y002780D01*
X021058Y002780D01*
X021069Y002755D01*
X021080Y002744D01*
X021080Y002556D01*
X021069Y002545D01*
X021000Y002380D01*
X021000Y001920D01*
X021069Y001755D01*
X021195Y001629D01*
X021360Y001560D01*
X021540Y001560D01*
X021705Y001629D01*
X021831Y001755D01*
X021900Y001920D01*
X021900Y002380D01*
X021831Y002545D01*
X021820Y002556D01*
X021820Y002744D01*
X021831Y002755D01*
X021900Y002920D01*
X021900Y003380D01*
X021831Y003545D01*
X021705Y003671D01*
X021540Y003740D01*
X021360Y003740D01*
X021195Y003671D01*
X021069Y003545D01*
X021058Y003520D01*
X020842Y003520D01*
X020831Y003545D01*
X020820Y003556D01*
X020820Y003738D01*
X020824Y003748D01*
X020820Y003811D01*
X020820Y003874D01*
X020816Y003884D01*
X020815Y003895D01*
X020788Y003952D01*
X020764Y004010D01*
X020756Y004018D01*
X020751Y004028D01*
X020704Y004069D01*
X020660Y004114D01*
X020649Y004118D01*
X020370Y004366D01*
X020370Y005097D01*
X020440Y005167D01*
X020440Y004956D01*
X020425Y004930D01*
X020440Y004872D01*
X020440Y004813D01*
X020462Y004791D01*
X020470Y004762D01*
X020521Y004732D01*
X020563Y004690D01*
X020594Y004690D01*
X020845Y004545D01*
X020845Y004535D01*
X020894Y004416D01*
X020986Y004324D01*
X021105Y004275D01*
X021235Y004275D01*
X021354Y004324D01*
X021446Y004416D01*
X021495Y004535D01*
X021495Y004631D01*
X021572Y004643D01*
X021650Y004668D01*
X021723Y004705D01*
X021789Y004753D01*
X021847Y004811D01*
X021895Y004877D01*
X021932Y004950D01*
X021949Y005002D01*
X022009Y004855D01*
X022155Y004709D01*
X022298Y004650D01*
X022155Y004591D01*
X022009Y004445D01*
X021930Y004253D01*
X021930Y004047D01*
X022009Y003855D01*
X022155Y003709D01*
X022347Y003630D01*
X022553Y003630D01*
X022745Y003709D01*
X022891Y003855D01*
X022970Y004047D01*
X022970Y004253D01*
X022891Y004445D01*
X022745Y004591D01*
X022602Y004650D01*
X022745Y004709D01*
X022891Y004855D01*
X022950Y004998D01*
X023009Y004855D01*
X023155Y004709D01*
X023347Y004630D01*
X023553Y004630D01*
X023745Y004709D01*
X023891Y004855D01*
X023926Y004940D01*
X024313Y004940D01*
X024390Y004863D01*
X024513Y004740D01*
X024838Y004740D01*
X024838Y004719D01*
X024944Y004614D01*
X025490Y004614D01*
X025490Y004360D01*
X024926Y004360D01*
X024891Y004445D01*
X024745Y004591D01*
X024553Y004670D01*
X024347Y004670D01*
X024155Y004591D01*
X024009Y004445D01*
X023930Y004253D01*
X023930Y004047D01*
X024009Y003855D01*
X024155Y003709D01*
X024347Y003630D01*
X024553Y003630D01*
X024745Y003709D01*
X024891Y003855D01*
X024926Y003940D01*
X025490Y003940D01*
X025490Y002713D01*
X025590Y002613D01*
X025713Y002490D01*
X025780Y002490D01*
X025780Y001885D01*
X025885Y001780D01*
X026915Y001780D01*
X027020Y001885D01*
X027020Y002000D01*
X028380Y002000D01*
X028380Y001885D01*
X028485Y001780D01*
X029515Y001780D01*
X029620Y001885D01*
X029620Y002615D01*
X029515Y002720D01*
X028485Y002720D01*
X028380Y002615D01*
X028380Y002500D01*
X027912Y002500D01*
X028133Y002607D01*
X028326Y002848D01*
X028326Y002848D01*
X028395Y003150D01*
X028326Y003452D01*
X028133Y003693D01*
X027855Y003828D01*
X027545Y003828D01*
X027267Y003693D01*
X027074Y003452D01*
X027074Y003452D01*
X027005Y003150D01*
X027005Y003150D01*
X027074Y002848D01*
X027267Y002607D01*
X027488Y002500D01*
X027020Y002500D01*
X027020Y002615D01*
X026915Y002720D01*
X026227Y002720D01*
X026037Y002910D01*
X025910Y002910D01*
X025910Y003587D01*
X025935Y003580D01*
X026350Y003580D01*
X026350Y004000D01*
X026450Y004000D01*
X026450Y004100D01*
X026350Y004100D01*
X026350Y004520D01*
X025935Y004520D01*
X025910Y004513D01*
X025910Y005537D01*
X025787Y005660D01*
X025612Y005835D01*
X025612Y005911D01*
X025506Y006016D01*
X025155Y006016D01*
X025027Y006145D01*
X024480Y006145D01*
X024085Y007765D01*
X024085Y007827D01*
X024065Y007847D01*
X024058Y007874D01*
X024006Y007906D01*
X023962Y007950D01*
X023934Y007950D01*
X023910Y007965D01*
X023850Y007950D01*
X022127Y007950D01*
X022054Y007978D01*
X021991Y007950D01*
X021973Y007950D01*
X021959Y007936D01*
X021887Y007904D01*
X021863Y007840D01*
X021850Y007827D01*
X021850Y007807D01*
X021414Y006670D01*
X021347Y006670D01*
X021183Y006602D01*
X021140Y006645D01*
X021087Y006710D01*
X021074Y006711D01*
X021065Y006720D01*
X020981Y006720D01*
X020897Y006728D01*
X020887Y006720D01*
X019995Y006720D01*
X019970Y006695D01*
X019970Y006724D01*
X019914Y006860D01*
X019810Y006964D01*
X019689Y007013D01*
X019827Y007013D01*
X019917Y007050D01*
X020245Y007050D01*
X020247Y007049D01*
X020304Y007025D01*
X020364Y007013D01*
X020392Y007013D01*
X020392Y007159D01*
X020400Y007167D01*
X020400Y007362D01*
X020468Y007362D01*
X020468Y007438D01*
X020468Y007579D01*
X020400Y007579D01*
X020400Y007438D01*
X020468Y007438D01*
X020777Y007438D01*
X020777Y007506D01*
X020765Y007566D01*
X020760Y007579D01*
X020874Y007579D01*
X020979Y007684D01*
X020979Y008286D01*
X020965Y008300D01*
X020979Y008314D01*
X020979Y008916D01*
X020874Y009021D01*
X020830Y009021D01*
X020835Y009034D01*
X020847Y009094D01*
X020847Y009162D01*
X020538Y009162D01*
X020538Y009238D01*
X020847Y009238D01*
X020847Y009306D01*
X020835Y009366D01*
X020811Y009423D01*
X020810Y009425D01*
X022937Y009425D01*
X025402Y011890D01*
X027837Y011890D01*
X028557Y012610D01*
X028557Y012610D01*
X028756Y012692D01*
X028908Y012844D01*
X028990Y013043D01*
X028990Y013257D01*
X028908Y013456D01*
X028756Y013608D01*
X028557Y013690D01*
X028343Y013690D01*
X028144Y013608D01*
X027992Y013456D01*
X027950Y013354D01*
X027908Y013456D01*
X027756Y013608D01*
X027557Y013690D01*
X027343Y013690D01*
X027144Y013608D01*
X026992Y013456D01*
X026950Y013354D01*
X026908Y013456D01*
X026756Y013608D01*
X026557Y013690D01*
X026343Y013690D01*
X026144Y013608D01*
X025992Y013456D01*
X025950Y013354D01*
X025908Y013456D01*
X025756Y013608D01*
X025557Y013690D01*
X025343Y013690D01*
X025144Y013608D01*
X024992Y013456D01*
X024950Y013354D01*
X024908Y013456D01*
X024756Y013608D01*
X024557Y013690D01*
X024343Y013690D01*
X024144Y013608D01*
X023992Y013456D01*
X023950Y013354D01*
X023908Y013456D01*
X023756Y013608D01*
X023557Y013690D01*
X023343Y013690D01*
X023261Y013656D01*
X023040Y013877D01*
X023040Y013891D01*
X022911Y014020D01*
X016264Y014020D01*
X016244Y014026D01*
X016234Y014020D01*
X016179Y014020D01*
X016110Y013952D01*
X015946Y013860D01*
X015913Y013860D01*
X015872Y013819D01*
X015822Y013791D01*
X015813Y013760D01*
X015740Y013687D01*
X015740Y013614D01*
X015557Y013690D01*
X015343Y013690D01*
X015144Y013608D01*
X014992Y013456D01*
X014951Y013356D01*
X014950Y013357D01*
X014912Y013433D01*
X014862Y013502D01*
X014802Y013562D01*
X014733Y013612D01*
X014657Y013650D01*
X014576Y013677D01*
X014492Y013690D01*
X014489Y013690D01*
X014489Y013189D01*
X014411Y013189D01*
X014411Y013690D01*
X014408Y013690D01*
X014324Y013677D01*
X014243Y013650D01*
X014167Y013612D01*
X014098Y013562D01*
X014038Y013502D01*
X013988Y013433D01*
X013950Y013357D01*
X013949Y013356D01*
X013908Y013456D01*
X013756Y013608D01*
X013557Y013690D01*
X013343Y013690D01*
X013144Y013608D01*
X012992Y013456D01*
X012910Y013257D01*
X012910Y013043D01*
X012992Y012844D01*
X013144Y012692D01*
X013343Y012610D01*
X013557Y012610D01*
X013756Y012692D01*
X013908Y012844D01*
X013949Y012944D01*
X013950Y012943D01*
X013988Y012867D01*
X014038Y012798D01*
X014098Y012738D01*
X014167Y012688D01*
X014243Y012650D01*
X014324Y012623D01*
X014408Y012610D01*
X014411Y012610D01*
X014411Y013111D01*
X014489Y013111D01*
X014489Y012610D01*
X014492Y012610D01*
X014576Y012623D01*
X014657Y012650D01*
X014733Y012688D01*
X014802Y012738D01*
X014862Y012798D01*
X014912Y012867D01*
X014950Y012943D01*
X014951Y012944D01*
X014992Y012844D01*
X015144Y012692D01*
X015240Y012652D01*
X015240Y011487D01*
X015090Y011337D01*
X014853Y011100D01*
X014853Y010756D01*
X014827Y010756D01*
X014774Y010742D01*
X014772Y010745D01*
X014741Y010771D01*
X014713Y010799D01*
X014700Y010804D01*
X014194Y011217D01*
X014194Y011217D01*
X014194Y011550D01*
X014294Y011550D01*
X014294Y011217D01*
X014465Y011217D01*
X014510Y011230D01*
X014552Y011253D01*
X014585Y011287D01*
X014609Y011328D01*
X014621Y011374D01*
X014621Y011550D01*
X014294Y011550D01*
X014294Y011650D01*
X014194Y011650D01*
X014194Y011983D01*
X014024Y011983D01*
X013979Y011970D01*
X013937Y011947D01*
X013904Y011913D01*
X013901Y011908D01*
X013827Y011983D01*
X013656Y011983D01*
X013390Y012325D01*
X013379Y012353D01*
X013367Y012365D01*
X013359Y012379D01*
X015240Y012379D01*
X015240Y012281D02*
X013425Y012281D01*
X013359Y012379D02*
X013332Y012400D01*
X013330Y012402D01*
X013328Y012404D01*
X013303Y012429D01*
X013288Y012435D01*
X012761Y012849D01*
X012726Y012934D01*
X012634Y013026D01*
X012515Y013075D01*
X012385Y013075D01*
X012266Y013026D01*
X012174Y012934D01*
X012125Y012815D01*
X012125Y012772D01*
X011900Y012997D01*
X011900Y013380D01*
X011831Y013545D01*
X011705Y013671D01*
X011540Y013740D01*
X011360Y013740D01*
X011195Y013671D01*
X011069Y013545D01*
X011000Y013380D01*
X011000Y012920D01*
X011017Y012880D01*
X010900Y012997D01*
X010900Y013380D01*
X010831Y013545D01*
X010705Y013671D01*
X010540Y013740D01*
X010360Y013740D01*
X010195Y013671D01*
X010069Y013545D01*
X010000Y013380D01*
X010000Y012920D01*
X010017Y012880D01*
X009900Y012997D01*
X009900Y013380D01*
X009831Y013545D01*
X009705Y013671D01*
X009540Y013740D01*
X009360Y013740D01*
X009195Y013671D01*
X009069Y013545D01*
X009000Y013380D01*
X009000Y012920D01*
X009017Y012880D01*
X008900Y012997D01*
X008900Y013380D01*
X008831Y013545D01*
X008705Y013671D01*
X008540Y013740D01*
X008360Y013740D01*
X008195Y013671D01*
X008069Y013545D01*
X008000Y013380D01*
X008000Y012920D01*
X008017Y012880D01*
X007900Y012997D01*
X007900Y013380D01*
X007831Y013545D01*
X007705Y013671D01*
X007540Y013740D01*
X007360Y013740D01*
X007195Y013671D01*
X007069Y013545D01*
X007000Y013380D01*
X007000Y012920D01*
X007017Y012880D01*
X006900Y012997D01*
X006900Y013380D01*
X006831Y013545D01*
X006705Y013671D01*
X006540Y013740D01*
X006360Y013740D01*
X006195Y013671D01*
X006069Y013545D01*
X006000Y013380D01*
X006000Y012920D01*
X006069Y012755D01*
X006195Y012629D01*
X006221Y012618D01*
X006155Y012591D01*
X006085Y012520D01*
X004720Y012520D01*
X004517Y012600D01*
X004754Y012600D01*
X005048Y012722D01*
X005273Y012947D01*
X005395Y013241D01*
X005395Y013559D01*
X005273Y013853D01*
X005076Y014051D01*
X029703Y014055D01*
X029705Y014053D01*
X029755Y014054D01*
X029755Y010846D01*
X029733Y010862D01*
X029657Y010900D01*
X029576Y010927D01*
X029500Y010939D01*
X029500Y010450D01*
X029400Y010450D01*
X029400Y010939D01*
X029324Y010927D01*
X029243Y010900D01*
X029167Y010862D01*
X029098Y010812D01*
X029038Y010752D01*
X028988Y010683D01*
X028950Y010607D01*
X028923Y010526D01*
X028911Y010450D01*
X029400Y010450D01*
X029400Y010350D01*
X028953Y010350D01*
X028950Y010357D01*
X028912Y010433D01*
X028862Y010502D01*
X028802Y010562D01*
X028733Y010612D01*
X028657Y010650D01*
X028576Y010677D01*
X028500Y010689D01*
X028500Y010200D01*
X028947Y010200D01*
X028950Y010193D01*
X028988Y010117D01*
X029038Y010048D01*
X029098Y009988D01*
X029167Y009938D01*
X029243Y009900D01*
X029244Y009899D01*
X029144Y009858D01*
X028992Y009706D01*
X028915Y009520D01*
X028844Y009520D01*
X028756Y009608D01*
X028656Y009649D01*
X028657Y009650D01*
X028733Y009688D01*
X028802Y009738D01*
X028862Y009798D01*
X028912Y009867D01*
X028950Y009943D01*
X028977Y010024D01*
X028989Y010100D01*
X028500Y010100D01*
X028500Y010200D01*
X028400Y010200D01*
X028400Y010689D01*
X028324Y010677D01*
X028243Y010650D01*
X028167Y010612D01*
X028098Y010562D01*
X028038Y010502D01*
X027988Y010433D01*
X027950Y010357D01*
X027923Y010276D01*
X027911Y010200D01*
X028400Y010200D01*
X028400Y010100D01*
X027911Y010100D01*
X027923Y010024D01*
X027950Y009943D01*
X027988Y009867D01*
X028038Y009798D01*
X028098Y009738D01*
X028167Y009688D01*
X028243Y009650D01*
X028244Y009649D01*
X028144Y009608D01*
X027992Y009456D01*
X027910Y009257D01*
X027910Y009186D01*
X027862Y009252D01*
X027802Y009312D01*
X027733Y009362D01*
X027657Y009400D01*
X027576Y009427D01*
X027500Y009439D01*
X027500Y008950D01*
X027948Y008950D01*
X027992Y008844D01*
X028007Y008830D01*
X027982Y008805D01*
X027989Y008850D01*
X027500Y008850D01*
X027500Y008950D01*
X027400Y008950D01*
X027400Y009439D01*
X027324Y009427D01*
X027243Y009400D01*
X027167Y009362D01*
X027098Y009312D01*
X027038Y009252D01*
X026988Y009183D01*
X026970Y009147D01*
X026970Y009253D01*
X026891Y009445D01*
X026745Y009591D01*
X026602Y009650D01*
X026745Y009709D01*
X026891Y009855D01*
X026970Y010047D01*
X026970Y010253D01*
X026891Y010445D01*
X026745Y010591D01*
X026602Y010650D01*
X026745Y010709D01*
X026891Y010855D01*
X026970Y011047D01*
X026970Y011253D01*
X026891Y011445D01*
X026745Y011591D01*
X026553Y011670D01*
X026347Y011670D01*
X026155Y011591D01*
X026009Y011445D01*
X025950Y011302D01*
X025891Y011445D01*
X025745Y011591D01*
X025553Y011670D01*
X025347Y011670D01*
X025155Y011591D01*
X025009Y011445D01*
X024930Y011253D01*
X024930Y011047D01*
X025009Y010855D01*
X025155Y010709D01*
X025298Y010650D01*
X025155Y010591D01*
X025009Y010445D01*
X024930Y010253D01*
X024930Y010047D01*
X025009Y009855D01*
X025155Y009709D01*
X025298Y009650D01*
X025155Y009591D01*
X025009Y009445D01*
X024930Y009253D01*
X024930Y009234D01*
X024608Y008912D01*
X024538Y008842D01*
X024500Y008750D01*
X024500Y007650D01*
X024538Y007558D01*
X024888Y007208D01*
X024958Y007138D01*
X025050Y007100D01*
X026796Y007100D01*
X027138Y006758D01*
X027208Y006688D01*
X027300Y006650D01*
X029350Y006650D01*
X029442Y006688D01*
X029483Y006730D01*
X029578Y006731D01*
X029713Y006789D01*
X029755Y006832D01*
X029755Y001548D01*
X029718Y001552D01*
X029710Y001545D01*
X024118Y001545D01*
X024303Y001622D01*
X024528Y001847D01*
X024650Y002141D01*
X024650Y002459D01*
X024528Y002753D01*
X024303Y002978D01*
X024009Y003100D01*
X023691Y003100D01*
X023397Y002978D01*
X023172Y002753D01*
X023050Y002459D01*
X023050Y002141D01*
X023172Y001847D01*
X023397Y001622D01*
X023582Y001545D01*
X014766Y001545D01*
X014820Y001676D01*
X014820Y001744D01*
X014831Y001755D01*
X014842Y001780D01*
X015058Y001780D01*
X015069Y001755D01*
X015195Y001629D01*
X015360Y001560D01*
X015540Y001560D01*
X015705Y001629D01*
X015831Y001755D01*
X015900Y001920D01*
X015900Y002380D01*
X015831Y002545D01*
X015820Y002556D01*
X015820Y002744D01*
X015831Y002755D01*
X015900Y002920D01*
X015900Y003380D01*
X015831Y003545D01*
X015705Y003671D01*
X015540Y003740D01*
X015360Y003740D01*
X015195Y003671D01*
X015069Y003545D01*
X015058Y003520D01*
X014842Y003520D01*
X014831Y003545D01*
X014705Y003671D01*
X014540Y003740D01*
X014413Y003740D01*
X014414Y003740D01*
X014417Y003749D01*
X014443Y003810D02*
X019882Y003810D01*
X019993Y003711D02*
X019611Y003711D01*
X019623Y003707D02*
X019555Y003729D01*
X019485Y003740D01*
X019484Y003740D01*
X019484Y003184D01*
X019900Y003184D01*
X019900Y003325D01*
X019889Y003395D01*
X019867Y003463D01*
X019835Y003526D01*
X019793Y003583D01*
X019743Y003633D01*
X019686Y003675D01*
X019623Y003707D01*
X019484Y003711D02*
X019416Y003711D01*
X019416Y003740D02*
X019415Y003740D01*
X019345Y003729D01*
X019277Y003707D01*
X019214Y003675D01*
X019157Y003633D01*
X019107Y003583D01*
X019065Y003526D01*
X019033Y003463D01*
X019011Y003395D01*
X019000Y003325D01*
X019000Y003184D01*
X019416Y003184D01*
X019416Y003116D01*
X019000Y003116D01*
X019000Y002975D01*
X019011Y002905D01*
X019033Y002837D01*
X019065Y002774D01*
X019107Y002717D01*
X019157Y002667D01*
X019180Y002650D01*
X019157Y002633D01*
X019107Y002583D01*
X019065Y002526D01*
X019033Y002463D01*
X019011Y002395D01*
X019000Y002325D01*
X019000Y002184D01*
X019416Y002184D01*
X019416Y002116D01*
X019484Y002116D01*
X019484Y002184D01*
X019900Y002184D01*
X019900Y002325D01*
X019889Y002395D01*
X019867Y002463D01*
X019835Y002526D01*
X019793Y002583D01*
X019743Y002633D01*
X019720Y002650D01*
X019743Y002667D01*
X019793Y002717D01*
X019835Y002774D01*
X019867Y002837D01*
X019889Y002905D01*
X019900Y002975D01*
X019900Y003116D01*
X019484Y003116D01*
X019484Y003184D01*
X019416Y003184D01*
X019416Y003740D01*
X019416Y003613D02*
X019484Y003613D01*
X019484Y003514D02*
X019416Y003514D01*
X019416Y003416D02*
X019484Y003416D01*
X019484Y003317D02*
X019416Y003317D01*
X019416Y003219D02*
X019484Y003219D01*
X019484Y003120D02*
X020000Y003120D01*
X020000Y003022D02*
X019900Y003022D01*
X019892Y002923D02*
X020000Y002923D01*
X020040Y002825D02*
X019861Y002825D01*
X019800Y002726D02*
X020080Y002726D01*
X020080Y002628D02*
X019749Y002628D01*
X019833Y002529D02*
X020062Y002529D01*
X020021Y002431D02*
X019878Y002431D01*
X019899Y002332D02*
X020000Y002332D01*
X020000Y002234D02*
X019900Y002234D01*
X019900Y002116D02*
X019484Y002116D01*
X019484Y001560D01*
X019485Y001560D01*
X019555Y001571D01*
X019623Y001593D01*
X019686Y001625D01*
X019743Y001667D01*
X019793Y001717D01*
X019835Y001774D01*
X019867Y001837D01*
X019889Y001905D01*
X019900Y001975D01*
X019900Y002116D01*
X019900Y002037D02*
X020000Y002037D01*
X020000Y002135D02*
X019484Y002135D01*
X019484Y002184D02*
X019416Y002184D01*
X019416Y003116D01*
X019484Y003116D01*
X019484Y002560D01*
X019484Y002184D01*
X019484Y002234D02*
X019416Y002234D01*
X019416Y002332D02*
X019484Y002332D01*
X019484Y002431D02*
X019416Y002431D01*
X019416Y002529D02*
X019484Y002529D01*
X019484Y002628D02*
X019416Y002628D01*
X019416Y002726D02*
X019484Y002726D01*
X019484Y002825D02*
X019416Y002825D01*
X019416Y002923D02*
X019484Y002923D01*
X019484Y003022D02*
X019416Y003022D01*
X019416Y003120D02*
X018484Y003120D01*
X018484Y003116D02*
X018484Y003184D01*
X018900Y003184D01*
X018900Y003325D01*
X018889Y003395D01*
X018867Y003463D01*
X018835Y003526D01*
X018793Y003583D01*
X018743Y003633D01*
X018686Y003675D01*
X018623Y003707D01*
X018555Y003729D01*
X018485Y003740D01*
X018484Y003740D01*
X018484Y003184D01*
X018416Y003184D01*
X018416Y003116D01*
X018000Y003116D01*
X018000Y002975D01*
X018011Y002905D01*
X018033Y002837D01*
X018065Y002774D01*
X018107Y002717D01*
X018157Y002667D01*
X018180Y002650D01*
X018157Y002633D01*
X018107Y002583D01*
X018065Y002526D01*
X018033Y002463D01*
X018011Y002395D01*
X018000Y002325D01*
X018000Y002184D01*
X018416Y002184D01*
X018416Y002116D01*
X018484Y002116D01*
X018484Y002184D01*
X018900Y002184D01*
X018900Y002325D01*
X018889Y002395D01*
X018867Y002463D01*
X018835Y002526D01*
X018793Y002583D01*
X018743Y002633D01*
X018720Y002650D01*
X018743Y002667D01*
X018793Y002717D01*
X018835Y002774D01*
X018867Y002837D01*
X018889Y002905D01*
X018900Y002975D01*
X018900Y003116D01*
X018484Y003116D01*
X018484Y002560D01*
X018484Y002184D01*
X018416Y002184D01*
X018416Y003116D01*
X018484Y003116D01*
X018416Y003120D02*
X017900Y003120D01*
X017900Y003022D02*
X018000Y003022D01*
X018008Y002923D02*
X017900Y002923D01*
X017900Y002920D02*
X017900Y003380D01*
X017831Y003545D01*
X017705Y003671D01*
X017540Y003740D01*
X017360Y003740D01*
X017195Y003671D01*
X017069Y003545D01*
X017000Y003380D01*
X017000Y002920D01*
X017069Y002755D01*
X017174Y002650D01*
X017069Y002545D01*
X017000Y002380D01*
X017000Y001920D01*
X017069Y001755D01*
X017195Y001629D01*
X017360Y001560D01*
X017540Y001560D01*
X017705Y001629D01*
X017831Y001755D01*
X017900Y001920D01*
X017900Y002380D01*
X017831Y002545D01*
X017726Y002650D01*
X017831Y002755D01*
X017900Y002920D01*
X017860Y002825D02*
X018039Y002825D01*
X018100Y002726D02*
X017802Y002726D01*
X017749Y002628D02*
X018151Y002628D01*
X018067Y002529D02*
X017838Y002529D01*
X017879Y002431D02*
X018022Y002431D01*
X018001Y002332D02*
X017900Y002332D01*
X017900Y002234D02*
X018000Y002234D01*
X018000Y002116D02*
X018000Y001975D01*
X018011Y001905D01*
X018033Y001837D01*
X018065Y001774D01*
X018107Y001717D01*
X018157Y001667D01*
X018214Y001625D01*
X018277Y001593D01*
X018345Y001571D01*
X018415Y001560D01*
X018416Y001560D01*
X018416Y002116D01*
X018000Y002116D01*
X018000Y002037D02*
X017900Y002037D01*
X017900Y002135D02*
X018416Y002135D01*
X018484Y002135D02*
X019416Y002135D01*
X019416Y002116D02*
X019000Y002116D01*
X019000Y001975D01*
X019011Y001905D01*
X019033Y001837D01*
X019065Y001774D01*
X019107Y001717D01*
X019157Y001667D01*
X019214Y001625D01*
X019277Y001593D01*
X019345Y001571D01*
X019415Y001560D01*
X019416Y001560D01*
X019416Y002116D01*
X019416Y002037D02*
X019484Y002037D01*
X019484Y001938D02*
X019416Y001938D01*
X019416Y001840D02*
X019484Y001840D01*
X019484Y001741D02*
X019416Y001741D01*
X019416Y001643D02*
X019484Y001643D01*
X019710Y001643D02*
X020181Y001643D01*
X020083Y001741D02*
X019811Y001741D01*
X019868Y001840D02*
X020034Y001840D01*
X020000Y001938D02*
X019894Y001938D01*
X019190Y001643D02*
X018710Y001643D01*
X018686Y001625D02*
X018743Y001667D01*
X018793Y001717D01*
X018835Y001774D01*
X018867Y001837D01*
X018889Y001905D01*
X018900Y001975D01*
X018900Y002116D01*
X018484Y002116D01*
X018484Y001560D01*
X018485Y001560D01*
X018555Y001571D01*
X018623Y001593D01*
X018686Y001625D01*
X018811Y001741D02*
X019089Y001741D01*
X019032Y001840D02*
X018868Y001840D01*
X018894Y001938D02*
X019006Y001938D01*
X019000Y002037D02*
X018900Y002037D01*
X018900Y002234D02*
X019000Y002234D01*
X019001Y002332D02*
X018899Y002332D01*
X018878Y002431D02*
X019022Y002431D01*
X019067Y002529D02*
X018833Y002529D01*
X018749Y002628D02*
X019151Y002628D01*
X019100Y002726D02*
X018800Y002726D01*
X018861Y002825D02*
X019039Y002825D01*
X019008Y002923D02*
X018892Y002923D01*
X018900Y003022D02*
X019000Y003022D01*
X019000Y003219D02*
X018900Y003219D01*
X018900Y003317D02*
X019000Y003317D01*
X019018Y003416D02*
X018882Y003416D01*
X018841Y003514D02*
X019059Y003514D01*
X019136Y003613D02*
X018764Y003613D01*
X018611Y003711D02*
X019289Y003711D01*
X019764Y003613D02*
X020080Y003613D01*
X020056Y003514D02*
X019841Y003514D01*
X019882Y003416D02*
X020015Y003416D01*
X020000Y003317D02*
X019900Y003317D01*
X019900Y003219D02*
X020000Y003219D01*
X020820Y003613D02*
X021136Y003613D01*
X021290Y003711D02*
X020820Y003711D01*
X020820Y003810D02*
X022055Y003810D01*
X021987Y003908D02*
X020809Y003908D01*
X020765Y004007D02*
X021947Y004007D01*
X021930Y004105D02*
X020668Y004105D01*
X020553Y004204D02*
X021930Y004204D01*
X021950Y004302D02*
X021300Y004302D01*
X021430Y004401D02*
X021991Y004401D01*
X022064Y004499D02*
X021480Y004499D01*
X021495Y004598D02*
X022172Y004598D01*
X022187Y004696D02*
X021704Y004696D01*
X021830Y004795D02*
X022070Y004795D01*
X021994Y004893D02*
X021903Y004893D01*
X021945Y004992D02*
X021953Y004992D01*
X021493Y005193D02*
X021493Y005440D01*
X021407Y005440D01*
X021407Y005193D01*
X021493Y005193D01*
X021407Y005193D02*
X021407Y005107D01*
X020930Y005107D01*
X020943Y005028D01*
X020965Y004961D01*
X020860Y005021D01*
X020860Y005631D01*
X020890Y005586D01*
X020890Y005563D01*
X020937Y005516D01*
X020974Y005461D01*
X020996Y005457D01*
X021013Y005440D01*
X021018Y005440D01*
X021005Y005423D01*
X020968Y005350D01*
X020943Y005272D01*
X020930Y005193D01*
X021407Y005193D01*
X021407Y005189D02*
X020860Y005189D01*
X020860Y005287D02*
X020948Y005287D01*
X020986Y005386D02*
X020860Y005386D01*
X020860Y005484D02*
X020958Y005484D01*
X020890Y005583D02*
X020860Y005583D01*
X020860Y005090D02*
X020933Y005090D01*
X020912Y004992D02*
X020955Y004992D01*
X020557Y004696D02*
X020370Y004696D01*
X020370Y004598D02*
X020754Y004598D01*
X020860Y004499D02*
X020370Y004499D01*
X020370Y004401D02*
X020910Y004401D01*
X021040Y004302D02*
X020442Y004302D01*
X020459Y004795D02*
X020370Y004795D01*
X020370Y004893D02*
X020434Y004893D01*
X020440Y004992D02*
X020370Y004992D01*
X020370Y005090D02*
X020440Y005090D01*
X019908Y005681D02*
X019308Y005681D01*
X019405Y005583D02*
X019809Y005583D01*
X019711Y005484D02*
X019526Y005484D01*
X019596Y005386D02*
X019656Y005386D01*
X019630Y005287D02*
X019625Y005287D01*
X019625Y005189D02*
X019630Y005189D01*
X019630Y005090D02*
X019586Y005090D01*
X019630Y004992D02*
X019501Y004992D01*
X019630Y004893D02*
X014441Y004893D01*
X014470Y004795D02*
X019630Y004795D01*
X019630Y004696D02*
X014470Y004696D01*
X014470Y004598D02*
X019630Y004598D01*
X019099Y004992D02*
X014661Y004992D01*
X014746Y005090D02*
X019014Y005090D01*
X018975Y005189D02*
X017847Y005189D01*
X017997Y005287D02*
X018975Y005287D01*
X019004Y005386D02*
X018054Y005386D01*
X018075Y005484D02*
X018913Y005484D01*
X018816Y005583D02*
X018068Y005583D01*
X018027Y005681D02*
X018720Y005681D01*
X018623Y005780D02*
X017924Y005780D01*
X017576Y005780D02*
X016620Y005780D01*
X016620Y005878D02*
X018525Y005878D01*
X018427Y005977D02*
X016620Y005977D01*
X016620Y006075D02*
X018328Y006075D01*
X018230Y006174D02*
X016620Y006174D01*
X016620Y006272D02*
X018131Y006272D01*
X018033Y006371D02*
X016620Y006371D01*
X016602Y006469D02*
X017934Y006469D01*
X017836Y006568D02*
X016510Y006568D01*
X016510Y006666D02*
X017737Y006666D01*
X017639Y006765D02*
X016611Y006765D01*
X016710Y006863D02*
X016710Y006935D01*
X016718Y006993D01*
X016753Y006960D01*
X016813Y006900D01*
X016816Y006900D01*
X016818Y006898D01*
X016902Y006900D01*
X017503Y006900D01*
X016751Y006962D02*
X016714Y006962D01*
X015850Y007200D02*
X015850Y006710D01*
X015807Y006272D02*
X015793Y006272D01*
X015793Y006174D02*
X015807Y006174D01*
X015793Y006075D02*
X015807Y006075D01*
X015793Y005977D02*
X015807Y005977D01*
X015793Y005878D02*
X015807Y005878D01*
X015793Y005780D02*
X015807Y005780D01*
X015793Y005681D02*
X015807Y005681D01*
X015793Y005583D02*
X015807Y005583D01*
X015793Y005484D02*
X015807Y005484D01*
X015793Y005386D02*
X015807Y005386D01*
X015793Y005287D02*
X015807Y005287D01*
X015818Y005189D02*
X015782Y005189D01*
X015387Y005500D02*
X014804Y006037D01*
X014726Y006027D01*
X014726Y006342D02*
X015244Y006292D01*
X015387Y006150D01*
X015150Y006710D02*
X015150Y006750D01*
X015650Y007300D01*
X016047Y007801D02*
X016050Y007811D01*
X016834Y007801D02*
X016834Y007716D01*
X017149Y008116D02*
X017234Y008116D01*
X017350Y007850D01*
X018050Y008250D02*
X018100Y008300D01*
X018447Y008341D02*
X018453Y008341D01*
X018453Y008338D02*
X018762Y008338D01*
X018762Y008262D01*
X018838Y008262D01*
X018838Y007913D01*
X018866Y007913D01*
X018926Y007925D01*
X018983Y007949D01*
X019034Y007983D01*
X019077Y008026D01*
X019111Y008077D01*
X019126Y008113D01*
X019128Y008113D01*
X019221Y008043D01*
X019221Y007684D01*
X019326Y007579D01*
X019400Y007579D01*
X019383Y007537D01*
X019383Y007270D01*
X018880Y007800D01*
X018879Y007803D01*
X018843Y007838D01*
X018809Y007875D01*
X018805Y007876D01*
X018762Y007920D01*
X018762Y008262D01*
X018453Y008262D01*
X018453Y008229D01*
X018447Y008235D01*
X018447Y008437D01*
X018399Y008551D01*
X018371Y008580D01*
X018529Y008580D01*
X018523Y008574D01*
X018489Y008523D01*
X018465Y008466D01*
X018453Y008406D01*
X018453Y008338D01*
X018447Y008242D02*
X018453Y008242D01*
X018446Y008439D02*
X018460Y008439D01*
X018499Y008538D02*
X018405Y008538D01*
X018762Y008242D02*
X018838Y008242D01*
X018838Y008144D02*
X018762Y008144D01*
X018762Y008045D02*
X018838Y008045D01*
X018838Y007947D02*
X018762Y007947D01*
X018834Y007848D02*
X019221Y007848D01*
X019221Y007750D02*
X018928Y007750D01*
X019021Y007651D02*
X019254Y007651D01*
X019390Y007553D02*
X019115Y007553D01*
X019209Y007454D02*
X019383Y007454D01*
X019383Y007356D02*
X019302Y007356D01*
X019730Y007400D02*
X019740Y007962D01*
X019667Y007985D01*
X019198Y008335D01*
X019183Y008800D01*
X017800Y008800D01*
X017347Y008903D01*
X017350Y009100D02*
X017700Y009050D01*
X019250Y009050D01*
X019400Y009200D01*
X019800Y009200D01*
X019875Y009135D01*
X020100Y009035D01*
X020100Y008950D01*
X020585Y008615D01*
X020533Y008615D01*
X020979Y008636D02*
X024500Y008636D01*
X024500Y008538D02*
X020979Y008538D01*
X020979Y008439D02*
X024500Y008439D01*
X024500Y008341D02*
X020979Y008341D01*
X020979Y008242D02*
X024500Y008242D01*
X024500Y008144D02*
X020979Y008144D01*
X020979Y008045D02*
X024500Y008045D01*
X024500Y007947D02*
X023965Y007947D01*
X024065Y007848D02*
X024500Y007848D01*
X024500Y007750D02*
X024089Y007750D01*
X024113Y007651D02*
X024500Y007651D01*
X024544Y007553D02*
X024137Y007553D01*
X024161Y007454D02*
X024642Y007454D01*
X024741Y007356D02*
X024185Y007356D01*
X024209Y007257D02*
X024839Y007257D01*
X024938Y007159D02*
X024233Y007159D01*
X024257Y007060D02*
X026836Y007060D01*
X026935Y006962D02*
X024281Y006962D01*
X024305Y006863D02*
X027033Y006863D01*
X027132Y006765D02*
X024329Y006765D01*
X024353Y006666D02*
X027262Y006666D01*
X027012Y007574D02*
X026950Y007600D01*
X025204Y007600D01*
X025000Y007804D01*
X025000Y007888D01*
X025005Y007877D01*
X025053Y007811D01*
X025111Y007753D01*
X025177Y007705D01*
X025250Y007668D01*
X025328Y007643D01*
X025409Y007630D01*
X025412Y007630D01*
X025412Y008112D01*
X025488Y008112D01*
X025488Y008188D01*
X026412Y008188D01*
X026412Y008112D01*
X026488Y008112D01*
X026488Y008188D01*
X026970Y008188D01*
X026970Y008191D01*
X026957Y008272D01*
X026932Y008350D01*
X026895Y008423D01*
X026847Y008489D01*
X026789Y008547D01*
X026723Y008595D01*
X026650Y008632D01*
X026598Y008649D01*
X026745Y008709D01*
X026891Y008855D01*
X026930Y008950D01*
X027400Y008950D01*
X027400Y008850D01*
X026911Y008850D01*
X026923Y008774D01*
X026950Y008693D01*
X026988Y008617D01*
X027038Y008548D01*
X027098Y008488D01*
X027167Y008438D01*
X027199Y008422D01*
X027136Y008360D01*
X027130Y008343D01*
X026992Y008206D01*
X026954Y008112D01*
X026488Y008112D01*
X026488Y007630D01*
X026491Y007630D01*
X026572Y007643D01*
X026650Y007668D01*
X026723Y007705D01*
X026789Y007753D01*
X026847Y007811D01*
X026895Y007877D01*
X026910Y007907D01*
X026910Y007793D01*
X026992Y007594D01*
X027012Y007574D01*
X026969Y007651D02*
X026597Y007651D01*
X026488Y007651D02*
X026412Y007651D01*
X026412Y007630D02*
X026412Y008112D01*
X025930Y008112D01*
X025488Y008112D01*
X025488Y007630D01*
X025491Y007630D01*
X025572Y007643D01*
X025650Y007668D01*
X025723Y007705D01*
X025789Y007753D01*
X025847Y007811D01*
X025895Y007877D01*
X025932Y007950D01*
X025950Y008006D01*
X025968Y007950D01*
X026005Y007877D01*
X026053Y007811D01*
X026111Y007753D01*
X026177Y007705D01*
X026250Y007668D01*
X026328Y007643D01*
X026409Y007630D01*
X026412Y007630D01*
X026303Y007651D02*
X025597Y007651D01*
X025488Y007651D02*
X025412Y007651D01*
X025412Y007750D02*
X025488Y007750D01*
X025488Y007848D02*
X025412Y007848D01*
X025412Y007947D02*
X025488Y007947D01*
X025488Y008045D02*
X025412Y008045D01*
X025488Y008144D02*
X026412Y008144D01*
X026488Y008144D02*
X026966Y008144D01*
X026962Y008242D02*
X027028Y008242D01*
X026935Y008341D02*
X027127Y008341D01*
X027166Y008439D02*
X026883Y008439D01*
X026798Y008538D02*
X027049Y008538D01*
X026978Y008636D02*
X026637Y008636D01*
X026770Y008735D02*
X026936Y008735D01*
X026914Y008833D02*
X026868Y008833D01*
X026922Y008932D02*
X027400Y008932D01*
X027400Y009030D02*
X027500Y009030D01*
X027500Y008932D02*
X027956Y008932D01*
X027986Y008833D02*
X028003Y008833D01*
X027910Y009227D02*
X027880Y009227D01*
X027938Y009326D02*
X027783Y009326D01*
X027979Y009424D02*
X027585Y009424D01*
X027500Y009424D02*
X027400Y009424D01*
X027315Y009424D02*
X026899Y009424D01*
X026940Y009326D02*
X027117Y009326D01*
X027020Y009227D02*
X026970Y009227D01*
X026813Y009523D02*
X028059Y009523D01*
X028176Y009621D02*
X026672Y009621D01*
X026755Y009720D02*
X028124Y009720D01*
X028024Y009818D02*
X026853Y009818D01*
X026916Y009917D02*
X027963Y009917D01*
X027926Y010015D02*
X026957Y010015D01*
X026970Y010114D02*
X028400Y010114D01*
X028400Y010212D02*
X028500Y010212D01*
X028500Y010114D02*
X028991Y010114D01*
X028974Y010015D02*
X029071Y010015D01*
X028937Y009917D02*
X029209Y009917D01*
X029104Y009818D02*
X028876Y009818D01*
X028776Y009720D02*
X029006Y009720D01*
X028957Y009621D02*
X028724Y009621D01*
X028841Y009523D02*
X028916Y009523D01*
X028500Y010311D02*
X028400Y010311D01*
X028400Y010409D02*
X028500Y010409D01*
X028500Y010508D02*
X028400Y010508D01*
X028400Y010606D02*
X028500Y010606D01*
X028741Y010606D02*
X028949Y010606D01*
X028920Y010508D02*
X028856Y010508D01*
X028924Y010409D02*
X029400Y010409D01*
X029400Y010508D02*
X029500Y010508D01*
X029500Y010606D02*
X029400Y010606D01*
X029400Y010705D02*
X029500Y010705D01*
X029500Y010803D02*
X029400Y010803D01*
X029400Y010902D02*
X029500Y010902D01*
X029654Y010902D02*
X029755Y010902D01*
X029755Y011000D02*
X026951Y011000D01*
X026970Y011099D02*
X029755Y011099D01*
X029755Y011197D02*
X026970Y011197D01*
X026953Y011296D02*
X029755Y011296D01*
X029755Y011394D02*
X026912Y011394D01*
X026843Y011493D02*
X029755Y011493D01*
X029755Y011591D02*
X026744Y011591D01*
X026156Y011591D02*
X025744Y011591D01*
X025843Y011493D02*
X026057Y011493D01*
X025988Y011394D02*
X025912Y011394D01*
X025300Y011788D02*
X029755Y011788D01*
X029755Y011690D02*
X025202Y011690D01*
X025156Y011591D02*
X025103Y011591D01*
X025057Y011493D02*
X025005Y011493D01*
X024988Y011394D02*
X024906Y011394D01*
X024947Y011296D02*
X024808Y011296D01*
X024709Y011197D02*
X024930Y011197D01*
X024930Y011099D02*
X024611Y011099D01*
X024512Y011000D02*
X024949Y011000D01*
X024990Y010902D02*
X024414Y010902D01*
X024315Y010803D02*
X025062Y010803D01*
X025167Y010705D02*
X024217Y010705D01*
X024118Y010606D02*
X025192Y010606D01*
X025072Y010508D02*
X024020Y010508D01*
X023921Y010409D02*
X024994Y010409D01*
X024954Y010311D02*
X023823Y010311D01*
X023724Y010212D02*
X024930Y010212D01*
X024930Y010114D02*
X023626Y010114D01*
X023527Y010015D02*
X024943Y010015D01*
X024984Y009917D02*
X023429Y009917D01*
X023330Y009818D02*
X025047Y009818D01*
X025145Y009720D02*
X023232Y009720D01*
X023133Y009621D02*
X025228Y009621D01*
X025087Y009523D02*
X023035Y009523D01*
X024535Y008833D02*
X020979Y008833D01*
X020979Y008735D02*
X024500Y008735D01*
X024628Y008932D02*
X020963Y008932D01*
X020833Y009030D02*
X024726Y009030D01*
X024825Y009129D02*
X020847Y009129D01*
X020843Y009326D02*
X024960Y009326D01*
X024923Y009227D02*
X020538Y009227D01*
X020810Y009424D02*
X025001Y009424D01*
X026708Y010606D02*
X028159Y010606D01*
X028044Y010508D02*
X026828Y010508D01*
X026906Y010409D02*
X027976Y010409D01*
X027934Y010311D02*
X026946Y010311D01*
X026970Y010212D02*
X027913Y010212D01*
X029004Y010705D02*
X026733Y010705D01*
X026838Y010803D02*
X029089Y010803D01*
X029246Y010902D02*
X026910Y010902D01*
X027932Y011985D02*
X029755Y011985D01*
X029755Y011887D02*
X025399Y011887D01*
X024954Y013364D02*
X024946Y013364D01*
X024901Y013463D02*
X024999Y013463D01*
X025097Y013561D02*
X024803Y013561D01*
X024631Y013660D02*
X025269Y013660D01*
X025631Y013660D02*
X026269Y013660D01*
X026097Y013561D02*
X025803Y013561D01*
X025901Y013463D02*
X025999Y013463D01*
X025954Y013364D02*
X025946Y013364D01*
X026631Y013660D02*
X027269Y013660D01*
X027097Y013561D02*
X026803Y013561D01*
X026901Y013463D02*
X026999Y013463D01*
X026954Y013364D02*
X026946Y013364D01*
X027631Y013660D02*
X028269Y013660D01*
X028097Y013561D02*
X027803Y013561D01*
X027901Y013463D02*
X027999Y013463D01*
X027954Y013364D02*
X027946Y013364D01*
X028631Y013660D02*
X029755Y013660D01*
X029755Y013758D02*
X023159Y013758D01*
X023257Y013660D02*
X023269Y013660D01*
X023060Y013857D02*
X029755Y013857D01*
X029755Y013955D02*
X022976Y013955D01*
X022820Y013800D02*
X016270Y013800D01*
X016114Y013955D02*
X005171Y013955D01*
X005270Y013857D02*
X015910Y013857D01*
X015811Y013758D02*
X005313Y013758D01*
X005353Y013660D02*
X006183Y013660D01*
X006085Y013561D02*
X005394Y013561D01*
X005395Y013463D02*
X006034Y013463D01*
X006000Y013364D02*
X005395Y013364D01*
X005395Y013266D02*
X006000Y013266D01*
X006000Y013167D02*
X005364Y013167D01*
X005324Y013069D02*
X006000Y013069D01*
X006000Y012970D02*
X005283Y012970D01*
X005198Y012872D02*
X006020Y012872D01*
X006061Y012773D02*
X005099Y012773D01*
X004934Y012675D02*
X006149Y012675D01*
X006141Y012576D02*
X004578Y012576D01*
X004334Y011877D02*
X004511Y011807D01*
X004576Y011780D01*
X004580Y011780D01*
X004583Y011779D01*
X004653Y011780D01*
X006085Y011780D01*
X006155Y011709D01*
X006302Y011649D01*
X006250Y011632D01*
X006177Y011595D01*
X006111Y011547D01*
X006053Y011489D01*
X006005Y011423D01*
X005968Y011350D01*
X005943Y011272D01*
X005930Y011191D01*
X005930Y011188D01*
X006412Y011188D01*
X006412Y011112D01*
X006488Y011112D01*
X006488Y010630D01*
X006491Y010630D01*
X006572Y010643D01*
X006650Y010668D01*
X006723Y010705D01*
X006739Y010717D01*
X006738Y010668D01*
X006740Y010666D01*
X006740Y010663D01*
X006800Y010603D01*
X007690Y009666D01*
X007690Y009663D01*
X007750Y009603D01*
X007808Y009542D01*
X007811Y009542D01*
X007813Y009540D01*
X007897Y009540D01*
X007982Y009538D01*
X007984Y009540D01*
X012013Y009540D01*
X012891Y008662D01*
X012826Y008597D01*
X012778Y008482D01*
X012778Y008288D01*
X012826Y008173D01*
X012914Y008086D01*
X013028Y008038D01*
X013302Y008038D01*
X013416Y008086D01*
X013420Y008089D01*
X013525Y008045D01*
X013319Y008045D01*
X013331Y008020D02*
X013271Y008032D01*
X013203Y008032D01*
X013203Y007723D01*
X013127Y007723D01*
X013127Y007647D01*
X012778Y007647D01*
X012778Y007619D01*
X012788Y007570D01*
X008141Y007570D01*
X006617Y009094D01*
X006617Y009099D01*
X006553Y009158D01*
X006491Y009220D01*
X006487Y009220D01*
X006188Y009498D01*
X006006Y009492D01*
X006000Y009485D01*
X005630Y009487D01*
X005569Y009548D01*
X005110Y009548D01*
X005108Y009549D01*
X004695Y009556D01*
X004695Y009589D01*
X004654Y009688D01*
X004523Y009819D01*
X005364Y009819D01*
X005470Y009925D01*
X005470Y010839D01*
X005364Y010946D01*
X004313Y010946D01*
X004337Y011003D01*
X004337Y011197D01*
X005931Y011197D01*
X005930Y011112D02*
X005930Y011109D01*
X005943Y011028D01*
X005968Y010950D01*
X006005Y010877D01*
X006053Y010811D01*
X006111Y010753D01*
X006177Y010705D01*
X006250Y010668D01*
X006328Y010643D01*
X006409Y010630D01*
X006412Y010630D01*
X006412Y011112D01*
X005930Y011112D01*
X005932Y011099D02*
X004337Y011099D01*
X004337Y011197D02*
X004289Y011312D01*
X004201Y011399D01*
X004087Y011447D01*
X003813Y011447D01*
X003699Y011399D01*
X003684Y011385D01*
X003289Y011407D01*
X003289Y011583D01*
X003289Y011583D01*
X003289Y011584D01*
X003289Y012170D01*
X003183Y012276D01*
X001717Y012276D01*
X001645Y012204D01*
X001645Y012796D01*
X001717Y012724D01*
X002541Y012724D01*
X002838Y012489D01*
X002878Y012450D01*
X002896Y012444D01*
X002911Y012432D01*
X002964Y012417D01*
X003733Y012114D01*
X003727Y012111D01*
X003676Y012077D01*
X003633Y012034D01*
X003599Y011983D01*
X003575Y011926D01*
X003563Y011866D01*
X003563Y011838D01*
X003912Y011838D01*
X003912Y011762D01*
X003988Y011762D01*
X003988Y011838D01*
X004337Y011838D01*
X004337Y011866D01*
X004334Y011877D01*
X004337Y011762D02*
X003988Y011762D01*
X003988Y011453D01*
X004056Y011453D01*
X004116Y011465D01*
X004173Y011489D01*
X004224Y011523D01*
X004267Y011566D01*
X004301Y011617D01*
X004325Y011674D01*
X004337Y011734D01*
X004337Y011762D01*
X004328Y011690D02*
X006203Y011690D01*
X006172Y011591D02*
X004284Y011591D01*
X004178Y011493D02*
X006057Y011493D01*
X005991Y011394D02*
X004207Y011394D01*
X004296Y011296D02*
X005951Y011296D01*
X005952Y011000D02*
X004335Y011000D01*
X003693Y011394D02*
X003525Y011394D01*
X003676Y011523D02*
X003727Y011489D01*
X003784Y011465D01*
X003844Y011453D01*
X003912Y011453D01*
X003912Y011762D01*
X003563Y011762D01*
X003563Y011734D01*
X003575Y011674D01*
X003599Y011617D01*
X003633Y011566D01*
X003676Y011523D01*
X003722Y011493D02*
X003289Y011493D01*
X003289Y011591D02*
X003616Y011591D01*
X003572Y011690D02*
X003289Y011690D01*
X003289Y011788D02*
X003912Y011788D01*
X003988Y011788D02*
X004557Y011788D01*
X003988Y011690D02*
X003912Y011690D01*
X003912Y011591D02*
X003988Y011591D01*
X003988Y011493D02*
X003912Y011493D01*
X003568Y011887D02*
X003289Y011887D01*
X003289Y011985D02*
X003600Y011985D01*
X003686Y012084D02*
X003289Y012084D01*
X003277Y012182D02*
X003559Y012182D01*
X003309Y012281D02*
X001645Y012281D01*
X001645Y012379D02*
X003059Y012379D01*
X002850Y012478D02*
X001645Y012478D01*
X001645Y012576D02*
X002728Y012576D01*
X002604Y012675D02*
X001645Y012675D01*
X001645Y012773D02*
X001668Y012773D01*
X002450Y011732D02*
X003053Y011557D01*
X003080Y011110D01*
X002817Y011000D02*
X001645Y011000D01*
X001645Y010902D02*
X002082Y010902D01*
X002020Y010803D02*
X001645Y010803D01*
X001645Y010705D02*
X002020Y010705D01*
X002020Y010606D02*
X001645Y010606D01*
X001645Y010508D02*
X002020Y010508D01*
X002020Y010409D02*
X001645Y010409D01*
X001645Y010311D02*
X002020Y010311D01*
X002020Y010212D02*
X001645Y010212D01*
X001645Y010114D02*
X002020Y010114D01*
X002020Y010015D02*
X001645Y010015D01*
X001645Y009917D02*
X002029Y009917D01*
X001645Y009818D02*
X003627Y009818D01*
X003676Y009917D02*
X003296Y009917D01*
X003305Y010015D02*
X003627Y010015D01*
X003577Y010114D02*
X003305Y010114D01*
X003305Y010212D02*
X003527Y010212D01*
X003477Y010311D02*
X003305Y010311D01*
X003305Y010409D02*
X003426Y010409D01*
X003376Y010508D02*
X003305Y010508D01*
X003305Y010606D02*
X003326Y010606D01*
X002715Y011099D02*
X001645Y011099D01*
X001645Y011197D02*
X001708Y011197D01*
X001645Y009720D02*
X003531Y009720D01*
X003490Y009621D02*
X001645Y009621D01*
X001645Y009523D02*
X003477Y009523D01*
X003485Y009424D02*
X001645Y009424D01*
X001645Y009326D02*
X002091Y009326D01*
X001887Y009227D02*
X001645Y009227D01*
X001645Y009129D02*
X001765Y009129D01*
X001686Y009030D02*
X001645Y009030D01*
X002409Y009326D02*
X003526Y009326D01*
X003614Y009227D02*
X002613Y009227D01*
X002735Y009129D02*
X004205Y009129D01*
X004159Y009227D02*
X004073Y009227D01*
X004346Y009030D02*
X002814Y009030D01*
X002881Y008932D02*
X004426Y008932D01*
X004426Y008833D02*
X002903Y008833D01*
X002926Y008735D02*
X004426Y008735D01*
X004426Y008636D02*
X002942Y008636D01*
X002919Y008538D02*
X004426Y008538D01*
X004426Y008439D02*
X002897Y008439D01*
X002870Y008341D02*
X004426Y008341D01*
X004426Y008242D02*
X002791Y008242D01*
X002713Y008144D02*
X003753Y008144D01*
X003771Y008151D02*
X003636Y008095D01*
X003533Y007992D01*
X003477Y007857D01*
X003477Y007711D01*
X003533Y007576D01*
X003636Y007473D01*
X003771Y007417D01*
X003917Y007417D01*
X004052Y007473D01*
X004155Y007576D01*
X004211Y007711D01*
X004211Y007857D01*
X004155Y007992D01*
X004052Y008095D01*
X003917Y008151D01*
X003771Y008151D01*
X003934Y008144D02*
X004429Y008144D01*
X004426Y008045D02*
X004101Y008045D01*
X004173Y007947D02*
X004426Y007947D01*
X004446Y007848D02*
X004211Y007848D01*
X004211Y007750D02*
X005790Y007750D01*
X005790Y007848D02*
X005654Y007848D01*
X005674Y007947D02*
X005790Y007947D01*
X005790Y008045D02*
X005674Y008045D01*
X005671Y008144D02*
X005790Y008144D01*
X005711Y008242D02*
X005674Y008242D01*
X005790Y007651D02*
X004186Y007651D01*
X004131Y007553D02*
X005790Y007553D01*
X005790Y007454D02*
X005391Y007454D01*
X005364Y007481D02*
X004292Y007481D01*
X004186Y007375D01*
X004186Y006461D01*
X004292Y006354D01*
X005364Y006354D01*
X005470Y006461D01*
X005470Y007375D01*
X005364Y007481D01*
X005470Y007356D02*
X005790Y007356D01*
X005790Y007257D02*
X005470Y007257D01*
X005470Y007159D02*
X005790Y007159D01*
X005790Y007060D02*
X005470Y007060D01*
X005470Y006962D02*
X005790Y006962D01*
X005790Y006863D02*
X005470Y006863D01*
X005470Y006765D02*
X005790Y006765D01*
X005790Y006666D02*
X005470Y006666D01*
X005470Y006568D02*
X005790Y006568D01*
X005790Y006469D02*
X005470Y006469D01*
X005380Y006371D02*
X005883Y006371D01*
X006149Y006272D02*
X001645Y006272D01*
X001645Y006174D02*
X006244Y006174D01*
X006787Y006174D02*
X006913Y006174D01*
X007456Y006174D02*
X009410Y006174D01*
X009406Y006272D02*
X007551Y006272D01*
X007530Y005977D02*
X007630Y005977D01*
X007630Y005878D02*
X007530Y005878D01*
X007530Y005780D02*
X007630Y005780D01*
X007630Y005681D02*
X007530Y005681D01*
X007530Y005583D02*
X007630Y005583D01*
X007630Y005484D02*
X007530Y005484D01*
X007530Y005386D02*
X007630Y005386D01*
X007630Y005090D02*
X007530Y005090D01*
X007530Y005100D02*
X007530Y004271D01*
X007132Y004271D01*
X007087Y004284D01*
X007046Y004307D01*
X007013Y004340D01*
X006989Y004381D01*
X006977Y004426D01*
X006977Y005100D01*
X007530Y005100D01*
X007530Y004992D02*
X007630Y004992D01*
X007630Y004893D02*
X007530Y004893D01*
X007530Y004795D02*
X007630Y004795D01*
X007630Y004696D02*
X007530Y004696D01*
X007530Y004598D02*
X007630Y004598D01*
X007630Y004499D02*
X007530Y004499D01*
X007530Y004401D02*
X007630Y004401D01*
X007630Y004302D02*
X007530Y004302D01*
X007055Y004302D02*
X006612Y004302D01*
X006614Y004401D02*
X006984Y004401D01*
X006977Y004499D02*
X006614Y004499D01*
X006612Y004598D02*
X006977Y004598D01*
X006977Y004696D02*
X006571Y004696D01*
X006530Y004795D02*
X006977Y004795D01*
X006977Y004893D02*
X006469Y004893D01*
X006370Y004992D02*
X006977Y004992D01*
X006977Y005090D02*
X006230Y005090D01*
X005557Y005090D02*
X003863Y005090D01*
X003851Y005097D02*
X003763Y005133D01*
X003672Y005158D01*
X003581Y005170D01*
X003581Y004500D01*
X003481Y004500D01*
X003481Y004400D01*
X002812Y004400D01*
X002824Y004309D01*
X002848Y004218D01*
X002884Y004131D01*
X002932Y004049D01*
X002989Y003974D01*
X003056Y003908D01*
X003131Y003850D01*
X003212Y003803D01*
X003300Y003767D01*
X003391Y003742D01*
X003481Y003730D01*
X003481Y004400D01*
X003581Y004400D01*
X003581Y003730D01*
X003672Y003742D01*
X003763Y003767D01*
X003851Y003803D01*
X003932Y003850D01*
X004007Y003908D01*
X004074Y003974D01*
X004131Y004049D01*
X004179Y004131D01*
X004215Y004218D01*
X004239Y004309D01*
X004251Y004400D01*
X003582Y004400D01*
X003582Y004500D01*
X004251Y004500D01*
X004239Y004591D01*
X004215Y004682D01*
X004179Y004769D01*
X004131Y004851D01*
X004074Y004926D01*
X004007Y004992D01*
X003932Y005050D01*
X003851Y005097D01*
X004008Y004992D02*
X005417Y004992D01*
X005318Y004893D02*
X004099Y004893D01*
X004164Y004795D02*
X005257Y004795D01*
X005216Y004696D02*
X004209Y004696D01*
X004237Y004598D02*
X005175Y004598D01*
X005174Y004499D02*
X003582Y004499D01*
X003582Y004401D02*
X005174Y004401D01*
X005176Y004302D02*
X004237Y004302D01*
X004209Y004204D02*
X005216Y004204D01*
X005257Y004105D02*
X004164Y004105D01*
X004099Y004007D02*
X005319Y004007D01*
X005417Y003908D02*
X004008Y003908D01*
X003862Y003810D02*
X005559Y003810D01*
X005729Y003711D02*
X001645Y003711D01*
X001645Y003613D02*
X005827Y003613D01*
X005926Y003514D02*
X001645Y003514D01*
X001645Y003416D02*
X006024Y003416D01*
X006123Y003317D02*
X004780Y003317D01*
X004763Y003317D02*
X004663Y003317D01*
X004663Y003319D02*
X004572Y003307D01*
X004481Y003283D01*
X004393Y003247D01*
X004312Y003200D01*
X004237Y003142D01*
X004170Y003075D01*
X004113Y003000D01*
X004065Y002919D01*
X004029Y002832D01*
X004005Y002740D01*
X003993Y002650D01*
X004663Y002650D01*
X004663Y003319D01*
X004646Y003317D02*
X001645Y003317D01*
X001645Y003219D02*
X004345Y003219D01*
X004215Y003120D02*
X001645Y003120D01*
X001645Y003022D02*
X004129Y003022D01*
X004068Y002923D02*
X001645Y002923D01*
X001645Y002825D02*
X004027Y002825D01*
X004003Y002726D02*
X001645Y002726D01*
X001645Y002628D02*
X004663Y002628D01*
X004663Y002650D02*
X004663Y002550D01*
X004763Y002550D01*
X004763Y002650D01*
X005432Y002650D01*
X005420Y002740D01*
X005396Y002832D01*
X005360Y002919D01*
X005313Y003000D01*
X005255Y003075D01*
X005188Y003142D01*
X005113Y003200D01*
X005032Y003247D01*
X004945Y003283D01*
X004853Y003307D01*
X004763Y003319D01*
X004763Y002650D01*
X004663Y002650D01*
X004663Y002726D02*
X004763Y002726D01*
X004763Y002628D02*
X006741Y002628D01*
X006741Y002529D02*
X005430Y002529D01*
X005432Y002550D02*
X005420Y002459D01*
X005396Y002368D01*
X005360Y002280D01*
X005313Y002199D01*
X005255Y002124D01*
X005188Y002057D01*
X005113Y002000D01*
X005032Y001952D01*
X004945Y001916D01*
X004853Y001892D01*
X004763Y001880D01*
X004763Y002550D01*
X005432Y002550D01*
X005413Y002431D02*
X006741Y002431D01*
X006741Y002332D02*
X005381Y002332D01*
X005333Y002234D02*
X006741Y002234D01*
X006741Y002135D02*
X005264Y002135D01*
X005161Y002037D02*
X006818Y002037D01*
X006714Y002726D02*
X005422Y002726D01*
X005398Y002825D02*
X006615Y002825D01*
X006517Y002923D02*
X005357Y002923D01*
X005296Y003022D02*
X006418Y003022D01*
X006320Y003120D02*
X005210Y003120D01*
X005081Y003219D02*
X006221Y003219D01*
X004763Y003219D02*
X004663Y003219D01*
X004663Y003120D02*
X004763Y003120D01*
X004763Y003022D02*
X004663Y003022D01*
X004663Y002923D02*
X004763Y002923D01*
X004763Y002825D02*
X004663Y002825D01*
X004663Y002550D02*
X003993Y002550D01*
X004005Y002459D01*
X004029Y002368D01*
X004065Y002280D01*
X004113Y002199D01*
X004170Y002124D01*
X004237Y002057D01*
X004312Y002000D01*
X004393Y001952D01*
X004481Y001916D01*
X004572Y001892D01*
X004663Y001880D01*
X004663Y002550D01*
X004663Y002529D02*
X004763Y002529D01*
X004763Y002431D02*
X004663Y002431D01*
X004663Y002332D02*
X004763Y002332D01*
X004763Y002234D02*
X004663Y002234D01*
X004663Y002135D02*
X004763Y002135D01*
X004763Y002037D02*
X004663Y002037D01*
X004663Y001938D02*
X004763Y001938D01*
X004997Y001938D02*
X010150Y001938D01*
X010250Y001938D02*
X010898Y001938D01*
X010898Y001840D02*
X010583Y001840D01*
X010583Y001856D02*
X010250Y001856D01*
X010250Y001956D01*
X010583Y001956D01*
X010583Y002126D01*
X010570Y002171D01*
X010547Y002213D01*
X010513Y002246D01*
X010508Y002249D01*
X010546Y002287D01*
X010840Y002406D01*
X010840Y002332D01*
X010657Y002332D01*
X010526Y002234D02*
X010881Y002234D01*
X010892Y002207D02*
X010904Y002195D01*
X010898Y002189D01*
X010898Y001587D01*
X010940Y001545D01*
X010479Y001545D01*
X010513Y001565D01*
X010547Y001598D01*
X010570Y001640D01*
X010583Y001685D01*
X010583Y001856D01*
X010583Y001741D02*
X010898Y001741D01*
X010898Y001643D02*
X010571Y001643D01*
X010583Y002037D02*
X010898Y002037D01*
X010898Y002135D02*
X010580Y002135D01*
X010892Y002207D02*
X010840Y002332D01*
X011676Y003317D02*
X011717Y003317D01*
X011842Y003416D02*
X008836Y003416D01*
X008932Y003514D02*
X012833Y003514D01*
X012833Y003613D02*
X009029Y003613D01*
X009125Y003711D02*
X012831Y003711D01*
X012478Y003810D02*
X012272Y003810D01*
X012342Y003908D02*
X012408Y003908D01*
X012408Y004007D02*
X012342Y004007D01*
X012342Y004105D02*
X012408Y004105D01*
X012408Y004204D02*
X012342Y004204D01*
X012342Y004302D02*
X012408Y004302D01*
X012408Y004401D02*
X012342Y004401D01*
X012342Y004499D02*
X012408Y004499D01*
X012408Y004598D02*
X012342Y004598D01*
X012286Y004696D02*
X012464Y004696D01*
X012477Y004992D02*
X012273Y004992D01*
X012337Y005090D02*
X012413Y005090D01*
X012408Y005189D02*
X012342Y005189D01*
X012342Y005287D02*
X012408Y005287D01*
X012408Y005386D02*
X012342Y005386D01*
X012342Y005583D02*
X012408Y005583D01*
X012408Y005681D02*
X012342Y005681D01*
X012213Y006100D02*
X011857Y006100D01*
X011857Y005926D01*
X011843Y005926D01*
X011843Y006297D01*
X011857Y006315D01*
X011857Y006200D01*
X012213Y006200D01*
X012213Y006100D01*
X012213Y006174D02*
X011843Y006174D01*
X011843Y006272D02*
X011857Y006272D01*
X011843Y006075D02*
X011857Y006075D01*
X011843Y005977D02*
X011857Y005977D01*
X011450Y006150D02*
X011800Y006600D01*
X013200Y006600D01*
X013900Y005600D01*
X013900Y005120D01*
X014478Y005120D01*
X014726Y005398D01*
X014978Y005189D02*
X014991Y005189D01*
X014470Y004499D02*
X016126Y004499D01*
X016033Y004401D02*
X014470Y004401D01*
X014470Y004302D02*
X015992Y004302D01*
X015980Y004204D02*
X014470Y004204D01*
X014470Y004105D02*
X015989Y004105D01*
X016030Y004007D02*
X014470Y004007D01*
X014472Y003908D02*
X016119Y003908D01*
X016195Y003671D02*
X016069Y003545D01*
X016000Y003380D01*
X016000Y002920D01*
X016069Y002755D01*
X016174Y002650D01*
X016069Y002545D01*
X016000Y002380D01*
X016000Y001920D01*
X016069Y001755D01*
X016195Y001629D01*
X016360Y001560D01*
X016540Y001560D01*
X016705Y001629D01*
X016831Y001755D01*
X016900Y001920D01*
X016900Y002380D01*
X016831Y002545D01*
X016726Y002650D01*
X016831Y002755D01*
X016900Y002920D01*
X016900Y003380D01*
X016831Y003545D01*
X016705Y003671D01*
X016540Y003740D01*
X016360Y003740D01*
X016195Y003671D01*
X016136Y003613D02*
X015764Y003613D01*
X015844Y003514D02*
X016056Y003514D01*
X016015Y003416D02*
X015885Y003416D01*
X015900Y003317D02*
X016000Y003317D01*
X016000Y003219D02*
X015900Y003219D01*
X015900Y003120D02*
X016000Y003120D01*
X016000Y003022D02*
X015900Y003022D01*
X015900Y002923D02*
X016000Y002923D01*
X016040Y002825D02*
X015860Y002825D01*
X015820Y002726D02*
X016098Y002726D01*
X016151Y002628D02*
X015820Y002628D01*
X015838Y002529D02*
X016062Y002529D01*
X016021Y002431D02*
X015879Y002431D01*
X015900Y002332D02*
X016000Y002332D01*
X016000Y002234D02*
X015900Y002234D01*
X015900Y002135D02*
X016000Y002135D01*
X016000Y002037D02*
X015900Y002037D01*
X015900Y001938D02*
X016000Y001938D01*
X016034Y001840D02*
X015866Y001840D01*
X015817Y001741D02*
X016083Y001741D01*
X016181Y001643D02*
X015719Y001643D01*
X015181Y001643D02*
X014806Y001643D01*
X014820Y001741D02*
X015083Y001741D01*
X014000Y002170D02*
X012933Y002170D01*
X012933Y002177D01*
X012858Y002251D01*
X012863Y002254D01*
X012897Y002287D01*
X012920Y002329D01*
X012933Y002374D01*
X012933Y002475D01*
X013042Y002430D01*
X013328Y002430D01*
X013379Y002424D01*
X013401Y002430D01*
X013424Y002430D01*
X013471Y002450D01*
X013521Y002464D01*
X013539Y002478D01*
X013560Y002486D01*
X013596Y002523D01*
X013939Y002793D01*
X013960Y002801D01*
X013996Y002838D01*
X014025Y002860D01*
X014069Y002755D01*
X014080Y002744D01*
X014080Y002556D01*
X014069Y002545D01*
X014000Y002380D01*
X014000Y002170D01*
X014000Y002234D02*
X012876Y002234D01*
X012921Y002332D02*
X014000Y002332D01*
X014021Y002431D02*
X013425Y002431D01*
X013604Y002529D02*
X014062Y002529D01*
X014080Y002628D02*
X013729Y002628D01*
X013854Y002726D02*
X014080Y002726D01*
X014040Y002825D02*
X013983Y002825D01*
X013041Y002431D02*
X012933Y002431D01*
X014610Y003711D02*
X015290Y003711D01*
X015136Y003613D02*
X014764Y003613D01*
X015610Y003711D02*
X016290Y003711D01*
X016610Y003711D02*
X017290Y003711D01*
X017136Y003613D02*
X016764Y003613D01*
X016844Y003514D02*
X017056Y003514D01*
X017015Y003416D02*
X016885Y003416D01*
X016900Y003317D02*
X017000Y003317D01*
X017000Y003219D02*
X016900Y003219D01*
X016900Y003120D02*
X017000Y003120D01*
X017000Y003022D02*
X016900Y003022D01*
X016900Y002923D02*
X017000Y002923D01*
X017040Y002825D02*
X016860Y002825D01*
X016802Y002726D02*
X017098Y002726D01*
X017151Y002628D02*
X016749Y002628D01*
X016838Y002529D02*
X017062Y002529D01*
X017021Y002431D02*
X016879Y002431D01*
X016900Y002332D02*
X017000Y002332D01*
X017000Y002234D02*
X016900Y002234D01*
X016900Y002135D02*
X017000Y002135D01*
X017000Y002037D02*
X016900Y002037D01*
X016900Y001938D02*
X017000Y001938D01*
X017034Y001840D02*
X016866Y001840D01*
X016817Y001741D02*
X017083Y001741D01*
X017181Y001643D02*
X016719Y001643D01*
X017719Y001643D02*
X018190Y001643D01*
X018089Y001741D02*
X017817Y001741D01*
X017866Y001840D02*
X018032Y001840D01*
X018006Y001938D02*
X017900Y001938D01*
X018416Y001938D02*
X018484Y001938D01*
X018484Y001840D02*
X018416Y001840D01*
X018416Y001741D02*
X018484Y001741D01*
X018484Y001643D02*
X018416Y001643D01*
X018416Y002037D02*
X018484Y002037D01*
X018484Y002234D02*
X018416Y002234D01*
X018416Y002332D02*
X018484Y002332D01*
X018484Y002431D02*
X018416Y002431D01*
X018416Y002529D02*
X018484Y002529D01*
X018484Y002628D02*
X018416Y002628D01*
X018416Y002726D02*
X018484Y002726D01*
X018484Y002825D02*
X018416Y002825D01*
X018416Y002923D02*
X018484Y002923D01*
X018484Y003022D02*
X018416Y003022D01*
X018416Y003184D02*
X018000Y003184D01*
X018000Y003325D01*
X018011Y003395D01*
X018033Y003463D01*
X018065Y003526D01*
X018107Y003583D01*
X018157Y003633D01*
X018214Y003675D01*
X018277Y003707D01*
X018345Y003729D01*
X018415Y003740D01*
X018416Y003740D01*
X018416Y003184D01*
X018416Y003219D02*
X018484Y003219D01*
X018484Y003317D02*
X018416Y003317D01*
X018416Y003416D02*
X018484Y003416D01*
X018484Y003514D02*
X018416Y003514D01*
X018416Y003613D02*
X018484Y003613D01*
X018484Y003711D02*
X018416Y003711D01*
X018289Y003711D02*
X017610Y003711D01*
X017764Y003613D02*
X018136Y003613D01*
X018059Y003514D02*
X017844Y003514D01*
X017885Y003416D02*
X018018Y003416D01*
X018000Y003317D02*
X017900Y003317D01*
X017900Y003219D02*
X018000Y003219D01*
X017653Y005189D02*
X016609Y005189D01*
X016620Y005287D02*
X017503Y005287D01*
X019812Y006962D02*
X021526Y006962D01*
X021563Y007060D02*
X020630Y007060D01*
X020613Y007049D02*
X020664Y007083D01*
X020707Y007126D01*
X020741Y007177D01*
X020765Y007234D01*
X020777Y007294D01*
X020777Y007362D01*
X020468Y007362D01*
X020468Y007013D01*
X020496Y007013D01*
X020556Y007025D01*
X020613Y007049D01*
X020468Y007060D02*
X020392Y007060D01*
X020392Y007159D02*
X020468Y007159D01*
X020468Y007257D02*
X020400Y007257D01*
X020400Y007356D02*
X020468Y007356D01*
X020468Y007454D02*
X020400Y007454D01*
X020400Y007553D02*
X020468Y007553D01*
X020768Y007553D02*
X021752Y007553D01*
X021790Y007651D02*
X020946Y007651D01*
X020979Y007750D02*
X021828Y007750D01*
X021866Y007848D02*
X020979Y007848D01*
X020979Y007947D02*
X021970Y007947D01*
X022060Y007740D02*
X021450Y006150D01*
X021337Y006666D02*
X021123Y006666D01*
X021450Y006765D02*
X019953Y006765D01*
X019910Y006863D02*
X021488Y006863D01*
X021601Y007159D02*
X020729Y007159D01*
X020769Y007257D02*
X021639Y007257D01*
X021677Y007356D02*
X020777Y007356D01*
X020777Y007454D02*
X021715Y007454D01*
X019917Y007050D02*
X019917Y007050D01*
X019221Y007947D02*
X018977Y007947D01*
X019090Y008045D02*
X019219Y008045D01*
X017798Y010290D02*
X017397Y010293D01*
X017381Y010308D01*
X017295Y010308D01*
X017334Y010324D01*
X017426Y010416D01*
X017445Y010463D01*
X017577Y010463D01*
X017605Y010475D01*
X017605Y010469D01*
X017719Y010355D01*
X017868Y010355D01*
X017798Y010290D01*
X017820Y010311D02*
X017300Y010311D01*
X017419Y010409D02*
X017665Y010409D01*
X018218Y010812D02*
X018218Y010888D01*
X018527Y010888D01*
X018527Y010956D01*
X018519Y010995D01*
X018555Y010980D01*
X018685Y010980D01*
X018740Y011003D01*
X018740Y010810D01*
X018655Y010810D01*
X018536Y010761D01*
X018527Y010751D01*
X018527Y010812D01*
X018218Y010812D01*
X018527Y010803D02*
X018639Y010803D01*
X018740Y010902D02*
X018527Y010902D01*
X018733Y011000D02*
X018740Y011000D01*
X019488Y011112D02*
X019488Y011188D01*
X020412Y011188D01*
X020412Y011112D01*
X019930Y011112D01*
X019488Y011112D01*
X020488Y011112D02*
X020488Y011188D01*
X021412Y011188D01*
X021412Y011112D01*
X020930Y011112D01*
X020488Y011112D01*
X021488Y011112D02*
X021488Y011188D01*
X022412Y011188D01*
X022412Y011112D01*
X021930Y011112D01*
X021488Y011112D01*
X023946Y013364D02*
X023954Y013364D01*
X023999Y013463D02*
X023901Y013463D01*
X023803Y013561D02*
X024097Y013561D01*
X024269Y013660D02*
X023631Y013660D01*
X021510Y014054D02*
X029704Y014054D01*
X029735Y014054D02*
X029755Y014054D01*
X029755Y013561D02*
X028803Y013561D01*
X028901Y013463D02*
X029755Y013463D01*
X029755Y013364D02*
X028946Y013364D01*
X028987Y013266D02*
X029755Y013266D01*
X029755Y013167D02*
X028990Y013167D01*
X028990Y013069D02*
X029755Y013069D01*
X029755Y012970D02*
X028960Y012970D01*
X028919Y012872D02*
X029755Y012872D01*
X029755Y012773D02*
X028837Y012773D01*
X028713Y012675D02*
X029755Y012675D01*
X029755Y012576D02*
X028523Y012576D01*
X028425Y012478D02*
X029755Y012478D01*
X029755Y012379D02*
X028326Y012379D01*
X028228Y012281D02*
X029755Y012281D01*
X029755Y012182D02*
X028129Y012182D01*
X028031Y012084D02*
X029755Y012084D01*
X027500Y009326D02*
X027400Y009326D01*
X027400Y009227D02*
X027500Y009227D01*
X027500Y009129D02*
X027400Y009129D01*
X026910Y007848D02*
X026873Y007848D01*
X026928Y007750D02*
X026783Y007750D01*
X026488Y007750D02*
X026412Y007750D01*
X026412Y007848D02*
X026488Y007848D01*
X026488Y007947D02*
X026412Y007947D01*
X026412Y008045D02*
X026488Y008045D01*
X026117Y007750D02*
X025783Y007750D01*
X025873Y007848D02*
X026027Y007848D01*
X025970Y007947D02*
X025930Y007947D01*
X025303Y007651D02*
X025153Y007651D01*
X025117Y007750D02*
X025054Y007750D01*
X025027Y007848D02*
X025000Y007848D01*
X024377Y006568D02*
X029755Y006568D01*
X029755Y006666D02*
X029388Y006666D01*
X029656Y006765D02*
X029755Y006765D01*
X029755Y006469D02*
X024401Y006469D01*
X024425Y006371D02*
X029755Y006371D01*
X029755Y006272D02*
X024449Y006272D01*
X024473Y006174D02*
X029755Y006174D01*
X029755Y006075D02*
X025097Y006075D01*
X025546Y005977D02*
X029755Y005977D01*
X029755Y005878D02*
X025612Y005878D01*
X025667Y005780D02*
X029755Y005780D01*
X029755Y005681D02*
X025766Y005681D01*
X025864Y005583D02*
X029755Y005583D01*
X029755Y005484D02*
X025910Y005484D01*
X025910Y005386D02*
X029755Y005386D01*
X029755Y005287D02*
X025910Y005287D01*
X025910Y005189D02*
X029755Y005189D01*
X029755Y005090D02*
X025910Y005090D01*
X025910Y004992D02*
X029755Y004992D01*
X029755Y004893D02*
X025910Y004893D01*
X025910Y004795D02*
X029755Y004795D01*
X029755Y004696D02*
X025910Y004696D01*
X025910Y004598D02*
X029755Y004598D01*
X029755Y004499D02*
X029525Y004499D01*
X029510Y004508D02*
X029465Y004520D01*
X029050Y004520D01*
X029050Y004100D01*
X029620Y004100D01*
X029620Y004365D01*
X029608Y004410D01*
X029584Y004451D01*
X029551Y004484D01*
X029510Y004508D01*
X029610Y004401D02*
X029755Y004401D01*
X029755Y004302D02*
X029620Y004302D01*
X029620Y004204D02*
X029755Y004204D01*
X029755Y004105D02*
X029620Y004105D01*
X029620Y004000D02*
X029050Y004000D01*
X029050Y004100D01*
X028950Y004100D01*
X028950Y004520D01*
X028535Y004520D01*
X028490Y004508D01*
X028449Y004484D01*
X028416Y004451D01*
X028392Y004410D01*
X028380Y004365D01*
X028380Y004100D01*
X028950Y004100D01*
X028950Y004000D01*
X029050Y004000D01*
X029050Y003580D01*
X029465Y003580D01*
X029510Y003592D01*
X029551Y003616D01*
X029584Y003649D01*
X029608Y003690D01*
X029620Y003735D01*
X029620Y004000D01*
X029620Y003908D02*
X029755Y003908D01*
X029755Y003810D02*
X029620Y003810D01*
X029613Y003711D02*
X029755Y003711D01*
X029755Y003613D02*
X029545Y003613D01*
X029755Y003514D02*
X028276Y003514D01*
X028326Y003452D02*
X028326Y003452D01*
X028334Y003416D02*
X029755Y003416D01*
X029755Y003317D02*
X028357Y003317D01*
X028379Y003219D02*
X029755Y003219D01*
X029755Y003120D02*
X028388Y003120D01*
X028366Y003022D02*
X029755Y003022D01*
X029755Y002923D02*
X028343Y002923D01*
X028307Y002825D02*
X029755Y002825D01*
X029755Y002726D02*
X028229Y002726D01*
X028150Y002628D02*
X028392Y002628D01*
X028380Y002529D02*
X027972Y002529D01*
X028133Y002607D02*
X028133Y002607D01*
X028133Y002607D01*
X027428Y002529D02*
X027020Y002529D01*
X027008Y002628D02*
X027250Y002628D01*
X027267Y002607D02*
X027267Y002607D01*
X027171Y002726D02*
X026221Y002726D01*
X026122Y002825D02*
X027093Y002825D01*
X027074Y002848D02*
X027074Y002848D01*
X027057Y002923D02*
X025910Y002923D01*
X025910Y003022D02*
X027034Y003022D01*
X027012Y003120D02*
X025910Y003120D01*
X025910Y003219D02*
X027021Y003219D01*
X027043Y003317D02*
X025910Y003317D01*
X025910Y003416D02*
X027066Y003416D01*
X027124Y003514D02*
X025910Y003514D01*
X025490Y003514D02*
X021844Y003514D01*
X021885Y003416D02*
X025490Y003416D01*
X025490Y003317D02*
X021900Y003317D01*
X021900Y003219D02*
X025490Y003219D01*
X025490Y003120D02*
X021900Y003120D01*
X021900Y003022D02*
X023502Y003022D01*
X023342Y002923D02*
X021900Y002923D01*
X021860Y002825D02*
X023243Y002825D01*
X023161Y002726D02*
X021820Y002726D01*
X021820Y002628D02*
X023120Y002628D01*
X023079Y002529D02*
X021838Y002529D01*
X021879Y002431D02*
X023050Y002431D01*
X023050Y002332D02*
X021900Y002332D01*
X021900Y002234D02*
X023050Y002234D01*
X023053Y002135D02*
X021900Y002135D01*
X021900Y002037D02*
X023093Y002037D01*
X023134Y001938D02*
X021900Y001938D01*
X021866Y001840D02*
X023179Y001840D01*
X023278Y001741D02*
X021817Y001741D01*
X021719Y001643D02*
X023376Y001643D01*
X024324Y001643D02*
X029755Y001643D01*
X029755Y001741D02*
X024422Y001741D01*
X024521Y001840D02*
X025825Y001840D01*
X025780Y001938D02*
X024566Y001938D01*
X024607Y002037D02*
X025780Y002037D01*
X025780Y002135D02*
X024647Y002135D01*
X024650Y002234D02*
X025780Y002234D01*
X025780Y002332D02*
X024650Y002332D01*
X024650Y002431D02*
X025780Y002431D01*
X025674Y002529D02*
X024621Y002529D01*
X024580Y002628D02*
X025576Y002628D01*
X025490Y002726D02*
X024539Y002726D01*
X024457Y002825D02*
X025490Y002825D01*
X025490Y002923D02*
X024358Y002923D01*
X024198Y003022D02*
X025490Y003022D01*
X025490Y003613D02*
X021764Y003613D01*
X021610Y003711D02*
X022154Y003711D01*
X022746Y003711D02*
X024154Y003711D01*
X024055Y003810D02*
X022845Y003810D01*
X022913Y003908D02*
X023987Y003908D01*
X023947Y004007D02*
X022953Y004007D01*
X022970Y004105D02*
X023930Y004105D01*
X023930Y004204D02*
X022970Y004204D01*
X022950Y004302D02*
X023950Y004302D01*
X023991Y004401D02*
X022909Y004401D01*
X022836Y004499D02*
X024064Y004499D01*
X024172Y004598D02*
X022728Y004598D01*
X022713Y004696D02*
X023187Y004696D01*
X023070Y004795D02*
X022830Y004795D01*
X022906Y004893D02*
X022994Y004893D01*
X022953Y004992D02*
X022947Y004992D01*
X023713Y004696D02*
X024861Y004696D01*
X024728Y004598D02*
X025490Y004598D01*
X025490Y004499D02*
X024836Y004499D01*
X024909Y004401D02*
X025490Y004401D01*
X025490Y003908D02*
X024913Y003908D01*
X024845Y003810D02*
X025490Y003810D01*
X025490Y003711D02*
X024746Y003711D01*
X024459Y004795D02*
X023830Y004795D01*
X023906Y004893D02*
X024360Y004893D01*
X026350Y004499D02*
X026450Y004499D01*
X026450Y004520D02*
X026450Y004100D01*
X027020Y004100D01*
X027020Y004365D01*
X027008Y004410D01*
X026984Y004451D01*
X026951Y004484D01*
X026910Y004508D01*
X026865Y004520D01*
X026450Y004520D01*
X026450Y004401D02*
X026350Y004401D01*
X026350Y004302D02*
X026450Y004302D01*
X026450Y004204D02*
X026350Y004204D01*
X026350Y004105D02*
X026450Y004105D01*
X026450Y004007D02*
X028950Y004007D01*
X028950Y004000D02*
X028380Y004000D01*
X028380Y003735D01*
X028392Y003690D01*
X028416Y003649D01*
X028449Y003616D01*
X028490Y003592D01*
X028535Y003580D01*
X028950Y003580D01*
X028950Y004000D01*
X028950Y003908D02*
X029050Y003908D01*
X029050Y003810D02*
X028950Y003810D01*
X028950Y003711D02*
X029050Y003711D01*
X029050Y003613D02*
X028950Y003613D01*
X029050Y004007D02*
X029755Y004007D01*
X029050Y004105D02*
X028950Y004105D01*
X028950Y004204D02*
X029050Y004204D01*
X029050Y004302D02*
X028950Y004302D01*
X028950Y004401D02*
X029050Y004401D01*
X029050Y004499D02*
X028950Y004499D01*
X028475Y004499D02*
X026925Y004499D01*
X027010Y004401D02*
X028390Y004401D01*
X028380Y004302D02*
X027020Y004302D01*
X027020Y004204D02*
X028380Y004204D01*
X028380Y004105D02*
X027020Y004105D01*
X027020Y004000D02*
X026450Y004000D01*
X026450Y003580D01*
X026865Y003580D01*
X026910Y003592D01*
X026951Y003616D01*
X026984Y003649D01*
X027008Y003690D01*
X027020Y003735D01*
X027020Y004000D01*
X027020Y003908D02*
X028380Y003908D01*
X028380Y003810D02*
X027892Y003810D01*
X028097Y003711D02*
X028387Y003711D01*
X028455Y003613D02*
X028198Y003613D01*
X028133Y003693D02*
X028133Y003693D01*
X027508Y003810D02*
X027020Y003810D01*
X027013Y003711D02*
X027303Y003711D01*
X027267Y003693D02*
X027267Y003693D01*
X027267Y003693D01*
X027202Y003613D02*
X026945Y003613D01*
X026450Y003613D02*
X026350Y003613D01*
X026350Y003711D02*
X026450Y003711D01*
X026450Y003810D02*
X026350Y003810D01*
X026350Y003908D02*
X026450Y003908D01*
X027020Y001938D02*
X028380Y001938D01*
X028425Y001840D02*
X026975Y001840D01*
X029575Y001840D02*
X029755Y001840D01*
X029755Y001938D02*
X029620Y001938D01*
X029620Y002037D02*
X029755Y002037D01*
X029755Y002135D02*
X029620Y002135D01*
X029620Y002234D02*
X029755Y002234D01*
X029755Y002332D02*
X029620Y002332D01*
X029620Y002431D02*
X029755Y002431D01*
X029755Y002529D02*
X029620Y002529D01*
X029608Y002628D02*
X029755Y002628D01*
X021493Y005287D02*
X021407Y005287D01*
X021407Y005386D02*
X021493Y005386D01*
X021080Y002726D02*
X020820Y002726D01*
X020820Y002628D02*
X021080Y002628D01*
X021062Y002529D02*
X020838Y002529D01*
X020879Y002431D02*
X021021Y002431D01*
X021000Y002332D02*
X020900Y002332D01*
X020900Y002234D02*
X021000Y002234D01*
X021000Y002135D02*
X020900Y002135D01*
X020900Y002037D02*
X021000Y002037D01*
X021000Y001938D02*
X020900Y001938D01*
X020866Y001840D02*
X021034Y001840D01*
X021083Y001741D02*
X020817Y001741D01*
X020719Y001643D02*
X021181Y001643D01*
X014202Y006300D02*
X014194Y006342D01*
X014202Y006300D02*
X013825Y006410D01*
X013299Y006075D02*
X012670Y006075D01*
X012670Y005977D02*
X013368Y005977D01*
X013230Y006174D02*
X012313Y006174D01*
X012670Y006272D02*
X013161Y006272D01*
X013092Y006371D02*
X012670Y006371D01*
X013000Y005878D02*
X013100Y005878D01*
X013100Y005780D02*
X013000Y005780D01*
X013000Y005681D02*
X013100Y005681D01*
X013100Y005583D02*
X013000Y005583D01*
X013000Y005484D02*
X011750Y005484D01*
X011750Y005386D02*
X011650Y005386D01*
X011650Y005484D02*
X011107Y005484D01*
X011058Y005386D02*
X010937Y005386D01*
X011063Y005090D02*
X010630Y005090D01*
X010630Y004992D02*
X011127Y004992D01*
X011114Y004696D02*
X008183Y004696D01*
X009221Y003810D02*
X011128Y003810D01*
X010629Y004893D02*
X013759Y004893D01*
X013717Y004992D02*
X013623Y004992D01*
X013100Y004992D02*
X013000Y004992D01*
X013000Y005090D02*
X013100Y005090D01*
X013100Y005189D02*
X013000Y005189D01*
X013000Y005287D02*
X013100Y005287D01*
X013100Y005386D02*
X013000Y005386D01*
X011750Y005287D02*
X011650Y005287D01*
X011650Y005189D02*
X011750Y005189D01*
X011750Y005090D02*
X011650Y005090D01*
X011650Y004992D02*
X011750Y004992D01*
X011450Y006150D02*
X011437Y006150D01*
X012778Y007723D02*
X013127Y007723D01*
X013127Y008032D01*
X013059Y008032D01*
X012999Y008020D01*
X012942Y007996D01*
X012891Y007962D01*
X012848Y007919D01*
X012814Y007868D01*
X012790Y007811D01*
X012778Y007751D01*
X012778Y007723D01*
X012778Y007750D02*
X007962Y007750D01*
X007863Y007848D02*
X012806Y007848D01*
X012876Y007947D02*
X007765Y007947D01*
X007666Y008045D02*
X013011Y008045D01*
X013127Y007947D02*
X013203Y007947D01*
X013203Y007848D02*
X013127Y007848D01*
X013127Y007750D02*
X013203Y007750D01*
X013203Y007723D02*
X013552Y007723D01*
X013552Y007751D01*
X013540Y007811D01*
X013516Y007868D01*
X013482Y007919D01*
X013439Y007962D01*
X013388Y007996D01*
X013331Y008020D01*
X013454Y007947D02*
X013875Y007947D01*
X013875Y007930D02*
X013914Y007836D01*
X013816Y007796D01*
X013724Y007704D01*
X013675Y007585D01*
X013675Y007570D01*
X013542Y007570D01*
X013552Y007619D01*
X013552Y007647D01*
X013203Y007647D01*
X013203Y007723D01*
X013203Y007651D02*
X013702Y007651D01*
X013770Y007750D02*
X013552Y007750D01*
X013524Y007848D02*
X013909Y007848D01*
X013875Y007930D02*
X013875Y008060D01*
X013924Y008179D01*
X014016Y008271D01*
X014086Y008299D01*
X013913Y008299D01*
X013866Y008186D01*
X013774Y008094D01*
X013655Y008045D01*
X013875Y008045D01*
X013910Y008144D02*
X013823Y008144D01*
X013889Y008242D02*
X013987Y008242D01*
X013655Y008045D02*
X013525Y008045D01*
X013127Y007651D02*
X008060Y007651D01*
X008050Y007350D02*
X006400Y009000D01*
X006105Y009275D01*
X006268Y009424D02*
X012129Y009424D01*
X012227Y009326D02*
X006373Y009326D01*
X006479Y009227D02*
X012326Y009227D01*
X012424Y009129D02*
X006585Y009129D01*
X006681Y009030D02*
X012523Y009030D01*
X012621Y008932D02*
X006780Y008932D01*
X006878Y008833D02*
X012720Y008833D01*
X012818Y008735D02*
X006977Y008735D01*
X007075Y008636D02*
X012865Y008636D01*
X012801Y008538D02*
X007174Y008538D01*
X007272Y008439D02*
X012778Y008439D01*
X012778Y008341D02*
X007371Y008341D01*
X007469Y008242D02*
X012797Y008242D01*
X012856Y008144D02*
X007568Y008144D01*
X008150Y007350D02*
X013650Y007350D01*
X013800Y007200D01*
X014450Y007200D01*
X012030Y009523D02*
X005595Y009523D01*
X005462Y009917D02*
X007452Y009917D01*
X007359Y010015D02*
X005470Y010015D01*
X005470Y010114D02*
X007265Y010114D01*
X007171Y010212D02*
X005470Y010212D01*
X005470Y010311D02*
X007078Y010311D01*
X006984Y010409D02*
X005470Y010409D01*
X005470Y010508D02*
X006891Y010508D01*
X006797Y010606D02*
X005470Y010606D01*
X005470Y010705D02*
X006179Y010705D01*
X006062Y010803D02*
X005470Y010803D01*
X005408Y010902D02*
X005993Y010902D01*
X006412Y010902D02*
X006488Y010902D01*
X006488Y011000D02*
X006412Y011000D01*
X006412Y011099D02*
X006488Y011099D01*
X006488Y010803D02*
X006412Y010803D01*
X006412Y010705D02*
X006488Y010705D01*
X006721Y010705D02*
X006739Y010705D01*
X007344Y010640D02*
X007409Y010630D01*
X007412Y010630D01*
X007412Y011112D01*
X007488Y011112D01*
X007488Y010630D01*
X007491Y010630D01*
X007572Y010643D01*
X007650Y010668D01*
X007723Y010705D01*
X007740Y010718D01*
X007740Y010613D01*
X007863Y010490D01*
X008393Y009960D01*
X007990Y009960D01*
X007344Y010640D01*
X007376Y010606D02*
X007747Y010606D01*
X007740Y010705D02*
X007721Y010705D01*
X007845Y010508D02*
X007470Y010508D01*
X007564Y010409D02*
X007944Y010409D01*
X008042Y010311D02*
X007657Y010311D01*
X007751Y010212D02*
X008141Y010212D01*
X008239Y010114D02*
X007844Y010114D01*
X007938Y010015D02*
X008338Y010015D01*
X008636Y010311D02*
X008892Y010311D01*
X008863Y010340D02*
X008993Y010210D01*
X008737Y010210D01*
X008293Y010654D01*
X008328Y010643D01*
X008409Y010630D01*
X008412Y010630D01*
X008412Y011112D01*
X008488Y011112D01*
X008488Y010630D01*
X008491Y010630D01*
X008572Y010643D01*
X008650Y010668D01*
X008723Y010705D01*
X008740Y010718D01*
X008740Y010463D01*
X008863Y010340D01*
X008794Y010409D02*
X008538Y010409D01*
X008439Y010508D02*
X008740Y010508D01*
X008740Y010606D02*
X008341Y010606D01*
X008412Y010705D02*
X008488Y010705D01*
X008488Y010803D02*
X008412Y010803D01*
X008412Y010902D02*
X008488Y010902D01*
X008488Y011000D02*
X008412Y011000D01*
X008412Y011099D02*
X008488Y011099D01*
X008721Y010705D02*
X008740Y010705D01*
X009160Y010705D02*
X009179Y010705D01*
X009177Y010705D02*
X009250Y010668D01*
X009328Y010643D01*
X009409Y010630D01*
X009412Y010630D01*
X009412Y011112D01*
X009488Y011112D01*
X009488Y010630D01*
X009491Y010630D01*
X009572Y010643D01*
X009650Y010668D01*
X009723Y010705D01*
X009737Y010716D01*
X009740Y010688D01*
X009740Y010613D01*
X009749Y010604D01*
X009751Y010590D01*
X009810Y010543D01*
X009863Y010490D01*
X009876Y010490D01*
X009914Y010460D01*
X009337Y010460D01*
X009160Y010637D01*
X009160Y010718D01*
X009177Y010705D01*
X009191Y010606D02*
X009747Y010606D01*
X009738Y010705D02*
X009721Y010705D01*
X009845Y010508D02*
X009289Y010508D01*
X009412Y010705D02*
X009488Y010705D01*
X009488Y010803D02*
X009412Y010803D01*
X009412Y010902D02*
X009488Y010902D01*
X009488Y011000D02*
X009412Y011000D01*
X009412Y011099D02*
X009488Y011099D01*
X010488Y011112D02*
X010488Y011188D01*
X011412Y011188D01*
X011412Y011112D01*
X010930Y011112D01*
X010488Y011112D01*
X011488Y011112D02*
X011488Y011188D01*
X011970Y011188D01*
X011970Y011191D01*
X011957Y011272D01*
X011940Y011325D01*
X013844Y009545D01*
X012646Y010651D01*
X012587Y010710D01*
X012582Y010710D01*
X012579Y010713D01*
X012496Y010710D01*
X011729Y010710D01*
X011789Y010753D01*
X011847Y010811D01*
X011895Y010877D01*
X011932Y010950D01*
X011957Y011028D01*
X011970Y011109D01*
X011970Y011112D01*
X011488Y011112D01*
X011838Y010803D02*
X012498Y010803D01*
X012592Y010705D02*
X012604Y010705D01*
X012695Y010606D02*
X012709Y010606D01*
X012801Y010508D02*
X012814Y010508D01*
X012908Y010409D02*
X012920Y010409D01*
X013015Y010311D02*
X013025Y010311D01*
X013121Y010212D02*
X013131Y010212D01*
X013228Y010114D02*
X013236Y010114D01*
X013335Y010015D02*
X013341Y010015D01*
X013442Y009917D02*
X013447Y009917D01*
X013548Y009818D02*
X013552Y009818D01*
X013655Y009720D02*
X013657Y009720D01*
X013762Y009621D02*
X013763Y009621D01*
X014194Y010057D02*
X012310Y011889D01*
X012310Y012456D01*
X012385Y012425D01*
X012427Y012425D01*
X012945Y012018D01*
X012947Y012016D01*
X013179Y011717D01*
X013179Y011323D01*
X013284Y011217D01*
X013450Y011217D01*
X013481Y011157D01*
X013481Y011155D01*
X013506Y011109D01*
X013530Y011064D01*
X013531Y011062D01*
X013532Y011060D01*
X013572Y011028D01*
X013612Y010994D01*
X013614Y010994D01*
X014290Y010442D01*
X014290Y010280D01*
X014194Y010183D01*
X014194Y010057D01*
X014194Y010114D02*
X014136Y010114D01*
X014170Y010170D02*
X014200Y010150D01*
X014150Y010200D01*
X014222Y010212D02*
X014034Y010212D01*
X013933Y010311D02*
X014290Y010311D01*
X014290Y010409D02*
X013832Y010409D01*
X013730Y010508D02*
X014210Y010508D01*
X014089Y010606D02*
X013629Y010606D01*
X013528Y010705D02*
X013968Y010705D01*
X013847Y010803D02*
X013427Y010803D01*
X013325Y010902D02*
X013727Y010902D01*
X013605Y011000D02*
X013224Y011000D01*
X013123Y011099D02*
X013511Y011099D01*
X013460Y011197D02*
X013021Y011197D01*
X012920Y011296D02*
X013206Y011296D01*
X013179Y011394D02*
X012819Y011394D01*
X012717Y011493D02*
X013179Y011493D01*
X013179Y011591D02*
X012616Y011591D01*
X012515Y011690D02*
X013179Y011690D01*
X013124Y011788D02*
X012414Y011788D01*
X012312Y011887D02*
X013047Y011887D01*
X012971Y011985D02*
X012310Y011985D01*
X012310Y012084D02*
X012861Y012084D01*
X012736Y012182D02*
X012310Y012182D01*
X012310Y012281D02*
X012610Y012281D01*
X012485Y012379D02*
X012310Y012379D01*
X012124Y012773D02*
X012125Y012773D01*
X012149Y012872D02*
X012025Y012872D01*
X011927Y012970D02*
X012210Y012970D01*
X012370Y013069D02*
X011900Y013069D01*
X011900Y013167D02*
X012910Y013167D01*
X012910Y013069D02*
X012530Y013069D01*
X012690Y012970D02*
X012940Y012970D01*
X012981Y012872D02*
X012751Y012872D01*
X012858Y012773D02*
X013063Y012773D01*
X012983Y012675D02*
X013187Y012675D01*
X013108Y012576D02*
X015240Y012576D01*
X015240Y012478D02*
X013234Y012478D01*
X013501Y012182D02*
X015240Y012182D01*
X015240Y012084D02*
X013578Y012084D01*
X013654Y011985D02*
X015240Y011985D01*
X015240Y011887D02*
X014600Y011887D01*
X014609Y011872D02*
X014585Y011913D01*
X014552Y011947D01*
X014510Y011970D01*
X014465Y011983D01*
X014294Y011983D01*
X014294Y011650D01*
X014621Y011650D01*
X014621Y011826D01*
X014609Y011872D01*
X014621Y011788D02*
X015240Y011788D01*
X015240Y011690D02*
X014621Y011690D01*
X014621Y011493D02*
X015240Y011493D01*
X015240Y011591D02*
X014294Y011591D01*
X014294Y011493D02*
X014194Y011493D01*
X014194Y011394D02*
X014294Y011394D01*
X014294Y011296D02*
X014194Y011296D01*
X014219Y011197D02*
X014950Y011197D01*
X014853Y011099D02*
X014339Y011099D01*
X014460Y011000D02*
X014853Y011000D01*
X014853Y010902D02*
X014581Y010902D01*
X014703Y010803D02*
X014853Y010803D01*
X015049Y011296D02*
X014590Y011296D01*
X014621Y011394D02*
X015147Y011394D01*
X014294Y011690D02*
X014194Y011690D01*
X014194Y011788D02*
X014294Y011788D01*
X014294Y011887D02*
X014194Y011887D01*
X014194Y012675D02*
X013713Y012675D01*
X013837Y012773D02*
X014063Y012773D01*
X013986Y012872D02*
X013919Y012872D01*
X014411Y012872D02*
X014489Y012872D01*
X014489Y012970D02*
X014411Y012970D01*
X014411Y013069D02*
X014489Y013069D01*
X014489Y013266D02*
X014411Y013266D01*
X014411Y013364D02*
X014489Y013364D01*
X014489Y013463D02*
X014411Y013463D01*
X014411Y013561D02*
X014489Y013561D01*
X014489Y013660D02*
X014411Y013660D01*
X014271Y013660D02*
X013631Y013660D01*
X013803Y013561D02*
X014097Y013561D01*
X014010Y013463D02*
X013901Y013463D01*
X013946Y013364D02*
X013953Y013364D01*
X014629Y013660D02*
X015269Y013660D01*
X015097Y013561D02*
X014803Y013561D01*
X014890Y013463D02*
X014999Y013463D01*
X014954Y013364D02*
X014947Y013364D01*
X015631Y013660D02*
X015740Y013660D01*
X014981Y012872D02*
X014914Y012872D01*
X014837Y012773D02*
X015063Y012773D01*
X015187Y012675D02*
X014706Y012675D01*
X014489Y012675D02*
X014411Y012675D01*
X014411Y012773D02*
X014489Y012773D01*
X013269Y013660D02*
X011717Y013660D01*
X011815Y013561D02*
X013097Y013561D01*
X012999Y013463D02*
X011866Y013463D01*
X011900Y013364D02*
X012954Y013364D01*
X012913Y013266D02*
X011900Y013266D01*
X011183Y013660D02*
X010717Y013660D01*
X010815Y013561D02*
X011085Y013561D01*
X011034Y013463D02*
X010866Y013463D01*
X010900Y013364D02*
X011000Y013364D01*
X011000Y013266D02*
X010900Y013266D01*
X010900Y013167D02*
X011000Y013167D01*
X011000Y013069D02*
X010900Y013069D01*
X010927Y012970D02*
X011000Y012970D01*
X010183Y013660D02*
X009717Y013660D01*
X009815Y013561D02*
X010085Y013561D01*
X010034Y013463D02*
X009866Y013463D01*
X009900Y013364D02*
X010000Y013364D01*
X010000Y013266D02*
X009900Y013266D01*
X009900Y013167D02*
X010000Y013167D01*
X010000Y013069D02*
X009900Y013069D01*
X009927Y012970D02*
X010000Y012970D01*
X009000Y012970D02*
X008927Y012970D01*
X008900Y013069D02*
X009000Y013069D01*
X009000Y013167D02*
X008900Y013167D01*
X008900Y013266D02*
X009000Y013266D01*
X009000Y013364D02*
X008900Y013364D01*
X008866Y013463D02*
X009034Y013463D01*
X009085Y013561D02*
X008815Y013561D01*
X008717Y013660D02*
X009183Y013660D01*
X008183Y013660D02*
X007717Y013660D01*
X007815Y013561D02*
X008085Y013561D01*
X008034Y013463D02*
X007866Y013463D01*
X007900Y013364D02*
X008000Y013364D01*
X008000Y013266D02*
X007900Y013266D01*
X007900Y013167D02*
X008000Y013167D01*
X008000Y013069D02*
X007900Y013069D01*
X007927Y012970D02*
X008000Y012970D01*
X007000Y012970D02*
X006927Y012970D01*
X006900Y013069D02*
X007000Y013069D01*
X007000Y013167D02*
X006900Y013167D01*
X006900Y013266D02*
X007000Y013266D01*
X007000Y013364D02*
X006900Y013364D01*
X006866Y013463D02*
X007034Y013463D01*
X007085Y013561D02*
X006815Y013561D01*
X006717Y013660D02*
X007183Y013660D01*
X007412Y011099D02*
X007488Y011099D01*
X007488Y011000D02*
X007412Y011000D01*
X007412Y010902D02*
X007488Y010902D01*
X007488Y010803D02*
X007412Y010803D01*
X007412Y010705D02*
X007488Y010705D01*
X007546Y009818D02*
X004524Y009818D01*
X004622Y009720D02*
X007639Y009720D01*
X007732Y009621D02*
X004682Y009621D01*
X005050Y007947D02*
X005050Y007947D01*
X005050Y007848D02*
X005050Y007848D01*
X004265Y007454D02*
X004006Y007454D01*
X004186Y007356D02*
X003305Y007356D01*
X003305Y007375D02*
X003199Y007481D01*
X002127Y007481D01*
X002020Y007375D01*
X002020Y006461D01*
X002127Y006354D01*
X003199Y006354D01*
X003305Y006461D01*
X003305Y007375D01*
X003226Y007454D02*
X003681Y007454D01*
X003556Y007553D02*
X001645Y007553D01*
X001645Y007651D02*
X003502Y007651D01*
X003477Y007750D02*
X001645Y007750D01*
X001645Y007848D02*
X003477Y007848D01*
X003514Y007947D02*
X001645Y007947D01*
X001645Y008045D02*
X001945Y008045D01*
X001787Y008144D02*
X001645Y008144D01*
X001645Y008242D02*
X001709Y008242D01*
X001645Y007454D02*
X002099Y007454D01*
X002020Y007356D02*
X001645Y007356D01*
X001645Y007257D02*
X002020Y007257D01*
X002020Y007159D02*
X001645Y007159D01*
X001645Y007060D02*
X002020Y007060D01*
X002020Y006962D02*
X001645Y006962D01*
X001645Y006863D02*
X002020Y006863D01*
X002020Y006765D02*
X001645Y006765D01*
X001645Y006666D02*
X002020Y006666D01*
X002020Y006568D02*
X001645Y006568D01*
X001645Y006469D02*
X002020Y006469D01*
X002110Y006371D02*
X001645Y006371D01*
X003215Y006371D02*
X004276Y006371D01*
X004186Y006469D02*
X003305Y006469D01*
X003305Y006568D02*
X004186Y006568D01*
X004186Y006666D02*
X003305Y006666D01*
X003305Y006765D02*
X004186Y006765D01*
X004186Y006863D02*
X003305Y006863D01*
X003305Y006962D02*
X004186Y006962D01*
X004186Y007060D02*
X003305Y007060D01*
X003305Y007159D02*
X004186Y007159D01*
X004186Y007257D02*
X003305Y007257D01*
X003586Y008045D02*
X002555Y008045D01*
X003300Y005133D02*
X003212Y005097D01*
X003131Y005050D01*
X003056Y004992D01*
X002989Y004926D01*
X002932Y004851D01*
X002884Y004769D01*
X002848Y004682D01*
X002824Y004591D01*
X002812Y004500D01*
X003481Y004500D01*
X003481Y005170D01*
X003391Y005158D01*
X003300Y005133D01*
X003200Y005090D02*
X001645Y005090D01*
X001645Y004992D02*
X003055Y004992D01*
X002964Y004893D02*
X001645Y004893D01*
X001645Y004795D02*
X002899Y004795D01*
X002854Y004696D02*
X001645Y004696D01*
X001645Y004598D02*
X002826Y004598D01*
X002826Y004302D02*
X001645Y004302D01*
X001645Y004204D02*
X002854Y004204D01*
X002899Y004105D02*
X001645Y004105D01*
X001645Y004007D02*
X002964Y004007D01*
X003055Y003908D02*
X001645Y003908D01*
X001645Y003810D02*
X003201Y003810D01*
X003481Y003810D02*
X003581Y003810D01*
X003581Y003908D02*
X003481Y003908D01*
X003481Y004007D02*
X003581Y004007D01*
X003581Y004105D02*
X003481Y004105D01*
X003481Y004204D02*
X003581Y004204D01*
X003581Y004302D02*
X003481Y004302D01*
X003481Y004401D02*
X001645Y004401D01*
X001645Y004499D02*
X003481Y004499D01*
X003481Y004598D02*
X003581Y004598D01*
X003581Y004696D02*
X003481Y004696D01*
X003481Y004795D02*
X003581Y004795D01*
X003581Y004893D02*
X003481Y004893D01*
X003481Y004992D02*
X003581Y004992D01*
X003581Y005090D02*
X003481Y005090D01*
X003996Y002529D02*
X001645Y002529D01*
X001645Y002431D02*
X004013Y002431D01*
X004044Y002332D02*
X001645Y002332D01*
X001645Y002234D02*
X004093Y002234D01*
X004162Y002135D02*
X001645Y002135D01*
X001645Y002037D02*
X004264Y002037D01*
X004428Y001938D02*
X001645Y001938D01*
X009066Y002825D02*
X009166Y002825D01*
X009166Y002923D02*
X009066Y002923D01*
X009066Y003022D02*
X009166Y003022D01*
X009166Y003120D02*
X009066Y003120D01*
X009066Y003219D02*
X009166Y003219D01*
X014551Y010084D02*
X014560Y010095D01*
X014560Y010200D01*
X012393Y010902D02*
X011907Y010902D01*
X011948Y011000D02*
X012288Y011000D01*
X012182Y011099D02*
X011968Y011099D01*
X011969Y011197D02*
X012077Y011197D01*
X011972Y011296D02*
X011949Y011296D01*
X008991Y010212D02*
X008735Y010212D01*
D32*
X012450Y012750D03*
X016690Y011420D03*
X017150Y010600D03*
X018125Y010950D03*
X018620Y011305D03*
X018720Y010485D03*
X018875Y010105D03*
X018510Y009790D03*
X019730Y009820D03*
X020200Y009600D03*
X019000Y007950D03*
X018100Y007980D03*
X017350Y007850D03*
X016190Y007110D03*
X014600Y007350D03*
X014000Y007520D03*
X014200Y007995D03*
X013590Y008370D03*
X013825Y006410D03*
X014100Y004750D03*
X011670Y003425D03*
X011355Y003425D03*
X016350Y004200D03*
X017750Y005500D03*
X019300Y005250D03*
X021170Y004600D03*
X029500Y007100D03*
X024950Y012710D03*
D33*
X028845Y011375D03*
X021560Y008110D03*
X019600Y006650D03*
X020300Y005550D03*
X016555Y008405D03*
X015145Y008385D03*
X015160Y009795D03*
X016560Y009795D03*
X015075Y011640D03*
X014960Y012535D03*
X013710Y012325D03*
X012780Y011765D03*
X012410Y013460D03*
X004660Y011510D03*
X006700Y005990D03*
X006205Y005720D03*
X006700Y005500D03*
X007015Y005150D03*
X006760Y004665D03*
X006435Y005110D03*
X007595Y004295D03*
X007830Y003900D03*
X007200Y003900D03*
X006730Y004165D03*
X008370Y004695D03*
X008555Y005160D03*
X009025Y005155D03*
X009210Y005555D03*
X008360Y005575D03*
X007590Y006040D03*
X010585Y005145D03*
X010910Y005240D03*
X010940Y004765D03*
X010950Y004200D03*
X012515Y003635D03*
X010850Y005750D03*
X025410Y002110D03*
X027760Y005710D03*
X029560Y005760D03*
D34*
X029500Y007100D02*
X029350Y007450D01*
X029350Y008100D02*
X029350Y008700D01*
X029450Y008800D01*
X029450Y009400D01*
X029200Y009150D01*
X028450Y009150D01*
X028350Y008650D01*
X027850Y008150D01*
X027450Y008150D01*
X027450Y007900D01*
X020450Y003800D02*
X020450Y003150D01*
X021450Y003150D01*
X021450Y002150D01*
X020450Y002150D02*
X020450Y003150D01*
X020450Y003800D02*
X020000Y004200D01*
X020000Y005250D01*
X020300Y005550D01*
X020000Y004200D02*
X016350Y004200D01*
X015450Y003200D02*
X015450Y002150D01*
X014450Y002150D01*
X014450Y002100D02*
X014450Y003150D01*
X015450Y003150D01*
X014450Y002100D02*
X014450Y001800D01*
X014450Y001750D01*
X014450Y001800D02*
X012600Y001800D01*
X012600Y001906D01*
X012550Y001906D01*
X012038Y001888D01*
X013115Y002800D02*
X013350Y002800D01*
X013750Y003115D01*
X013750Y003565D01*
X014100Y003950D01*
X014100Y004750D01*
X013150Y004159D02*
X013220Y003575D01*
X011700Y004259D02*
X011519Y004240D01*
X010940Y004240D01*
X010950Y004200D01*
X010940Y004240D02*
X010025Y004240D01*
X005900Y004134D02*
X005894Y004450D01*
X006450Y012150D02*
X004650Y012150D01*
X003082Y012768D01*
X002450Y013268D01*
D35*
X010675Y006345D02*
X010815Y005810D01*
X010470Y005955D01*
X011874Y002474D02*
X011920Y002400D01*
D36*
X011180Y002400D01*
D37*
X010880Y002930D02*
X010314Y002700D01*
X010550Y006350D02*
X009875Y006340D01*
D38*
X013050Y004259D02*
X013150Y004159D01*
X013220Y002905D02*
X013115Y002800D01*
X020430Y007400D02*
X020450Y007440D01*
X020450Y008050D01*
X020350Y008175D01*
X020095Y008295D01*
X019760Y008480D01*
X019667Y008615D01*
X016835Y010290D02*
X016840Y010330D01*
X016820Y010340D01*
X016820Y010375D02*
X016834Y010399D01*
X014868Y010400D02*
X014865Y010389D01*
X014866Y010399D01*
D39*
X012915Y003100D02*
X011995Y003100D01*
D40*
X013940Y008313D02*
X014500Y008313D01*
X016450Y008706D02*
X017149Y008706D01*
X016670Y009940D02*
X016835Y010060D01*
X016835Y010290D01*
X014868Y010400D02*
X014868Y011370D01*
D41*
X015013Y009887D02*
X015160Y009795D01*
X016560Y009795D02*
X016670Y009920D01*
D42*
X013710Y007915D03*
X010045Y005540D03*
X009440Y005150D03*
X009210Y004775D03*
X010030Y004775D03*
X008135Y005160D03*
X002433Y006902D03*
X002420Y010382D03*
D43*
X013060Y002310D03*
D44*
X019900Y006300D02*
X020090Y006490D01*
X020970Y006490D01*
X021250Y006150D01*
X021450Y006150D01*
X022450Y006150D02*
X022450Y007150D01*
X023450Y007150D02*
X023450Y006150D01*
X023100Y005650D01*
D45*
X010025Y004240D02*
X010020Y004240D01*
X010025Y004240D02*
X009050Y004235D01*
X007500Y002650D01*
X007384Y002650D01*
X005900Y004134D01*
M02*
