%
M48
M72
T01C0.0110
T02C0.0140
T03C0.0150
T04C0.0200
T05C0.0335
T06C0.0350
T07C0.0354
T08C0.0370
T09C0.0394
T10C0.0400
T11C0.0520
T12C0.1260
%
T01
X11355Y3425
X11670Y3425
X14100Y4750
X13825Y6410
X14600Y7350
X14000Y7520
X14200Y7995
X13590Y8370
X16190Y7110
X17350Y7850
X18100Y7980
X19000Y7950
X20200Y9600
X19730Y9820
X18875Y10105
X18510Y9790
X18720Y10485
X18125Y10950
X18620Y11305
X17150Y10600
X16690Y11420
X12450Y12750
X17750Y5500
X19300Y5250
X21170Y4600
X16350Y4200
X24950Y12710
X29500Y7100
T02
X13060Y2310
T03
X10030Y4775
X9440Y5150
X9210Y4775
X10045Y5540
X8135Y5160
X2433Y6902
X2420Y10382
X13710Y7915
T04
X15145Y8385
X16555Y8405
X16560Y9795
X15160Y9795
X15075Y11640
X14960Y12535
X13710Y12325
X12780Y11765
X12410Y13460
X4660Y11510
X6700Y5990
X6205Y5720
X6700Y5500
X7015Y5150
X6760Y4665
X6435Y5110
X7595Y4295
X7830Y3900
X7200Y3900
X6730Y4165
X8370Y4695
X8555Y5160
X9025Y5155
X9210Y5555
X8360Y5575
X7590Y6040
X10585Y5145
X10910Y5240
X10940Y4765
X10950Y4200
X12515Y3635
X10850Y5750
X19600Y6650
X20300Y5550
X21560Y8110
X27760Y5710
X29560Y5760
X25410Y2110
X28845Y11375
T05
X21450Y3150
X20450Y3150
X19450Y3150
X19450Y2150
X20450Y2150
X21450Y2150
X18450Y2150
X17450Y2150
X16450Y2150
X15450Y2150
X14450Y2150
X14450Y3150
X15450Y3150
X16450Y3150
X17450Y3150
X18450Y3150
X11450Y13150
X10450Y13150
X9450Y13150
X8450Y13150
X7450Y13150
X6450Y13150
T06
X6450Y12150
X7450Y12150
X8450Y12150
X9450Y12150
X10450Y12150
X11450Y12150
X11450Y11150
X10450Y11150
X9450Y11150
X8450Y11150
X7450Y11150
X6450Y11150
X19450Y11150
X20450Y11150
X21450Y11150
X22450Y11150
X22450Y12150
X21450Y12150
X20450Y12150
X19450Y12150
X25450Y11150
X26450Y11150
X26450Y10150
X25450Y10150
X25450Y9150
X26450Y9150
X26450Y8150
X25450Y8150
X24450Y4150
X22450Y4150
T07
X22450Y13150
X21450Y13150
X20450Y13150
X19450Y13150
X18450Y13150
X17450Y13150
X16450Y13150
X15450Y13150
X14450Y13150
X13450Y13150
X23450Y13150
X24450Y13150
X25450Y13150
X26450Y13150
X27450Y13150
X28450Y13150
T08
X23450Y6150
X22450Y6150
X21450Y6150
X21450Y5150
X22450Y5150
X23450Y5150
T09
X3844Y7784
X3844Y9516
T10
X22450Y7150
X23450Y7150
X27450Y7900
X27450Y8900
X28450Y9150
X29450Y9400
X28450Y10150
X29450Y10400
T11
X4713Y2600
X5894Y4450
X3531Y4450
T12
X4595Y13400
X23850Y2300
M30
